<?xml version="1.0" encoding="utf-8"?>
<!-- Generator: Adobe Illustrator 27.5.0, SVG Export Plug-In . SVG Version: 6.00 Build 0)  -->
<!DOCTYPE svg PUBLIC "-//W3C//DTD SVG 1.1//EN" "http://www.w3.org/Graphics/SVG/1.1/DTD/svg11.dtd" [
	<!ENTITY ns_extend "http://ns.adobe.com/Extensibility/1.0/">
	<!ENTITY ns_ai "http://ns.adobe.com/AdobeIllustrator/10.0/">
	<!ENTITY ns_graphs "http://ns.adobe.com/Graphs/1.0/">
	<!ENTITY ns_vars "http://ns.adobe.com/Variables/1.0/">
	<!ENTITY ns_imrep "http://ns.adobe.com/ImageReplacement/1.0/">
	<!ENTITY ns_sfw "http://ns.adobe.com/SaveForWeb/1.0/">
	<!ENTITY ns_custom "http://ns.adobe.com/GenericCustomNamespace/1.0/">
	<!ENTITY ns_adobe_xpath "http://ns.adobe.com/XPath/1.0/">
]>
<svg version="1.1" id="Слой_1" xmlns:x="&ns_extend;" xmlns:i="&ns_ai;" xmlns:graph="&ns_graphs;"
	 xmlns="http://www.w3.org/2000/svg" xmlns:xlink="http://www.w3.org/1999/xlink" x="0px" y="0px" viewBox="0 0 200 200"
	 style="enable-background:new 0 0 200 200;" xml:space="preserve">
<style type="text/css">
	.st0{fill:#FFFFFF;}
	.st1{fill:#D9D9D9;}
	.st2{opacity:0.1;fill:#D9D9D9;}
	.st3{fill:#FF000D;}
	.st4{fill:#D22A2C;}
	.st5{opacity:0.5;fill:#D22A2C;}
	.st6{fill:none;}
	.st7{opacity:0.5;}
</style>
<metadata>
	<sfw  xmlns="&ns_sfw;">
		<slices></slices>
		<sliceSourceBounds  bottomLeftOrigin="true" height="200" width="200" x="0" y="-200"></sliceSourceBounds>
	</sfw>
</metadata>
<path d="M155.1,200H44.9C20.1,200,0,179.9,0,155.1V44.9C0,20.1,20.1,0,44.9,0h110.1C179.9,0,200,20.1,200,44.9v110.1
	C200,179.9,179.9,200,155.1,200z"/>
<g>
	<g>
		<path class="st0" d="M97.5,69.1l-1.6-0.7c-2-1-2.9-3.4-2-5.4l1.6-3.4c1-2,3.4-2.9,5.4-2l1.6,0.7L97.5,69.1z"/>
		<rect x="87.2" y="150.6" class="st0" width="6.7" height="13.1"/>
		<polygon class="st0" points="77.7,132 71.9,132 90.2,154.7 96,154.7 		"/>
		<polygon class="st0" points="76.4,132 70.6,132 88.9,154.7 94.7,154.7 		"/>
		<polygon class="st0" points="111,147 89.2,123.7 88.8,126 107.7,147.8 		"/>
		<polygon class="st0" points="88.8,126 85.6,126 103.9,148.7 107.7,147.8 		"/>
		<path class="st0" d="M88.4,128.1l-15,9.6c-1.6,1-3.7,0.6-4.8-0.9l0,0c-0.8-1.1-0.9-2.5-0.3-3.7l10.5-20.5l2.6-0.4l4.3,1.4
			l-4.3,4.4v5.3l7,0.2V128.1z"/>
		<path class="st0" d="M110.6,103.7h-3L85.1,126h5l21.1-21C111.7,104.6,111.3,103.7,110.6,103.7z"/>
		<polygon class="st0" points="108,87.4 109.7,79.9 79.7,109.7 82.2,113 		"/>
		
			<rect x="87.1" y="105.1" transform="matrix(0.2474 -0.9689 0.9689 0.2474 -43.776 171.9044)" class="st0" width="3.4" height="18"/>
		<polygon class="st0" points="111.5,151.6 111.5,143.6 99,143.6 91.8,151.7 91.8,159 		"/>
		<circle class="st0" cx="71.4" cy="134.6" r="2.3"/>
		<circle class="st0" cx="80.7" cy="111.3" r="2.3"/>
		<circle class="st0" cx="90.9" cy="155.9" r="1.7"/>
		<circle class="st0" cx="106.6" cy="148.7" r="1.1"/>
		<rect x="108.3" y="83.7" class="st0" width="3.9" height="20"/>
		<circle class="st0" cx="110" cy="103.7" r="2.3"/>
		<path class="st0" d="M92.9,162.9h-5.5c-0.9,0-1.7,0.8-1.7,1.7v4.8h6.2C93.1,167.1,93.7,164.6,92.9,162.9z"/>
		<path class="st0" d="M96.5,164.5h-0.9c0-0.9-0.8-1.7-1.7-1.7h-1c0.2,0.5,0.3,1.1,0.3,1.7h-8.4v1.6h8.3c-0.2,1.1-0.6,2.2-1.2,3.2
			h3.7v-3.2h0.9V164.5z"/>
		<path class="st0" d="M153.8,59.7c-0.1-0.1-0.3-0.2-0.4-0.3c-0.5-0.2-1.2-0.1-2,0.4c2.1,2.3,0.2,12.4-4.5,23.6
			c-4.9,11.7-11.1,20.3-14.1,19.7c0.1,1,0.4,1.7,0.8,2.1c0.1,0.2,0.3,0.3,0.5,0.3c2.9,1.2,9.5-8.2,14.9-20.9
			C154,72.5,156,61.7,153.8,59.7z"/>
		<path class="st0" d="M147.3,83.9c2.7-6.9-2.8-11.2-4.2-11.8c-1.4-0.6-4.3,2.7-6.4,7.5c-2.1,4.8-2.6,9.2-1.2,9.8
			C136.9,89.9,144.5,91,147.3,83.9z"/>
		<path class="st0" d="M134,105.6c-2.1-2.3-0.5-13.3,4.5-25.2c5.3-12.7,12-22.1,14.9-20.9c0.1,0.1-0.2,0.6-0.1,0.7
			c0,0-0.1-0.3,0.2-0.6c-2.6-2.2-5.4-3.1-8.5-4c0,0,0,0,0,0c-1.4-0.4-2.9-0.7-4.4-0.7c-0.1,0-0.1,0-0.2,0c-14.4,0-26,11.7-26,26
			c0,8.7,4.3,16.5,10.9,21.2c0.1,0.1,0.2,0.1,0.3,0.2C128.1,103.5,131.1,105.1,134,105.6z"/>
		<path class="st0" d="M113.1,80.8c0-13.3,9.6-24.5,22.3-26.9c-3.2-0.1-6.9,0.3-11.1,1.5c-2.8,0.8-5.6,1-8.5,0.9
			c-1.3-0.1-2.7-0.1-4-0.3c-2.1-0.2-4.1-0.6-6.1-1.6c-0.9-0.4-1.8-0.7-2.7-1.1c-0.3,0.1-0.5,0.2-0.7,0.2c-0.5,0.9-1.9,3.6-3.1,6
			c-1.3,2.4-2.3,4.9-3.1,7.5c-0.8,2.5-1.7,5.4-2,6.3c0.1,0.1,0.2,0.4,0.3,0.6c0.9,0.4,1.8,0.8,2.7,1.1c2,0.7,3.8,1.9,5.4,3.2
			c1,0.8,2,1.7,3,2.6c2.2,2,4,4.1,5.4,6.6c2.4,4.3,5.2,7.5,7.7,9.8C115,92.5,113.1,86.7,113.1,80.8z"/>
		<g>
			<path class="st0" d="M125,176v-0.3c0-2.6-2-4.8-4.7-5l-28-1.7l-1.7-0.1l-29.7,1.8c-2.6,0.2-4.7,2.3-4.7,5v0.3H125z"/>
			<path class="st0" d="M129.1,180.2v-2.8H125H56.2h-4v2.9v0.2c-6.7,0.2-10.7,0.4-10.7,0.6c0,0.6,26.2,1.1,58.5,1.1
				s58.5-0.5,58.5-1.1C158.5,180.7,146.6,180.4,129.1,180.2z"/>
		</g>
	</g>
	<g>
		<g id="XMLID_73_">
			<g id="XMLID_266_">
				<path class="st1" d="M124.6,48.8c4-2.7,7.8-5.7,11.1-9.2c0,0-12.2,2.4-27.7,9.4C92.7,56,86.9,61.9,86.8,62
					C100.3,61.5,113.4,56.3,124.6,48.8z"/>
				<path class="st2" d="M124.6,48.8c4-2.7,7.8-5.7,11.1-9.2c0,0-12.2,2.4-27.7,9.4C92.7,56,86.9,61.9,86.8,62
					C100.3,61.5,113.4,56.3,124.6,48.8z"/>
			</g>
			<g id="XMLID_58_">
				<path class="st3" d="M129.5,35.9c-0.9-1.5-1.9-3-3-4.3c-1.5-1.8-3.4-3.2-5.3-4.6c-5.1-3.8-10.5-7.8-16.8-9
					c-1.4-0.2-2.8-0.4-4.1-0.1c-0.2,0-0.4,0.1-0.6,0.1c-2.4,0.5-4.6,2-6.7,3.4c-2.9,1.9-5.9,3.8-9,5.5c-1.9,1.1-3.9,2.1-5.6,3.5
					c-1.4,1.1-2.6,2.3-3.4,3.9c-2.5,4.7-0.9,10.3-1,15.6c0,2.3-0.4,4.7-0.5,7c-0.2,7.3,3.1,14.2,6.2,20.8c0,0,3.2,5.5,4.2,5
					c1-0.6,0.6-2.2,0.6-2.2c0.7-4.7,1.2-9.5,1.4-14.2c0.1-2.6,0.2-5.2,1-7.7c0.2-0.7,0.5-1.4,0.8-2c0,1.4,0.1,2.8,0.2,4.2
					c0.5,4.4,1.6,8.6,2.7,12.9c0,0,4.6,0.4,13-2c3.8-1.1,8.3-2.7,13.5-5.2c16.7-8,20.4-17.5,20.4-17.5
					C134.8,44.5,132.2,40.2,129.5,35.9z"/>
			</g>
			<g id="XMLID_56_">
				<path class="st4" d="M98.4,27.3c-0.1-0.3-0.2-0.5-0.4-0.8c-0.4,3.5-2.1,7-3.8,10.2c-0.7,1.4-1.5,2.8-2.2,4.2
					c-1.2,2.2-2.4,4.5-3.2,6.9c-0.9,2.8-1.3,5.8-1.3,8.8c0,1.4,0.1,2.8,0.2,4.2c0.5,4.4,1.6,8.6,2.7,12.9c0,0,4.6,0.4,13-2
					c-1.6-3-3.1-5.8-3.1-5.8c-2.7-5.9-3.5-12.7-2.2-19.1c0.7-3.6,2.1-7.1,2.1-10.8C100.4,33,99.6,30,98.4,27.3z"/>
				<path class="st5" d="M98.4,27.3c-0.1-0.3-0.2-0.5-0.4-0.8c-0.4,3.5-2.1,7-3.8,10.2c-0.7,1.4-1.5,2.8-2.2,4.2
					c-1.2,2.2-2.4,4.5-3.2,6.9c-0.9,2.8-1.3,5.8-1.3,8.8c0,1.4,0.1,2.8,0.2,4.2c0.5,4.4,1.6,8.6,2.7,12.9c0,0,4.6,0.4,13-2
					c-1.6-3-3.1-5.8-3.1-5.8c-2.7-5.9-3.5-12.7-2.2-19.1c0.7-3.6,2.1-7.1,2.1-10.8C100.4,33,99.6,30,98.4,27.3z"/>
			</g>
			<g id="XMLID_37_">
				<path class="st4" d="M90.1,27.6c1.6-1.4,2.8-3.2,4.2-4.8c1.6-1.8,3.4-3.4,5.4-4.8c-2.4,0.5-4.6,2-6.7,3.4
					c-2.9,1.9-5.9,3.8-9,5.5c-1.9,1.1-3.9,2.1-5.6,3.5c1.6,0,3.3,0.3,4.9,0.2C85.8,30.4,88.2,29.3,90.1,27.6z"/>
				<path class="st5" d="M90.1,27.6c1.6-1.4,2.8-3.2,4.2-4.8c1.6-1.8,3.4-3.4,5.4-4.8c-2.4,0.5-4.6,2-6.7,3.4
					c-2.9,1.9-5.9,3.8-9,5.5c-1.9,1.1-3.9,2.1-5.6,3.5c1.6,0,3.3,0.3,4.9,0.2C85.8,30.4,88.2,29.3,90.1,27.6z"/>
			</g>
			<g id="XMLID_241_">
				<polygon class="st1" points="135.6,39.6 135.6,39.6 135.6,39.6 				"/>
			</g>
			<g id="XMLID_249_">
				<polygon class="st6" points="86.8,62 86.8,62 86.8,62 				"/>
			</g>
			<g id="XMLID_257_">
				<path class="st1" d="M141.8,47.6c-1.6-3-3.6-5.8-6.2-8l0,0c-3.3,3.5-7.1,6.5-11.1,9.2c-11.2,7.6-24.3,12.7-37.8,13.3
					c0,0,0,0,0,0c0.1,4.6,1.1,9.2,2.7,13.5c5.4,0.8,11-0.1,16.4-1.4c4.2-1,8.5-2.2,12.5-3.9c3.8-1.7,7.4-3.8,10.9-6.1
					c5.3-3.4,10.5-7.2,14.8-11.8C143.4,50.7,142.7,49.1,141.8,47.6z"/>
				<path class="st2" d="M141.8,47.6c-1.6-3-3.6-5.8-6.2-8l0,0c-3.3,3.5-7.1,6.5-11.1,9.2c-11.2,7.6-24.3,12.7-37.8,13.3
					c0,0,0,0,0,0c0.1,4.6,1.1,9.2,2.7,13.5c5.4,0.8,11-0.1,16.4-1.4c4.2-1,8.5-2.2,12.5-3.9c3.8-1.7,7.4-3.8,10.9-6.1
					c5.3-3.4,10.5-7.2,14.8-11.8C143.4,50.7,142.7,49.1,141.8,47.6z"/>
			</g>
			<g id="XMLID_36_">
				<path class="st1" d="M125.6,53.1c1-2,1.8-4.2,2.1-6.5c-1,0.7-2,1.5-3.1,2.2c-11.2,7.6-24.3,12.7-37.8,13.3c0,0,0,0,0,0
					c0.1,4.6,1.1,9.2,2.7,13.5c5.3,0.8,11-0.1,16.3-1.4c1.6-1.1,3.1-2.2,4.7-3.4C116.6,65.9,122.1,60,125.6,53.1z"/>
			</g>
			<g id="XMLID_480_">
				<path class="st1" d="M81.8,75.3c-3.7-0.5-7.5,1.8-8.8,5.3c-0.3,0.7-0.4,1.5-0.5,2.3c-0.2,2.4,0.8,4.9,2.6,6.6
					c2,1.9,4.9,2.7,7.5,2c2.6-0.7,4.8-2.8,5.5-5.4c0.5-2,0.2-4.1-0.7-6c-0.9-1.8-1.4-2.7-3-4C84.2,75.9,82.5,75.2,81.8,75.3"/>
			</g>
			<g id="XMLID_24_">
				<path class="st0" d="M91.7,64.6c2.3-1,5-0.9,7.5-1.4c3-0.6,5.9-1.6,8.7-3c0.9-0.4,2.2,0.5,1.9,1.5c0,0.1-0.1,0.3-0.1,0.4
					c-0.2,0.8-1,1.4-1.8,1c-0.1,0-0.1-0.1-0.2-0.1c-0.3-0.1-0.5-0.4-0.6-0.8c0-0.2,0-0.4-0.1-0.6c0.6,0.4,1.3,0.8,1.9,1.2
					c-4.6,2.1-12.2,5.1-17.2,2.9C91.2,65.6,91.2,64.9,91.7,64.6L91.7,64.6z"/>
			</g>
			<g id="XMLID_25_">
				<path class="st0" d="M77.1,80.3c-0.1,1.3-0.5,2.5,0,3.7c0.5,1.3,1.6,1.9,2.9,2.3c1.6,0.5,0.8,3.2-0.8,2.8
					c-3.8-1-7.4-6.6-3.7-9.8C76.3,78.7,77.2,79.5,77.1,80.3L77.1,80.3z"/>
			</g>
		</g>
		<g id="XMLID_20_" class="st7">
			<g>
				<path class="st0" d="M79.2,39.3c-1.8,3.6,1,6.9,0.9,10.6c-0.1,3.5-1,6.8-1,10.3c0,0.4-0.5,0.8-0.9,0.5
					c-3.1-3.2-0.3-7.9-0.5-11.7c-0.2-3.2-3.5-8.5,0.8-10.4C79,38.4,79.4,38.9,79.2,39.3L79.2,39.3z"/>
			</g>
			<g class="st7">
				<path class="st0" d="M79.2,39.3c-1.8,3.6,1,6.9,0.9,10.6c-0.1,3.5-1,6.8-1,10.3c0,0.4-0.5,0.8-0.9,0.5
					c-3.1-3.2-0.3-7.9-0.5-11.7c-0.2-3.2-3.5-8.5,0.8-10.4C79,38.4,79.4,38.9,79.2,39.3L79.2,39.3z"/>
			</g>
		</g>
		<g id="XMLID_23_" class="st7">
			<g>
				<path class="st0" d="M104.8,21.7c2.7-0.5,5.3,1.6,7.4,3.1c1.9,1.3,5.5,3.6,5,6.3c-0.1,0.4-0.5,0.7-0.9,0.7
					c-2.1-0.5-3.4-3-5.1-4.3c-2-1.5-4.2-3.4-6.6-4.2C103.7,22.9,104.1,21.8,104.8,21.7L104.8,21.7z"/>
			</g>
			<g class="st7">
				<path class="st0" d="M104.8,21.7c2.7-0.5,5.3,1.6,7.4,3.1c1.9,1.3,5.5,3.6,5,6.3c-0.1,0.4-0.5,0.7-0.9,0.7
					c-2.1-0.5-3.4-3-5.1-4.3c-2-1.5-4.2-3.4-6.6-4.2C103.7,22.9,104.1,21.8,104.8,21.7L104.8,21.7z"/>
			</g>
		</g>
	</g>
</g>
</svg>
