<svg width="81" height="80" viewBox="0 0 81 80" fill="none" xmlns="http://www.w3.org/2000/svg">
<path d="M76.75 2.5H4.25C3.91848 2.5 3.60054 2.6317 3.36612 2.86612C3.1317 3.10054 3 3.41848 3 3.75V8.75C3 9.08152 3.1317 9.39946 3.36612 9.63388C3.60054 9.8683 3.91848 10 4.25 10H15.5V30H11.75C11.4784 30.0001 11.2142 30.0886 10.9974 30.2522C10.7806 30.4158 10.6229 30.6455 10.5483 30.9067L5.54833 48.4067C5.4952 48.5927 5.48596 48.7885 5.52135 48.9787C5.55674 49.1688 5.63578 49.3482 5.75227 49.5027C5.86875 49.6571 6.01949 49.7824 6.19262 49.8687C6.36575 49.955 6.55655 50 6.75 50H10.6267C10.9152 51.4111 11.6821 52.6792 12.7979 53.5899C13.9137 54.5007 15.3097 54.9981 16.75 54.9981C18.1903 54.9981 19.5863 54.5007 20.7021 53.5899C21.8179 52.6792 22.5848 51.4111 22.8733 50H26.75C26.9434 50 27.1342 49.955 27.3074 49.8687C27.4805 49.7824 27.6313 49.6571 27.7477 49.5027C27.8642 49.3482 27.9433 49.1688 27.9786 48.9787C28.014 48.7885 28.0048 48.5927 27.9517 48.4067L22.9517 30.9067C22.8771 30.6455 22.7194 30.4158 22.5026 30.2522C22.2858 30.0886 22.0216 30.0001 21.75 30H18V10H39.25V52.5H35.5C35.2284 52.5001 34.9642 52.5886 34.7474 52.7522C34.5306 52.9158 34.3729 53.1455 34.2983 53.4067L29.2983 70.9067C29.2452 71.0927 29.236 71.2885 29.2713 71.4787C29.3067 71.6688 29.3858 71.8482 29.5023 72.0027C29.6187 72.1571 29.7695 72.2824 29.9426 72.3687C30.1157 72.455 30.3066 72.5 30.5 72.5H34.3767C34.6652 73.9111 35.4321 75.1792 36.5479 76.0899C37.6637 77.0007 39.0597 77.4981 40.5 77.4981C41.9403 77.4981 43.3363 77.0007 44.4521 76.0899C45.5679 75.1792 46.3348 73.9111 46.6233 72.5H50.5C50.6934 72.5 50.8842 72.455 51.0574 72.3687C51.2305 72.2824 51.3813 72.1571 51.4977 72.0027C51.6142 71.8482 51.6933 71.6688 51.7286 71.4787C51.764 71.2885 51.7548 71.0927 51.7017 70.9067L46.7017 53.4067C46.6271 53.1455 46.4694 52.9158 46.2526 52.7522C46.0358 52.5886 45.7716 52.5001 45.5 52.5H41.75V10H63V25H59.25C58.9784 25.0001 58.7142 25.0886 58.4974 25.2522C58.2806 25.4158 58.1229 25.6455 58.0483 25.9067L53.0483 43.4067C52.9952 43.5927 52.986 43.7885 53.0213 43.9787C53.0567 44.1688 53.1358 44.3482 53.2523 44.5027C53.3687 44.6571 53.5195 44.7824 53.6926 44.8687C53.8657 44.955 54.0565 45 54.25 45H58.1267C58.4152 46.4111 59.1821 47.6792 60.2979 48.5899C61.4137 49.5007 62.8097 49.9981 64.25 49.9981C65.6903 49.9981 67.0863 49.5007 68.2021 48.5899C69.3179 47.6792 70.0848 46.4111 70.3733 45H74.25C74.4434 45 74.6342 44.955 74.8074 44.8687C74.9805 44.7824 75.1312 44.6571 75.2477 44.5027C75.3642 44.3482 75.4433 44.1688 75.4786 43.9787C75.514 43.7885 75.5048 43.5927 75.4517 43.4067L70.4517 25.9067C70.3771 25.6455 70.2194 25.4158 70.0026 25.2522C69.7858 25.0886 69.5216 25.0001 69.25 25H65.5V10H76.75C77.0815 10 77.3995 9.8683 77.6339 9.63388C77.8683 9.39946 78 9.08152 78 8.75V3.75C78 3.41848 77.8683 3.10054 77.6339 2.86612C77.3995 2.6317 77.0815 2.5 76.75 2.5ZM16.75 52.5C15.9772 52.4968 15.2242 52.2549 14.5941 51.8074C13.964 51.3599 13.4876 50.7286 13.23 50H20.27C20.0124 50.7286 19.536 51.3599 18.9059 51.8074C18.2758 52.2549 17.5228 52.4968 16.75 52.5ZM20.8067 32.5L25.0933 47.5H8.40667L12.6933 32.5H20.8067ZM40.5 75C39.7272 74.9968 38.9742 74.7549 38.3441 74.3074C37.714 73.8599 37.2376 73.2286 36.98 72.5H44.02C43.7624 73.2286 43.286 73.8599 42.6559 74.3074C42.0258 74.7549 41.2728 74.9968 40.5 75ZM44.5567 55L48.8433 70H32.1567L36.4433 55H44.5567ZM64.25 47.5C63.4772 47.4968 62.7242 47.2549 62.0941 46.8074C61.464 46.3599 60.9876 45.7286 60.73 45H67.77C67.5124 45.7286 67.036 46.3599 66.4059 46.8074C65.7758 47.2549 65.0228 47.4968 64.25 47.5ZM68.3067 27.5L72.5933 42.5H55.9067L60.1933 27.5H68.3067ZM75.5 7.5H5.5V5H75.5V7.5Z" fill="#D0A567"/>
</svg>
