<svg width="81" height="80" viewBox="0 0 81 80" fill="none" xmlns="http://www.w3.org/2000/svg">
<g clip-path="url(#clip0_150_1045)">
<mask id="mask0_150_1045" style="mask-type:luminance" maskUnits="userSpaceOnUse" x="0" y="0" width="81" height="80">
<path d="M0.5 0H80.5V80H0.5V0Z" fill="white"/>
</mask>
<g mask="url(#mask0_150_1045)">
<path d="M39.6232 70.1712C39.6232 68.1484 38.8196 66.2084 37.3892 64.778C35.9589 63.3476 34.0188 62.544 31.996 62.544C29.9731 62.544 28.0331 63.3476 26.6027 64.778C25.1724 66.2084 24.3688 68.1484 24.3688 70.1712C24.3688 72.1941 25.1724 74.1341 26.6027 75.5645C28.0331 76.9949 29.9731 77.7984 31.996 77.7984C34.0188 77.7984 35.9589 76.9949 37.3892 75.5645C38.8196 74.1341 39.6232 72.1941 39.6232 70.1712ZM27.0744 70.1712C27.0744 69.5249 27.2017 68.8849 27.449 68.2878C27.6964 67.6907 28.0589 67.1482 28.5159 66.6911C28.9729 66.2341 29.5155 65.8716 30.1126 65.6243C30.7097 65.3769 31.3497 65.2496 31.996 65.2496C32.6423 65.2496 33.2823 65.3769 33.8794 65.6243C34.4765 65.8716 35.0191 66.2341 35.4761 66.6911C35.9331 67.1482 36.2956 67.6907 36.543 68.2878C36.7903 68.8849 36.9176 69.5249 36.9176 70.1712C36.9176 71.4765 36.3991 72.7284 35.4761 73.6513C34.5531 74.5743 33.3013 75.0928 31.996 75.0928C30.6907 75.0928 29.4389 74.5743 28.5159 73.6513C27.5929 72.7284 27.0744 71.4765 27.0744 70.1712ZM60.2456 77.7984C62.2685 77.7984 64.2085 76.9949 65.6388 75.5645C67.0692 74.1341 67.8728 72.1941 67.8728 70.1712C67.8728 68.1484 67.0692 66.2084 65.6388 64.778C64.2085 63.3476 62.2685 62.544 60.2456 62.544C58.2227 62.544 56.2827 63.3476 54.8524 64.778C53.422 66.2084 52.6184 68.1484 52.6184 70.1712C52.6184 72.1941 53.422 74.1341 54.8524 75.5645C56.2827 76.9949 58.2227 77.7984 60.2456 77.7984ZM60.2456 65.2496C61.5509 65.2496 62.8027 65.7682 63.7257 66.6911C64.6487 67.6141 65.1672 68.8659 65.1672 70.1712C65.1672 71.4765 64.6487 72.7284 63.7257 73.6513C62.8027 74.5743 61.5509 75.0928 60.2456 75.0928C58.9403 75.0928 57.6885 74.5743 56.7655 73.6513C55.8425 72.7284 55.324 71.4765 55.324 70.1712C55.324 68.8659 55.8425 67.6141 56.7655 66.6911C57.6885 65.7682 58.9403 65.2496 60.2456 65.2496ZM1.85199 4.83043H10.1032C11.4173 4.82541 12.6896 5.29209 13.6887 6.14563C14.6879 6.99917 15.3476 8.1829 15.548 9.48163L22.0792 50.7392C22.377 52.6753 23.3601 54.4401 24.8495 55.7125C26.3388 56.9849 28.2355 57.6802 30.1944 57.672H70.5672C70.9179 57.66 71.2503 57.5122 71.4941 57.2598C71.738 57.0074 71.8743 56.6702 71.8743 56.3192C71.8743 55.9683 71.738 55.6311 71.4941 55.3787C71.2503 55.1263 70.9179 54.9785 70.5672 54.9664H30.196C28.8822 54.9711 27.6103 54.5042 26.6114 53.6507C25.6126 52.7972 24.9531 51.6137 24.7528 50.3152L23.6424 43.3008H64.9912C66.6988 43.2996 68.3637 42.7669 69.7548 41.7766C71.1459 40.7863 72.1943 39.3876 72.7544 37.7744L80.4264 15.6336C80.4971 15.4298 80.518 15.2121 80.4874 14.9985C80.4568 14.785 80.3755 14.5819 80.2504 14.4062C80.1253 14.2305 79.9599 14.0872 79.7681 13.9885C79.5763 13.8897 79.3637 13.8383 79.148 13.8384H18.9752L18.22 9.05763C17.9221 7.12126 16.9388 5.35623 15.4491 4.08383C13.9594 2.81142 12.0623 2.11624 10.1032 2.12483H1.85199C1.50126 2.1369 1.16892 2.28471 0.92507 2.53709C0.68122 2.78947 0.544922 3.12669 0.544922 3.47763C0.544922 3.82858 0.68122 4.1658 0.92507 4.41818C1.16892 4.67056 1.50126 4.81837 1.85199 4.83043ZM77.2456 16.5424L70.1976 36.888C69.8214 37.9699 69.118 38.908 68.1849 39.5723C67.2517 40.2365 66.135 40.594 64.9896 40.5952H23.212L19.404 16.5424H77.2456Z" fill="#D0A567"/>
<path d="M36.5479 26.8193L44.6246 34.8961L58.4695 21.0513" stroke="#D0A567" stroke-width="1.8" stroke-linecap="round"/>
</g>
</g>
<defs>
<clipPath id="clip0_150_1045">
<rect width="80" height="80" fill="white" transform="translate(0.5)"/>
</clipPath>
</defs>
</svg>
