<svg width="81" height="80" viewBox="0 0 81 80" fill="none" xmlns="http://www.w3.org/2000/svg">
<g clip-path="url(#clip0_150_1054)">
<path d="M76.8293 12.2447L62.9062 6.44707C62.1444 6.13121 61.3278 5.96863 60.5031 5.96863C59.6784 5.96863 58.8618 6.13121 58.0999 6.44707L45.9274 11.509C45.6405 11.6286 45.4129 11.8573 45.2947 12.1447C45.1764 12.4321 45.1772 12.7547 45.2968 13.0416C45.4164 13.3284 45.6451 13.556 45.9325 13.6743C46.2199 13.7925 46.5425 13.7918 46.8293 13.6722L59.0019 8.61021C59.478 8.41279 59.9884 8.31118 60.5039 8.31118C61.0193 8.31118 61.5297 8.41279 62.0058 8.61021L75.9258 14.4094C77.2811 14.9741 78.1564 16.2447 78.1564 17.6455V67.7631C78.1564 69.7114 76.4827 71.2973 74.4246 71.2973H72.525C72.2143 71.2973 71.9162 71.4207 71.6965 71.6405C71.4767 71.8602 71.3533 72.1583 71.3533 72.469C71.3533 72.7798 71.4767 73.0778 71.6965 73.2976C71.9162 73.5173 72.2143 73.6408 72.525 73.6408H74.4246C77.7737 73.6408 80.4999 71.0055 80.4999 67.7631V17.6455C80.4999 15.2957 79.0584 13.1749 76.8293 12.2447Z" fill="#D0A567"/>
<path d="M73.5055 71.2972H47.7267C48.5376 70.3749 48.9816 69.2062 48.9816 67.9686C48.9816 66.7341 48.5345 65.6031 47.7941 64.7247C48.2673 64.4842 48.6993 64.1702 49.0741 63.7945C50.0263 62.8423 50.5486 61.5764 50.5486 60.2305C50.5497 58.9959 50.0957 57.8041 49.2733 56.8831C50.0506 56.4432 50.6973 55.8051 51.1476 55.0338C51.5978 54.2625 51.8355 53.3856 51.8365 52.4925C51.8365 51.2125 51.3565 50.0423 50.5659 49.1513C50.9674 48.9286 51.3361 48.6504 51.6718 48.3168C52.6224 47.3631 53.1463 46.0972 53.1463 44.7529C53.1438 43.4168 52.612 42.1362 51.6674 41.1913C50.7228 40.2464 49.4423 39.7142 48.1063 39.7113H42.8514V17.6454C42.8514 16.2447 43.7267 14.9741 45.0788 14.4094L47.2122 13.5231C47.4992 13.4035 47.727 13.1747 47.8454 12.8872C47.9638 12.5996 47.9631 12.2768 47.8435 11.9898C47.7239 11.7027 47.4952 11.4749 47.2076 11.3565C46.9201 11.2381 46.5973 11.2388 46.3102 11.3584L44.1769 12.2462C41.9494 13.1764 40.5063 15.2956 40.5063 17.6454V39.7113H35.6122C37.242 34.5584 37.1024 29.1811 35.1996 22.9396C34.9125 22.0004 34.3292 21.1794 33.5369 20.5992C32.7488 20.0166 31.7937 19.7041 30.8137 19.7082C30.1902 19.7057 29.5729 19.8314 29 20.0775C28.4271 20.3236 27.9109 20.6848 27.4835 21.1388C27.0528 21.589 26.7192 22.1229 26.5033 22.7073C26.2875 23.2918 26.194 23.9143 26.2286 24.5364C26.5957 31.5827 23.3455 34.0078 18.8467 37.3647C17.3659 38.4705 15.7471 39.6784 14.1565 41.1607V39.6251C14.1565 39.3143 14.033 39.0162 13.8133 38.7965C13.5935 38.5767 13.2955 38.4533 12.9847 38.4533H1.67176C1.36099 38.4533 1.06295 38.5767 0.843202 38.7965C0.623453 39.0162 0.5 39.3143 0.5 39.6251L0.5 72.8611C0.5 73.509 1.02392 74.0329 1.67176 74.0329H12.9863C13.1402 74.0329 13.2925 74.0026 13.4347 73.9437C13.5769 73.8848 13.706 73.7985 13.8148 73.6897C13.9236 73.5809 14.01 73.4517 14.0688 73.3095C14.1277 73.1674 14.158 73.015 14.158 72.8611V69.9121C16.3839 70.1254 18.009 70.5678 19.5886 71.7788C20.6213 72.5717 21.8851 73.0048 23.1871 73.0117H43.8553C44.7061 73.4244 45.6391 73.6394 46.5847 73.6407H73.5039C73.8147 73.6407 74.1127 73.5173 74.3325 73.2975C74.5522 73.0778 74.6757 72.7798 74.6757 72.469C74.6757 72.1582 74.5522 71.8602 74.3325 71.6404C74.1127 71.4207 73.8163 71.2972 73.5055 71.2972ZM21.0114 69.9184C18.8012 68.2243 16.4404 67.7537 14.1549 67.5576V47.5027C14.1549 47.3488 14.1246 47.1964 14.0657 47.0543C14.0068 46.9121 13.9205 46.7829 13.8117 46.6741C13.7029 46.5653 13.5737 46.479 13.4316 46.4201C13.2894 46.3612 13.137 46.3309 12.9831 46.3309C12.8293 46.3309 12.6769 46.3612 12.5347 46.4201C12.3926 46.479 12.2634 46.5653 12.1546 46.6741C12.0458 46.7829 11.9595 46.9121 11.9006 47.0543C11.8417 47.1964 11.8114 47.3488 11.8114 47.5027V71.6894H2.84353V40.7968H11.8129V48.767C11.8129 49.0778 11.9364 49.3758 12.1561 49.5956C12.3759 49.8153 12.6739 49.9388 12.9847 49.9388C13.2955 49.9388 13.5935 49.8153 13.8133 49.5956C14.033 49.3758 14.1565 49.0778 14.1565 48.767V44.4909C16.1173 42.3262 18.2161 40.7607 20.249 39.2439C24.751 35.8839 29.002 32.7121 28.5706 24.4141C28.5392 23.7929 28.7557 23.2031 29.1839 22.7513C29.3934 22.5291 29.6463 22.3523 29.9269 22.232C30.2075 22.1116 30.5099 22.0503 30.8153 22.0517C31.2938 22.051 31.76 22.2032 32.1458 22.4863C32.5316 22.7694 32.8167 23.1684 32.9596 23.6251C34.8969 29.9827 34.8671 35.3302 32.8639 40.4564C32.7942 40.634 32.7689 40.826 32.7902 41.0156C32.8115 41.2052 32.8788 41.3868 32.9863 41.5445C33.0937 41.7022 33.2381 41.8312 33.4067 41.9204C33.5754 42.0097 33.7633 42.0563 33.9541 42.0564H48.1063C48.6389 42.058 49.1592 42.2171 49.6017 42.5137C50.0442 42.8102 50.3892 43.2309 50.5932 43.723C50.7972 44.215 50.8512 44.7564 50.7484 45.279C50.6456 45.8017 50.3905 46.2823 50.0153 46.6603C49.7657 46.9125 49.4683 47.1123 49.1405 47.2481C48.8127 47.3838 48.4611 47.4528 48.1063 47.4509H43.2922C42.9814 47.4509 42.6833 47.5744 42.4636 47.7941C42.2438 48.0139 42.1204 48.3119 42.1204 48.6227C42.1204 48.9335 42.2438 49.2315 42.4636 49.4513C42.6833 49.671 42.9814 49.7945 43.2922 49.7945H46.7949C47.3278 49.7961 47.8482 49.9553 48.2908 50.252C48.7334 50.5487 49.0784 50.9697 49.2823 51.462C49.4861 51.9543 49.5399 52.4959 49.4367 53.0187C49.3335 53.5415 49.078 54.022 48.7024 54.4C48.4529 54.6519 48.1558 54.8516 47.8283 54.9874C47.5007 55.1231 47.1494 55.1922 46.7949 55.1905H43.2922C42.9814 55.1905 42.6833 55.314 42.4636 55.5337C42.2438 55.7535 42.1204 56.0515 42.1204 56.3623C42.1204 56.6731 42.2438 56.9711 42.4636 57.1909C42.6833 57.4106 42.9814 57.5341 43.2922 57.5341H45.5086C46.0415 57.5353 46.5621 57.6941 47.0048 57.9906C47.4476 58.2872 47.7927 58.7081 47.9966 59.2004C48.2006 59.6927 48.2543 60.2343 48.151 60.7571C48.0477 61.2798 47.792 61.7603 47.4161 62.138C47.1667 62.39 46.8695 62.5896 46.542 62.7254C46.2145 62.8611 45.8632 62.9302 45.5086 62.9286H42.0059C41.6951 62.9286 41.3971 63.052 41.1773 63.2718C40.9576 63.4915 40.8341 63.7896 40.8341 64.1003C40.8341 64.4111 40.9576 64.7092 41.1773 64.9289C41.3971 65.1487 41.6951 65.2721 42.0059 65.2721H43.94C44.4733 65.2727 44.9945 65.4312 45.4378 65.7277C45.8811 66.0242 46.2267 66.4453 46.4309 66.938C46.6352 67.4307 46.6889 67.9728 46.5853 68.496C46.4817 69.0191 46.2255 69.4999 45.849 69.8776C45.3737 70.3529 44.6208 70.6556 44.0576 70.6651L23.1855 70.6682C22.4153 70.6682 21.642 70.4015 21.0114 69.9184ZM64.7322 18.1647C64.7313 16.9803 64.2606 15.8447 63.4233 15.0072C62.586 14.1696 61.4506 13.6985 60.2663 13.6972C59.082 13.6985 57.9465 14.1696 57.1092 15.0072C56.2719 15.8447 55.8012 16.9803 55.8004 18.1647C55.8016 19.3487 56.2725 20.4839 57.1098 21.3211C57.947 22.1584 59.0822 22.6293 60.2663 22.6305C61.4503 22.6293 62.5855 22.1584 63.4227 21.3211C64.26 20.4839 64.7309 19.3487 64.7322 18.1647ZM58.1439 18.1647C58.1439 16.9945 59.0961 16.0423 60.2663 16.0423C61.4365 16.0423 62.3886 16.9945 62.3886 18.1631C62.3886 19.3317 61.4365 20.2854 60.2663 20.2854C59.7035 20.285 59.1639 20.0613 58.766 19.6634C58.3681 19.2654 58.1443 18.7274 58.1439 18.1647Z" fill="#D0A567"/>
<path d="M60.9973 58.149H58.8953C57.7894 58.149 56.8875 57.2501 56.8875 56.1427C56.8875 55.8319 56.764 55.5339 56.5443 55.3141C56.3245 55.0944 56.0265 54.9709 55.7157 54.9709C55.4049 54.9709 55.1069 55.0944 54.8871 55.3141C54.6674 55.5339 54.5439 55.8319 54.5439 56.1427C54.5455 57.2752 54.9881 58.3626 55.7779 59.1743C56.5676 59.9861 57.6425 60.4583 58.7745 60.4909V63.0839C58.7745 63.3946 58.898 63.6927 59.1177 63.9124C59.3375 64.1322 59.6355 64.2556 59.9463 64.2556C60.2571 64.2556 60.5551 64.1322 60.7749 63.9124C60.9946 63.6927 61.1181 63.3946 61.1181 63.0839V60.4909C62.2501 60.4583 63.325 59.9861 64.1147 59.1743C64.9045 58.3626 65.3471 57.2752 65.3487 56.1427V54.5207C65.3487 53.0148 64.3871 51.6909 62.9549 51.2266L57.6624 49.5074C57.4365 49.4353 57.2395 49.2929 57.1001 49.101C56.9608 48.9092 56.8863 48.6779 56.8875 48.4407V46.1192C56.8875 45.2203 57.62 44.4878 58.5188 44.4878H61.3737C62.2741 44.4878 63.0051 45.2203 63.0051 46.1192C63.0051 46.4299 63.1286 46.728 63.3483 46.9477C63.5681 47.1675 63.8661 47.2909 64.1769 47.2909C64.4877 47.2909 64.7857 47.1675 65.0054 46.9477C65.2252 46.728 65.3487 46.4299 65.3487 46.1192C65.3474 45.0656 64.9284 44.0555 64.1836 43.3104C63.4388 42.5653 62.4289 42.1459 61.3753 42.1443H61.1181V39.5545C61.1181 39.2437 60.9946 38.9456 60.7749 38.7259C60.5551 38.5061 60.2571 38.3827 59.9463 38.3827C59.6355 38.3827 59.3375 38.5061 59.1177 38.7259C58.898 38.9456 58.7745 39.2437 58.7745 39.5545V42.1443H58.5188C57.465 42.1455 56.4547 42.5647 55.7095 43.3099C54.9644 44.055 54.5452 45.0653 54.5439 46.1192V48.4407C54.5439 49.9466 55.5055 51.2705 56.9377 51.7348L62.2302 53.4556C62.4559 53.5277 62.6527 53.6698 62.792 53.8614C62.9314 54.0529 63.006 54.2839 63.0051 54.5207V56.1427C63.0051 57.2501 62.1047 58.149 60.9973 58.149Z" fill="#D0A567"/>
</g>
<defs>
<clipPath id="clip0_150_1054">
<rect width="80" height="80" fill="white" transform="translate(0.5)"/>
</clipPath>
</defs>
</svg>
