<svg width="81" height="80" viewBox="0 0 81 80" fill="none" xmlns="http://www.w3.org/2000/svg">
<g clip-path="url(#clip0_150_1060)">
<mask id="mask0_150_1060" style="mask-type:luminance" maskUnits="userSpaceOnUse" x="0" y="0" width="81" height="80">
<path d="M0.5 0H80.5V80H0.5V0Z" fill="white"/>
</mask>
<g mask="url(#mask0_150_1060)">
<path d="M69.6565 66.7165C69.303 66.7156 68.9641 66.575 68.7139 66.3252L63.0444 60.6556C62.8093 60.419 62.6709 60.1032 62.6565 59.7699C62.642 59.4367 62.7524 59.11 62.9661 58.8539C67.3994 53.5713 69.8315 46.8964 69.8357 40C69.8357 33.113 67.3957 26.4174 62.9661 21.1443C62.7513 20.8887 62.6401 20.5618 62.6546 20.2282C62.6691 19.8946 62.8082 19.5786 63.0444 19.3426L68.7139 13.673C68.8436 13.5445 68.9983 13.4439 69.1684 13.3775C69.3385 13.311 69.5204 13.2801 69.7029 13.2866C69.8854 13.2931 70.0646 13.3369 70.2295 13.4154C70.3944 13.4938 70.5415 13.6052 70.6617 13.7426C77.0053 21.0194 80.5006 30.3463 80.5017 40C80.5017 49.6522 77.0061 58.9774 70.6617 66.2591C70.5414 66.3969 70.3942 66.5085 70.2291 66.5872C70.064 66.6658 69.8845 66.7099 69.7017 66.7165H69.6565ZM65.7783 59.6174L69.5696 63.4104C74.917 56.7796 77.834 48.5184 77.8357 40C77.8344 31.481 74.9174 23.2191 69.5696 16.5878L65.7783 20.3826C70.1325 25.9954 72.4977 32.8963 72.5017 40C72.498 47.1043 70.1329 54.0041 65.7783 59.6174ZM11.3452 66.7165H11.3C11.1171 66.7096 10.9376 66.6654 10.7724 66.5864C10.6073 66.5074 10.4601 66.3954 10.34 66.2574C3.99777 58.9798 0.502674 49.6533 0.5 40C0.5 30.3478 3.99565 21.0226 10.34 13.7391C10.4606 13.6021 10.608 13.4912 10.773 13.4133C10.938 13.3353 11.1172 13.2919 11.2997 13.2857C11.4821 13.2795 11.6638 13.3107 11.8338 13.3773C12.0037 13.4439 12.1582 13.5445 12.2878 13.673L17.9574 19.3426C18.4461 19.8313 18.4791 20.6122 18.0357 21.1443C13.6019 26.4274 11.1699 33.1029 11.1661 40C11.1661 46.8869 13.6061 53.5826 18.0357 58.8556C18.2505 59.1113 18.3616 59.4381 18.3471 59.7717C18.3326 60.1053 18.1936 60.4213 17.9574 60.6574L12.2878 66.3269C12.1643 66.4511 12.0174 66.5494 11.8556 66.6163C11.6938 66.6832 11.5203 66.7172 11.3452 66.7165ZM11.4322 16.5861C6.08402 23.2178 3.16698 31.4804 3.16609 40C3.16737 48.519 6.08439 56.7809 11.4322 63.4122L15.2235 59.6191C10.8685 54.0054 8.50332 47.1032 8.5 39.9982C8.50409 32.8945 10.8692 25.9936 15.2235 20.3809L11.4322 16.5861ZM60.2113 17.8487C59.8979 17.8484 59.5945 17.7383 59.3539 17.5374C54.0713 13.104 47.3964 10.672 40.5 10.6678C33.603 10.6716 26.9275 13.1036 21.6443 17.5374C21.3888 17.7519 21.0621 17.8626 20.7288 17.8478C20.3955 17.833 20.0799 17.6937 19.8443 17.4574L14.1748 11.7878C14.0461 11.6583 13.9452 11.5038 13.8785 11.3339C13.8117 11.1639 13.7805 10.9821 13.7867 10.7996C13.7928 10.6171 13.8363 10.4378 13.9145 10.2728C13.9926 10.1078 14.1037 9.96046 14.2409 9.83999C21.5185 3.49688 30.8461 0.00244141 40.5 0.00244141C50.1539 0.00244141 59.4815 3.49688 66.7591 9.83999C66.8964 9.96036 67.0075 10.1075 67.0858 10.2724C67.1641 10.4373 67.2078 10.6165 67.2143 10.7989C67.2208 10.9813 67.19 11.1631 67.1237 11.3332C67.0574 11.5032 66.957 11.658 66.8287 11.7878L61.1591 17.4574C60.9081 17.708 60.566 17.8487 60.2113 17.8487ZM40.5 7.99999C47.6044 7.99999 54.5243 10.3809 60.1174 14.7252L63.9104 10.9322C57.2794 5.58494 49.0176 2.66884 40.4991 2.66884C31.9807 2.66884 23.7189 5.58494 17.0878 10.9322L20.8791 14.7252C26.4926 10.3696 33.3949 8.0038 40.5 7.99999ZM40.5 80C30.8478 80 21.5226 76.5061 14.2391 70.1617C14.102 70.0412 13.991 69.894 13.9129 69.729C13.8348 69.5641 13.7912 69.3849 13.7848 69.2024C13.7785 69.02 13.8095 68.8382 13.8759 68.6683C13.9424 68.4983 14.0429 68.3436 14.1713 68.2139L19.8409 62.5443C20.3296 62.0574 21.1104 62.0226 21.6409 62.4661C26.9264 66.898 33.6023 69.3297 40.5 69.3356C47.387 69.3356 54.0826 66.8939 59.3557 62.4661C59.6112 62.2517 59.9377 62.1409 60.2709 62.1554C60.604 62.1699 60.9197 62.3086 61.1557 62.5443L66.8252 68.2139C66.9549 68.343 67.0565 68.4975 67.1237 68.6677C67.1909 68.8379 67.2222 69.0201 67.2157 69.203C67.2092 69.3859 67.1649 69.5654 67.0858 69.7304C67.0066 69.8954 66.8942 70.0422 66.7557 70.1617C59.4791 76.5043 50.1528 79.9989 40.5 80ZM17.0878 69.0713C23.7196 74.4178 31.9815 77.3336 40.5 77.3339C49.0304 77.3339 57.2878 74.4087 63.9122 69.0695L60.1209 65.2765C54.5071 69.6315 47.6049 71.9967 40.5 72C33.395 71.9984 26.4926 69.6324 20.8809 65.2748L17.0878 69.0713Z" fill="#D0A567"/>
<path d="M40.4981 64C35.8529 64 31.6668 61.8174 28.0599 57.5131C24.0755 52.76 21.8808 46.4539 21.8808 39.76L21.8321 26.6731C21.8309 26.4975 21.8645 26.3234 21.931 26.1608C21.9974 25.9983 22.0954 25.8505 22.2193 25.7261C22.3431 25.6016 22.4904 25.5028 22.6525 25.4355C22.8147 25.3682 22.9886 25.3337 23.1642 25.3339C34.5625 25.3339 39.1781 18.2591 39.3695 17.9583C39.4901 17.7685 39.6565 17.6121 39.8535 17.5036C40.0504 17.3951 40.2715 17.3379 40.4964 17.3374H40.5016C40.959 17.3374 41.3851 17.5739 41.6286 17.96C41.8321 18.2817 46.4512 25.3339 57.8321 25.3339C58.0076 25.3339 58.1814 25.3686 58.3435 25.436C58.5056 25.5034 58.6527 25.6021 58.7765 25.7266C58.9003 25.851 58.9983 25.9987 59.0648 26.1611C59.1314 26.3235 59.1651 26.4975 59.1642 26.6731L59.1155 39.7618C59.1155 46.4539 56.9208 52.7565 52.9364 57.5113C49.3294 61.8174 45.1434 64 40.4981 64ZM24.5034 27.9739L24.5468 39.7565C24.5468 45.8313 26.5208 51.5287 30.1016 55.8018C33.1799 59.4748 36.6773 61.3357 40.4981 61.3357C44.319 61.3357 47.8147 59.4748 50.8947 55.8018C54.4773 51.527 56.4495 45.8313 56.4495 39.7618L56.4929 27.9739C47.5886 27.5687 42.5695 23.1931 40.4981 20.84C38.4268 23.1931 33.4077 27.5687 24.5034 27.9739Z" fill="#D0A567"/>
<path d="M39.17 50.6678C38.9629 50.6675 38.7586 50.6191 38.5733 50.5264C38.388 50.4338 38.2268 50.2994 38.1022 50.1339L34.1022 44.8C33.8996 44.5164 33.8159 44.1649 33.8692 43.8205C33.9225 43.4761 34.1084 43.1662 34.3872 42.9571C34.6661 42.7481 35.0156 42.6564 35.3612 42.7018C35.7067 42.7472 36.0207 42.926 36.2361 43.2L40.2361 48.5339C40.3846 48.732 40.475 48.9675 40.4973 49.2141C40.5195 49.4607 40.4727 49.7086 40.362 49.93C40.2514 50.1515 40.0813 50.3378 39.8707 50.4681C39.6602 50.5984 39.4176 50.6676 39.17 50.6678Z" fill="#D0A567"/>
<path d="M39.1612 50.666C38.9226 50.6655 38.6884 50.601 38.4832 50.4792C38.278 50.3574 38.1092 50.1828 37.9944 49.9735C37.8796 49.7642 37.8231 49.528 37.8308 49.2895C37.8384 49.051 37.9099 48.8188 38.0378 48.6173L47.3717 33.9495C47.5617 33.6511 47.8625 33.4404 48.2079 33.3637C48.5533 33.2871 48.915 33.3508 49.2134 33.5408C49.5118 33.7308 49.7225 34.0316 49.7992 34.377C49.8758 34.7224 49.8121 35.0841 49.6221 35.3825L40.2899 50.0486C40.1689 50.2378 40.0023 50.3934 39.8053 50.5013C39.6084 50.6092 39.3875 50.6658 39.163 50.666" fill="#D0A567"/>
</g>
</g>
<defs>
<clipPath id="clip0_150_1060">
<rect width="80" height="80" fill="white" transform="translate(0.5)"/>
</clipPath>
</defs>
</svg>
