<svg width="50" height="38" viewBox="0 0 50 38" fill="none" xmlns="http://www.w3.org/2000/svg">
<g clip-path="url(#clip0_295_2712)">
<path d="M9.0622 37.9168V35.3949C9.0622 34.4302 8.46172 33.7985 7.43089 33.7985C6.91548 33.7985 6.35503 33.965 5.96973 34.5135C5.66949 34.0532 5.23914 33.7985 4.59362 33.7985C4.16328 33.7985 3.73294 33.9259 3.39266 34.3862V33.8818H2.49194V37.9168H3.39266V35.6888C3.39266 34.9738 3.77797 34.6359 4.37845 34.6359C4.97893 34.6359 5.27917 35.013 5.27917 35.6888V37.9168H6.17989V35.6888C6.17989 34.9738 6.61024 34.6359 7.16568 34.6359C7.76616 34.6359 8.0664 35.013 8.0664 35.6888V37.9168H9.0622ZM22.4229 33.8818H20.9617V32.6625H20.061V33.8818H19.2453V34.68H20.061V36.531C20.061 37.4565 20.4463 38.0001 21.4771 38.0001C21.8624 38.0001 22.2928 37.8728 22.593 37.7063L22.3328 36.9473C22.0726 37.1138 21.7724 37.1578 21.5572 37.1578C21.1269 37.1578 20.9567 36.9032 20.9567 36.4869V34.68H22.4179V33.8818H22.4229ZM30.069 33.7936C29.5536 33.7936 29.2083 34.0483 28.9931 34.3813V33.8769H28.0924V37.9119H28.9931V35.6398C28.9931 34.9689 29.2934 34.5869 29.8538 34.5869C30.024 34.5869 30.2391 34.631 30.4143 34.6702L30.6745 33.8279C30.4943 33.7936 30.2391 33.7936 30.069 33.7936ZM18.5148 34.2148C18.0844 33.921 17.4839 33.7936 16.8384 33.7936C15.8076 33.7936 15.122 34.298 15.122 35.0962C15.122 35.7671 15.6375 36.1491 16.5382 36.2715L16.9685 36.3156C17.4389 36.3988 17.6991 36.5261 17.6991 36.7367C17.6991 37.0305 17.3538 37.2411 16.7534 37.2411C16.1529 37.2411 15.6775 37.0305 15.3773 36.8199L14.9469 37.4908C15.4173 37.8287 16.0628 37.9952 16.7083 37.9952C17.9093 37.9952 18.5998 37.4467 18.5998 36.6926C18.5998 35.9777 18.0394 35.6006 17.1837 35.4733L16.7534 35.4292C16.368 35.3851 16.0678 35.3019 16.0678 35.0522C16.0678 34.7583 16.368 34.5918 16.8434 34.5918C17.3588 34.5918 17.8742 34.8024 18.1345 34.9297L18.5148 34.2148ZM42.4789 33.7936C41.9635 33.7936 41.6182 34.0483 41.4031 34.3813V33.8769H40.5023V37.9119H41.4031V35.6398C41.4031 34.9689 41.7033 34.5869 42.2638 34.5869C42.4339 34.5869 42.6491 34.631 42.8242 34.6702L43.0844 33.8377C42.9093 33.7936 42.6541 33.7936 42.4789 33.7936ZM30.9697 35.8993C30.9697 37.1186 31.8304 38.0001 33.1615 38.0001C33.762 38.0001 34.1923 37.8728 34.6226 37.5398L34.1923 36.8248C33.847 37.0795 33.5068 37.2019 33.1164 37.2019C32.3859 37.2019 31.8704 36.6975 31.8704 35.8993C31.8704 35.1403 32.3859 34.6359 33.1164 34.5967C33.5017 34.5967 33.847 34.7241 34.1923 34.9738L34.6226 34.2589C34.1923 33.921 33.762 33.7985 33.1615 33.7985C31.8304 33.7936 30.9697 34.68 30.9697 35.8993ZM39.3014 35.8993V33.8818H38.4007V34.3862C38.1004 34.0091 37.6701 33.7985 37.1096 33.7985C35.9487 33.7985 35.048 34.68 35.048 35.8993C35.048 37.1186 35.9487 38.0001 37.1096 38.0001C37.7101 38.0001 38.1405 37.7895 38.4007 37.4125V37.9168H39.3014V35.8993ZM35.9937 35.8993C35.9937 35.1844 36.4641 34.5967 37.2397 34.5967C37.9703 34.5967 38.4857 35.1452 38.4857 35.8993C38.4857 36.6143 37.9703 37.2019 37.2397 37.2019C36.4691 37.1578 35.9937 36.6094 35.9937 35.8993ZM25.2151 33.7936C24.0142 33.7936 23.1535 34.6359 23.1535 35.8944C23.1535 37.1578 24.0142 37.9952 25.2602 37.9952C25.8606 37.9952 26.4611 37.8287 26.9365 37.4467L26.5062 36.815C26.1609 37.0697 25.7305 37.2362 25.3052 37.2362C24.7447 37.2362 24.1893 36.9815 24.0592 36.2715H27.1066C27.1066 36.1442 27.1066 36.0609 27.1066 35.9336C27.1467 34.6359 26.371 33.7936 25.2151 33.7936ZM25.2151 34.5527C25.7756 34.5527 26.1609 34.8906 26.2459 35.5174H24.0992C24.1843 34.9738 24.5696 34.5527 25.2151 34.5527ZM47.593 35.8993V32.2854H46.6923V34.3862C46.3921 34.0091 45.9617 33.7985 45.4013 33.7985C44.2403 33.7985 43.3396 34.68 43.3396 35.8993C43.3396 37.1186 44.2403 38.0001 45.4013 38.0001C46.0017 38.0001 46.4321 37.7895 46.6923 37.4125V37.9168H47.593V35.8993ZM44.2854 35.8993C44.2854 35.1844 44.7558 34.5967 45.5314 34.5967C46.262 34.5967 46.7774 35.1452 46.7774 35.8993C46.7774 36.6143 46.262 37.2019 45.5314 37.2019C44.7558 37.1578 44.2854 36.6094 44.2854 35.8993ZM14.1313 35.8993V33.8818H13.2305V34.3862C12.9303 34.0091 12.4999 33.7985 11.9395 33.7985C10.7786 33.7985 9.87785 34.68 9.87785 35.8993C9.87785 37.1186 10.7786 38.0001 11.9395 38.0001C12.54 38.0001 12.9703 37.7895 13.2305 37.4125V37.9168H14.1313V35.8993ZM10.7836 35.8993C10.7836 35.1844 11.254 34.5967 12.0296 34.5967C12.7602 34.5967 13.2756 35.1452 13.2756 35.8993C13.2756 36.6143 12.7602 37.2019 12.0296 37.2019C11.254 37.1578 10.7836 36.6094 10.7836 35.8993Z" fill="white"/>
<path d="M31.7454 3.23682H18.2146V27.026H31.7454V3.23682Z" fill="black"/>
<path d="M19.1153 15.1314C19.1153 10.2982 21.4372 6.0085 25 3.23686C22.3779 1.21933 19.0703 0 15.4624 0C6.91553 0 0 6.76753 0 15.1314C0 23.4954 6.91553 30.2629 15.4624 30.2629C19.0703 30.2629 22.3779 29.0436 25 27.026C21.4321 24.2936 19.1153 19.9647 19.1153 15.1314Z" fill="white"/>
<path d="M50 15.1314C50 23.4954 43.0845 30.2629 34.5376 30.2629C30.9297 30.2629 27.6221 29.0436 25 27.026C28.6079 24.2495 30.8847 19.9647 30.8847 15.1314C30.8847 10.2982 28.5629 6.0085 25 3.23686C27.6171 1.21933 30.9247 0 34.5326 0C43.0845 0 50 6.8116 50 15.1314Z" fill="#FFFEFC"/>
</g>
<defs>
<clipPath id="clip0_295_2712">
<rect width="50" height="38" fill="white"/>
</clipPath>
</defs>
</svg>
