<svg width="74" height="23" viewBox="0 0 74 23" fill="none" xmlns="http://www.w3.org/2000/svg">
<path d="M5.73499 2.49176H11.84C12.395 2.49176 14.06 2.3001 14.8 4.98343C15.355 6.70843 16.095 9.39176 17.205 13.4168H17.575C18.685 9.2001 19.61 6.3251 19.98 4.98343C20.72 2.3001 22.57 2.49176 23.31 2.49176H29.045V20.8918H23.125V9.96676H22.755L19.61 20.8918H15.17L12.025 9.96676H11.47V20.8918H5.73499M31.45 2.49176H37.37V13.4168H37.925L41.81 4.40843C42.55 2.68343 44.215 2.49176 44.215 2.49176H49.765V20.8918H43.845V9.96676H43.475L39.59 18.9751C38.85 20.7001 37 20.8918 37 20.8918H31.45M57.72 15.3334V20.8918H52.17V11.3084H70.3C69.56 13.6084 66.97 15.3334 64.01 15.3334" fill="white"/>
<path d="M70.67 10.1584C71.41 6.70837 69.19 2.4917 64.38 2.4917H51.8C52.17 6.5167 55.5 10.1584 59.015 10.1584" fill="white"/>
</svg>
