<svg width="64" height="21" viewBox="0 0 64 21" fill="none" xmlns="http://www.w3.org/2000/svg">
<g clip-path="url(#clip0_295_2719)">
<path d="M41.6761 0.0322266C37.1366 0.0322266 33.0797 2.41048 33.0797 6.80348C33.0797 11.842 40.2745 12.1899 40.2745 14.7215C40.2745 15.7874 39.0662 16.7414 37.0016 16.7414C34.0723 16.7414 31.8829 15.4084 31.8829 15.4084L30.9459 19.8421C30.9459 19.8421 33.4681 20.9682 36.8166 20.9682C41.7798 20.9682 45.6857 18.4735 45.6857 14.0048C45.6857 8.68046 38.4608 8.34284 38.4608 5.9937C38.4608 5.15869 39.4528 4.24413 41.511 4.24413C43.8336 4.24413 45.728 5.21367 45.728 5.21367L46.6451 0.931912C46.6451 0.931912 44.583 0.0322266 41.6755 0.0322266H41.6761ZM0.142062 0.355622L0.0319824 1.00177C0.0319824 1.00177 1.94174 1.35491 3.66206 2.05992C5.8771 2.86776 6.03454 3.33862 6.40766 4.79907L10.4723 20.6344H15.9213L24.3155 0.355622H18.8793L13.4854 14.1433L11.2845 2.45575C11.0829 1.11819 10.0601 0.354975 8.80894 0.354975H0.142702L0.142062 0.355622ZM26.5017 0.355622L22.2374 20.6344H27.4214L31.6704 0.355622H26.5017ZM55.4144 0.355622C54.1645 0.355622 53.5021 1.03216 53.0163 2.21385L45.4214 20.6344H50.8576L51.9091 17.5641H58.5318L59.1712 20.6344H63.968L59.7837 0.355622H55.4144ZM56.1216 5.83459L57.7331 13.4441H53.4163L56.1222 5.83459H56.1216Z" fill="white"/>
</g>
<defs>
<clipPath id="clip0_295_2719">
<rect width="64" height="21" fill="white"/>
</clipPath>
</defs>
</svg>
