<svg width="70" height="26" viewBox="0 0 70 26" fill="none" xmlns="http://www.w3.org/2000/svg">
<path d="M44.6859 3.33691V22.173H41.3921V5.88454H35.5123V22.173H32.2185V3.33691H44.6859Z" fill="white"/>
<path d="M50.2014 22.4441C48.7496 22.4441 47.6335 22.164 46.8531 21.6039V18.975C47.2705 19.2641 47.7242 19.4899 48.2142 19.6525C48.7223 19.8151 49.3212 19.8964 50.0108 19.8964C51.0452 19.8964 51.8256 19.5983 52.3518 19.0021C52.8781 18.3877 53.2048 17.5476 53.3318 16.4815H48.5681V13.9339H53.3046C52.9961 11.8561 51.9254 10.8172 50.0925 10.8172C49.5299 10.8172 48.9673 10.9075 48.4048 11.0882C47.8603 11.2689 47.4248 11.4586 47.0981 11.6573V8.92C47.4429 8.73931 47.9057 8.58573 48.4864 8.45926C49.0671 8.33278 49.7658 8.26954 50.5825 8.26954C51.5987 8.26954 52.4879 8.45022 53.2501 8.81159C54.0305 9.15488 54.6747 9.64273 55.1829 10.2751C55.7091 10.8894 56.0993 11.6393 56.3534 12.5246C56.6256 13.3919 56.7617 14.3405 56.7617 15.3704C56.7617 17.665 56.2173 19.4176 55.1284 20.6282C54.0577 21.8388 52.4154 22.4441 50.2014 22.4441Z" fill="white"/>
<path d="M64.4606 6.75181C63.154 6.75181 62.165 6.42658 61.4935 5.77613C60.8402 5.12567 60.5135 4.3126 60.5135 3.33691H63.2357C63.2357 3.80669 63.3446 4.14999 63.5623 4.3668C63.7982 4.58362 64.0977 4.69203 64.4606 4.69203C64.8054 4.69203 65.0776 4.58362 65.2773 4.3668C65.4769 4.13192 65.5767 3.78862 65.5767 3.33691H68.2988C68.2988 3.80669 68.2172 4.24936 68.0538 4.66493C67.8905 5.0805 67.6455 5.44186 67.3189 5.74902C67.0104 6.05618 66.6111 6.3001 66.1211 6.48079C65.6493 6.66147 65.0958 6.75181 64.4606 6.75181ZM62.0652 8.54056V16.9965L67.0194 8.54056H69.9049V22.173H66.7744V13.7442L61.8202 22.173H58.9347V8.54056H62.0652Z" fill="white"/>
<g clip-path="url(#clip0_295_2728)">
<path fill-rule="evenodd" clip-rule="evenodd" d="M25.4493 0.491211H0.285767V25.5088H25.4493V0.491211ZM17.2693 20.5178H14.6407V7.53744H13.4676C11.3169 7.53744 10.1873 8.61734 10.1873 10.2156C10.1873 12.0298 10.9693 12.8721 12.5769 13.952L13.9021 14.8375L10.0786 20.5178H7.23282L10.6652 15.4423C8.68832 14.0384 7.5804 12.6777 7.5804 10.3668C7.5804 7.47265 9.60072 5.50724 13.4458 5.50724H17.2693V20.5178Z" fill="white"/>
</g>
<defs>
<clipPath id="clip0_295_2728">
<rect x="0.285767" y="0.491211" width="25.1635" height="25.0175" rx="12.5088" fill="white"/>
</clipPath>
</defs>
</svg>
