<svg width="85" height="24" viewBox="0 0 85 24" fill="none" xmlns="http://www.w3.org/2000/svg">
<path d="M32.3721 21.0299C30.229 21.0299 28.538 20.2439 27.2991 18.672C26.0601 17.0831 25.4407 14.852 25.4407 11.9786C25.4407 9.17272 26.0518 6.95848 27.274 5.33583C28.5129 3.71318 30.2876 2.90186 32.5981 2.90186C33.4017 2.90186 34.1217 3.02017 34.7579 3.25681C35.3941 3.47654 35.9131 3.73008 36.3149 4.01743V6.47676C35.8629 6.18941 35.3271 5.91897 34.7076 5.66543C34.0882 5.41189 33.4352 5.28512 32.7488 5.28512C31.2754 5.28512 30.2039 5.83446 29.5342 6.93313C28.8645 8.0318 28.5297 9.7136 28.5297 11.9786C28.5297 14.1759 28.8645 15.8408 29.5342 16.9733C30.2039 18.0888 31.2252 18.6466 32.5981 18.6466C33.4017 18.6466 34.0965 18.5283 34.6825 18.2917C35.2685 18.0381 35.8126 17.7254 36.3149 17.3536V19.8129C35.9298 20.0834 35.4108 20.3538 34.7579 20.6242C34.1049 20.8947 33.3096 21.0299 32.3721 21.0299Z" fill="white"/>
<path d="M38.2055 8.02334H48.0501V20.7764H45.0616V10.4066H41.194V20.7764H38.2055V8.02334Z" fill="white"/>
<path d="M49.5616 18.1649C49.5616 18.1649 49.6202 18.2072 49.7374 18.2917C49.8546 18.3593 50.022 18.3931 50.2397 18.3931C50.7252 18.3931 51.0433 18.1396 51.194 17.6325C51.3447 17.1254 51.4452 16.1958 51.4954 14.8435L51.7465 8.02334H60.3103V20.7764H57.3218V10.4066H54.283L54.1072 14.9703C54.0402 17.0831 53.7807 18.6213 53.3287 19.5847C52.8766 20.5482 52.0144 21.0299 50.742 21.0299C50.3904 21.0299 50.1058 20.9876 49.8881 20.9031C49.6705 20.8186 49.5616 20.7764 49.5616 20.7764V18.1649Z" fill="white"/>
<path d="M62.8287 8.02334H65.7419V15.9084L70.3629 8.02334H72.9496V20.7764H70.0364V12.8913L65.4155 20.7764H62.8287V8.02334Z" fill="white"/>
<path d="M84.7262 10.4066H81.2102V20.7764H78.2217V10.4066H74.7058V8.02334H84.7262V10.4066Z" fill="white"/>
<g clip-path="url(#clip0_295_2726)">
<path d="M15.2435 9.32959L15.1331 9.18094C20.7648 4.6845 20.1391 4.01561 20.1391 4.01561C19.587 3.42103 18.998 2.90078 18.3723 2.45486C17.4889 1.82312 16.5318 1.30287 15.5012 0.968428C11.2314 -0.592322 6.15179 0.633981 3.09667 4.01561C-0.989095 8.43773 -1.06271 15.4611 3.05986 19.9576C7.40329 24.677 14.8018 24.9742 19.4765 20.6264L19.5502 20.5521L19.6238 20.4778L19.6606 20.4406C19.7342 20.3663 19.8078 20.292 19.8446 20.2177C21.1697 18.5083 19.1821 13.8632 15.2435 9.32959ZM18.8508 19.363C18.5563 19.6603 17.3048 19.6974 15.2803 18.6198C13.4031 17.6164 11.305 15.907 9.31734 13.826C8.98606 14.0862 14.5074 9.70119 14.2497 9.92416C15.9797 11.9308 17.4521 14.1233 18.225 15.9442C19.1453 18.0624 19.1085 19.1029 18.8508 19.363Z" fill="white" fill-opacity="0.98"/>
</g>
<defs>
<clipPath id="clip0_295_2726">
<rect width="23.1818" height="23.4035" fill="white" transform="translate(0 0.29834)"/>
</clipPath>
</defs>
</svg>
