<svg xmlns="http://www.w3.org/2000/svg" width="20" height="20" viewBox="0 0 20 20" fill="none">
    <path d="M3.38399 19C2.53754 19 1.72485 18.6557 1.07714 18.0184C-0.358991 16.6021 -0.35899 14.2986 1.07681 12.8833L12.275 1.19432C14.0222 -0.525872 16.6986 -0.371304 18.6517 1.55099C19.5268 2.41277 20.0179 3.65515 19.9995 4.96101C19.9811 6.25309 19.4675 7.48962 18.5899 8.35385L10.1266 17.2103C9.89105 17.4584 9.49606 17.4697 9.24461 17.237C8.99376 17.0039 8.98159 16.615 9.21809 16.3678L17.6941 7.4979C18.3571 6.84497 18.7375 5.91876 18.7515 4.94382C18.7655 3.96827 18.407 3.04851 17.7693 2.42011C16.5712 1.23999 14.6206 0.622026 13.1704 2.05087L1.97251 13.7398C1.00969 14.6887 1.01 16.2126 1.96003 17.1489C2.40555 17.5871 2.93439 17.8006 3.49754 17.7671C4.05477 17.7337 4.6276 17.4528 5.11057 16.9768L14.0206 7.65486C14.3435 7.33683 14.9925 6.55724 14.332 5.90646C13.9579 5.53813 13.6952 5.56082 13.6088 5.56788C13.362 5.58935 13.0737 5.7571 12.7745 6.05213L6.0681 13.0632C5.83129 13.3107 5.43599 13.3227 5.18606 13.0893C4.9349 12.8568 4.92335 12.4673 5.15954 12.2208L11.8781 5.19649C12.4064 4.67482 12.9464 4.39205 13.4962 4.3436C13.9252 4.30616 14.5632 4.39604 15.214 5.03762C16.18 5.98894 16.0599 7.38437 14.9161 8.51112L6.00603 17.8325C5.29467 18.5341 4.43572 18.9417 3.57398 18.9938C3.51065 18.9981 3.44731 19 3.38397 19L3.38399 19Z" fill="#CFA567" />
</svg>