<svg width="290" height="152" viewBox="0 0 290 152" fill="none" xmlns="http://www.w3.org/2000/svg">
<path d="M64.6667 27.6333L67.7334 27.1333V2.86667L64.6667 2.4V1.66667H75.1334C78.4223 1.66667 80.8667 2.36667 82.4667 3.76667C84.0667 5.16667 84.8667 7.18889 84.8667 9.83333C84.8667 12.4778 84.0667 14.5 82.4667 15.9C80.8667 17.3 78.4223 18 75.1334 18H71.4001V27.1333L74.4667 27.6333V28.3333H64.6667V27.6333ZM74.6667 17.2C78.7779 17.2 80.8334 14.9667 80.8334 10.5V9.16667C80.8334 4.72222 78.7779 2.5 74.6667 2.5H71.4001V17.2H74.6667ZM109.687 29C106.42 29 104.031 28.2778 102.52 26.8333C101.009 25.3667 100.253 23.4333 100.253 21.0333V2.86667L97.1868 2.4V1.66667H106.987V2.4L103.92 2.86667V21.0333C103.92 23.2111 104.531 24.8889 105.753 26.0667C106.976 27.2222 108.831 27.8 111.32 27.8C116.031 27.8 118.387 25.5444 118.387 21.0333V3.7L115.287 2.4V1.66667H122.387V2.4L119.187 3.7V21.0333C119.187 23.7 118.442 25.7 116.953 27.0333C115.465 28.3444 113.042 29 109.687 29ZM134.74 28.3333V27.6333L137.807 27.1333V2.86667L134.74 2.4V1.66667H144.54V2.4L141.473 2.86667V27.5333H151.44L154.173 20.2H155.073V28.3333H134.74ZM177.967 29C175.9 29 173.867 28.4111 171.867 27.2333L169.033 28.6667H168.3V20.1H169.033L171.9 26.3C173.745 27.6111 175.856 28.2667 178.233 28.2667C180.189 28.2667 181.8 27.7556 183.067 26.7333C184.356 25.6889 185 24.2333 185 22.3667C185 21.0111 184.589 19.9444 183.767 19.1667C182.945 18.3667 181.611 17.7333 179.767 17.2667L174.233 15.8333C172.3 15.3222 170.845 14.4556 169.867 13.2333C168.889 11.9889 168.4 10.5222 168.4 8.83333C168.4 7.3 168.7 5.94444 169.3 4.76667C169.898 3.59155 170.84 2.62649 172 2C173.178 1.33333 174.578 1 176.2 1C178.222 1 180.033 1.34444 181.633 2.03333L184.067 1H184.8V7.8H184.067L181.667 2.93333C180 2.13333 178.189 1.73333 176.233 1.73333C174.3 1.73333 172.778 2.23333 171.667 3.23333C170.556 4.21111 170 5.51111 170 7.13333C170 8.33333 170.389 9.27778 171.167 9.96667C171.967 10.6556 173.133 11.2 174.667 11.6L180.633 13.1667C182.567 13.6556 184 14.5 184.933 15.7C185.889 16.8778 186.367 18.6778 186.367 21.1C186.367 23.5667 185.6 25.5 184.067 26.9C182.556 28.3 180.522 29 177.967 29ZM210.333 29C208.267 29 206.233 28.4111 204.233 27.2333L201.4 28.6667H200.667V20.1H201.4L204.267 26.3C206.111 27.6111 208.222 28.2667 210.6 28.2667C212.556 28.2667 214.167 27.7556 215.433 26.7333C216.722 25.6889 217.367 24.2333 217.367 22.3667C217.367 21.0111 216.956 19.9444 216.133 19.1667C215.311 18.3667 213.978 17.7333 212.133 17.2667L206.6 15.8333C204.667 15.3222 203.211 14.4556 202.233 13.2333C201.256 11.9889 200.767 10.5222 200.767 8.83333C200.767 7.3 201.067 5.94444 201.667 4.76667C202.265 3.59155 203.207 2.62649 204.367 2C205.545 1.33333 206.945 1 208.567 1C210.589 1 212.4 1.34444 214 2.03333L216.433 1H217.167V7.8H216.433L214.033 2.93333C212.367 2.13333 210.556 1.73333 208.6 1.73333C206.667 1.73333 205.145 2.23333 204.033 3.23333C202.922 4.21111 202.367 5.51111 202.367 7.13333C202.367 8.33333 202.756 9.27778 203.533 9.96667C204.333 10.6556 205.5 11.2 207.033 11.6L213 13.1667C214.933 13.6556 216.367 14.5 217.3 15.7C218.256 16.8778 218.733 18.6778 218.733 21.1C218.733 23.5667 217.967 25.5 216.433 26.9C214.922 28.3 212.889 29 210.333 29ZM229.868 28.3333V27.6333L233.135 26.3L242.768 1H243.301L252.401 27.1333L255.468 27.6333V28.3333H245.668V27.6333L248.401 27.2L245.568 19.3H236.701L234.001 26.3L237.001 27.6333V28.3333H229.868ZM236.968 18.6H245.335L241.335 6.86667L236.968 18.6ZM285.626 28.6667C284.381 28.6667 283.448 28.3667 282.826 27.7667C282.203 27.1667 281.781 26.1444 281.559 24.7L280.926 20.2333C280.703 18.7222 280.181 17.5444 279.359 16.7C278.559 15.8333 277.303 15.4 275.592 15.4H272.992V27.1333L276.059 27.6333V28.3333H266.259V27.6333L269.326 27.1333V2.86667L266.259 2.4V1.66667H275.592C279.215 1.66667 281.837 2.23333 283.459 3.36667C285.081 4.5 285.892 6.22222 285.892 8.53333C285.892 12.3556 283.581 14.5667 278.959 15.1667V15.3667C280.67 15.6111 282.037 16.2222 283.059 17.2C284.103 18.1778 284.759 19.4778 285.026 21.1L285.459 23.9667C285.637 25.2111 285.837 26.0556 286.059 26.5C286.303 26.9444 286.67 27.1667 287.159 27.1667C287.492 27.1667 287.848 27.0667 288.226 26.8667C288.603 26.6444 288.959 26.3667 289.292 26.0333L289.859 26.6333C289.215 27.3667 288.548 27.8889 287.859 28.2C287.17 28.5111 286.426 28.6667 285.626 28.6667ZM276.726 14.6C278.348 14.6 279.603 14.1111 280.492 13.1333C281.403 12.1333 281.859 10.6667 281.859 8.73333V8.03333C281.859 4.34444 279.77 2.5 275.592 2.5H272.992V14.6H276.726ZM71.4134 58.94H70.4467V56.6667H64.3834V58.94H63.4167V55.7478H64.0912C64.7038 54.7167 65.2271 53.4633 65.6612 51.9878C66.0982 50.5122 66.3408 49.1633 66.389 47.9411H70.3101V55.7478H71.4134V58.94ZM69.2956 55.7478V48.8544H67.3079C67.2367 49.8174 66.996 50.9752 66.5856 52.3278C66.176 53.6767 65.6986 54.8167 65.1534 55.7478H69.2956ZM75.2834 47.9411H76.2323V52.7933C76.2323 53.6889 76.2045 54.4985 76.149 55.2222H76.1968L81.0901 47.9411H82.2001V56.6667H81.2445V51.8622C81.2445 51.0622 81.2786 50.223 81.3467 49.3444H81.2934L76.3934 56.6667H75.2823L75.2834 47.9411ZM92.0379 49.9822C92.0379 50.5556 91.8545 51.0211 91.4879 51.3789C91.1256 51.7374 90.6245 51.9641 89.9845 52.0589V52.1078C90.7127 52.207 91.2638 52.4356 91.6379 52.7933C92.0156 53.1511 92.2045 53.6185 92.2045 54.1956C92.2045 55.0104 91.9001 55.6474 91.2912 56.1067C90.6823 56.5585 89.823 56.7848 88.7134 56.7856C87.6986 56.7856 86.8671 56.6285 86.219 56.3144V55.3711C86.6005 55.5541 87.0123 55.6956 87.4545 55.7956C87.8752 55.892 88.3052 55.942 88.7367 55.9444C89.5256 55.9444 90.1205 55.7952 90.5212 55.4967C90.9271 55.1989 91.1301 54.7693 91.1301 54.2078C91.1301 53.6744 90.9053 53.2707 90.4556 52.9967C90.0112 52.7226 89.3445 52.5856 88.4556 52.5856H87.1556V51.7311H88.4034C89.2182 51.7311 89.8486 51.5859 90.2945 51.2956C90.7442 51.0007 90.969 50.5911 90.969 50.0667C90.969 49.64 90.8079 49.2996 90.4856 49.0456C90.1634 48.7915 89.7301 48.6641 89.1856 48.6633C88.7471 48.6633 88.3508 48.7133 87.9967 48.8133C87.6427 48.9126 87.233 49.1093 86.7679 49.4033L86.2667 48.7233C86.6682 48.4256 87.1175 48.2007 87.6145 48.0489C88.1167 47.8933 88.636 47.8156 89.1723 47.8156C90.0679 47.8156 90.7682 48.0126 91.2734 48.4067C91.783 48.797 92.0379 49.3222 92.0379 49.9822ZM101.945 56.6667L100.859 53.8911H97.3612L96.289 56.6667H95.2623L98.7112 47.9056H99.5645L102.997 56.6667H101.945ZM100.542 52.9778L99.5279 50.2756C99.3967 49.9333 99.2616 49.5133 99.1223 49.0156C99.0342 49.3978 98.909 49.8178 98.7467 50.2756L97.7201 52.9789L100.542 52.9778ZM106.59 47.9422H107.539V52.7933C107.539 53.6889 107.511 54.4985 107.456 55.2222H107.503L112.397 47.9411H113.507V56.6667H112.552V51.8622C112.552 51.0622 112.586 50.223 112.653 49.3444H112.6L107.701 56.6667H106.591L106.59 47.9422ZM110.207 47.2433C109.471 47.2433 108.934 47.1022 108.596 46.82C108.257 46.5333 108.068 46.0637 108.029 45.4111H108.959C108.996 45.8252 109.103 46.1137 109.281 46.2767C109.465 46.4396 109.781 46.5211 110.23 46.5211C110.64 46.5211 110.943 46.4337 111.138 46.2589C111.337 46.0833 111.458 45.8007 111.501 45.4111H112.439C112.391 46.04 112.19 46.5037 111.836 46.8022C111.482 47.0963 110.939 47.2433 110.207 47.2433ZM124.909 56.6667H123.895V52.5611H119.299V56.6667H118.285V47.9422H119.299V51.6533H123.895V47.9422H124.909V56.6667ZM134.555 56.6667H129.691V47.9422H134.555V48.8422H130.706V51.6533H134.322V52.5489H130.706V55.76H134.555V56.6667ZM144.41 50.4833C144.41 51.367 144.108 52.0474 143.503 52.5244C142.903 52.9985 142.041 53.2356 140.919 53.2356H139.892V56.6667H138.878V47.9422H141.14C143.32 47.9422 144.41 48.7893 144.41 50.4833ZM139.892 52.3633H140.806C141.705 52.3633 142.355 52.2181 142.757 51.9278C143.159 51.6374 143.36 51.1719 143.36 50.5311C143.36 49.9548 143.171 49.5252 142.793 49.2422C142.414 48.96 141.825 48.8189 141.027 48.8189H139.892V52.3633ZM152.361 48.7233C151.403 48.7233 150.645 49.0437 150.088 49.6844C149.535 50.3215 149.258 51.1948 149.258 52.3044C149.258 53.4452 149.525 54.3285 150.058 54.9544C150.595 55.5744 151.359 55.8844 152.35 55.8844C152.958 55.8844 153.652 55.7752 154.432 55.5567V56.4456C153.827 56.6722 153.081 56.7856 152.195 56.7856C150.909 56.7856 149.917 56.3959 149.217 55.6167C148.52 54.8367 148.172 53.7285 148.172 52.2922C148.172 51.393 148.339 50.6052 148.673 49.9289C148.991 49.2736 149.499 48.7289 150.13 48.3656C150.766 47.9996 151.514 47.8167 152.373 47.8167C153.289 47.8167 154.089 47.9833 154.772 48.3167L154.343 49.1889C153.725 48.8897 153.048 48.7307 152.361 48.7233ZM164.998 56.6667H163.768L159.735 52.2444V56.6667H158.719V47.9422H159.735V52.1667L163.667 47.9411H164.83L160.969 52.1789L164.998 56.6667ZM176.16 52.2922C176.16 53.6885 175.806 54.7867 175.098 55.5867C174.393 56.3867 173.413 56.7867 172.156 56.7867C170.87 56.7867 169.878 56.3944 169.178 55.61C168.482 54.8219 168.133 53.7119 168.133 52.28C168.133 50.86 168.483 49.76 169.183 48.98C169.883 48.1963 170.878 47.8044 172.167 47.8044C173.42 47.8044 174.399 48.2022 175.103 48.9978C175.808 49.7933 176.16 50.8915 176.16 52.2922ZM169.207 52.2922C169.207 53.473 169.457 54.37 169.959 54.9833C170.465 55.5922 171.197 55.8967 172.156 55.8967C173.122 55.8967 173.852 55.5922 174.346 54.9833C174.839 54.3752 175.086 53.4781 175.086 52.2922C175.086 51.1181 174.839 50.2293 174.346 49.6256C173.857 49.0159 173.13 48.7111 172.167 48.7111C171.2 48.7111 170.464 49.0174 169.959 49.63C169.457 50.2389 169.207 51.1263 169.207 52.2922ZM185.359 56.6667H180.495V47.9422H185.359V48.8422H181.509V51.6533H185.126V52.5489H181.509V55.76H185.359V56.6667ZM202.812 52.2922C202.812 53.6885 202.458 54.7867 201.75 55.5867C201.046 56.3867 200.066 56.7867 198.808 56.7867C197.523 56.7867 196.531 56.3944 195.83 55.61C195.134 54.8219 194.786 53.7119 194.786 52.28C194.786 50.86 195.136 49.76 195.837 48.98C196.537 48.1963 197.531 47.8044 198.82 47.8044C200.073 47.8044 201.052 48.2022 201.757 48.9978C202.461 49.7933 202.813 50.8915 202.812 52.2922ZM195.86 52.2922C195.86 53.473 196.111 54.37 196.612 54.9833C197.118 55.5922 197.85 55.8967 198.808 55.8967C199.775 55.8967 200.506 55.5922 200.999 54.9833C201.492 54.3752 201.739 53.4781 201.739 52.2922C201.739 51.1181 201.492 50.2293 200.999 49.6256C200.509 49.0159 199.783 48.7111 198.82 48.7111C197.853 48.7111 197.118 49.0174 196.612 49.63C196.111 50.2389 195.86 51.1263 195.86 52.2922ZM210.883 48.7233C209.925 48.7233 209.167 49.0437 208.61 49.6844C208.057 50.3215 207.78 51.1948 207.78 52.3044C207.78 53.4452 208.047 54.3285 208.58 54.9544C209.117 55.5744 209.881 55.8844 210.871 55.8844C211.48 55.8844 212.175 55.7752 212.955 55.5567V56.4456C212.349 56.6722 211.603 56.7856 210.717 56.7856C209.432 56.7856 208.439 56.3959 207.739 55.6167C207.043 54.8367 206.695 53.7285 206.695 52.2922C206.695 51.393 206.862 50.6052 207.196 49.9289C207.514 49.2741 208.021 48.7296 208.651 48.3656C209.288 47.9996 210.036 47.8167 210.896 47.8167C211.81 47.8167 212.61 47.9833 213.295 48.3167L212.865 49.1889C212.247 48.8885 211.57 48.7294 210.883 48.7233ZM217.241 47.9422H219.707C220.865 47.9422 221.702 48.1152 222.219 48.4611C222.736 48.807 222.995 49.3541 222.995 50.1022C222.995 50.6185 222.849 51.0463 222.559 51.3856C222.272 51.7189 221.853 51.9356 221.3 52.0356V52.0956C222.625 52.3215 223.287 53.0178 223.287 54.1844C223.287 54.9637 223.022 55.5722 222.493 56.01C221.967 56.4478 221.232 56.6667 220.286 56.6667H217.241V47.9422ZM218.256 51.6778H219.927C220.644 51.6778 221.159 51.5663 221.472 51.3433C221.787 51.1167 221.945 50.7367 221.945 50.2033C221.945 49.7144 221.769 49.3626 221.419 49.1478C221.069 48.9285 220.512 48.8189 219.748 48.8189H218.256V51.6778ZM218.256 52.5367V55.8011H220.077C220.78 55.8011 221.309 55.6659 221.663 55.3956C222.022 55.1215 222.201 54.6937 222.201 54.1122C222.201 53.5715 222.018 53.1737 221.652 52.9189C221.29 52.6633 220.737 52.5359 219.992 52.5367H218.256ZM232.415 56.6667H227.55V47.9422H232.415V48.8422H228.565V51.6533H232.181V52.5489H228.565V55.76H232.415V56.6667ZM236.737 56.6667V47.9422H237.751V55.7478H241.231V47.9411H242.257V55.7478H245.742V47.9411H246.757V55.7478H247.783V58.94H246.817V56.6667H236.737ZM256.612 56.6667H251.748V47.9422H256.612V48.8422H252.762V51.6533H256.379V52.5489H252.762V55.76H256.612V56.6667ZM267.559 56.6667H266.545V52.5611H261.95V56.6667H260.935V47.9422H261.95V51.6533H266.545V47.9422H267.559V56.6667ZM272.353 47.9422H273.302V52.7933C273.302 53.6889 273.275 54.4985 273.219 55.2222H273.267L278.16 47.9411H279.27V56.6667H278.316V51.8622C278.316 51.0622 278.349 50.223 278.417 49.3444H278.363L273.463 56.6667H272.353V47.9422ZM288.911 56.6667H284.047V47.9422H288.911V48.8422H285.061V51.6533H288.678V52.5489H285.061V55.76H288.911V56.6667Z" fill="white"/>
<mask id="mask0_10_117" style="mask-type:luminance" maskUnits="userSpaceOnUse" x="0" y="1" width="54" height="56">
<path d="M0 1.11133H53.3333V56.6669H0V1.11133Z" fill="white"/>
</mask>
<g mask="url(#mask0_10_117)">
<path d="M23.6945 2.86797L24.57 3.31686L22.54 7.95242L21.6645 7.50464C21 7.16797 20.6845 6.30797 21 5.5602L21.8745 3.54131C21.9455 3.37402 22.05 3.22302 22.1815 3.09758C22.313 2.97213 22.4687 2.8749 22.6392 2.81184C22.8096 2.74878 22.9911 2.72123 23.1726 2.73089C23.3541 2.74054 23.5317 2.78719 23.6945 2.86797ZM21.0723 43.0602H18.3767V48.7046H21.0723V43.0602Z" fill="white"/>
<path d="M14.5978 35.0558H12.2178L19.6033 44.8147H21.9478L14.5978 35.0558Z" fill="white"/>
<path d="M14.0722 35.0558H11.7278L19.0778 44.8147H21.4222L14.0722 35.0558ZM27.9667 41.4891L19.2156 31.4691L19.0756 32.4413L26.6711 41.8258L27.9667 41.4891Z" fill="white"/>
<path d="M19.0778 32.4391H17.7478L25.1322 42.2346L26.6722 41.8235L19.0778 32.4391Z" fill="white"/>
<path d="M18.9012 33.3391L12.8456 37.4891C12.2156 37.9369 11.3756 37.7502 10.9212 37.1147C10.6056 36.6291 10.5356 36.0302 10.7812 35.5069L15.0167 26.6847L16.0656 26.5347L17.7812 27.1324L16.0667 29.0391V31.3202L18.9012 31.3947V33.3391Z" fill="white"/>
<path d="M28.6333 22.8336H26.6389L17.5733 32.4424H19.5689L28.6333 22.8336ZM26.7789 15.8047L27.4789 12.5891L15.3689 25.4502L16.3845 26.8336L26.7789 15.8047Z" fill="white"/>
<path d="M15.6933 25.6835L15.3555 27.0969L22.3755 29.0102L22.7133 27.598L15.6933 25.6835ZM28.1788 43.4335V40.0302H23.1744L20.2688 43.5446V46.648L28.1788 43.4335ZM12.0777 37.1158C12.5799 37.1158 12.9877 36.6802 12.9877 36.1435C12.9877 35.6069 12.5799 35.1713 12.0766 35.1713C11.5755 35.1713 11.1677 35.6069 11.1677 36.1435C11.1677 36.6802 11.5755 37.1158 12.0777 37.1158Z" fill="white"/>
<path d="M15.7844 27.0924C16.2866 27.0924 16.6944 26.6569 16.6944 26.1202C16.6944 25.5835 16.2866 25.148 15.7833 25.148C15.2799 25.148 14.8744 25.5835 14.8744 26.1202C14.8744 26.6569 15.2811 27.0924 15.7844 27.0924ZM19.9144 46.0502C20.2811 46.0502 20.5788 45.7313 20.5788 45.3391C20.5788 44.9469 20.2811 44.6291 19.9144 44.6291C19.5477 44.6291 19.2488 44.9469 19.2488 45.3402C19.2488 45.7313 19.5466 46.0502 19.9144 46.0502ZM26.2144 42.7224C26.4655 42.7224 26.6699 42.5035 26.6699 42.2357C26.6699 41.9669 26.4655 41.7491 26.2144 41.7491C25.9633 41.7491 25.7588 41.9669 25.7588 42.2357C25.7588 42.5035 25.9633 42.7224 26.2144 42.7224ZM28.4544 14.2335H26.8777V22.4591H28.4533L28.4544 14.2335Z" fill="white"/>
<path d="M27.5856 23.8047C28.0878 23.8047 28.4956 23.3691 28.4956 22.8325C28.4956 22.2958 28.0878 21.8602 27.5844 21.8602C27.0833 21.8602 26.6756 22.2958 26.6756 22.8325C26.6756 23.3691 27.0833 23.8047 27.5856 23.8047ZM23.5556 56.6691C36.5644 56.6691 47.1111 56.4513 47.1111 56.1824C47.1111 55.9147 36.5644 55.6969 23.5556 55.6969C10.5467 55.6969 0 55.9147 0 56.1824C0 56.4513 10.5467 56.6691 23.5556 56.6691Z" fill="white"/>
<path d="M32.5511 55.358C32.9011 55.0591 30.8011 54.7602 28.4555 54.5358H4.30554V55.8069C8.6811 55.8813 31.7467 56.1069 32.5511 55.358Z" fill="white"/>
<path d="M28.4555 54.5358C30.8011 54.7602 32.8667 55.0224 32.5511 55.358C31.7467 56.1058 8.6811 55.8447 4.30554 55.8069V56.1813H35.2811V54.5358H28.4555ZM28.9467 53.9002C28.9467 52.6302 24.9911 51.8069 20.4767 51.2835V50.9102L19.7767 50.8724L7.80554 51.658C6.75554 51.7324 5.91665 52.6669 5.91665 53.7891V54.5369H22.4C25.5155 54.3491 28.9444 54.088 28.9444 53.9013" fill="white"/>
<path d="M33.6378 53.8247C33.6378 52.7035 32.7978 51.7691 31.7478 51.6947L20.4778 50.9469V51.3202C25.0278 51.8435 28.9478 52.6291 28.9478 53.9369C28.9478 54.1247 25.4822 54.3858 22.3678 54.6102H33.6033L33.6378 53.8247ZM20.7222 48.3291H18.5167C18.1322 48.3291 17.8167 48.6658 17.8167 49.0769V51.1324H20.3022C20.7911 50.1235 21.0022 49.0769 20.7222 48.3291Z" fill="white"/>
<path d="M22.1556 49.0391H21.8056C21.8056 48.628 21.49 48.3291 21.1056 48.3291H20.72C20.79 48.5535 20.86 48.8158 20.86 49.0402H17.4667V49.7124H20.7911C20.6867 50.1991 20.5467 50.6847 20.3356 51.0958H21.8411V49.7124H22.1911L22.1556 49.0391Z" fill="white"/>
<path d="M45.2222 3.87801C45.1867 3.84024 45.1167 3.80246 45.0822 3.76579C43.9267 3.24246 41.2322 7.28024 39.0967 12.7758C37.0667 17.9347 36.2267 22.5336 37.1022 23.5058C37.156 23.5751 37.2291 23.6269 37.3122 23.6547C38.4678 24.178 41.1622 20.1402 43.2967 14.6447C45.3267 9.41135 46.1667 4.73801 45.2222 3.87801Z" stroke="white" stroke-miterlimit="10"/>
<path d="M29.3622 12.9624C29.3622 6.75688 34.0522 1.74688 39.8622 1.74688C40.2122 1.74688 40.5622 1.78466 40.8778 1.78466C38.3865 1.14659 35.7657 1.22438 33.3167 2.00911C32.205 2.33824 31.0432 2.46469 29.8867 2.38244C29.3622 2.34466 28.8022 2.34466 28.2767 2.27133C27.4261 2.19544 26.5962 1.96698 25.8267 1.59688C25.4751 1.41368 25.113 1.25154 24.7422 1.11133L24.4978 1.22244C24.3222 1.59688 23.7267 2.79355 23.2367 3.80355C22.7504 4.84787 22.3296 5.92142 21.9767 7.01799C21.6622 8.10244 21.2767 9.33577 21.1722 9.74799L21.3122 10.0091C21.6622 10.1591 22.0122 10.3458 22.3967 10.4947C23.1981 10.82 23.9335 11.2887 24.5667 11.878C24.9867 12.2524 25.3722 12.6258 25.7922 13.0002C26.6667 13.8224 27.3667 14.7947 27.9622 15.878C29.2922 18.5335 31.3222 20.7013 33.8067 22.1224C31.0067 19.9913 29.3622 16.5891 29.3622 12.9624Z" fill="white"/>
<path d="M37.1011 23.5058C36.2611 22.5336 37.1011 17.9347 39.0966 12.7758C41.2311 7.28024 43.9266 3.24246 45.0811 3.76468C45.1511 3.80246 45.1866 3.84024 45.2211 3.87801V3.84024C44.1711 2.90579 42.9466 2.4569 41.7211 2.08357C41.5811 2.04579 41.3011 1.93357 40.8811 1.82135C40.5311 1.78357 40.2166 1.78357 39.8666 1.78357C34.0555 1.78357 29.3666 6.83135 29.4011 13.0369C29.4011 16.6258 31.0455 19.9913 33.7766 22.0847L33.9166 22.1591C34.8897 22.7936 35.968 23.2496 37.1011 23.5058Z" fill="white"/>
<path d="M43.7145 14.7591C45.0445 11.0202 42.3189 8.71356 41.5845 8.37689C40.6434 10.208 40.6045 10.2958 39.5456 12.828C38.4956 15.4069 38.3067 16.3113 37.8867 17.8447C38.6212 18.1813 42.3145 18.6469 43.7145 14.7591Z" fill="white"/>
</g>
<line x1="63" y1="75.5" x2="290" y2="75.5" stroke="white"/>
<path d="M71.9967 151.495H71.03V149.06H64.9667V151.495H64V148.075H64.6744C65.287 146.97 65.8104 145.627 66.2444 144.046C66.6815 142.465 66.9241 141.02 66.9722 139.711H70.8933V148.075H71.9967V151.495ZM69.8789 148.075V140.689H67.8911C67.82 141.721 67.5793 142.962 67.1689 144.411C66.7593 145.856 66.2819 147.077 65.7367 148.075H69.8789ZM75.8667 139.711H76.8156V144.91C76.8156 145.869 76.7878 146.737 76.7322 147.512H76.78L81.6733 139.711H82.7833V149.06H81.8278V143.912C81.8278 143.055 81.8619 142.156 81.93 141.214H81.8767L76.9767 149.06H75.8656L75.8667 139.711ZM92.6211 141.898C92.6211 142.512 92.4378 143.011 92.0711 143.394C91.7089 143.778 91.2078 144.021 90.5678 144.123V144.175C91.2959 144.281 91.847 144.526 92.2211 144.91C92.5989 145.293 92.7878 145.794 92.7878 146.412C92.7878 147.285 92.4833 147.967 91.8744 148.46C91.2656 148.944 90.4063 149.186 89.2967 149.187C88.2819 149.187 87.4504 149.019 86.8022 148.682V147.671C87.1837 147.867 87.5956 148.019 88.0378 148.126C88.4584 148.23 88.8884 148.283 89.32 148.286C90.1089 148.286 90.7037 148.126 91.1044 147.806C91.5104 147.487 91.7133 147.027 91.7133 146.425C91.7133 145.854 91.4885 145.421 91.0389 145.127C90.5944 144.834 89.9278 144.687 89.0389 144.687H87.7389V143.771H88.9867C89.8015 143.771 90.4319 143.616 90.8778 143.305C91.3274 142.989 91.5522 142.55 91.5522 141.988C91.5522 141.531 91.3911 141.166 91.0689 140.894C90.7467 140.622 90.3133 140.485 89.7689 140.485C89.3304 140.485 88.9341 140.538 88.58 140.645C88.2259 140.752 87.8163 140.962 87.3511 141.277L86.85 140.549C87.2515 140.23 87.7007 139.989 88.1978 139.826C88.7 139.66 89.2193 139.576 89.7556 139.576C90.6511 139.576 91.3515 139.787 91.8567 140.21C92.3663 140.628 92.6211 141.19 92.6211 141.898ZM102.528 149.06L101.442 146.086H97.9444L96.8722 149.06H95.8456L99.2944 139.673H100.148L103.58 149.06H102.528ZM101.126 145.107L100.111 142.212C99.98 141.845 99.8448 141.395 99.7056 140.862C99.6174 141.271 99.4922 141.721 99.33 142.212L98.3033 145.108L101.126 145.107ZM107.173 139.712H108.122V144.91C108.122 145.869 108.094 146.737 108.039 147.512H108.087L112.98 139.711H114.09V149.06H113.136V143.912C113.136 143.055 113.169 142.156 113.237 141.214H113.183L108.284 149.06H107.174L107.173 139.712ZM110.79 138.963C110.054 138.963 109.517 138.812 109.179 138.51C108.84 138.202 108.651 137.699 108.612 137H109.542C109.579 137.444 109.687 137.753 109.864 137.927C110.048 138.102 110.364 138.189 110.813 138.189C111.224 138.189 111.526 138.096 111.721 137.908C111.92 137.72 112.041 137.417 112.084 137H113.022C112.974 137.674 112.773 138.171 112.419 138.49C112.066 138.806 111.523 138.963 110.79 138.963ZM125.492 149.06H124.478V144.661H119.882V149.06H118.868V139.712H119.882V143.688H124.478V139.712H125.492V149.06ZM135.138 149.06H130.274V139.712H135.138V140.676H131.289V143.688H134.906V144.648H131.289V148.088H135.138V149.06ZM144.993 142.435C144.993 143.381 144.691 144.11 144.087 144.621C143.486 145.129 142.624 145.383 141.502 145.383H140.476V149.06H139.461V139.712H141.723C143.903 139.712 144.993 140.619 144.993 142.435ZM140.476 144.449H141.389C142.288 144.449 142.939 144.293 143.34 143.982C143.742 143.671 143.943 143.172 143.943 142.486C143.943 141.868 143.754 141.408 143.377 141.105C142.997 140.802 142.409 140.651 141.61 140.651H140.476V144.449ZM152.944 140.549C151.986 140.549 151.228 140.892 150.671 141.579C150.118 142.261 149.841 143.197 149.841 144.386C149.841 145.608 150.108 146.554 150.641 147.225C151.178 147.889 151.942 148.221 152.933 148.221C153.541 148.221 154.235 148.104 155.016 147.87V148.823C154.41 149.065 153.664 149.187 152.778 149.187C151.493 149.187 150.5 148.769 149.8 147.935C149.104 147.099 148.756 145.912 148.756 144.373C148.756 143.409 148.923 142.565 149.257 141.84C149.575 141.138 150.082 140.555 150.713 140.165C151.35 139.773 152.097 139.577 152.957 139.577C153.872 139.577 154.672 139.756 155.356 140.113L154.927 141.048C154.308 140.727 153.631 140.557 152.944 140.549ZM165.581 149.06H164.351L160.318 144.321V149.06H159.302V139.712H160.318V144.238L164.25 139.711H165.413L161.552 144.251L165.581 149.06ZM176.743 144.373C176.743 145.869 176.389 147.045 175.681 147.902C174.977 148.76 173.996 149.188 172.739 149.188C171.454 149.188 170.461 148.768 169.761 147.927C169.065 147.083 168.717 145.894 168.717 144.36C168.717 142.838 169.067 141.66 169.767 140.824C170.467 139.984 171.461 139.564 172.75 139.564C174.003 139.564 174.982 139.99 175.687 140.843C176.391 141.695 176.743 142.872 176.743 144.373ZM169.79 144.373C169.79 145.638 170.041 146.599 170.542 147.256C171.048 147.908 171.78 148.235 172.739 148.235C173.706 148.235 174.436 147.908 174.929 147.256C175.422 146.604 175.669 145.643 175.669 144.373C175.669 143.115 175.422 142.162 174.929 141.515C174.44 140.862 173.714 140.536 172.75 140.536C171.783 140.536 171.047 140.864 170.542 141.52C170.041 142.173 169.79 143.123 169.79 144.373ZM185.942 149.06H181.078V139.712H185.942V140.676H182.092V143.688H185.709V144.648H182.092V148.088H185.942V149.06ZM203.396 144.373C203.396 145.869 203.041 147.045 202.333 147.902C201.63 148.76 200.649 149.188 199.391 149.188C198.107 149.188 197.114 148.768 196.413 147.927C195.717 147.083 195.369 145.894 195.369 144.36C195.369 142.838 195.719 141.66 196.42 140.824C197.12 139.984 198.114 139.564 199.403 139.564C200.657 139.564 201.636 139.99 202.34 140.843C203.044 141.695 203.396 142.872 203.396 144.373ZM196.443 144.373C196.443 145.638 196.694 146.599 197.196 147.256C197.701 147.908 198.433 148.235 199.391 148.235C200.359 148.235 201.089 147.908 201.582 147.256C202.076 146.604 202.322 145.643 202.322 144.373C202.322 143.115 202.076 142.162 201.582 141.515C201.093 140.862 200.366 140.536 199.403 140.536C198.437 140.536 197.701 140.864 197.196 141.52C196.694 142.173 196.443 143.123 196.443 144.373ZM211.467 140.549C210.508 140.549 209.75 140.892 209.193 141.579C208.64 142.261 208.363 143.197 208.363 144.386C208.363 145.608 208.63 146.554 209.163 147.225C209.7 147.889 210.464 148.221 211.454 148.221C212.063 148.221 212.758 148.104 213.538 147.87V148.823C212.933 149.065 212.187 149.187 211.3 149.187C210.015 149.187 209.022 148.769 208.322 147.935C207.626 147.099 207.278 145.912 207.278 144.373C207.278 143.409 207.445 142.565 207.779 141.84C208.097 141.139 208.604 140.556 209.234 140.165C209.871 139.773 210.62 139.577 211.479 139.577C212.394 139.577 213.193 139.756 213.878 140.113L213.448 141.048C212.83 140.726 212.153 140.555 211.467 140.549ZM217.824 139.712H220.29C221.448 139.712 222.285 139.897 222.802 140.268C223.319 140.638 223.578 141.225 223.578 142.026C223.578 142.579 223.433 143.038 223.142 143.401C222.856 143.758 222.436 143.99 221.883 144.098V144.162C223.208 144.404 223.87 145.15 223.87 146.4C223.87 147.235 223.606 147.887 223.077 148.356C222.551 148.825 221.815 149.06 220.869 149.06H217.824V139.712ZM218.839 143.714H220.51C221.227 143.714 221.742 143.595 222.056 143.356C222.37 143.113 222.528 142.706 222.528 142.135C222.528 141.611 222.353 141.234 222.002 141.004C221.653 140.769 221.096 140.651 220.331 140.651H218.839V143.714ZM218.839 144.635V148.132H220.66C221.364 148.132 221.893 147.987 222.247 147.698C222.605 147.404 222.784 146.946 222.784 146.323C222.784 145.743 222.601 145.317 222.236 145.044C221.873 144.77 221.32 144.634 220.576 144.635H218.839ZM232.998 149.06H228.133V139.712H232.998V140.676H229.148V143.688H232.764V144.648H229.148V148.088H232.998V149.06ZM237.32 149.06V139.712H238.334V148.075H241.814V139.711H242.84V148.075H246.326V139.711H247.34V148.075H248.367V151.495H247.4V149.06H237.32ZM257.196 149.06H252.331V139.712H257.196V140.676H253.346V143.688H256.962V144.648H253.346V148.088H257.196V149.06ZM268.142 149.06H267.128V144.661H262.533V149.06H261.518V139.712H262.533V143.688H267.128V139.712H268.142V149.06ZM272.937 139.712H273.886V144.91C273.886 145.869 273.858 146.737 273.802 147.512H273.85L278.743 139.711H279.853V149.06H278.899V143.912C278.899 143.055 278.933 142.156 279 141.214H278.947L274.047 149.06H272.937V139.712ZM289.494 149.06H284.63V139.712H289.494V140.676H285.644V143.688H289.261V144.648H285.644V148.088H289.494V149.06Z" fill="white"/>
<path d="M65.3201 119.06V118.367L68.3561 117.872V93.848L65.3201 93.386V92.66H90.8951V93.386L87.8261 93.848V117.872L90.8951 118.367V119.06H81.1271V118.367L84.1961 117.872V93.485H71.9861V117.872L75.0221 118.367V119.06H65.3201Z" fill="white"/>
<path d="M103.616 119.39C102.56 119.39 101.735 119.115 101.141 118.565C100.569 117.993 100.283 117.256 100.283 116.354C100.283 115.606 100.514 115.001 100.976 114.539C101.438 114.055 101.999 113.813 102.659 113.813C103.143 113.813 103.572 113.923 103.946 114.143C104.32 114.341 104.606 114.627 104.804 115.001C104.782 115.023 104.716 115.1 104.606 115.232C104.496 115.364 104.397 115.54 104.309 115.76C104.221 115.98 104.177 116.233 104.177 116.519C104.177 116.937 104.287 117.278 104.507 117.542C104.727 117.784 105.035 117.905 105.431 117.905C106.003 117.905 106.531 117.641 107.015 117.113C107.499 116.585 108.071 115.584 108.731 114.11L109.16 113.12L98.4345 93.848L95.8275 93.386V92.66H105.761V93.386L102.692 93.848L111.074 108.896L117.311 94.97L113.351 93.386V92.66H120.743V93.386L118.202 95.003L109.49 114.407C108.896 115.727 108.324 116.739 107.774 117.443C107.246 118.147 106.652 118.653 105.992 118.961C105.354 119.247 104.562 119.39 103.616 119.39Z" fill="white"/>
<path d="M125.627 119.39C124.571 119.39 123.79 119.148 123.284 118.664C122.8 118.158 122.558 117.542 122.558 116.816C122.558 116.244 122.745 115.749 123.119 115.331C123.515 114.891 124.054 114.671 124.736 114.671C125.132 114.671 125.462 114.759 125.726 114.935C126.012 115.089 126.21 115.254 126.32 115.43C126.452 115.584 126.529 115.694 126.551 115.76C126.155 116.024 125.957 116.365 125.957 116.783C125.957 117.047 126.034 117.267 126.188 117.443C126.364 117.619 126.595 117.707 126.881 117.707C127.607 117.707 128.223 117.168 128.729 116.09C129.257 114.99 129.686 113.164 130.016 110.612C130.368 108.06 130.632 104.595 130.808 100.217L131.039 94.871L127.541 93.419V92.66H146.747V93.386L143.678 93.848V117.872L146.747 118.367V119.06H136.979V118.367L140.048 117.872V93.485H131.996L131.699 100.25C131.479 105.178 131.193 108.962 130.841 111.602C130.489 114.22 129.906 116.178 129.092 117.476C128.3 118.752 127.145 119.39 125.627 119.39Z" fill="white"/>
<path d="M153.665 118.334L156.701 117.872V93.848L153.665 93.353V92.66H163.367V93.353L160.331 93.848V104.21H165.017C168.251 104.21 170.66 104.826 172.244 106.058C173.85 107.268 174.653 109.127 174.653 111.635C174.653 114.143 173.85 116.013 172.244 117.245C170.66 118.455 168.251 119.06 165.017 119.06H153.665V118.334ZM164.555 118.235C166.601 118.235 168.13 117.751 169.142 116.783C170.154 115.815 170.66 114.319 170.66 112.295V110.975C170.66 108.951 170.154 107.455 169.142 106.487C168.13 105.497 166.601 105.002 164.555 105.002H160.331V118.235H164.555Z" fill="white"/>
<path d="M193.791 119.72C191.393 119.72 189.292 119.137 187.488 117.971C185.684 116.805 184.287 115.177 183.297 113.087C182.329 110.997 181.845 108.588 181.845 105.86C181.845 103.132 182.34 100.723 183.33 98.633C184.342 96.521 185.761 94.893 187.587 93.749C189.435 92.583 191.558 92 193.956 92C194.902 92 195.859 92.165 196.827 92.495C197.817 92.825 198.708 93.287 199.5 93.881L201.711 92H202.404V100.184H201.711L199.665 95.069C198.895 94.365 197.993 93.804 196.959 93.386C195.947 92.968 194.946 92.759 193.956 92.759C192.416 92.759 191.052 93.155 189.864 93.947C188.698 94.739 187.785 95.894 187.125 97.412C186.465 98.93 186.135 100.734 186.135 102.824V108.863C186.135 110.953 186.454 112.757 187.092 114.275C187.73 115.793 188.621 116.959 189.765 117.773C190.909 118.565 192.251 118.961 193.791 118.961C194.913 118.961 196.035 118.719 197.157 118.235C198.279 117.729 199.214 117.058 199.962 116.222L201.876 110.909H202.569V119.39H201.876L199.5 117.707C198.708 118.345 197.806 118.84 196.794 119.192C195.782 119.544 194.781 119.72 193.791 119.72Z" fill="white"/>
<path d="M222.67 119.72C220.272 119.72 218.171 119.137 216.367 117.971C214.563 116.805 213.166 115.177 212.176 113.087C211.208 110.997 210.724 108.588 210.724 105.86C210.724 103.132 211.219 100.723 212.209 98.633C213.221 96.521 214.64 94.893 216.466 93.749C218.314 92.583 220.437 92 222.835 92C223.781 92 224.738 92.165 225.706 92.495C226.696 92.825 227.587 93.287 228.379 93.881L230.59 92H231.283V100.184H230.59L228.544 95.069C227.774 94.365 226.872 93.804 225.838 93.386C224.826 92.968 223.825 92.759 222.835 92.759C221.295 92.759 219.931 93.155 218.743 93.947C217.577 94.739 216.664 95.894 216.004 97.412C215.344 98.93 215.014 100.734 215.014 102.824V108.863C215.014 110.953 215.333 112.757 215.971 114.275C216.609 115.793 217.5 116.959 218.644 117.773C219.788 118.565 221.13 118.961 222.67 118.961C223.792 118.961 224.914 118.719 226.036 118.235C227.158 117.729 228.093 117.058 228.841 116.222L230.755 110.909H231.448V119.39H230.755L228.379 117.707C227.587 118.345 226.685 118.84 225.673 119.192C224.661 119.544 223.66 119.72 222.67 119.72Z" fill="white"/>
<path d="M236.897 119.06V118.367L240.131 117.047L249.668 92H250.196L259.205 117.872L262.241 118.367V119.06H252.539V118.367L255.245 117.938L252.44 110.117H243.662L240.989 117.047L243.959 118.367V119.06H236.897ZM243.926 109.424H252.209L248.249 97.808L243.926 109.424Z" fill="white"/>
<path d="M267.15 118.367L270.186 117.872V93.848L267.15 93.386V92.66H277.512C280.768 92.66 283.188 93.353 284.772 94.739C286.356 96.125 287.148 98.127 287.148 100.745C287.148 103.363 286.356 105.365 284.772 106.751C283.188 108.137 280.768 108.83 277.512 108.83H273.816V117.872L276.852 118.367V119.06H267.15V118.367ZM277.05 108.038C281.12 108.038 283.155 105.827 283.155 101.405V100.085C283.155 95.685 281.12 93.485 277.05 93.485H273.816V108.038H277.05Z" fill="white"/>
</svg>
