<svg width="465" height="52" viewBox="0 0 465 52" fill="none" xmlns="http://www.w3.org/2000/svg">
<path d="M55.3011 23.9494L57.9237 23.5161V2.48497L55.3011 2.08052V1.44497H64.2519C67.0645 1.44497 69.1549 2.05164 70.5232 3.26497C71.8915 4.4783 72.5756 6.2309 72.5756 8.52275C72.5756 10.8146 71.8915 12.5672 70.5232 13.7805C69.1549 14.9939 67.0645 15.6005 64.2519 15.6005H61.0593V23.5161L63.6818 23.9494V24.5561H55.3011V23.9494ZM63.8529 14.9072C67.3686 14.9072 69.1264 12.9716 69.1264 9.10053V7.94497C69.1264 4.09312 67.3686 2.16719 63.8529 2.16719H61.0593V14.9072H63.8529ZM93.801 25.1339C91.0074 25.1339 88.9645 24.5079 87.6723 23.2561C86.38 21.985 85.7339 20.3094 85.7339 18.2294V2.48497L83.1114 2.08052V1.44497H91.492V2.08052L88.8695 2.48497V18.2294C88.8695 20.1168 89.3921 21.5709 90.4373 22.5916C91.4825 23.5931 93.0694 24.0939 95.1978 24.0939C99.2266 24.0939 101.241 22.139 101.241 18.2294V3.20719L98.59 2.08052V1.44497H104.662V2.08052L101.925 3.20719V18.2294C101.925 20.5405 101.289 22.2739 100.015 23.4294C98.742 24.5657 96.6706 25.1339 93.801 25.1339ZM115.226 24.5561V23.9494L117.848 23.5161V2.48497L115.226 2.08052V1.44497H123.607V2.08052L120.984 2.48497V23.8627H129.507L131.845 17.5072H132.614V24.5561H115.226ZM152.192 25.1339C150.425 25.1339 148.686 24.6235 146.976 23.6027L144.553 24.845H143.926V17.4205H144.553L147.004 22.7939C148.581 23.9302 150.387 24.4983 152.42 24.4983C154.093 24.4983 155.47 24.0553 156.554 23.1694C157.656 22.2642 158.207 21.0027 158.207 19.385C158.207 18.2102 157.855 17.2857 157.152 16.6116C156.449 15.9183 155.309 15.3694 153.731 14.965L149 13.7227C147.346 13.2798 146.101 12.5287 145.265 11.4694C144.429 10.3909 144.011 9.11978 144.011 7.65608C144.011 6.32719 144.268 5.15238 144.781 4.13164C145.292 3.1132 146.097 2.27681 147.09 1.73386C148.097 1.15608 149.294 0.867191 150.681 0.867191C152.411 0.867191 153.96 1.16571 155.328 1.76275L157.409 0.867191H158.036V6.76052H157.409L155.356 2.54275C153.931 1.84941 152.382 1.50275 150.71 1.50275C149.057 1.50275 147.755 1.93608 146.805 2.80275C145.854 3.65015 145.379 4.77682 145.379 6.18275C145.379 7.22275 145.712 8.04127 146.377 8.6383C147.061 9.23534 148.059 9.70719 149.37 10.0539L154.473 11.4116C156.126 11.8353 157.352 12.5672 158.15 13.6072C158.967 14.6279 159.376 16.1879 159.376 18.2872C159.376 20.425 158.72 22.1005 157.409 23.3139C156.116 24.5272 154.378 25.1339 152.192 25.1339ZM179.871 25.1339C178.104 25.1339 176.365 24.6235 174.655 23.6027L172.232 24.845H171.605V17.4205H172.232L174.683 22.7939C176.261 23.9302 178.066 24.4983 180.099 24.4983C181.772 24.4983 183.149 24.0553 184.233 23.1694C185.335 22.2642 185.886 21.0027 185.886 19.385C185.886 18.2102 185.534 17.2857 184.831 16.6116C184.128 15.9183 182.988 15.3694 181.411 14.965L176.679 13.7227C175.025 13.2798 173.781 12.5287 172.944 11.4694C172.108 10.3909 171.69 9.11978 171.69 7.65608C171.69 6.32719 171.947 5.15238 172.46 4.13164C172.971 3.1132 173.777 2.27681 174.769 1.73386C175.776 1.15608 176.973 0.867191 178.36 0.867191C180.09 0.867191 181.639 1.16571 183.007 1.76275L185.088 0.867191H185.715V6.76052H185.088L183.035 2.54275C181.61 1.84941 180.061 1.50275 178.389 1.50275C176.736 1.50275 175.434 1.93608 174.484 2.80275C173.533 3.65015 173.058 4.77682 173.058 6.18275C173.058 7.22275 173.391 8.04127 174.056 8.6383C174.74 9.23534 175.738 9.70719 177.049 10.0539L182.152 11.4116C183.805 11.8353 185.031 12.5672 185.829 13.6072C186.646 14.6279 187.055 16.1879 187.055 18.2872C187.055 20.425 186.399 22.1005 185.088 23.3139C183.796 24.5272 182.057 25.1339 179.871 25.1339ZM196.577 24.5561V23.9494L199.37 22.7939L207.608 0.867191H208.064L215.846 23.5161L218.469 23.9494V24.5561H210.088V23.9494L212.426 23.5739L210.003 16.7272H202.42L200.111 22.7939L202.677 23.9494V24.5561H196.577ZM202.648 16.1205H209.803L206.383 5.95164L202.648 16.1205ZM244.259 24.845C243.195 24.845 242.397 24.585 241.865 24.065C241.333 23.545 240.971 22.659 240.781 21.4072L240.24 17.5361C240.05 16.2265 239.603 15.2057 238.9 14.4739C238.216 13.7227 237.142 13.3472 235.679 13.3472H233.455V23.5161L236.078 23.9494V24.5561H227.697V23.9494L230.32 23.5161V2.48497L227.697 2.08052V1.44497H235.679C238.776 1.44497 241.019 1.93608 242.406 2.9183C243.794 3.90052 244.487 5.39312 244.487 7.39608C244.487 10.7087 242.511 12.625 238.558 13.145V13.3183C240.021 13.5302 241.19 14.0598 242.064 14.9072C242.957 15.7546 243.518 16.8813 243.746 18.2872L244.117 20.7716C244.269 21.8502 244.44 22.582 244.63 22.9672C244.839 23.3524 245.152 23.545 245.57 23.545C245.855 23.545 246.159 23.4583 246.483 23.285C246.806 23.0924 247.11 22.8516 247.395 22.5627L247.879 23.0827C247.328 23.7183 246.758 24.1709 246.169 24.4405C245.58 24.7102 244.943 24.845 244.259 24.845ZM236.648 12.6539C238.035 12.6539 239.109 12.2302 239.869 11.3827C240.648 10.5161 241.038 9.24497 241.038 7.56941V6.96275C241.038 3.76571 239.252 2.16719 235.679 2.16719H233.455V12.6539H236.648ZM61.0707 51.0819H60.244V49.1116H55.0588V51.0819H54.2322V48.3153H54.8089C55.3328 47.4216 55.7804 46.3354 56.1516 45.0566C56.5253 43.7778 56.7328 42.6087 56.7739 41.5495H60.1272V48.3153H61.0707V51.0819ZM59.2596 48.3153V42.341H57.5597C57.4989 43.1756 57.2931 44.179 56.9421 45.3513C56.5918 46.5203 56.1836 47.5083 55.7173 48.3153H59.2596ZM64.3802 41.5495H65.1917V45.7547C65.1917 46.5309 65.1679 47.2326 65.1204 47.8598H65.1613L69.3459 41.5495H70.2952V49.1116H69.478V44.9478C69.478 44.2545 69.5071 43.5271 69.5654 42.7657H69.5198L65.3295 49.1116H64.3793L64.3802 41.5495ZM78.7082 43.3185C78.7082 43.8153 78.5514 44.2188 78.2378 44.5289C77.9281 44.8396 77.4995 45.0361 76.9522 45.1182V45.1606C77.5749 45.2466 78.0462 45.4447 78.3661 45.7547C78.6892 46.0648 78.8507 46.4699 78.8507 46.97C78.8507 47.6762 78.5903 48.2283 78.0696 48.6263C77.5489 49.0179 76.8141 49.214 75.8652 49.2147C74.9974 49.2147 74.2863 49.0786 73.732 48.8064V47.9888C74.0582 48.1474 74.4104 48.27 74.7886 48.3567C75.1484 48.4403 75.5161 48.4836 75.8851 48.4857C76.5598 48.4857 77.0684 48.3564 77.4112 48.0976C77.7583 47.8396 77.9319 47.4672 77.9319 46.9806C77.9319 46.5184 77.7396 46.1685 77.3551 45.931C76.975 45.6934 76.4049 45.5747 75.6447 45.5747H74.533V44.8342H75.6001C76.2969 44.8342 76.836 44.7083 77.2173 44.4567C77.6018 44.2012 77.7941 43.8462 77.7941 43.3916C77.7941 43.0219 77.6563 42.7269 77.3807 42.5067C77.1052 42.2865 76.7346 42.1761 76.269 42.1754C75.894 42.1754 75.5551 42.2187 75.2523 42.3054C74.9495 42.3914 74.5992 42.5619 74.2014 42.8168L73.7729 42.2274C74.1162 41.9693 74.5004 41.7745 74.9254 41.6429C75.3549 41.5081 75.799 41.4407 76.2576 41.4407C77.0235 41.4407 77.6224 41.6114 78.0544 41.953C78.4903 42.2913 78.7082 42.7465 78.7082 43.3185ZM87.1801 49.1116L86.2517 46.7062H83.2605L82.3436 49.1116H81.4656L84.415 41.5187H85.1448L88.0799 49.1116H87.1801ZM85.9809 45.9146L85.1134 43.5727C85.0013 43.2761 84.8857 42.9121 84.7666 42.4807C84.6912 42.8119 84.5841 43.1759 84.4454 43.5727L83.5674 45.9156L85.9809 45.9146ZM91.1528 41.5505H91.9643V45.7547C91.9643 46.5309 91.9405 47.2326 91.893 47.8598H91.9339L96.1185 41.5495H97.0678V49.1116H96.2515V44.9478C96.2515 44.2545 96.2804 43.5271 96.338 42.7657H96.2924L92.103 49.1116H91.1538L91.1528 41.5505ZM94.2457 40.9447C93.6167 40.9447 93.1574 40.8225 92.8679 40.5779C92.5784 40.3294 92.4169 39.9224 92.3833 39.3568H93.1786C93.2103 39.7157 93.3022 39.9657 93.4542 40.107C93.6113 40.2482 93.8818 40.3188 94.2656 40.3188C94.6166 40.3188 94.8754 40.2431 95.042 40.0916C95.2124 39.9394 95.3159 39.6945 95.3527 39.3568H96.1546C96.1135 39.9019 95.9415 40.3037 95.6387 40.5625C95.3365 40.8173 94.8722 40.9447 94.2457 40.9447ZM106.819 49.1116H105.951V45.5535H102.021V49.1116H101.154V41.5505H102.021V44.7667H105.951V41.5505H106.819V49.1116ZM115.067 49.1116H110.908V41.5505H115.067V42.3305H111.776V44.7667H114.869V45.5429H111.776V48.3259H115.067V49.1116ZM123.495 43.7528C123.495 44.5186 123.237 45.1083 122.72 45.5217C122.206 45.9326 121.47 46.138 120.51 46.138H119.632V49.1116H118.764V41.5505H120.699C122.563 41.5505 123.495 42.2846 123.495 43.7528ZM119.632 45.3821H120.413C121.182 45.3821 121.738 45.2563 122.082 45.0046C122.426 44.7529 122.598 44.3495 122.598 43.7942C122.598 43.2947 122.436 42.9224 122.113 42.6771C121.789 42.4325 121.285 42.3102 120.602 42.3102H119.632V45.3821ZM130.295 42.2274C129.475 42.2274 128.827 42.5051 128.351 43.0604C127.878 43.6125 127.641 44.3694 127.641 45.331C127.641 46.3197 127.869 47.0852 128.325 47.6277C128.785 48.165 129.438 48.4337 130.286 48.4337C130.805 48.4337 131.399 48.339 132.066 48.1496V48.92C131.549 49.1165 130.911 49.2147 130.152 49.2147C129.053 49.2147 128.205 48.877 127.606 48.2016C127.011 47.5256 126.713 46.5652 126.713 45.3205C126.713 44.5411 126.856 43.8584 127.141 43.2722C127.413 42.7043 127.847 42.2322 128.387 41.9173C128.931 41.6002 129.571 41.4416 130.305 41.4416C131.088 41.4416 131.772 41.5861 132.357 41.875L131.99 42.6309C131.461 42.3716 130.882 42.2338 130.295 42.2274ZM141.102 49.1116H140.05L136.6 45.279V49.1116H135.732V41.5505H136.6V45.2116L139.963 41.5495H140.958L137.656 45.2222L141.102 49.1116ZM150.647 45.3205C150.647 46.5306 150.344 47.4823 149.739 48.1756C149.136 48.869 148.298 49.2156 147.223 49.2156C146.124 49.2156 145.275 48.8757 144.676 48.1959C144.081 47.5128 143.783 46.5508 143.783 45.3099C143.783 44.0792 144.082 43.1259 144.681 42.4499C145.28 41.7707 146.13 41.431 147.232 41.431C148.304 41.431 149.141 41.7758 149.744 42.4653C150.346 43.1547 150.647 44.1065 150.647 45.3205ZM144.701 45.3205C144.701 46.3438 144.915 47.1212 145.344 47.6528C145.777 48.1805 146.403 48.4443 147.223 48.4443C148.049 48.4443 148.674 48.1805 149.096 47.6528C149.517 47.1257 149.728 46.3483 149.728 45.3205C149.728 44.3029 149.517 43.5326 149.096 43.0093C148.677 42.481 148.056 42.2168 147.232 42.2168C146.406 42.2168 145.776 42.4823 145.344 43.0132C144.915 43.5409 144.701 44.31 144.701 45.3205ZM158.514 49.1116H154.354V41.5505H158.514V42.3305H155.221V44.7667H158.314V45.5429H155.221V48.3259H158.514V49.1116ZM173.439 45.3205C173.439 46.5306 173.137 47.4823 172.531 48.1756C171.929 48.869 171.091 49.2156 170.015 49.2156C168.917 49.2156 168.068 48.8757 167.468 48.1959C166.873 47.5128 166.575 46.5508 166.575 45.3099C166.575 44.0792 166.875 43.1259 167.474 42.4499C168.073 41.7707 168.923 41.431 170.025 41.431C171.097 41.431 171.934 41.7758 172.537 42.4653C173.139 43.1547 173.44 44.1065 173.439 45.3205ZM167.494 45.3205C167.494 46.3438 167.709 47.1212 168.137 47.6528C168.57 48.1805 169.196 48.4443 170.015 48.4443C170.842 48.4443 171.467 48.1805 171.889 47.6528C172.311 47.1257 172.522 46.3483 172.522 45.3205C172.522 44.3029 172.311 43.5326 171.889 43.0093C171.47 42.481 170.849 42.2168 170.025 42.2168C169.199 42.2168 168.569 42.4823 168.137 43.0132C167.709 43.5409 167.494 44.31 167.494 45.3205ZM180.342 42.2274C179.522 42.2274 178.874 42.5051 178.398 43.0604C177.924 43.6125 177.688 44.3694 177.688 45.331C177.688 46.3197 177.916 47.0852 178.372 47.6277C178.831 48.165 179.484 48.4337 180.331 48.4337C180.852 48.4337 181.446 48.339 182.113 48.1496V48.92C181.595 49.1165 180.957 49.2147 180.199 49.2147C179.1 49.2147 178.251 48.877 177.653 48.2016C177.057 47.5256 176.759 46.5652 176.759 45.3205C176.759 44.5411 176.902 43.8584 177.188 43.2722C177.46 42.7047 177.894 42.2328 178.433 41.9173C178.977 41.6002 179.617 41.4416 180.352 41.4416C181.134 41.4416 181.818 41.5861 182.404 41.875L182.036 42.6309C181.508 42.3705 180.929 42.2327 180.342 42.2274ZM185.779 41.5505H187.887C188.877 41.5505 189.593 41.7004 190.035 42.0002C190.478 42.3 190.699 42.7741 190.699 43.4225C190.699 43.8699 190.575 44.2407 190.326 44.5347C190.081 44.8236 189.722 45.0113 189.25 45.098V45.15C190.382 45.3458 190.949 45.9493 190.949 46.9604C190.949 47.6357 190.722 48.1631 190.27 48.5425C189.82 48.9219 189.191 49.1116 188.382 49.1116H185.779V41.5505ZM186.646 44.7879H188.075C188.688 44.7879 189.129 44.6913 189.397 44.4981C189.666 44.3016 189.801 43.9723 189.801 43.5101C189.801 43.0864 189.651 42.7814 189.351 42.5953C189.052 42.4052 188.576 42.3102 187.922 42.3102H186.646V44.7879ZM186.646 45.5323V48.3615H188.203C188.805 48.3615 189.258 48.2443 189.56 48.01C189.867 47.7725 190.02 47.4017 190.02 46.8978C190.02 46.4291 189.864 46.0844 189.551 45.8636C189.241 45.6421 188.768 45.5317 188.131 45.5323H186.646ZM198.754 49.1116H194.594V41.5505H198.754V42.3305H195.462V44.7667H198.555V45.5429H195.462V48.3259H198.754V49.1116ZM202.451 49.1116V41.5505H203.318V48.3153H206.294V41.5495H207.171V48.3153H210.152V41.5495H211.019V48.3153H211.897V51.0819H211.071V49.1116H202.451ZM219.448 49.1116H215.288V41.5505H219.448V42.3305H216.155V44.7667H219.248V45.5429H216.155V48.3259H219.448V49.1116ZM228.809 49.1116H227.941V45.5535H224.012V49.1116H223.144V41.5505H224.012V44.7667H227.941V41.5505H228.809V49.1116ZM232.909 41.5505H233.721V45.7547C233.721 46.5309 233.697 47.2326 233.649 47.8598H233.69L237.875 41.5495H238.824V49.1116H238.008V44.9478C238.008 44.2545 238.037 43.5271 238.094 42.7657H238.049L233.858 49.1116H232.909V41.5505ZM247.069 49.1116H242.909V41.5505H247.069V42.3305H243.776V44.7667H246.869V45.5429H243.776V48.3259H247.069V49.1116Z" fill="white"/>
<mask id="mask0_10_365" style="mask-type:luminance" maskUnits="userSpaceOnUse" x="0" y="0" width="46" height="50">
<path d="M0 0.963223H45.6092V49.1114H0V0.963223Z" fill="white"/>
</mask>
<g mask="url(#mask0_10_365)">
<path d="M20.2625 2.48587L21.0112 2.8749L19.2752 6.89238L18.5265 6.50431C17.9582 6.21253 17.6884 5.4672 17.9582 4.81912L18.706 3.06942C18.7668 2.92444 18.8561 2.79357 18.9686 2.68486C19.081 2.57614 19.2142 2.49187 19.36 2.43722C19.5057 2.38257 19.661 2.35869 19.8162 2.36706C19.9714 2.37542 20.1232 2.41585 20.2625 2.48587ZM18.02 37.3191H15.7148V42.211H18.02V37.3191Z" fill="white"/>
<path d="M12.4832 30.3833H10.4479L16.7638 38.841H18.7687L12.4832 30.3833Z" fill="white"/>
<path d="M12.034 30.3811H10.0291L16.3146 38.8388H18.3195L12.034 30.3811ZM23.9161 35.9567L16.4324 27.2727L16.3127 28.1153L22.8082 36.2485L23.9161 35.9567Z" fill="white"/>
<path d="M16.315 28.114H15.1776L21.4926 36.6035L22.8096 36.2472L16.315 28.114Z" fill="white"/>
<path d="M16.1638 28.8943L10.9853 32.4909C10.4465 32.879 9.72819 32.7172 9.33956 32.1664C9.06971 31.7456 9.00985 31.2266 9.21984 30.773L12.842 23.1271L13.739 22.9971L15.206 23.5152L13.7399 25.1676V27.1446L16.1638 27.2091V28.8943Z" fill="white"/>
<path d="M24.4862 19.7888H22.7806L15.028 28.1165H16.7345L24.4862 19.7888ZM22.9003 13.6971L23.499 10.9103L13.1428 22.0566L14.0113 23.2555L22.9003 13.6971Z" fill="white"/>
<path d="M13.4208 22.2592L13.1319 23.4841L19.1352 25.1424L19.4241 23.9184L13.4208 22.2592ZM24.0981 37.6426V34.693H19.8184L17.3337 37.7389V40.4284L24.0981 37.6426ZM10.3289 32.1672C10.7584 32.1672 11.1071 31.7897 11.1071 31.3246C11.1071 30.8595 10.7584 30.482 10.3279 30.482C9.89938 30.482 9.55066 30.8595 9.55066 31.3246C9.55066 31.7897 9.89938 32.1672 10.3289 32.1672Z" fill="white"/>
<path d="M13.4982 23.4805C13.9277 23.4805 14.2764 23.103 14.2764 22.6379C14.2764 22.1728 13.9277 21.7953 13.4972 21.7953C13.0668 21.7953 12.72 22.1728 12.72 22.6379C12.72 23.103 13.0677 23.4805 13.4982 23.4805ZM17.03 39.9106C17.3436 39.9106 17.5983 39.6342 17.5983 39.2943C17.5983 38.9544 17.3436 38.679 17.03 38.679C16.7165 38.679 16.4609 38.9544 16.4609 39.2953C16.4609 39.6342 16.7155 39.9106 17.03 39.9106ZM22.4176 37.0265C22.6324 37.0265 22.8072 36.8368 22.8072 36.6047C22.8072 36.3717 22.6324 36.183 22.4176 36.183C22.2029 36.183 22.028 36.3717 22.028 36.6047C22.028 36.8368 22.2029 37.0265 22.4176 37.0265ZM24.3332 12.3362H22.9849V19.465H24.3323L24.3332 12.3362Z" fill="white"/>
<path d="M23.5904 20.6289C24.0199 20.6289 24.3686 20.2514 24.3686 19.7863C24.3686 19.3212 24.0199 18.9437 23.5895 18.9437C23.1609 18.9437 22.8122 19.3212 22.8122 19.7863C22.8122 20.2514 23.1609 20.6289 23.5904 20.6289ZM20.1441 49.1114C31.2689 49.1114 40.2881 48.9226 40.2881 48.6896C40.2881 48.4575 31.2689 48.2688 20.1441 48.2688C9.01922 48.2688 0 48.4575 0 48.6896C0 48.9226 9.01922 49.1114 20.1441 49.1114Z" fill="white"/>
<path d="M27.8367 47.9763C28.136 47.7173 26.3402 47.4582 24.3343 47.2637H3.68188V48.3653C7.42374 48.4298 27.1488 48.6253 27.8367 47.9763Z" fill="white"/>
<path d="M24.3343 47.2653C26.3402 47.4598 28.1066 47.687 27.8367 47.9779C27.1488 48.6259 7.42374 48.3996 3.68188 48.3669V48.6914H30.1713V47.2653H24.3343ZM24.7543 46.7145C24.7543 45.6138 21.3716 44.9002 17.511 44.4467V44.1231L16.9124 44.0904L6.67499 44.7712C5.77706 44.8357 5.05966 45.6456 5.05966 46.6182V47.2662H19.1558C21.8201 47.1035 24.7524 46.8772 24.7524 46.7154" fill="white"/>
<path d="M28.7664 46.6485C28.7664 45.6769 28.048 44.867 27.1501 44.8025L17.5123 44.1544V44.478C21.4033 44.9315 24.7556 45.6123 24.7556 46.7457C24.7556 46.9085 21.7919 47.1348 19.1286 47.3293H28.7369L28.7664 46.6485ZM17.7213 41.8857H15.8352C15.5064 41.8857 15.2366 42.1774 15.2366 42.5337V44.3152H17.3622C17.7802 43.4408 17.9608 42.5337 17.7213 41.8857Z" fill="white"/>
<path d="M18.9469 42.501H18.6476C18.6476 42.1447 18.3778 41.8857 18.049 41.8857H17.7193C17.7792 42.0802 17.839 42.3074 17.839 42.502H14.9371V43.0846H17.7801C17.6908 43.5063 17.5711 43.9271 17.3905 44.2834H18.678V43.0846H18.9773L18.9469 42.501Z" fill="white"/>
<path d="M38.6729 3.36076C38.6425 3.32802 38.5826 3.29528 38.5531 3.2635C37.5649 2.80994 35.2607 6.30935 33.4345 11.0722C31.6985 15.5432 30.9801 19.5289 31.7289 20.3715C31.7749 20.4315 31.8373 20.4764 31.9085 20.5005C32.8967 20.9541 35.2009 17.4547 37.0262 12.6919C38.7622 8.15631 39.4805 4.10609 38.6729 3.36076Z" stroke="white" stroke-width="0.855426" stroke-miterlimit="10"/>
<path d="M25.1098 11.2341C25.1098 5.85598 29.1206 1.51398 34.0891 1.51398C34.3884 1.51398 34.6878 1.54672 34.9576 1.54672C32.8271 0.993722 30.5859 1.06114 28.4916 1.74124C27.5409 2.02648 26.5473 2.13608 25.5583 2.06479C25.1098 2.03205 24.6309 2.03205 24.1815 1.9685C23.4541 1.90273 22.7444 1.70473 22.0863 1.38398C21.7857 1.2252 21.476 1.08468 21.1589 0.963165L20.9499 1.05946C20.7998 1.38398 20.2904 2.42109 19.8714 3.29642C19.4556 4.2015 19.0957 5.13191 18.7939 6.08228C18.525 7.02213 18.1953 8.09102 18.106 8.44828L18.2257 8.67457C18.525 8.80457 18.8243 8.96635 19.1531 9.09539C19.8384 9.37732 20.4673 9.7836 21.0088 10.2943C21.368 10.6188 21.6977 10.9423 22.0569 11.2669C22.8047 11.9795 23.4033 12.8221 23.9126 13.7609C25.05 16.0624 26.786 17.9412 28.9106 19.1728C26.5161 17.3258 25.1098 14.3772 25.1098 11.2341Z" fill="white"/>
<path d="M31.7276 20.3715C31.0092 19.5289 31.7276 15.5432 33.4341 11.0722C35.2594 6.30937 37.5646 2.80997 38.5518 3.26256C38.6117 3.2953 38.6421 3.32804 38.6716 3.36078V3.32804C37.7736 2.51819 36.7265 2.12915 35.6785 1.8056C35.5587 1.77286 35.3193 1.6756 34.9601 1.57834C34.6608 1.5456 34.3919 1.5456 34.0926 1.5456C29.1231 1.5456 25.1133 5.92034 25.1427 11.2985C25.1427 14.4089 26.549 17.3257 28.8846 19.1399L29.0043 19.2044C29.8364 19.7543 30.7586 20.1495 31.7276 20.3715Z" fill="white"/>
<path d="M37.3832 12.7914C38.5205 9.55101 36.1897 7.5519 35.5617 7.26012C34.7568 8.84708 34.7236 8.92316 33.8181 11.1178C32.9201 13.3528 32.7586 14.1366 32.3994 15.4655C33.0275 15.7573 36.1859 16.1608 37.3832 12.7914Z" fill="white"/>
</g>
<line x1="259.616" y1="52.0009" x2="259.616" y2="0.000904083" stroke="white" stroke-width="0.768753"/>
<path d="M278.829 51.5629H278.004V49.4519H272.826V51.5629H272V48.5987H272.576C273.099 47.6412 273.546 46.4774 273.917 45.1073C274.29 43.7371 274.497 42.4846 274.538 41.3496H277.887V48.5987H278.829V51.5629ZM277.021 48.5987V42.1977H275.323C275.262 43.0919 275.057 44.167 274.706 45.423C274.357 46.6755 273.949 47.7341 273.483 48.5987H277.021ZM282.134 41.3496H282.944V45.8553C282.944 46.6869 282.921 47.4387 282.873 48.1107H282.914L287.093 41.3496H288.041V49.4519H287.225V44.9907C287.225 44.2478 287.254 43.4685 287.312 42.6527H287.267L283.082 49.4519H282.133L282.134 41.3496ZM296.442 43.245C296.442 43.7773 296.286 44.2097 295.972 44.5419C295.663 44.8748 295.235 45.0853 294.689 45.1733V45.2187C295.31 45.3109 295.781 45.5231 296.101 45.8553C296.423 46.1875 296.584 46.6215 296.584 47.1573C296.584 47.914 296.324 48.5055 295.804 48.9319C295.284 49.3515 294.551 49.5617 293.603 49.5623C292.736 49.5623 292.026 49.4165 291.473 49.1249V48.2489C291.799 48.4188 292.15 48.5502 292.528 48.6431C292.887 48.7326 293.254 48.779 293.623 48.7813C294.297 48.7813 294.805 48.6427 295.147 48.3655C295.494 48.089 295.667 47.6901 295.667 47.1687C295.667 46.6735 295.475 46.2986 295.091 46.0441C294.711 45.7896 294.142 45.6623 293.383 45.6623H292.273V44.8689H293.338C294.034 44.8689 294.573 44.7341 294.953 44.4645C295.337 44.1907 295.529 43.8104 295.529 43.3234C295.529 42.9272 295.392 42.6111 295.117 42.3752C294.841 42.1393 294.471 42.021 294.006 42.0203C293.632 42.0203 293.293 42.0667 292.991 42.1596C292.689 42.2517 292.339 42.4344 291.942 42.7074L291.514 42.076C291.857 41.7995 292.24 41.5907 292.665 41.4497C293.094 41.3053 293.537 41.2331 293.995 41.2331C294.76 41.2331 295.358 41.416 295.789 41.782C296.225 42.1444 296.442 42.6321 296.442 43.245ZM304.902 49.4519L303.975 46.8746H300.988L300.072 49.4519H299.196L302.141 41.3166H302.87L305.801 49.4519H304.902ZM303.705 46.0266L302.838 43.5173C302.726 43.1996 302.611 42.8096 302.492 42.3473C302.417 42.7023 302.31 43.0923 302.171 43.5173L301.295 46.0276L303.705 46.0266ZM308.869 41.3507H309.68V45.8553C309.68 46.6869 309.656 47.4387 309.609 48.1107H309.649L313.828 41.3496H314.776V49.4519H313.961V44.9907C313.961 44.2478 313.99 43.4685 314.047 42.6527H314.002L309.818 49.4519H308.87L308.869 41.3507ZM311.958 40.7017C311.33 40.7017 310.871 40.5707 310.582 40.3086C310.293 40.0424 310.132 39.6063 310.098 39.0004H310.892C310.924 39.3849 311.016 39.6528 311.168 39.8041C311.324 39.9554 311.595 40.0311 311.978 40.0311C312.328 40.0311 312.587 39.9499 312.753 39.7876C312.923 39.6246 313.027 39.3622 313.063 39.0004H313.864C313.823 39.5843 313.651 40.0149 313.349 40.2921C313.047 40.5652 312.584 40.7017 311.958 40.7017ZM324.513 49.4519H323.647V45.6397H319.723V49.4519H318.856V41.3507H319.723V44.7967H323.647V41.3507H324.513V49.4519ZM332.751 49.4519H328.597V41.3507H332.751V42.1864H329.464V44.7967H332.552V45.6283H329.464V48.61H332.751V49.4519ZM341.167 43.7103C341.167 44.5309 340.909 45.1626 340.393 45.6056C339.88 46.0458 339.144 46.2659 338.186 46.2659H337.309V49.4519H336.443V41.3507H338.375C340.236 41.3507 341.167 42.1372 341.167 43.7103ZM337.309 45.456H338.089C338.857 45.456 339.412 45.3212 339.755 45.0516C340.099 44.7819 340.27 44.3496 340.27 43.7547C340.27 43.2195 340.109 42.8206 339.786 42.5578C339.463 42.2958 338.96 42.1647 338.278 42.1647H337.309V45.456ZM347.957 42.076C347.139 42.076 346.491 42.3735 346.016 42.9685C345.543 43.56 345.307 44.3709 345.307 45.4013C345.307 46.4606 345.535 47.2808 345.99 47.862C346.449 48.4377 347.101 48.7256 347.948 48.7256C348.466 48.7256 349.059 48.6241 349.726 48.4212V49.2466C349.209 49.4571 348.572 49.5623 347.815 49.5623C346.717 49.5623 345.87 49.2005 345.272 48.477C344.677 47.7527 344.38 46.7237 344.38 45.39C344.38 44.5549 344.523 43.8234 344.808 43.1954C345.079 42.5869 345.513 42.0811 346.052 41.7438C346.595 41.404 347.234 41.2341 347.968 41.2341C348.749 41.2341 349.432 41.3889 350.016 41.6984L349.65 42.5083C349.122 42.2305 348.544 42.0829 347.957 42.076ZM358.749 49.4519H357.698L354.254 45.3456V49.4519H353.387V41.3507H354.254V45.2734L357.612 41.3496H358.605L355.308 45.2847L358.749 49.4519ZM368.281 45.39C368.281 46.6865 367.979 47.7062 367.374 48.4491C366.772 49.192 365.935 49.5634 364.861 49.5634C363.764 49.5634 362.916 49.1992 362.318 48.4708C361.724 47.7389 361.426 46.7082 361.426 45.3786C361.426 44.06 361.725 43.0386 362.323 42.3143C362.921 41.5866 363.77 41.2227 364.871 41.2227C365.941 41.2227 366.777 41.5921 367.379 42.3308C367.98 43.0696 368.281 44.0893 368.281 45.39ZM362.343 45.39C362.343 46.4864 362.557 47.3193 362.985 47.8889C363.417 48.4543 364.043 48.7369 364.861 48.7369C365.687 48.7369 366.31 48.4543 366.731 47.8889C367.153 47.3241 367.363 46.4912 367.363 45.39C367.363 44.2998 367.153 43.4744 366.731 42.9138C366.314 42.3477 365.694 42.0646 364.871 42.0646C364.045 42.0646 363.417 42.3491 362.985 42.9179C362.557 43.4833 362.343 44.3073 362.343 45.39ZM376.137 49.4519H371.983V41.3507H376.137V42.1864H372.849V44.7967H375.937V45.6283H372.849V48.61H376.137V49.4519ZM391.042 45.39C391.042 46.6865 390.739 47.7062 390.134 48.4491C389.533 49.192 388.696 49.5634 387.622 49.5634C386.525 49.5634 385.677 49.1992 385.079 48.4708C384.484 47.7389 384.187 46.7082 384.187 45.3786C384.187 44.06 384.486 43.0386 385.085 42.3143C385.682 41.5866 386.532 41.2227 387.632 41.2227C388.703 41.2227 389.539 41.5921 390.14 42.3308C390.742 43.0696 391.042 44.0893 391.042 45.39ZM385.104 45.39C385.104 46.4864 385.319 47.3193 385.747 47.8889C386.179 48.4543 386.804 48.7369 387.622 48.7369C388.448 48.7369 389.072 48.4543 389.493 47.8889C389.914 47.3241 390.125 46.4912 390.125 45.39C390.125 44.2998 389.914 43.4744 389.493 42.9138C389.075 42.3477 388.455 42.0646 387.632 42.0646C386.807 42.0646 386.178 42.3491 385.747 42.9179C385.319 43.4833 385.104 44.3073 385.104 45.39ZM397.934 42.076C397.116 42.076 396.468 42.3735 395.993 42.9685C395.52 43.56 395.284 44.3709 395.284 45.4013C395.284 46.4606 395.512 47.2808 395.967 47.862C396.426 48.4377 397.078 48.7256 397.924 48.7256C398.444 48.7256 399.037 48.6241 399.703 48.4212V49.2466C399.186 49.4571 398.549 49.5623 397.792 49.5623C396.694 49.5623 395.847 49.2005 395.249 48.477C394.654 47.7527 394.357 46.7237 394.357 45.39C394.357 44.5549 394.5 43.8234 394.785 43.1954C395.057 42.5874 395.489 42.0818 396.028 41.7438C396.572 41.404 397.211 41.2341 397.945 41.2341C398.726 41.2341 399.409 41.3889 399.993 41.6984L399.626 42.5083C399.099 42.2293 398.521 42.0816 397.934 42.076ZM403.364 41.3507H405.469C406.458 41.3507 407.173 41.5113 407.614 41.8325C408.056 42.1537 408.277 42.6617 408.277 43.3564C408.277 43.8358 408.153 44.233 407.905 44.5481C407.66 44.8576 407.302 45.0588 406.83 45.1516V45.2074C407.961 45.4171 408.526 46.0637 408.526 47.147C408.526 47.8706 408.301 48.4357 407.849 48.8422C407.4 49.2487 406.771 49.4519 405.963 49.4519H403.364V41.3507ZM404.23 44.8194H405.657C406.269 44.8194 406.709 44.7159 406.977 44.5089C407.246 44.2984 407.38 43.9455 407.38 43.4503C407.38 42.9963 407.231 42.6696 406.931 42.4701C406.633 42.2665 406.157 42.1647 405.504 42.1647H404.23V44.8194ZM404.23 45.617V48.6482H405.785C406.386 48.6482 406.838 48.5227 407.14 48.2716C407.446 48.0171 407.599 47.6199 407.599 47.08C407.599 46.5779 407.443 46.2085 407.131 45.9719C406.821 45.7346 406.349 45.6163 405.713 45.617H404.23ZM416.321 49.4519H412.167V41.3507H416.321V42.1864H413.033V44.7967H416.122V45.6283H413.033V48.61H416.321V49.4519ZM420.012 49.4519V41.3507H420.879V48.5987H423.851V41.3496H424.726V48.5987H427.703V41.3496H428.569V48.5987H429.446V51.5629H428.621V49.4519H420.012ZM436.986 49.4519H432.832V41.3507H436.986V42.1864H433.698V44.7967H436.787V45.6283H433.698V48.61H436.986V49.4519ZM446.334 49.4519H445.468V45.6397H441.544V49.4519H440.677V41.3507H441.544V44.7967H445.468V41.3507H446.334V49.4519ZM450.428 41.3507H451.239V45.8553C451.239 46.6869 451.215 47.4387 451.168 48.1107H451.208L455.387 41.3496H456.335V49.4519H455.52V44.9907C455.52 44.2478 455.549 43.4685 455.606 42.6527H455.561L451.376 49.4519H450.428V41.3507ZM464.568 49.4519H460.414V41.3507H464.568V42.1864H461.281V44.7967H464.369V45.6283H461.281V48.61H464.568V49.4519Z" fill="white"/>
<path d="M273.128 23.1478V22.555L275.72 22.1316V1.58083L273.128 1.18562V0.564582H294.968V1.18562L292.347 1.58083V22.1316L294.968 22.555V23.1478H286.627V22.555L289.247 22.1316V1.27031H278.82V22.1316L281.413 22.555V23.1478H273.128Z" fill="white"/>
<path d="M305.831 23.4301C304.929 23.4301 304.225 23.1949 303.718 22.7244C303.229 22.2351 302.985 21.6046 302.985 20.8331C302.985 20.1932 303.182 19.6757 303.577 19.2805C303.971 18.8664 304.45 18.6594 305.014 18.6594C305.427 18.6594 305.794 18.7535 306.113 18.9417C306.432 19.1111 306.677 19.3557 306.846 19.6757C306.827 19.6945 306.771 19.7603 306.677 19.8733C306.583 19.9862 306.498 20.1367 306.423 20.3249C306.348 20.5131 306.31 20.7295 306.31 20.9742C306.31 21.3318 306.404 21.6235 306.592 21.8493C306.78 22.0563 307.043 22.1598 307.381 22.1598C307.87 22.1598 308.321 21.934 308.734 21.4823C309.147 21.0307 309.636 20.1744 310.199 18.9135L310.566 18.0666L301.407 1.58083L299.18 1.18562V0.564582H307.663V1.18562L305.042 1.58083L312.2 14.4533L317.527 2.54062L314.145 1.18562V0.564582H320.457V1.18562L318.287 2.56885L310.848 19.1675C310.34 20.2967 309.852 21.1624 309.382 21.7646C308.931 22.3668 308.424 22.7997 307.86 23.0631C307.316 23.3078 306.639 23.4301 305.831 23.4301Z" fill="white"/>
<path d="M324.629 23.4301C323.727 23.4301 323.06 23.2231 322.628 22.8091C322.215 22.3762 322.008 21.8493 322.008 21.2283C322.008 20.739 322.168 20.3155 322.487 19.9579C322.825 19.5816 323.285 19.3934 323.868 19.3934C324.206 19.3934 324.488 19.4686 324.713 19.6192C324.958 19.7509 325.127 19.8921 325.221 20.0426C325.333 20.1744 325.399 20.2685 325.418 20.3249C325.08 20.5508 324.911 20.8425 324.911 21.2C324.911 21.4259 324.976 21.6141 325.108 21.7646C325.258 21.9152 325.455 21.9904 325.7 21.9904C326.32 21.9904 326.846 21.5294 327.278 20.6072C327.729 19.6663 328.095 18.1042 328.377 15.9212C328.677 13.7381 328.903 10.7741 329.053 7.02904L329.25 2.45593L326.263 1.21385V0.564582H342.665V1.18562L340.044 1.58083V22.1316L342.665 22.555V23.1478H334.323V22.555L336.944 22.1316V1.27031H330.068L329.814 7.05727C329.626 11.2728 329.382 14.5097 329.081 16.7681C328.781 19.0076 328.283 20.6825 327.588 21.7928C326.911 22.8844 325.925 23.4301 324.629 23.4301Z" fill="white"/>
<path d="M348.572 22.5268L351.165 22.1316V1.58083L348.572 1.15739V0.564582H356.858V1.15739L354.265 1.58083V10.4448H358.267C361.029 10.4448 363.086 10.9717 364.439 12.0256C365.81 13.0606 366.496 14.6509 366.496 16.7963C366.496 18.9417 365.81 20.5413 364.439 21.5952C363.086 22.6303 361.029 23.1478 358.267 23.1478H348.572V22.5268ZM357.872 22.4421C359.619 22.4421 360.925 22.0281 361.789 21.2C362.654 20.372 363.086 19.0923 363.086 17.3609V16.2317C363.086 14.5003 362.654 13.2206 361.789 12.3926C360.925 11.5457 359.619 11.1223 357.872 11.1223H354.265V22.4421H357.872Z" fill="white"/>
<path d="M382.84 23.7124C380.792 23.7124 378.998 23.2137 377.457 22.2163C375.917 21.2188 374.724 19.8262 373.878 18.0384C373.052 16.2505 372.638 14.1898 372.638 11.8562C372.638 9.5226 373.061 7.46188 373.906 5.67404C374.771 3.86738 375.982 2.47475 377.542 1.49614C379.12 0.498714 380.933 0 382.981 0C383.789 0 384.606 0.141145 385.433 0.423436C386.278 0.705727 387.039 1.10093 387.715 1.60906L389.603 0H390.195V7.00081H389.603L387.856 2.6253C387.199 2.02308 386.428 1.54319 385.545 1.18562C384.681 0.828053 383.826 0.649269 382.981 0.649269C381.666 0.649269 380.501 0.988017 379.486 1.66552C378.491 2.34301 377.711 3.33103 377.147 4.62957C376.584 5.9281 376.302 7.47129 376.302 9.25913V14.4251C376.302 16.2129 376.574 17.7561 377.119 19.0546C377.664 20.3532 378.425 21.3506 379.402 22.0469C380.379 22.7244 381.525 23.0631 382.84 23.0631C383.798 23.0631 384.756 22.8561 385.714 22.4421C386.673 22.0093 387.471 21.4353 388.11 20.7201L389.744 16.1753H390.336V23.4301H389.744L387.715 21.9904C387.039 22.5362 386.269 22.9596 385.404 23.2608C384.54 23.5619 383.685 23.7124 382.84 23.7124Z" fill="white"/>
<path d="M407.502 23.7124C405.454 23.7124 403.66 23.2137 402.119 22.2163C400.579 21.2188 399.386 19.8262 398.54 18.0384C397.714 16.2505 397.3 14.1898 397.3 11.8562C397.3 9.5226 397.723 7.46188 398.568 5.67404C399.433 3.86738 400.644 2.47475 402.204 1.49614C403.782 0.498714 405.595 0 407.643 0C408.451 0 409.268 0.141145 410.095 0.423436C410.94 0.705727 411.701 1.10093 412.377 1.60906L414.265 0H414.857V7.00081H414.265L412.518 2.6253C411.861 2.02308 411.09 1.54319 410.207 1.18562C409.343 0.828053 408.488 0.649269 407.643 0.649269C406.328 0.649269 405.163 0.988017 404.148 1.66552C403.153 2.34301 402.373 3.33103 401.809 4.62957C401.246 5.9281 400.964 7.47129 400.964 9.25913V14.4251C400.964 16.2129 401.236 17.7561 401.781 19.0546C402.326 20.3532 403.087 21.3506 404.064 22.0469C405.041 22.7244 406.187 23.0631 407.502 23.0631C408.46 23.0631 409.418 22.8561 410.376 22.4421C411.335 22.0093 412.133 21.4353 412.772 20.7201L414.406 16.1753H414.998V23.4301H414.406L412.377 21.9904C411.701 22.5362 410.931 22.9596 410.066 23.2608C409.202 23.5619 408.347 23.7124 407.502 23.7124Z" fill="white"/>
<path d="M419.651 23.1478V22.555L422.413 21.4259L430.558 0H431.009L438.702 22.1316L441.295 22.555V23.1478H433.009V22.555L435.32 22.188L432.925 15.4978H425.429L423.146 21.4259L425.682 22.555V23.1478H419.651ZM425.654 14.9049H432.728L429.346 4.96832L425.654 14.9049Z" fill="white"/>
<path d="M445.487 22.555L448.079 22.1316V1.58083L445.487 1.18562V0.564582H454.336C457.116 0.564582 459.183 1.15739 460.536 2.34301C461.888 3.52863 462.565 5.2412 462.565 7.4807C462.565 9.72021 461.888 11.4328 460.536 12.6184C459.183 13.804 457.116 14.3968 454.336 14.3968H451.179V22.1316L453.772 22.555V23.1478H445.487V22.555ZM453.941 13.7193C457.417 13.7193 459.155 11.828 459.155 8.04528V6.91612C459.155 3.15225 457.417 1.27031 453.941 1.27031H451.179V13.7193H453.941Z" fill="white"/>
</svg>
