<svg width="158" height="62" viewBox="0 0 158 62" fill="none" xmlns="http://www.w3.org/2000/svg">
<g clip-path="url(#clip0_3195_27135)">
<path d="M35.0069 15.0703L36.6819 14.7976V1.56274L35.0069 1.30823V0.908272H40.7235C42.5198 0.908272 43.8549 1.29005 44.7288 2.0536C45.6026 2.81714 46.0396 3.92005 46.0396 5.36231C46.0396 6.80456 45.6026 7.90747 44.7288 8.67102C43.8549 9.43456 42.5198 9.81634 40.7235 9.81634H38.6845V14.7976L40.3594 15.0703V15.4521H35.0069V15.0703ZM40.4686 9.38002C42.714 9.38002 43.8367 8.16198 43.8367 5.7259V4.99871C43.8367 2.57475 42.714 1.36277 40.4686 1.36277H38.6845V9.38002H40.4686ZM59.5955 15.8156C57.8113 15.8156 56.5066 15.4218 55.6813 14.634C54.8559 13.8341 54.4433 12.7796 54.4433 11.4707V1.56274L52.7684 1.30823V0.908272H58.1208V1.30823L56.4459 1.56274V11.4707C56.4459 12.6584 56.7797 13.5735 57.4472 14.2158C58.1148 14.8461 59.1282 15.1612 60.4876 15.1612C63.0606 15.1612 64.3472 13.931 64.3472 11.4707V2.01724L62.654 1.30823V0.908272H66.5318V1.30823L64.7841 2.01724V11.4707C64.7841 12.9251 64.3775 14.0159 63.5643 14.743C62.7511 15.4581 61.4282 15.8156 59.5955 15.8156ZM73.2789 15.4521V15.0703L74.9538 14.7976V1.56274L73.2789 1.30823V0.908272H78.6313V1.30823L76.9564 1.56274V15.0157H82.3999L83.8928 11.0162H84.3843V15.4521H73.2789ZM96.888 15.8156C95.7592 15.8156 94.6487 15.4945 93.5563 14.8521L92.0088 15.6339H91.6083V10.9617H92.0088L93.5745 14.3431C94.5819 15.0582 95.7349 15.4157 97.0336 15.4157C98.1017 15.4157 98.9816 15.1369 99.6734 14.5794C100.377 14.0098 100.729 13.2159 100.729 12.1979C100.729 11.4586 100.505 10.8768 100.056 10.4526C99.6067 10.0163 98.8784 9.6709 97.8711 9.41638L94.8489 8.63466C93.793 8.3559 92.998 7.88323 92.464 7.21664C91.93 6.53793 91.6629 5.73802 91.6629 4.81691C91.6629 3.98065 91.8268 3.24134 92.1545 2.59899C92.4811 1.95809 92.9955 1.43175 93.6291 1.09007C94.2724 0.726475 95.037 0.544678 95.9231 0.544678C97.0275 0.544678 98.0167 0.732535 98.8906 1.10825L100.22 0.544678H100.62V4.25334H100.22L98.9088 1.5991C97.9985 1.16279 97.0093 0.944632 95.9413 0.944632C94.8853 0.944632 94.0539 1.21733 93.4471 1.76272C92.8402 2.29599 92.5368 3.005 92.5368 3.88975C92.5368 4.54422 92.7492 5.05931 93.174 5.43503C93.6109 5.81074 94.2481 6.10767 95.0856 6.32583L98.3444 7.18028C99.4003 7.44691 100.183 7.90747 100.693 8.56194C101.215 9.20429 101.476 10.186 101.476 11.5071C101.476 12.8524 101.057 13.9068 100.22 14.6703C99.3943 15.4339 98.2837 15.8156 96.888 15.8156ZM114.566 15.8156C113.437 15.8156 112.326 15.4945 111.234 14.8521L109.687 15.6339H109.286V10.9617H109.687L111.252 14.3431C112.26 15.0582 113.413 15.4157 114.711 15.4157C115.779 15.4157 116.659 15.1369 117.351 14.5794C118.055 14.0098 118.407 13.2159 118.407 12.1979C118.407 11.4586 118.183 10.8768 117.733 10.4526C117.284 10.0163 116.556 9.6709 115.549 9.41638L112.527 8.63466C111.471 8.3559 110.676 7.88323 110.142 7.21664C109.608 6.53793 109.341 5.73802 109.341 4.81691C109.341 3.98065 109.504 3.24134 109.832 2.59899C110.159 1.95809 110.673 1.43175 111.307 1.09007C111.95 0.726475 112.715 0.544678 113.601 0.544678C114.705 0.544678 115.694 0.732535 116.568 1.10825L117.897 0.544678H118.298V4.25334H117.897L116.586 1.5991C115.676 1.16279 114.687 0.944632 113.619 0.944632C112.563 0.944632 111.732 1.21733 111.125 1.76272C110.518 2.29599 110.215 3.005 110.215 3.88975C110.215 4.54422 110.427 5.05931 110.852 5.43503C111.289 5.81074 111.926 6.10767 112.763 6.32583L116.022 7.18028C117.078 7.44691 117.861 7.90747 118.371 8.56194C118.893 9.20429 119.153 10.186 119.153 11.5071C119.153 12.8524 118.735 13.9068 117.897 14.6703C117.072 15.4339 115.961 15.8156 114.566 15.8156ZM125.235 15.4521V15.0703L127.019 14.3431L132.28 0.544678H132.572L137.542 14.7976L139.217 15.0703V15.4521H133.864V15.0703L135.357 14.8339L133.81 10.5253H128.967L127.492 14.3431L129.131 15.0703V15.4521H125.235ZM129.113 10.1436H133.682L131.498 3.74431L129.113 10.1436ZM155.688 15.6339C155.008 15.6339 154.499 15.4702 154.159 15.143C153.819 14.8158 153.588 14.2583 153.467 13.4705L153.121 11.0344C153 10.2102 152.714 9.56788 152.265 9.10733C151.828 8.63466 151.143 8.39832 150.208 8.39832H148.788V14.7976L150.463 15.0703V15.4521H145.11V15.0703L146.785 14.7976V1.56274L145.11 1.30823V0.908272H150.208C152.186 0.908272 153.619 1.21733 154.505 1.83544C155.391 2.45355 155.834 3.39283 155.834 4.6533C155.834 6.73791 154.571 7.94383 152.047 8.27106V8.38014C152.981 8.51346 153.728 8.84675 154.286 9.38002C154.857 9.9133 155.215 10.6223 155.36 11.5071L155.597 13.0705C155.694 13.7492 155.803 14.2098 155.925 14.4522C156.058 14.6946 156.258 14.8158 156.525 14.8158C156.707 14.8158 156.902 14.7612 157.108 14.6521C157.314 14.5309 157.509 14.3795 157.691 14.1977L158 14.5249C157.648 14.9248 157.284 15.2097 156.908 15.3793C156.532 15.549 156.125 15.6339 155.688 15.6339ZM150.827 7.96201C151.713 7.96201 152.399 7.69537 152.884 7.1621C153.382 6.61671 153.631 5.8168 153.631 4.76237V4.3806C153.631 2.36871 152.49 1.36277 150.208 1.36277H148.788V7.96201H150.827ZM38.6918 32.1447H38.1638V30.9048H34.8522V32.1447H34.3242V30.4037H34.6926C35.0272 29.8413 35.313 29.1578 35.5501 28.353C35.7888 27.5482 35.9213 26.8126 35.9476 26.146H38.0891V30.4037H38.6918V32.1447ZM37.5351 30.4037V26.6441H36.4494C36.4106 27.1693 36.2791 27.8007 36.055 28.5384C35.8312 29.2741 35.5705 29.8958 35.2727 30.4037H37.5351ZM40.8054 26.146H41.3237V28.7923C41.3237 29.2808 41.3085 29.7223 41.2782 30.117H41.3043L43.9769 26.146H44.5831V30.9048H44.0612V28.2845C44.0612 27.8482 44.0798 27.3905 44.117 26.9113H44.0879L41.4117 30.9048H40.8048L40.8054 26.146ZM49.9562 27.2592C49.9562 27.5719 49.8561 27.8258 49.6558 28.0209C49.458 28.2164 49.1843 28.3401 48.8347 28.3918V28.4184C49.2324 28.4726 49.5334 28.5972 49.7377 28.7923C49.9441 28.9875 50.0472 29.2424 50.0472 29.5571C50.0472 30.0015 49.881 30.3489 49.5484 30.5994C49.2158 30.8458 48.7465 30.9693 48.1405 30.9697C47.5862 30.9697 47.1321 30.884 46.7781 30.7127V30.1982C46.9865 30.298 47.2114 30.3752 47.4529 30.4297C47.6827 30.4823 47.9175 30.5096 48.1532 30.5109C48.5841 30.5109 48.909 30.4295 49.1278 30.2667C49.3495 30.1043 49.4604 29.87 49.4604 29.5638C49.4604 29.2729 49.3376 29.0527 49.092 28.9032C48.8493 28.7538 48.4852 28.679 47.9997 28.679H47.2897V28.213H47.9712C48.4162 28.213 48.7605 28.1338 49.004 27.9755C49.2496 27.8147 49.3724 27.5913 49.3724 27.3052C49.3724 27.0725 49.2844 26.8869 49.1084 26.7483C48.9324 26.6098 48.6958 26.5403 48.3984 26.5399C48.1589 26.5399 47.9425 26.5671 47.7491 26.6217C47.5557 26.6758 47.332 26.7831 47.0779 26.9435L46.8042 26.5726C47.0235 26.4102 47.2688 26.2876 47.5403 26.2048C47.8146 26.1199 48.0982 26.0775 48.3911 26.0775C48.8802 26.0775 49.2628 26.185 49.5387 26.3999C49.817 26.6128 49.9562 26.8992 49.9562 27.2592ZM55.3669 30.9048L54.774 29.3911H52.8636L52.278 30.9048H51.7173L53.601 26.1266H54.067L55.9416 30.9048H55.3669ZM54.6011 28.8929L54.047 27.4192C53.9754 27.2325 53.9016 27.0035 53.8255 26.732C53.7774 26.9404 53.709 27.1695 53.6204 27.4192L53.0597 28.8935L54.6011 28.8929ZM57.9042 26.1466H58.4224V28.7923C58.4224 29.2808 58.4073 29.7223 58.3769 30.117H58.403L61.0756 26.146H61.6819V30.9048H61.1606V28.2845C61.1606 27.8482 61.179 27.3905 61.2158 26.9113H61.1867L58.511 30.9048H57.9048L57.9042 26.1466ZM59.8795 25.7654C59.4778 25.7654 59.1844 25.6885 58.9996 25.5345C58.8147 25.3782 58.7115 25.1221 58.6901 24.7661H59.198C59.2182 24.992 59.2769 25.1493 59.374 25.2382C59.4743 25.3271 59.6471 25.3715 59.8922 25.3715C60.1164 25.3715 60.2816 25.3238 60.388 25.2285C60.4969 25.1328 60.563 24.9786 60.5865 24.7661H61.0987C61.0724 25.1091 60.9625 25.362 60.7691 25.5248C60.5762 25.6852 60.2796 25.7654 59.8795 25.7654ZM67.9094 30.9048H67.3553V28.6657H64.8454V30.9048H64.2913V26.1466H64.8454V28.1706H67.3553V26.1466H67.9094V30.9048ZM73.1775 30.9048H70.5213V26.1466H73.1775V26.6374H71.0754V28.1706H73.0507V28.659H71.0754V30.4103H73.1775V30.9048ZM78.5603 27.5325C78.5603 28.0144 78.3953 28.3855 78.0651 28.6457C77.737 28.9042 77.2665 29.0335 76.6536 29.0335H76.0928V30.9048H75.5388V26.1466H76.7743C77.965 26.1466 78.5603 26.6085 78.5603 27.5325ZM76.0928 28.5578H76.5917C77.0828 28.5578 77.438 28.4786 77.6573 28.3203C77.877 28.1619 77.9868 27.908 77.9868 27.5585C77.9868 27.2442 77.8837 27.0099 77.6773 26.8556C77.4702 26.7017 77.1486 26.6247 76.7124 26.6247H76.0928V28.5578ZM82.903 26.5726C82.3795 26.5726 81.9656 26.7473 81.6614 27.0968C81.3591 27.4442 81.208 27.9205 81.208 28.5257C81.208 29.1479 81.3537 29.6296 81.645 29.971C81.9383 30.3091 82.3556 30.4782 82.8969 30.4782C83.2287 30.4782 83.6077 30.4186 84.0342 30.2994V30.7842C83.7036 30.9079 83.2962 30.9697 82.812 30.9697C82.11 30.9697 81.5679 30.7572 81.1856 30.3322C80.8053 29.9068 80.6151 29.3024 80.6151 28.519C80.6151 28.0286 80.7064 27.5989 80.8888 27.2301C81.0624 26.8727 81.3396 26.5756 81.6844 26.3775C82.0319 26.1779 82.4403 26.0781 82.9097 26.0781C83.4097 26.0781 83.8464 26.169 84.2199 26.3508L83.9856 26.8265C83.6478 26.6633 83.2782 26.5766 82.903 26.5726ZM89.8047 30.9048H89.133L86.9301 28.493V30.9048H86.3754V26.1466H86.9301V28.4506L89.0777 26.146H89.7131L87.6043 28.4572L89.8047 30.9048ZM95.9012 28.519C95.9012 29.2806 95.7078 29.8795 95.3211 30.3158C94.9363 30.7521 94.4007 30.9703 93.7141 30.9703C93.0122 30.9703 92.47 30.7564 92.0877 30.3285C91.7074 29.8987 91.5173 29.2933 91.5173 28.5124C91.5173 27.7379 91.7084 27.138 92.0908 26.7126C92.4731 26.2852 93.0162 26.0714 93.7202 26.0714C94.4047 26.0714 94.9393 26.2884 95.3241 26.7223C95.7088 27.1562 95.9012 27.7551 95.9012 28.519ZM92.1035 28.519C92.1035 29.163 92.2405 29.6522 92.5144 29.9867C92.7907 30.3188 93.1906 30.4849 93.7141 30.4849C94.2421 30.4849 94.6408 30.3188 94.9102 29.9867C95.1797 29.6551 95.3144 29.1658 95.3144 28.519C95.3144 27.8787 95.1797 27.3939 94.9102 27.0647C94.6432 26.7322 94.2465 26.5659 93.7202 26.5659C93.1922 26.5659 92.7903 26.733 92.5144 27.0671C92.2405 27.3992 92.1035 27.8831 92.1035 28.519ZM100.925 30.9048H98.2686V26.1466H100.925V26.6374H98.8226V28.1706H100.798V28.659H98.8226V30.4103H100.925V30.9048ZM110.458 28.519C110.458 29.2806 110.264 29.8795 109.878 30.3158C109.493 30.7521 108.958 30.9703 108.271 30.9703C107.569 30.9703 107.027 30.7564 106.644 30.3285C106.264 29.8987 106.074 29.2933 106.074 28.5124C106.074 27.7379 106.265 27.138 106.648 26.7126C107.03 26.2852 107.573 26.0714 108.277 26.0714C108.962 26.0714 109.497 26.2884 109.881 26.7223C110.266 27.1562 110.458 27.7551 110.458 28.519ZM106.661 28.519C106.661 29.163 106.798 29.6522 107.072 29.9867C107.348 30.3188 107.748 30.4849 108.271 30.4849C108.799 30.4849 109.198 30.3188 109.467 29.9867C109.737 29.6551 109.872 29.1658 109.872 28.519C109.872 27.8787 109.737 27.3939 109.467 27.0647C109.2 26.7322 108.803 26.5659 108.277 26.5659C107.749 26.5659 107.348 26.733 107.072 27.0671C106.798 27.3992 106.661 27.8831 106.661 28.519ZM114.866 26.5726C114.343 26.5726 113.929 26.7473 113.624 27.0968C113.322 27.4442 113.171 27.9205 113.171 28.5257C113.171 29.1479 113.317 29.6296 113.608 29.971C113.901 30.3091 114.318 30.4782 114.859 30.4782C115.192 30.4782 115.571 30.4186 115.997 30.2994V30.7842C115.667 30.9079 115.259 30.9697 114.775 30.9697C114.073 30.9697 113.531 30.7572 113.149 30.3322C112.768 29.9068 112.578 29.3024 112.578 28.519C112.578 28.0286 112.669 27.5989 112.852 27.2301C113.026 26.873 113.303 26.576 113.647 26.3775C113.995 26.1779 114.403 26.0781 114.873 26.0781C115.372 26.0781 115.809 26.169 116.183 26.3508L115.948 26.8265C115.611 26.6626 115.241 26.5759 114.866 26.5726ZM118.338 26.1466H119.685C120.317 26.1466 120.775 26.2409 121.057 26.4296C121.34 26.6182 121.481 26.9166 121.481 27.3246C121.481 27.6062 121.401 27.8395 121.243 28.0245C121.086 28.2063 120.857 28.3245 120.555 28.3791V28.4118C121.279 28.535 121.64 28.9147 121.64 29.551C121.64 29.976 121.496 30.3079 121.207 30.5467C120.92 30.7854 120.518 30.9048 120.001 30.9048H118.338V26.1466ZM118.893 28.1839H119.805C120.197 28.1839 120.478 28.1231 120.649 28.0015C120.821 27.8779 120.907 27.6706 120.907 27.3798C120.907 27.1131 120.812 26.9212 120.62 26.8041C120.429 26.6845 120.125 26.6247 119.708 26.6247H118.893V28.1839ZM118.893 28.6524V30.4328H119.887C120.271 30.4328 120.56 30.359 120.754 30.2116C120.95 30.0621 121.047 29.8288 121.047 29.5116C121.047 29.2167 120.948 28.9998 120.748 28.8608C120.55 28.7214 120.248 28.652 119.841 28.6524H118.893ZM126.626 30.9048H123.969V26.1466H126.626V26.6374H124.523V28.1706H126.498V28.659H124.523V30.4103H126.626V30.9048ZM128.986 30.9048V26.1466H129.54V30.4037H131.441V26.146H132.001V30.4037H133.905V26.146H134.459V30.4037H135.02V32.1447H134.492V30.9048H128.986ZM139.842 30.9048H137.185V26.1466H139.842V26.6374H137.739V28.1706H139.714V28.659H137.739V30.4103H139.842V30.9048ZM145.821 30.9048H145.266V28.6657H142.757V30.9048H142.202V26.1466H142.757V28.1706H145.266V26.1466H145.821V30.9048ZM148.439 26.1466H148.957V28.7923C148.957 29.2808 148.942 29.7223 148.912 30.117H148.938L151.611 26.146H152.217V30.9048H151.695V28.2845C151.695 27.8482 151.714 27.3905 151.751 26.9113H151.722L149.045 30.9048H148.439V26.1466ZM157.482 30.9048H154.826V26.1466H157.482V26.6374H155.38V28.1706H157.355V28.659H155.38V30.4103H157.482V30.9048Z" fill="white"/>
<mask id="mask0_3195_27135" style="mask-type:luminance" maskUnits="userSpaceOnUse" x="0" y="0" width="30" height="31">
<path d="M0 0.605469H29.0575V30.8737H0V0.605469Z" fill="white"/>
</mask>
<g mask="url(#mask0_3195_27135)">
<path d="M12.9095 1.56253L13.3865 1.8071L12.2805 4.33268L11.8035 4.08872C11.4415 3.90529 11.2695 3.43674 11.4415 3.02933L11.9179 1.92938C11.9566 1.83824 12.0135 1.75597 12.0851 1.68763C12.1568 1.61928 12.2416 1.5663 12.3345 1.53195C12.4274 1.49759 12.5263 1.48258 12.6252 1.48784C12.724 1.4931 12.8208 1.51852 12.9095 1.56253ZM11.4808 23.4604H10.0122V26.5356H11.4808V23.4604Z" fill="white"/>
<path d="M7.95343 19.0991H6.65674L10.6806 24.416H11.9579L7.95343 19.0991Z" fill="white"/>
<path d="M7.66697 19.0991H6.38965L10.3941 24.416H11.6714L7.66697 19.0991ZM15.237 22.6042L10.4692 17.145L10.3929 17.6747L14.5312 22.7876L15.237 22.6042Z" fill="white"/>
<path d="M10.3941 17.6736H9.66943L13.6927 23.0105L14.5317 22.7865L10.3941 17.6736Z" fill="white"/>
<path d="M10.2979 18.164L6.99871 20.4251C6.65547 20.669 6.19781 20.5673 5.95022 20.2211C5.7783 19.9565 5.74016 19.6302 5.87394 19.3451L8.18159 14.5385L8.75305 14.4568L9.68774 14.7825L8.75366 15.8213V17.0641L10.2979 17.1046V18.164Z" fill="white"/>
<path d="M15.5999 12.4403H14.5133L9.57409 17.6755H10.6613L15.5999 12.4403ZM14.5895 8.61081L14.9709 6.85889L8.37305 13.866L8.92635 14.6197L14.5895 8.61081Z" fill="white"/>
<path d="M8.55012 13.9932L8.36609 14.7632L12.1908 15.8056L12.3748 15.0362L8.55012 13.9932ZM15.3526 23.6639V21.8096H12.626L11.043 23.7244V25.4152L15.3526 23.6639ZM6.58027 20.2218C6.85389 20.2218 7.07606 19.9845 7.07606 19.6921C7.07606 19.3997 6.85389 19.1624 6.57966 19.1624C6.30664 19.1624 6.08447 19.3997 6.08447 19.6921C6.08447 19.9845 6.30664 20.2218 6.58027 20.2218Z" fill="white"/>
<path d="M8.5998 14.7608C8.87342 14.7608 9.09559 14.5235 9.09559 14.2311C9.09559 13.9387 8.87342 13.7014 8.59919 13.7014C8.32496 13.7014 8.104 13.9387 8.104 14.2311C8.104 14.5235 8.32557 14.7608 8.5998 14.7608ZM10.8499 25.0895C11.0497 25.0895 11.2119 24.9157 11.2119 24.702C11.2119 24.4884 11.0497 24.3152 10.8499 24.3152C10.6502 24.3152 10.4873 24.4884 10.4873 24.7027C10.4873 24.9157 10.6496 25.0895 10.8499 25.0895ZM14.2823 23.2764C14.4192 23.2764 14.5305 23.1572 14.5305 23.0113C14.5305 22.8648 14.4192 22.7461 14.2823 22.7461C14.1455 22.7461 14.0341 22.8648 14.0341 23.0113C14.0341 23.1572 14.1455 23.2764 14.2823 23.2764ZM15.5028 7.75488H14.6438V12.2364H15.5022L15.5028 7.75488Z" fill="white"/>
<path d="M15.0294 12.9693C15.303 12.9693 15.5252 12.732 15.5252 12.4396C15.5252 12.1472 15.303 11.9099 15.0288 11.9099C14.7557 11.9099 14.5336 12.1472 14.5336 12.4396C14.5336 12.732 14.7557 12.9693 15.0294 12.9693ZM12.8337 30.8748C19.9213 30.8748 25.6674 30.7561 25.6674 30.6096C25.6674 30.4637 19.9213 30.3451 12.8337 30.3451C5.74612 30.3451 0 30.4637 0 30.6096C0 30.7561 5.74612 30.8748 12.8337 30.8748Z" fill="white"/>
<path d="M17.7347 30.1606C17.9254 29.9978 16.7812 29.8349 15.5033 29.7126H2.3457V30.4052C4.72963 30.4457 17.2964 30.5686 17.7347 30.1606Z" fill="white"/>
<path d="M15.5033 29.7127C16.7812 29.835 17.9066 29.9778 17.7347 30.1607C17.2964 30.5681 4.72963 30.4258 2.3457 30.4052V30.6092H19.222V29.7127H15.5033ZM15.7709 29.3664C15.7709 28.6745 13.6158 28.2259 11.1562 27.9408V27.7374L10.7748 27.7168L4.2526 28.1448C3.68053 28.1853 3.22348 28.6945 3.22348 29.3059V29.7133H12.2041C13.9015 29.611 15.7696 29.4687 15.7696 29.367" fill="white"/>
<path d="M18.3268 29.3252C18.3268 28.7144 17.8692 28.2053 17.2971 28.1647L11.1569 27.7573V27.9607C13.6358 28.2458 15.7716 28.6738 15.7716 29.3863C15.7716 29.4886 13.8834 29.6309 12.1866 29.7532H18.308L18.3268 29.3252ZM11.2901 26.3311H10.0884C9.87896 26.3311 9.70703 26.5145 9.70703 26.7385V27.8584H11.0612C11.3276 27.3087 11.4426 26.7385 11.2901 26.3311Z" fill="white"/>
<path d="M12.0712 26.7179H11.8805C11.8805 26.4939 11.7086 26.3311 11.4992 26.3311H11.2891C11.3272 26.4533 11.3654 26.5962 11.3654 26.7185H9.5166V27.0847H11.3279C11.2709 27.3499 11.1947 27.6144 11.0797 27.8384H11.8999V27.0847H12.0906L12.0712 26.7179Z" fill="white"/>
<path d="M24.6385 2.11286C24.6191 2.09228 24.581 2.0717 24.5622 2.05172C23.9327 1.76659 22.4646 3.96649 21.3011 6.96062C20.1951 9.77132 19.7375 12.2769 20.2145 12.8066C20.2438 12.8444 20.2836 12.8726 20.3289 12.8877C20.9585 13.1729 22.4265 10.973 23.5894 7.97884C24.6954 5.12758 25.1531 2.58141 24.6385 2.11286Z" stroke="white" stroke-width="0.544828" stroke-miterlimit="10"/>
<path d="M15.9973 7.06228C15.9973 3.68132 18.5525 0.951737 21.718 0.951737C21.9087 0.951737 22.0994 0.972319 22.2713 0.972319C20.914 0.624678 19.4861 0.667063 18.1518 1.0946C17.5461 1.27392 16.9131 1.34282 16.283 1.29801C15.9973 1.27742 15.6922 1.27742 15.4059 1.23747C14.9425 1.19612 14.4903 1.07165 14.071 0.870013C13.8795 0.770199 13.6822 0.681861 13.4802 0.605469L13.347 0.666005C13.2514 0.870013 12.9269 1.52199 12.6599 2.07227C12.395 2.64124 12.1657 3.22614 11.9734 3.82358C11.8021 4.41442 11.5921 5.08637 11.5352 5.31096L11.6114 5.45322C11.8021 5.53495 11.9928 5.63665 12.2023 5.71777C12.6389 5.895 13.0396 6.15041 13.3845 6.47145C13.6134 6.67545 13.8234 6.87886 14.0523 7.08286C14.5287 7.53083 14.9101 8.06053 15.2345 8.65076C15.9592 10.0976 17.0652 11.2786 18.4188 12.0529C16.8932 10.8918 15.9973 9.03819 15.9973 7.06228Z" fill="white"/>
<path d="M20.2138 12.8065C19.7562 12.2769 20.2138 9.77125 21.3011 6.96055C22.464 3.96641 23.9326 1.76652 24.5616 2.05104C24.5997 2.07163 24.6191 2.09221 24.6378 2.11279V2.09221C24.0658 1.5831 23.3986 1.33853 22.7309 1.13513C22.6547 1.11455 22.5021 1.0534 22.2733 0.992262C22.0826 0.97168 21.9113 0.97168 21.7206 0.97168C18.5545 0.97168 15.9999 3.72185 16.0187 7.10281C16.0187 9.05813 16.9146 10.8918 18.4026 12.0323L18.4789 12.0728C19.009 12.4185 19.5965 12.667 20.2138 12.8065Z" fill="white"/>
<path d="M23.8167 8.04118C24.5414 6.00413 23.0564 4.74739 22.6563 4.56396C22.1435 5.5616 22.1223 5.60943 21.5454 6.98905C20.9733 8.3941 20.8704 8.88687 20.6416 9.72227C21.0417 9.9057 23.054 10.1593 23.8167 8.04118Z" fill="white"/>
</g>
</g>
<line x1="34.3242" y1="38.9551" x2="158" y2="38.9551" stroke="white" stroke-width="0.544828"/>
<path d="M34.3242 60.6573V60.276L36.0169 60.0035V46.7824L34.3242 46.5281V46.1286H48.5831V46.5281L46.872 46.7824V60.0035L48.5831 60.276V60.6573H43.1371V60.276L44.8482 60.0035V46.5826H38.0407V60.0035L39.7334 60.276V60.6573H34.3242Z" fill="white"/>
<path d="M55.6751 60.8389C55.0864 60.8389 54.6264 60.6876 54.2952 60.3849C53.9763 60.0701 53.8169 59.6645 53.8169 59.1681C53.8169 58.7565 53.9457 58.4235 54.2032 58.1693C54.4608 57.9029 54.7736 57.7697 55.1416 57.7697C55.4114 57.7697 55.6506 57.8303 55.8591 57.9514C56.0676 58.0603 56.2271 58.2177 56.3375 58.4235C56.3252 58.4356 56.2884 58.478 56.2271 58.5507C56.1658 58.6233 56.1106 58.7202 56.0615 58.8412C56.0124 58.9623 55.9879 59.1015 55.9879 59.2589C55.9879 59.489 56.0492 59.6766 56.1719 59.8219C56.2945 59.9551 56.4663 60.0217 56.687 60.0217C57.006 60.0217 57.3003 59.8764 57.5702 59.5858C57.84 59.2953 58.1589 58.7444 58.5269 57.9332L58.7661 57.3884L52.7866 46.7824L51.3331 46.5281V46.1286H56.871V46.5281L55.16 46.7824L59.8332 55.0638L63.3105 47.3999L61.1027 46.5281V46.1286H65.224V46.5281L63.8073 47.418L58.9501 58.0966C58.6189 58.8231 58.3 59.38 57.9933 59.7674C57.699 60.1549 57.3678 60.4334 56.9998 60.6029C56.6441 60.7602 56.2026 60.8389 55.6751 60.8389Z" fill="white"/>
<path d="M67.9472 60.8389C67.3585 60.8389 66.923 60.7058 66.6409 60.4394C66.3711 60.1609 66.2362 59.8219 66.2362 59.4224C66.2362 59.1076 66.3404 58.8352 66.5489 58.6052C66.7697 58.363 67.0702 58.2419 67.4505 58.2419C67.6712 58.2419 67.8552 58.2904 68.0024 58.3872C68.1619 58.472 68.2723 58.5628 68.3336 58.6596C68.4072 58.7444 68.4501 58.8049 68.4624 58.8412C68.2416 58.9865 68.1312 59.1742 68.1312 59.4042C68.1312 59.5495 68.1741 59.6706 68.26 59.7674C68.3581 59.8643 68.4869 59.9127 68.6464 59.9127C69.0511 59.9127 69.3946 59.6161 69.6767 59.0229C69.9711 58.4175 70.2102 57.4126 70.3942 56.0081C70.5905 54.6037 70.7377 52.6968 70.8358 50.2874L70.9646 47.3454L69.0143 46.5463V46.1286H79.7223V46.5281L78.0112 46.7824V60.0035L79.7223 60.276V60.6573H74.2763V60.276L75.9874 60.0035V46.5826H71.4981L71.3326 50.3056C71.2099 53.0176 71.0504 55.1001 70.8542 56.553C70.6579 57.9937 70.3329 59.0713 69.8791 59.7856C69.4375 60.4878 68.7936 60.8389 67.9472 60.8389Z" fill="white"/>
<path d="M83.5791 60.2578L85.2717 60.0035V46.7824L83.5791 46.51V46.1286H88.9882V46.51L87.2956 46.7824V52.4849H89.9082C91.7112 52.4849 93.0543 52.8239 93.9374 53.5019C94.8328 54.1678 95.2805 55.1909 95.2805 56.5711C95.2805 57.9514 94.8328 58.9805 93.9374 59.6585C93.0543 60.3244 91.7112 60.6573 89.9082 60.6573H83.5791V60.2578ZM89.6506 60.2033C90.7913 60.2033 91.6438 59.937 92.208 59.4042C92.7722 58.8715 93.0543 58.0482 93.0543 56.9343V56.2079C93.0543 55.094 92.7722 54.2707 92.208 53.738C91.6438 53.1932 90.7913 52.9208 89.6506 52.9208H87.2956V60.2033H89.6506Z" fill="white"/>
<path d="M105.951 61.0206C104.614 61.0206 103.443 60.6997 102.437 60.058C101.431 59.4163 100.652 58.5204 100.1 57.3702C99.5605 56.22 99.2907 54.8943 99.2907 53.393C99.2907 51.8917 99.5667 50.5659 100.119 49.4157C100.683 48.2534 101.474 47.3575 102.492 46.7279C103.522 46.0862 104.706 45.7654 106.043 45.7654C106.57 45.7654 107.104 45.8562 107.644 46.0378C108.196 46.2194 108.692 46.4737 109.134 46.8006L110.367 45.7654H110.753V50.2693H110.367L109.226 47.4543C108.797 47.0669 108.294 46.7582 107.717 46.5281C107.153 46.2981 106.595 46.1831 106.043 46.1831C105.184 46.1831 104.424 46.401 103.762 46.8369C103.111 47.2727 102.602 47.9084 102.234 48.7438C101.866 49.5792 101.683 50.572 101.683 51.7222V55.0456C101.683 56.1958 101.86 57.1886 102.216 58.024C102.572 58.8594 103.069 59.5011 103.706 59.9491C104.344 60.3849 105.092 60.6029 105.951 60.6029C106.577 60.6029 107.202 60.4697 107.828 60.2033C108.453 59.9248 108.974 59.5556 109.391 59.0955L110.459 56.1716H110.845V60.8389H110.459L109.134 59.9127C108.692 60.2638 108.189 60.5363 107.625 60.73C107.061 60.9237 106.503 61.0206 105.951 61.0206Z" fill="white"/>
<path d="M122.052 61.0206C120.715 61.0206 119.543 60.6997 118.538 60.058C117.532 59.4163 116.753 58.5204 116.201 57.3702C115.661 56.22 115.392 54.8943 115.392 53.393C115.392 51.8917 115.668 50.5659 116.219 49.4157C116.784 48.2534 117.575 47.3575 118.593 46.7279C119.623 46.0862 120.807 45.7654 122.144 45.7654C122.671 45.7654 123.205 45.8562 123.744 46.0378C124.296 46.2194 124.793 46.4737 125.235 46.8006L126.467 45.7654H126.854V50.2693H126.467L125.327 47.4543C124.897 47.0669 124.395 46.7582 123.818 46.5281C123.254 46.2981 122.696 46.1831 122.144 46.1831C121.285 46.1831 120.525 46.401 119.862 46.8369C119.212 47.2727 118.703 47.9084 118.335 48.7438C117.967 49.5792 117.783 50.572 117.783 51.7222V55.0456C117.783 56.1958 117.961 57.1886 118.317 58.024C118.673 58.8594 119.169 59.5011 119.807 59.9491C120.445 60.3849 121.193 60.6029 122.052 60.6029C122.677 60.6029 123.303 60.4697 123.928 60.2033C124.554 59.9248 125.075 59.5556 125.492 59.0955L126.559 56.1716H126.946V60.8389H126.559L125.235 59.9127C124.793 60.2638 124.29 60.5363 123.726 60.73C123.162 60.9237 122.604 61.0206 122.052 61.0206Z" fill="white"/>
<path d="M129.984 60.6573V60.276L131.787 59.5495L137.104 45.7654H137.398L142.421 60.0035L144.114 60.276V60.6573H138.705V60.276L140.213 60.0399L138.649 55.7357H133.755L132.265 59.5495L133.921 60.276V60.6573H129.984ZM133.903 55.3543H138.521L136.313 48.9617L133.903 55.3543Z" fill="white"/>
<path d="M146.851 60.276L148.543 60.0035V46.7824L146.851 46.5281V46.1286H152.628C154.443 46.1286 155.792 46.51 156.675 47.2727C157.559 48.0355 158 49.1373 158 50.578C158 52.0188 157.559 53.1206 156.675 53.8833C155.792 54.6461 154.443 55.0275 152.628 55.0275H150.567V60.0035L152.26 60.276V60.6573H146.851V60.276ZM152.37 54.5916C154.639 54.5916 155.774 53.3748 155.774 50.9412V50.2148C155.774 47.7934 154.639 46.5826 152.37 46.5826H150.567V54.5916H152.37Z" fill="white"/>
<defs>
<clipPath id="clip0_3195_27135">
<rect width="158" height="32.6897" fill="white"/>
</clipPath>
</defs>
</svg>
