<svg id="header-heart" viewBox="0 0 29 29" fill="none" xmlns="http://www.w3.org/2000/svg">
	<path d="M23.5626 15.1914L14.5001 24.1669L5.43758 15.1914C4.83982 14.6098 4.36898 13.9106 4.0547 13.138C3.74042 12.3655 3.58951 11.5362 3.61147 10.7024C3.63343 9.86863 3.82779 9.04844 4.18231 8.29347C4.53683 7.53851 5.04383 6.86512 5.67138 6.31573C6.29892 5.76633 7.03343 5.35282 7.82864 5.10123C8.62385 4.84965 9.46254 4.76544 10.2919 4.85391C11.1213 4.94238 11.9233 5.20161 12.6476 5.61529C13.3718 6.02896 14.0025 6.58811 14.5001 7.25752C14.9998 6.59297 15.6312 6.0387 16.355 5.62942C17.0787 5.22014 17.8792 4.96465 18.7062 4.87894C19.5332 4.79324 20.3691 4.87916 21.1613 5.13133C21.9536 5.3835 22.6854 5.7965 23.3107 6.34446C23.936 6.89243 24.4416 7.56358 24.7956 8.31589C25.1496 9.06821 25.3446 9.88551 25.3682 10.7166C25.3918 11.5478 25.2437 12.3748 24.933 13.146C24.6223 13.9173 24.1558 14.6161 23.5626 15.1987" stroke="#D0A567" stroke-width="2" stroke-linecap="round" stroke-linejoin="round"/>
</svg>