<svg width="158" height="62" viewBox="0 0 158 62" fill="none" xmlns="http://www.w3.org/2000/svg">
<g clip-path="url(#clip0_10_225)">
<path d="M35.0068 15.0704L36.6817 14.7977V1.56286L35.0068 1.30835V0.908394H40.7234C42.5197 0.908394 43.8548 1.29017 44.7286 2.05372C45.6025 2.81727 46.0394 3.92017 46.0394 5.36243C46.0394 6.80469 45.6025 7.90759 44.7286 8.67114C43.8548 9.43469 42.5197 9.81646 40.7234 9.81646H38.6844V14.7977L40.3593 15.0704V15.4522H35.0068V15.0704ZM40.4685 9.38015C42.7139 9.38015 43.8366 8.16211 43.8366 5.72602V4.99883C43.8366 2.57487 42.7139 1.36289 40.4685 1.36289H38.6844V9.38015H40.4685ZM59.5954 15.8158C57.8112 15.8158 56.5065 15.4219 55.6811 14.6341C54.8558 13.8342 54.4432 12.7798 54.4432 11.4708V1.56286L52.7682 1.30835V0.908394H58.1207V1.30835L56.4458 1.56286V11.4708C56.4458 12.6586 56.7796 13.5736 57.4471 14.216C58.1146 14.8462 59.1281 15.1613 60.4874 15.1613C63.0605 15.1613 64.347 13.9311 64.347 11.4708V2.01736L62.6539 1.30835V0.908394H66.5317V1.30835L64.784 2.01736V11.4708C64.784 12.9252 64.3774 14.016 63.5642 14.7432C62.751 15.4582 61.4281 15.8158 59.5954 15.8158ZM73.2787 15.4522V15.0704L74.9537 14.7977V1.56286L73.2787 1.30835V0.908394H78.6312V1.30835L76.9563 1.56286V15.0159H82.3998L83.8926 11.0163H84.3842V15.4522H73.2787ZM96.8878 15.8158C95.7591 15.8158 94.6485 15.4946 93.5562 14.8522L92.0087 15.634H91.6082V10.9618H92.0087L93.5744 14.3432C94.5818 15.0583 95.7348 15.4158 97.0335 15.4158C98.1015 15.4158 98.9815 15.1371 99.6733 14.5795C100.377 14.0099 100.729 13.2161 100.729 12.198C100.729 11.4587 100.505 10.8769 100.056 10.4528C99.6065 10.0164 98.8783 9.67102 97.8709 9.41651L94.8488 8.63478C93.7929 8.35602 92.9979 7.88335 92.4639 7.21676C91.9298 6.53805 91.6628 5.73814 91.6628 4.81704C91.6628 3.98077 91.8267 3.24146 92.1544 2.59911C92.481 1.95821 92.9954 1.43187 93.629 1.09019C94.2723 0.726597 95.0369 0.5448 95.9229 0.5448C97.0274 0.5448 98.0166 0.732657 98.8905 1.10837L100.219 0.5448H100.62V4.25346H100.219L98.9087 1.59922C97.9984 1.16291 97.0092 0.944754 95.9411 0.944754C94.8852 0.944754 94.0538 1.21745 93.447 1.76284C92.8401 2.29611 92.5367 3.00512 92.5367 3.88987C92.5367 4.54434 92.7491 5.05943 93.1739 5.43515C93.6108 5.81086 94.248 6.1078 95.0855 6.32595L98.3443 7.1804C99.4002 7.44704 100.183 7.90759 100.693 8.56206C101.215 9.20441 101.476 10.1861 101.476 11.5072C101.476 12.8525 101.057 13.9069 100.219 14.6704C99.3941 15.434 98.2836 15.8158 96.8878 15.8158ZM114.566 15.8158C113.437 15.8158 112.326 15.4946 111.234 14.8522L109.686 15.634H109.286V10.9618H109.686L111.252 14.3432C112.259 15.0583 113.412 15.4158 114.711 15.4158C115.779 15.4158 116.659 15.1371 117.351 14.5795C118.055 14.0099 118.407 13.2161 118.407 12.198C118.407 11.4587 118.182 10.8769 117.733 10.4528C117.284 10.0164 116.556 9.67102 115.549 9.41651L112.526 8.63478C111.471 8.35602 110.676 7.88335 110.142 7.21676C109.608 6.53805 109.34 5.73814 109.34 4.81704C109.34 3.98077 109.504 3.24146 109.832 2.59911C110.159 1.95821 110.673 1.43187 111.307 1.09019C111.95 0.726597 112.715 0.5448 113.601 0.5448C114.705 0.5448 115.694 0.732657 116.568 1.10837L117.897 0.5448H118.298V4.25346H117.897L116.586 1.59922C115.676 1.16291 114.687 0.944754 113.619 0.944754C112.563 0.944754 111.732 1.21745 111.125 1.76284C110.518 2.29611 110.214 3.00512 110.214 3.88987C110.214 4.54434 110.427 5.05943 110.852 5.43515C111.289 5.81086 111.926 6.1078 112.763 6.32595L116.022 7.1804C117.078 7.44704 117.861 7.90759 118.371 8.56206C118.892 9.20441 119.153 10.1861 119.153 11.5072C119.153 12.8525 118.735 13.9069 117.897 14.6704C117.072 15.434 115.961 15.8158 114.566 15.8158ZM125.235 15.4522V15.0704L127.019 14.3432L132.28 0.5448H132.572L137.542 14.7977L139.217 15.0704V15.4522H133.864V15.0704L135.357 14.8341L133.81 10.5255H128.967L127.492 14.3432L129.131 15.0704V15.4522H125.235ZM129.112 10.1437H133.682L131.497 3.74443L129.112 10.1437ZM155.688 15.634C155.008 15.634 154.498 15.4704 154.159 15.1431C153.819 14.8159 153.588 14.2584 153.467 13.4706L153.121 11.0345C152.999 10.2104 152.714 9.568 152.265 9.10745C151.828 8.63478 151.143 8.39844 150.208 8.39844H148.788V14.7977L150.463 15.0704V15.4522H145.11V15.0704L146.785 14.7977V1.56286L145.11 1.30835V0.908394H150.208C152.186 0.908394 153.618 1.21745 154.504 1.83556C155.39 2.45367 155.834 3.39296 155.834 4.65342C155.834 6.73803 154.571 7.94395 152.047 8.27118V8.38026C152.981 8.51358 153.728 8.84688 154.286 9.38015C154.856 9.91342 155.215 10.6224 155.36 11.5072L155.597 13.0706C155.694 13.7493 155.803 14.2099 155.925 14.4523C156.058 14.6947 156.258 14.8159 156.525 14.8159C156.707 14.8159 156.902 14.7613 157.108 14.6523C157.314 14.5311 157.508 14.3796 157.69 14.1978L158 14.525C157.648 14.925 157.284 15.2098 156.908 15.3795C156.531 15.5491 156.125 15.634 155.688 15.634ZM150.827 7.96213C151.713 7.96213 152.399 7.69549 152.884 7.16222C153.382 6.61683 153.631 5.81692 153.631 4.7625V4.38072C153.631 2.36883 152.49 1.36289 150.208 1.36289H148.788V7.96213H150.827ZM38.6916 32.1448H38.1637V30.9049H34.8521V32.1448H34.3241V30.4038H34.6925C35.027 29.8414 35.3129 29.1579 35.5499 28.3531C35.7886 27.5484 35.9211 26.8127 35.9474 26.1461H38.089V30.4038H38.6916V32.1448ZM37.535 30.4038V26.6442H36.4493C36.4105 27.1694 36.279 27.8009 36.0548 28.5385C35.8311 29.2742 35.5704 29.896 35.2726 30.4038H37.535ZM40.8053 26.1461H41.3236V28.7925C41.3236 29.2809 41.3084 29.7225 41.278 30.1172H41.3041L43.9767 26.1461H44.583V30.9049H44.0611V28.2846C44.0611 27.8483 44.0797 27.3906 44.1169 26.9115H44.0878L41.4116 30.9049H40.8047L40.8053 26.1461ZM49.9561 27.2593C49.9561 27.572 49.8559 27.8259 49.6557 28.021C49.4578 28.2166 49.1842 28.3402 48.8346 28.3919V28.4186C49.2323 28.4727 49.5333 28.5973 49.7376 28.7925C49.9439 28.9876 50.0471 29.2425 50.0471 29.5572C50.0471 30.0016 49.8808 30.349 49.5483 30.5995C49.2157 30.846 48.7464 30.9694 48.1404 30.9698C47.5861 30.9698 47.132 30.8841 46.778 30.7128V30.1984C46.9863 30.2981 47.2113 30.3753 47.4528 30.4298C47.6826 30.4825 47.9174 30.5097 48.1531 30.511C48.584 30.511 48.9088 30.4296 49.1277 30.2668C49.3494 30.1044 49.4603 29.8701 49.4603 29.5639C49.4603 29.273 49.3375 29.0528 49.0919 28.9034C48.8492 28.7539 48.4851 28.6791 47.9996 28.6791H47.2896V28.2131H47.9711C48.4161 28.2131 48.7604 28.1339 49.0039 27.9756C49.2495 27.8148 49.3723 27.5914 49.3723 27.3054C49.3723 27.0727 49.2843 26.887 49.1083 26.7485C48.9323 26.6099 48.6956 26.5404 48.3983 26.54C48.1588 26.54 47.9423 26.5673 47.7489 26.6218C47.5556 26.6759 47.3318 26.7832 47.0778 26.9436L46.8041 26.5727C47.0234 26.4103 47.2687 26.2877 47.5402 26.2049C47.8145 26.12 48.0981 26.0776 48.391 26.0776C48.8801 26.0776 49.2626 26.1851 49.5386 26.4C49.8169 26.6129 49.9561 26.8993 49.9561 27.2593ZM55.3668 30.9049L54.7739 29.3912H52.8635L52.2779 30.9049H51.7172L53.6008 26.1267H54.0669L55.9415 30.9049H55.3668ZM54.6009 28.8931L54.0469 27.4193C53.9753 27.2326 53.9014 27.0036 53.8254 26.7321C53.7772 26.9405 53.7089 27.1696 53.6203 27.4193L53.0595 28.8937L54.6009 28.8931ZM57.9041 26.1467H58.4223V28.7925C58.4223 29.2809 58.4071 29.7225 58.3768 30.1172H58.4029L61.0755 26.1461H61.6817V30.9049H61.1604V28.2846C61.1604 27.8483 61.1789 27.3906 61.2157 26.9115H61.1865L58.5109 30.9049H57.9047L57.9041 26.1467ZM59.8794 25.7655C59.4776 25.7655 59.1843 25.6886 58.9994 25.5347C58.8145 25.3783 58.7114 25.1222 58.6899 24.7663H59.1979C59.2181 24.9921 59.2768 25.1494 59.3739 25.2383C59.4742 25.3272 59.6469 25.3716 59.8921 25.3716C60.1163 25.3716 60.2815 25.324 60.3879 25.2286C60.4968 25.1329 60.5629 24.9788 60.5864 24.7663H61.0985C61.0723 25.1092 60.9624 25.3621 60.769 25.525C60.576 25.6853 60.2795 25.7655 59.8794 25.7655ZM67.9093 30.9049H67.3552V28.6658H64.8453V30.9049H64.2912V26.1467H64.8453V28.1707H67.3552V26.1467H67.9093V30.9049ZM73.1774 30.9049H70.5212V26.1467H73.1774V26.6376H71.0752V28.1707H73.0506V28.6591H71.0752V30.4105H73.1774V30.9049ZM78.5602 27.5326C78.5602 28.0146 78.3951 28.3856 78.065 28.6458C77.7369 28.9044 77.2664 29.0336 76.6535 29.0336H76.0927V30.9049H75.5387V26.1467H76.7742C77.9649 26.1467 78.5602 26.6087 78.5602 27.5326ZM76.0927 28.5579H76.5916C77.0827 28.5579 77.4379 28.4788 77.6572 28.3204C77.8769 28.162 77.9867 27.9081 77.9867 27.5587C77.9867 27.2444 77.8836 27.01 77.6772 26.8557C77.4701 26.7018 77.1484 26.6248 76.7123 26.6248H76.0927V28.5579ZM82.9029 26.5727C82.3793 26.5727 81.9655 26.7474 81.6612 27.0969C81.359 27.4443 81.2079 27.9206 81.2079 28.5258C81.2079 29.148 81.3536 29.6297 81.6448 29.9711C81.9382 30.3093 82.3555 30.4783 82.8968 30.4783C83.2285 30.4783 83.6076 30.4187 84.034 30.2996V30.7844C83.7035 30.908 83.2961 30.9698 82.8118 30.9698C82.1099 30.9698 81.5678 30.7573 81.1855 30.3323C80.8052 29.9069 80.615 29.3025 80.615 28.5192C80.615 28.0287 80.7062 27.5991 80.8887 27.2302C81.0623 26.8728 81.3395 26.5757 81.6843 26.3776C82.0318 26.178 82.4402 26.0782 82.9095 26.0782C83.4096 26.0782 83.8463 26.1691 84.2197 26.3509L83.9855 26.8266C83.6477 26.6634 83.278 26.5767 82.9029 26.5727ZM89.8046 30.9049H89.1328L86.9299 28.4931V30.9049H86.3753V26.1467H86.9299V28.4507L89.0776 26.1461H89.713L87.6042 28.4573L89.8046 30.9049ZM95.9011 28.5192C95.9011 29.2807 95.7077 29.8796 95.3209 30.3159C94.9362 30.7522 94.4005 30.9704 93.714 30.9704C93.0121 30.9704 92.4699 30.7565 92.0876 30.3286C91.7073 29.8988 91.5172 29.2934 91.5172 28.5125C91.5172 27.738 91.7083 27.1381 92.0906 26.7127C92.473 26.2853 93.0161 26.0716 93.72 26.0716C94.4046 26.0716 94.9392 26.2885 95.324 26.7224C95.7087 27.1563 95.9011 27.7552 95.9011 28.5192ZM92.1034 28.5192C92.1034 29.1631 92.2403 29.6524 92.5142 29.9869C92.7905 30.319 93.1905 30.485 93.714 30.485C94.2419 30.485 94.6406 30.319 94.9101 29.9869C95.1795 29.6552 95.3143 29.166 95.3143 28.5192C95.3143 27.8788 95.1795 27.394 94.9101 27.0648C94.6431 26.7323 94.2464 26.566 93.72 26.566C93.1921 26.566 92.7901 26.7331 92.5142 27.0672C92.2403 27.3993 92.1034 27.8833 92.1034 28.5192ZM100.925 30.9049H98.2684V26.1467H100.925V26.6376H98.8225V28.1707H100.798V28.6591H98.8225V30.4105H100.925V30.9049ZM110.458 28.5192C110.458 29.2807 110.264 29.8796 109.878 30.3159C109.493 30.7522 108.958 30.9704 108.271 30.9704C107.569 30.9704 107.027 30.7565 106.644 30.3286C106.264 29.8988 106.074 29.2934 106.074 28.5125C106.074 27.738 106.265 27.1381 106.648 26.7127C107.03 26.2853 107.573 26.0716 108.277 26.0716C108.962 26.0716 109.496 26.2885 109.881 26.7224C110.266 27.1563 110.458 27.7552 110.458 28.5192ZM106.661 28.5192C106.661 29.1631 106.798 29.6524 107.071 29.9869C107.348 30.319 107.748 30.485 108.271 30.485C108.799 30.485 109.198 30.319 109.467 29.9869C109.737 29.6552 109.872 29.166 109.872 28.5192C109.872 27.8788 109.737 27.394 109.467 27.0648C109.2 26.7323 108.803 26.566 108.277 26.566C107.749 26.566 107.347 26.7331 107.071 27.0672C106.798 27.3993 106.661 27.8833 106.661 28.5192ZM114.866 26.5727C114.342 26.5727 113.929 26.7474 113.624 27.0969C113.322 27.4443 113.171 27.9206 113.171 28.5258C113.171 29.148 113.317 29.6297 113.608 29.9711C113.901 30.3093 114.318 30.4783 114.859 30.4783C115.192 30.4783 115.571 30.4187 115.997 30.2996V30.7844C115.667 30.908 115.259 30.9698 114.775 30.9698C114.073 30.9698 113.531 30.7573 113.149 30.3323C112.768 29.9069 112.578 29.3025 112.578 28.5192C112.578 28.0287 112.669 27.5991 112.852 27.2302C113.026 26.8731 113.302 26.5761 113.647 26.3776C113.995 26.178 114.403 26.0782 114.873 26.0782C115.372 26.0782 115.809 26.1691 116.183 26.3509L115.948 26.8266C115.611 26.6628 115.241 26.576 114.866 26.5727ZM118.338 26.1467H119.685C120.317 26.1467 120.775 26.241 121.057 26.4297C121.339 26.6184 121.481 26.9167 121.481 27.3247C121.481 27.6063 121.401 27.8396 121.243 28.0247C121.086 28.2065 120.857 28.3246 120.555 28.3792V28.4119C121.279 28.5351 121.64 28.9149 121.64 29.5512C121.64 29.9762 121.496 30.308 121.207 30.5468C120.92 30.7856 120.518 30.9049 120.001 30.9049H118.338V26.1467ZM118.892 28.184H119.805C120.197 28.184 120.478 28.1232 120.649 28.0016C120.821 27.878 120.907 27.6708 120.907 27.3799C120.907 27.1133 120.811 26.9214 120.62 26.8042C120.429 26.6846 120.125 26.6248 119.707 26.6248H118.892V28.184ZM118.892 28.6525V30.4329H119.887C120.271 30.4329 120.56 30.3591 120.754 30.2117C120.949 30.0622 121.047 29.8289 121.047 29.5118C121.047 29.2169 120.947 28.9999 120.748 28.8609C120.55 28.7216 120.248 28.6521 119.841 28.6525H118.892ZM126.626 30.9049H123.969V26.1467H126.626V26.6376H124.523V28.1707H126.498V28.6591H124.523V30.4105H126.626V30.9049ZM128.986 30.9049V26.1467H129.54V30.4038H131.441V26.1461H132.001V30.4038H133.905V26.1461H134.459V30.4038H135.02V32.1448H134.492V30.9049H128.986ZM139.842 30.9049H137.185V26.1467H139.842V26.6376H137.739V28.1707H139.714V28.6591H137.739V30.4105H139.842V30.9049ZM145.82 30.9049H145.266V28.6658H142.757V30.9049H142.202V26.1467H142.757V28.1707H145.266V26.1467H145.82V30.9049ZM148.439 26.1467H148.957V28.7925C148.957 29.2809 148.942 29.7225 148.912 30.1172H148.938L151.61 26.1461H152.217V30.9049H151.695V28.2846C151.695 27.8483 151.714 27.3906 151.751 26.9115H151.721L149.045 30.9049H148.439V26.1467ZM157.482 30.9049H154.826V26.1467H157.482V26.6376H155.38V28.1707H157.355V28.6591H155.38V30.4105H157.482V30.9049Z" fill="white"/>
<mask id="mask0_10_225" style="mask-type:luminance" maskUnits="userSpaceOnUse" x="0" y="0" width="30" height="31">
<path d="M0 0.605347H29.0575V30.8735H0V0.605347Z" fill="white"/>
</mask>
<g mask="url(#mask0_10_225)">
<path d="M12.9092 1.56229L13.3863 1.80685L12.2803 4.33243L11.8032 4.08847C11.4412 3.90505 11.2693 3.43649 11.4412 3.02908L11.9176 1.92914C11.9563 1.838 12.0133 1.75573 12.0849 1.68738C12.1565 1.61904 12.2414 1.56606 12.3343 1.5317C12.4271 1.49735 12.526 1.48234 12.6249 1.4876C12.7238 1.49286 12.8205 1.51827 12.9092 1.56229ZM11.4806 23.4601H10.012V26.5354H11.4806V23.4601Z" fill="white"/>
<path d="M7.95331 19.0991H6.65662L10.6805 24.416H11.9578L7.95331 19.0991Z" fill="white"/>
<path d="M7.66684 19.0991H6.38953L10.394 24.416H11.6713L7.66684 19.0991ZM15.2369 22.6042L10.4691 17.145L10.3928 17.6747L14.5311 22.7876L15.2369 22.6042Z" fill="white"/>
<path d="M10.3939 17.6736H9.66931L13.6926 23.0105L14.5316 22.7865L10.3939 17.6736Z" fill="white"/>
<path d="M10.2978 18.1639L6.99859 20.4249C6.65535 20.6689 6.19769 20.5672 5.9501 20.2209C5.77817 19.9564 5.74004 19.6301 5.87382 19.345L8.18147 14.5384L8.75293 14.4567L9.68761 14.7824L8.75354 15.8212V17.064L10.2978 17.1045V18.1639Z" fill="white"/>
<path d="M15.6001 12.4401H14.5135L9.57433 17.6753H10.6616L15.6001 12.4401ZM14.5898 8.61057L14.9712 6.85864L8.37329 13.8657L8.92659 14.6194L14.5898 8.61057Z" fill="white"/>
<path d="M8.55024 13.9929L8.36621 14.7629L12.1909 15.8054L12.3749 15.036L8.55024 13.9929ZM15.3527 23.6636V21.8094H12.6262L11.0431 23.7241V25.4149L15.3527 23.6636ZM6.58039 20.2215C6.85401 20.2215 7.07618 19.9842 7.07618 19.6918C7.07618 19.3994 6.85401 19.1621 6.57978 19.1621C6.30676 19.1621 6.08459 19.3994 6.08459 19.6918C6.08459 19.9842 6.30676 20.2215 6.58039 20.2215Z" fill="white"/>
<path d="M8.5998 14.7605C8.87342 14.7605 9.09559 14.5232 9.09559 14.2308C9.09559 13.9384 8.87342 13.7011 8.59919 13.7011C8.32496 13.7011 8.104 13.9384 8.104 14.2308C8.104 14.5232 8.32557 14.7605 8.5998 14.7605ZM10.8499 25.0892C11.0497 25.0892 11.2119 24.9155 11.2119 24.7018C11.2119 24.4881 11.0497 24.315 10.8499 24.315C10.6502 24.315 10.4873 24.4881 10.4873 24.7024C10.4873 24.9155 10.6496 25.0892 10.8499 25.0892ZM14.2823 23.2762C14.4192 23.2762 14.5305 23.1569 14.5305 23.011C14.5305 22.8645 14.4192 22.7459 14.2823 22.7459C14.1455 22.7459 14.0341 22.8645 14.0341 23.011C14.0341 23.1569 14.1455 23.2762 14.2823 23.2762ZM15.5028 7.75464H14.6438V12.2361H15.5022L15.5028 7.75464Z" fill="white"/>
<path d="M15.0294 12.9692C15.303 12.9692 15.5252 12.7319 15.5252 12.4395C15.5252 12.1471 15.303 11.9098 15.0288 11.9098C14.7557 11.9098 14.5336 12.1471 14.5336 12.4395C14.5336 12.7319 14.7557 12.9692 15.0294 12.9692ZM12.8337 30.8746C19.9213 30.8746 25.6674 30.756 25.6674 30.6095C25.6674 30.4636 19.9213 30.3449 12.8337 30.3449C5.74612 30.3449 0 30.4636 0 30.6095C0 30.756 5.74612 30.8746 12.8337 30.8746Z" fill="white"/>
<path d="M17.7348 30.1604C17.9255 29.9975 16.7813 29.8347 15.5034 29.7124H2.34583V30.4049C4.72975 30.4455 17.2965 30.5684 17.7348 30.1604Z" fill="white"/>
<path d="M15.5034 29.7124C16.7813 29.8347 17.9067 29.9776 17.7348 30.1604C17.2965 30.5678 4.72975 30.4256 2.34583 30.405V30.609H19.2222V29.7124H15.5034ZM15.771 29.3662C15.771 28.6742 13.6159 28.2257 11.1563 27.9405V27.7371L10.7749 27.7166L4.25272 28.1445C3.68065 28.1851 3.2236 28.6942 3.2236 29.3056V29.713H12.2042C13.9016 29.6107 15.7698 29.4685 15.7698 29.3668" fill="white"/>
<path d="M18.3269 29.3249C18.3269 28.7141 17.8693 28.205 17.2972 28.1645L11.157 27.757V27.9605C13.636 28.2456 15.7717 28.6736 15.7717 29.3861C15.7717 29.4884 13.8836 29.6306 12.1867 29.7529H18.3082L18.3269 29.3249ZM11.2902 26.3308H10.0885C9.87908 26.3308 9.70715 26.5142 9.70715 26.7382V27.8581H11.0614C11.3277 27.3085 11.4427 26.7382 11.2902 26.3308Z" fill="white"/>
<path d="M12.071 26.7176H11.8803C11.8803 26.4937 11.7084 26.3308 11.4989 26.3308H11.2889C11.327 26.4531 11.3651 26.596 11.3651 26.7182H9.51636V27.0845H11.3276C11.2707 27.3496 11.1944 27.6142 11.0794 27.8382H11.8997V27.0845H12.0904L12.071 26.7176Z" fill="white"/>
<path d="M24.6383 2.11262C24.6189 2.09204 24.5808 2.07145 24.562 2.05148C23.9324 1.76635 22.4644 3.96624 21.3009 6.96037C20.1949 9.77108 19.7372 12.2767 20.2143 12.8064C20.2436 12.8441 20.2834 12.8723 20.3287 12.8875C20.9583 13.1726 22.4263 10.9727 23.5892 7.9786C24.6952 5.12733 25.1528 2.58117 24.6383 2.11262Z" stroke="white" stroke-width="0.544828" stroke-miterlimit="10"/>
<path d="M15.9974 7.06204C15.9974 3.68108 18.5527 0.951493 21.7181 0.951493C21.9088 0.951493 22.0995 0.972075 22.2714 0.972075C20.9141 0.624434 19.4862 0.666819 18.1519 1.09436C17.5462 1.27368 16.9132 1.34258 16.2831 1.29776C15.9974 1.27718 15.6923 1.27718 15.406 1.23722C14.9426 1.19588 14.4904 1.0714 14.0711 0.869769C13.8796 0.769955 13.6823 0.681617 13.4803 0.605225L13.3471 0.665761C13.2515 0.869769 12.927 1.52175 12.66 2.07202C12.3951 2.64099 12.1659 3.2259 11.9736 3.82334C11.8022 4.41417 11.5922 5.08613 11.5353 5.31072L11.6116 5.45298C11.8022 5.5347 11.9929 5.6364 12.2024 5.71752C12.639 5.89476 13.0397 6.15016 13.3847 6.4712C13.6135 6.67521 13.8236 6.87861 14.0524 7.08262C14.5288 7.53059 14.9102 8.06028 15.2347 8.65051C15.9593 10.0973 17.0653 11.2784 18.4189 12.0527C16.8934 10.8916 15.9974 9.03794 15.9974 7.06204Z" fill="white"/>
<path d="M20.2137 12.8063C19.7561 12.2766 20.2137 9.77101 21.3009 6.9603C22.4638 3.96617 23.9325 1.76628 24.5614 2.0508C24.5996 2.07138 24.6189 2.09196 24.6377 2.11255V2.09196C24.0656 1.58285 23.3985 1.33829 22.7308 1.13488C22.6545 1.1143 22.502 1.05316 22.2732 0.992018C22.0825 0.971436 21.9111 0.971436 21.7205 0.971436C18.5544 0.971436 15.9998 3.7216 16.0185 7.10256C16.0185 9.05789 16.9145 10.8915 18.4025 12.032L18.4787 12.0726C19.0089 12.4183 19.5964 12.6667 20.2137 12.8063Z" fill="white"/>
<path d="M23.8169 8.04105C24.5415 6.004 23.0565 4.74727 22.6564 4.56384C22.1436 5.56148 22.1224 5.60931 21.5455 6.98893C20.9735 8.39398 20.8706 8.88675 20.6417 9.72215C21.0419 9.90557 23.0541 10.1592 23.8169 8.04105Z" fill="white"/>
</g>
<g filter="url(#filter0_f_10_225)">
<path d="M51.9546 4.41747L21.3875 4.27808C19.8738 4.94756 19.3984 7.85668 19.3499 9.15794L44.8223 21.9847L51.9546 4.41747Z" fill="url(#paint0_linear_10_225)"/>
</g>
<g opacity="0.48" filter="url(#filter1_f_10_225)">
<path d="M91.9999 2.96806L24.8721 2.67456C21.5477 4.08388 20.7186 8.6133 20.6119 11.3536L60.8199 30.5952L91.9999 2.96806Z" fill="url(#paint1_linear_10_225)"/>
</g>
</g>
<line x1="34.3241" y1="38.9551" x2="158" y2="38.9551" stroke="white" stroke-width="0.544828"/>
<path d="M34.3241 60.6573V60.276L36.0168 60.0035V46.7824L34.3241 46.5281V46.1286H48.583V46.5281L46.8719 46.7824V60.0035L48.583 60.276V60.6573H43.137V60.276L44.8481 60.0035V46.5826H38.0406V60.0035L39.7333 60.276V60.6573H34.3241Z" fill="white"/>
<path d="M55.675 60.8389C55.0863 60.8389 54.6263 60.6876 54.2951 60.3849C53.9762 60.0701 53.8168 59.6645 53.8168 59.1681C53.8168 58.7565 53.9455 58.4235 54.2031 58.1693C54.4607 57.9029 54.7735 57.7697 55.1414 57.7697C55.4113 57.7697 55.6505 57.8303 55.859 57.9514C56.0675 58.0603 56.227 58.2177 56.3374 58.4235C56.3251 58.4356 56.2883 58.478 56.227 58.5507C56.1656 58.6233 56.1104 58.7202 56.0614 58.8412C56.0123 58.9623 55.9878 59.1015 55.9878 59.2589C55.9878 59.489 56.0491 59.6766 56.1718 59.8219C56.2944 59.9551 56.4661 60.0217 56.6869 60.0217C57.0058 60.0217 57.3002 59.8764 57.5701 59.5858C57.8399 59.2953 58.1588 58.7444 58.5268 57.9332L58.766 57.3884L52.7864 46.7824L51.333 46.5281V46.1286H56.8709V46.5281L55.1598 46.7824L59.8331 55.0638L63.3104 47.3999L61.1026 46.5281V46.1286H65.2238V46.5281L63.8072 47.418L58.9499 58.0966C58.6188 58.8231 58.2999 59.38 57.9932 59.7674C57.6988 60.1549 57.3677 60.4334 56.9997 60.6029C56.644 60.7602 56.2024 60.8389 55.675 60.8389Z" fill="white"/>
<path d="M67.9471 60.8389C67.3584 60.8389 66.9229 60.7058 66.6408 60.4394C66.371 60.1609 66.236 59.8219 66.236 59.4224C66.236 59.1076 66.3403 58.8352 66.5488 58.6052C66.7696 58.363 67.0701 58.2419 67.4503 58.2419C67.6711 58.2419 67.8551 58.2904 68.0023 58.3872C68.1618 58.472 68.2721 58.5628 68.3335 58.6596C68.4071 58.7444 68.45 58.8049 68.4623 58.8412C68.2415 58.9865 68.1311 59.1742 68.1311 59.4042C68.1311 59.5495 68.174 59.6706 68.2599 59.7674C68.358 59.8643 68.4868 59.9127 68.6463 59.9127C69.051 59.9127 69.3945 59.6161 69.6766 59.0229C69.9709 58.4175 70.2101 57.4126 70.3941 56.0081C70.5904 54.6037 70.7375 52.6968 70.8357 50.2874L70.9645 47.3454L69.0142 46.5463V46.1286H79.7222V46.5281L78.0111 46.7824V60.0035L79.7222 60.276V60.6573H74.2762V60.276L75.9873 60.0035V46.5826H71.498L71.3324 50.3056C71.2098 53.0176 71.0503 55.1001 70.8541 56.553C70.6578 57.9937 70.3328 59.0713 69.879 59.7856C69.4374 60.4878 68.7934 60.8389 67.9471 60.8389Z" fill="white"/>
<path d="M83.579 60.2578L85.2716 60.0035V46.7824L83.579 46.51V46.1286H88.9881V46.51L87.2955 46.7824V52.4849H89.908C91.7111 52.4849 93.0542 52.8239 93.9373 53.5019C94.8327 54.1678 95.2804 55.1909 95.2804 56.5711C95.2804 57.9514 94.8327 58.9805 93.9373 59.6585C93.0542 60.3244 91.7111 60.6573 89.908 60.6573H83.579V60.2578ZM89.6505 60.2033C90.7912 60.2033 91.6436 59.937 92.2079 59.4042C92.7721 58.8715 93.0542 58.0482 93.0542 56.9343V56.2079C93.0542 55.094 92.7721 54.2707 92.2079 53.738C91.6436 53.1932 90.7912 52.9208 89.6505 52.9208H87.2955V60.2033H89.6505Z" fill="white"/>
<path d="M105.951 61.0206C104.614 61.0206 103.443 60.6997 102.437 60.058C101.431 59.4163 100.652 58.5204 100.1 57.3702C99.5604 56.22 99.2906 54.8943 99.2906 53.393C99.2906 51.8917 99.5665 50.5659 100.119 49.4157C100.683 48.2534 101.474 47.3575 102.492 46.7279C103.522 46.0862 104.706 45.7654 106.043 45.7654C106.57 45.7654 107.104 45.8562 107.643 46.0378C108.195 46.2194 108.692 46.4737 109.134 46.8006L110.366 45.7654H110.753V50.2693H110.366L109.226 47.4543C108.796 47.0669 108.294 46.7582 107.717 46.5281C107.153 46.2981 106.595 46.1831 106.043 46.1831C105.184 46.1831 104.424 46.401 103.761 46.8369C103.111 47.2727 102.602 47.9084 102.234 48.7438C101.866 49.5792 101.682 50.572 101.682 51.7222V55.0456C101.682 56.1958 101.86 57.1886 102.216 58.024C102.572 58.8594 103.068 59.5011 103.706 59.9491C104.344 60.3849 105.092 60.6029 105.951 60.6029C106.576 60.6029 107.202 60.4697 107.827 60.2033C108.453 59.9248 108.974 59.5556 109.391 59.0955L110.458 56.1716H110.845V60.8389H110.458L109.134 59.9127C108.692 60.2638 108.189 60.5363 107.625 60.73C107.061 60.9237 106.503 61.0206 105.951 61.0206Z" fill="white"/>
<path d="M122.052 61.0206C120.715 61.0206 119.543 60.6997 118.538 60.058C117.532 59.4163 116.753 58.5204 116.201 57.3702C115.661 56.22 115.391 54.8943 115.391 53.393C115.391 51.8917 115.667 50.5659 116.219 49.4157C116.784 48.2534 117.575 47.3575 118.593 46.7279C119.623 46.0862 120.807 45.7654 122.144 45.7654C122.671 45.7654 123.205 45.8562 123.744 46.0378C124.296 46.2194 124.793 46.4737 125.235 46.8006L126.467 45.7654H126.854V50.2693H126.467L125.327 47.4543C124.897 47.0669 124.394 46.7582 123.818 46.5281C123.254 46.2981 122.696 46.1831 122.144 46.1831C121.285 46.1831 120.525 46.401 119.862 46.8369C119.212 47.2727 118.703 47.9084 118.335 48.7438C117.967 49.5792 117.783 50.572 117.783 51.7222V55.0456C117.783 56.1958 117.961 57.1886 118.317 58.024C118.672 58.8594 119.169 59.5011 119.807 59.9491C120.445 60.3849 121.193 60.6029 122.052 60.6029C122.677 60.6029 123.303 60.4697 123.928 60.2033C124.554 59.9248 125.075 59.5556 125.492 59.0955L126.559 56.1716H126.946V60.8389H126.559L125.235 59.9127C124.793 60.2638 124.29 60.5363 123.726 60.73C123.162 60.9237 122.604 61.0206 122.052 61.0206Z" fill="white"/>
<path d="M129.984 60.6573V60.276L131.787 59.5495L137.104 45.7654H137.398L142.421 60.0035L144.114 60.276V60.6573H138.705V60.276L140.213 60.0399L138.649 55.7357H133.755L132.265 59.5495L133.921 60.276V60.6573H129.984ZM133.903 55.3543H138.521L136.313 48.9617L133.903 55.3543Z" fill="white"/>
<path d="M146.85 60.276L148.543 60.0035V46.7824L146.85 46.5281V46.1286H152.628C154.443 46.1286 155.792 46.51 156.675 47.2727C157.558 48.0355 158 49.1373 158 50.578C158 52.0188 157.558 53.1206 156.675 53.8833C155.792 54.6461 154.443 55.0275 152.628 55.0275H150.567V60.0035L152.26 60.276V60.6573H146.85V60.276ZM152.37 54.5916C154.639 54.5916 155.774 53.3748 155.774 50.9412V50.2148C155.774 47.7934 154.639 46.5826 152.37 46.5826H150.567V54.5916H152.37Z" fill="white"/>
<defs>
<filter id="filter0_f_10_225" x="15.291" y="0.219236" width="40.7224" height="25.8243" filterUnits="userSpaceOnUse" color-interpolation-filters="sRGB">
<feFlood flood-opacity="0" result="BackgroundImageFix"/>
<feBlend mode="normal" in="SourceGraphic" in2="BackgroundImageFix" result="shape"/>
<feGaussianBlur stdDeviation="2.02942" result="effect1_foregroundBlur_10_225"/>
</filter>
<filter id="filter1_f_10_225" x="14.5237" y="-3.41368" width="83.5645" height="40.0971" filterUnits="userSpaceOnUse" color-interpolation-filters="sRGB">
<feFlood flood-opacity="0" result="BackgroundImageFix"/>
<feBlend mode="normal" in="SourceGraphic" in2="BackgroundImageFix" result="shape"/>
<feGaussianBlur stdDeviation="3.04412" result="effect1_foregroundBlur_10_225"/>
</filter>
<linearGradient id="paint0_linear_10_225" x1="20.9508" y1="6.78787" x2="40.6746" y2="11.0272" gradientUnits="userSpaceOnUse">
<stop stop-color="#FDECD3"/>
<stop offset="1" stop-color="white" stop-opacity="0"/>
</linearGradient>
<linearGradient id="paint1_linear_10_225" x1="23.9134" y1="7.95949" x2="67.0616" y2="17.6308" gradientUnits="userSpaceOnUse">
<stop stop-color="#FFF8EE"/>
<stop offset="1" stop-color="white" stop-opacity="0"/>
</linearGradient>
<clipPath id="clip0_10_225">
<rect width="158" height="32.6897" fill="white"/>
</clipPath>
</defs>
</svg>
