<svg id="header-cart" viewBox="0 0 28 28" fill="none" xmlns="http://www.w3.org/2000/svg">
	<path d="M6.99935 19.8333C7.61819 19.8333 8.21168 20.0792 8.64927 20.5168C9.08685 20.9543 9.33268 21.5478 9.33268 22.1667C9.33268 22.7855 9.08685 23.379 8.64927 23.8166C8.21168 24.2542 7.61819 24.5 6.99935 24.5C6.38051 24.5 5.78702 24.2542 5.34943 23.8166C4.91185 23.379 4.66602 22.7855 4.66602 22.1667C4.66602 21.5478 4.91185 20.9543 5.34943 20.5168C5.78702 20.0792 6.38051 19.8333 6.99935 19.8333ZM6.99935 19.8333H19.8327M6.99935 19.8333V3.5H4.66602M19.8327 19.8333C20.4515 19.8333 21.045 20.0792 21.4826 20.5168C21.9202 20.9543 22.166 21.5478 22.166 22.1667C22.166 22.7855 21.9202 23.379 21.4826 23.8166C21.045 24.2542 20.4515 24.5 19.8327 24.5C19.2138 24.5 18.6204 24.2542 18.1828 23.8166C17.7452 23.379 17.4993 22.7855 17.4993 22.1667C17.4993 21.5478 17.7452 20.9543 18.1828 20.5168C18.6204 20.0792 19.2138 19.8333 19.8327 19.8333ZM6.99935 5.83333L23.3327 7L22.166 15.1667H6.99935" stroke="#D0A567" stroke-width="2" stroke-linecap="round" stroke-linejoin="round"/>
</svg>