<svg width="408" height="45" viewBox="0 0 408 45" fill="none" xmlns="http://www.w3.org/2000/svg">
<g clip-path="url(#clip0_10_147)">
<path d="M48.146 20.5742L50.4292 20.2019V2.13478L48.146 1.78733V1.24135H55.9387C58.3874 1.24135 60.2073 1.76251 61.3985 2.80485C62.5898 3.84719 63.1854 5.35278 63.1854 7.32164C63.1854 9.29049 62.5898 10.7961 61.3985 11.8384C60.2073 12.8808 58.3874 13.4019 55.9387 13.4019H53.1591V20.2019L55.4423 20.5742V21.0954H48.146V20.5742ZM55.5912 12.8063C58.6521 12.8063 60.1825 11.1435 60.1825 7.81799V6.82529C60.1825 3.51628 58.6521 1.86178 55.5912 1.86178H53.1591V12.8063H55.5912ZM81.6645 21.5917C79.2324 21.5917 77.4538 21.054 76.3288 19.9786C75.2037 18.8866 74.6412 17.4472 74.6412 15.6603V2.13478L72.358 1.78733V1.24135H79.6543V1.78733L77.3711 2.13478V15.6603C77.3711 17.2817 77.8261 18.5309 78.7361 19.4078C79.646 20.2681 81.0276 20.6983 82.8806 20.6983C86.3881 20.6983 88.1419 19.019 88.1419 15.6603V2.75521L85.8339 1.78733V1.24135H91.12V1.78733L88.7375 2.75521V15.6603C88.7375 17.6457 88.1833 19.1348 87.0748 20.1275C85.9662 21.1036 84.1628 21.5917 81.6645 21.5917ZM100.317 21.0954V20.5742L102.601 20.2019V2.13478L100.317 1.78733V1.24135H107.614V1.78733L105.331 2.13478V20.4997H112.751L114.786 15.0399H115.456V21.0954H100.317ZM132.501 21.5917C130.962 21.5917 129.448 21.1533 127.959 20.2764L125.85 21.3435H125.304V14.9654H125.85L127.984 19.5815C129.357 20.5576 130.929 21.0457 132.699 21.0457C134.155 21.0457 135.355 20.6652 136.298 19.9041C137.257 19.1265 137.737 18.0428 137.737 16.653C137.737 15.6438 137.431 14.8496 136.819 14.2705C136.207 13.6749 135.214 13.2034 133.841 12.8559L129.721 11.7888C128.282 11.4083 127.198 10.763 126.47 9.85302C125.742 8.9265 125.378 7.83453 125.378 6.57711C125.378 5.43551 125.601 4.42626 126.048 3.54937C126.493 2.67447 127.195 1.95596 128.058 1.48952C128.935 0.99317 129.978 0.744995 131.185 0.744995C132.691 0.744995 134.039 1.00144 135.231 1.51434L137.042 0.744995H137.588V5.80777H137.042L135.255 2.18441C134.015 1.58879 132.666 1.29098 131.21 1.29098C129.771 1.29098 128.637 1.66324 127.81 2.40777C126.983 3.13575 126.569 4.10363 126.569 5.31142C126.569 6.20485 126.859 6.90801 127.438 7.42091C128.034 7.9338 128.902 8.33916 130.044 8.63697L134.486 9.80339C135.926 10.1674 136.993 10.7961 137.688 11.6895C138.399 12.5664 138.755 13.9066 138.755 15.71C138.755 17.5465 138.184 18.9859 137.042 20.0282C135.917 21.0705 134.403 21.5917 132.501 21.5917ZM156.599 21.5917C155.06 21.5917 153.546 21.1533 152.057 20.2764L149.947 21.3435H149.401V14.9654H149.947L152.082 19.5815C153.455 20.5576 155.027 21.0457 156.797 21.0457C158.253 21.0457 159.453 20.6652 160.396 19.9041C161.355 19.1265 161.835 18.0428 161.835 16.653C161.835 15.6438 161.529 14.8496 160.917 14.2705C160.305 13.6749 159.312 13.2034 157.939 12.8559L153.819 11.7888C152.38 11.4083 151.296 10.763 150.568 9.85302C149.84 8.9265 149.476 7.83453 149.476 6.57711C149.476 5.43551 149.699 4.42626 150.146 3.54937C150.591 2.67447 151.292 1.95596 152.156 1.48952C153.033 0.99317 154.075 0.744995 155.283 0.744995C156.789 0.744995 158.137 1.00144 159.328 1.51434L161.14 0.744995H161.686V5.80777H161.14L159.353 2.18441C158.112 1.58879 156.764 1.29098 155.308 1.29098C153.869 1.29098 152.735 1.66324 151.908 2.40777C151.081 3.13575 150.667 4.10363 150.667 5.31142C150.667 6.20485 150.957 6.90801 151.536 7.42091C152.131 7.9338 153 8.33916 154.142 8.63697L158.584 9.80339C160.023 10.1674 161.091 10.7961 161.785 11.6895C162.497 12.5664 162.853 13.9066 162.853 15.71C162.853 17.5465 162.282 18.9859 161.14 20.0282C160.015 21.0705 158.501 21.5917 156.599 21.5917ZM171.142 21.0954V20.5742L173.575 19.5815L180.747 0.744995H181.144L187.919 20.2019L190.202 20.5742V21.0954H182.906V20.5742L184.941 20.2516L182.831 14.3698H176.23L174.22 19.5815L176.453 20.5742V21.0954H171.142ZM176.429 13.8486H182.658L179.68 5.11288L176.429 13.8486ZM212.656 21.3435C211.729 21.3435 211.034 21.1202 210.571 20.6735C210.108 20.2267 209.793 19.4657 209.628 18.3903L209.156 15.0647C208.991 13.9396 208.602 13.0628 207.99 12.434C207.394 11.7888 206.459 11.4662 205.185 11.4662H203.25V20.2019L205.533 20.5742V21.0954H198.237V20.5742L200.52 20.2019V2.13478L198.237 1.78733V1.24135H205.185C207.882 1.24135 209.835 1.66324 211.042 2.50704C212.25 3.35083 212.854 4.63307 212.854 6.35375C212.854 9.1995 211.133 10.8457 207.692 11.2924V11.4413C208.966 11.6233 209.984 12.0783 210.745 12.8063C211.522 13.5343 212.01 14.5022 212.209 15.71L212.531 17.8443C212.664 18.7708 212.813 19.3995 212.978 19.7304C213.16 20.0613 213.433 20.2267 213.797 20.2267C214.045 20.2267 214.31 20.1523 214.591 20.0034C214.873 19.8379 215.137 19.6311 215.385 19.383L215.807 19.8297C215.328 20.3757 214.831 20.7645 214.318 20.9961C213.805 21.2277 213.251 21.3435 212.656 21.3435ZM206.029 10.8705C207.237 10.8705 208.172 10.5066 208.834 9.77857C209.512 9.03405 209.851 7.94208 209.851 6.50266V5.98149C209.851 3.23502 208.296 1.86178 205.185 1.86178H203.25V10.8705H206.029ZM53.1691 43.8828H52.4493V42.1902H47.935V43.8828H47.2153V41.5061H47.7175C48.1736 40.7384 48.5632 39.8053 48.8864 38.7067C49.2118 37.6081 49.3924 36.6038 49.4282 35.6938H52.3476V41.5061H53.1691V43.8828ZM51.5923 41.5061V36.3739H50.1124C50.0594 37.0908 49.8802 37.9528 49.5746 38.9598C49.2697 39.9641 48.9142 40.8129 48.5083 41.5061H51.5923ZM56.0504 35.6938H56.7568V39.3065C56.7568 39.9732 56.7362 40.576 56.6948 41.1148H56.7304L60.3736 35.6938H61.2V42.1902H60.4886V38.6132C60.4886 38.0176 60.5139 37.3927 60.5647 36.7387H60.525L56.8768 42.1902H56.0495L56.0504 35.6938ZM68.5245 37.2135C68.5245 37.6404 68.388 37.987 68.115 38.2534C67.8453 38.5203 67.4722 38.689 66.9957 38.7596V38.796C67.5378 38.8699 67.9482 39.0401 68.2267 39.3065C68.5079 39.5728 68.6486 39.9208 68.6486 40.3504C68.6486 40.9571 68.4219 41.4314 67.9686 41.7733C67.5152 42.1097 66.8755 42.2782 66.0493 42.2788C65.2938 42.2788 64.6747 42.1618 64.1922 41.928V41.2257C64.4762 41.3619 64.7828 41.4672 65.1121 41.5417C65.4253 41.6135 65.7454 41.6507 66.0667 41.6525C66.6541 41.6525 67.0969 41.5414 67.3953 41.3192C67.6975 41.0974 67.8486 40.7776 67.8486 40.3595C67.8486 39.9625 67.6812 39.6619 67.3465 39.4578C67.0156 39.2538 66.5192 39.1518 65.8574 39.1518H64.8895V38.5156H65.8185C66.4252 38.5156 66.8945 38.4075 67.2265 38.1913C67.5613 37.9718 67.7287 37.6668 67.7287 37.2764C67.7287 36.9587 67.6087 36.7053 67.3688 36.5161C67.1289 36.327 66.8063 36.2321 66.4009 36.2316C66.0744 36.2316 65.7794 36.2688 65.5158 36.3432C65.2522 36.4171 64.9472 36.5636 64.6008 36.7825L64.2277 36.2762C64.5267 36.0545 64.8611 35.8872 65.2312 35.7741C65.6051 35.6583 65.9917 35.6004 66.391 35.6004C67.0578 35.6004 67.5792 35.7471 67.9553 36.0405C68.3348 36.3311 68.5245 36.7221 68.5245 37.2135ZM75.9002 42.1902L75.092 40.1238H72.4878L71.6895 42.1902H70.9252L73.4929 35.6674H74.1283L76.6837 42.1902H75.9002ZM74.8563 39.4438L74.101 37.4319C74.0034 37.1771 73.9027 36.8644 73.799 36.4938C73.7334 36.7784 73.6402 37.0911 73.5194 37.4319L72.755 39.4446L74.8563 39.4438ZM79.359 35.6947H80.0655V39.3065C80.0655 39.9732 80.0448 40.576 80.0034 41.1148H80.039L83.6822 35.6938H84.5086V42.1902H83.798V38.6132C83.798 38.0176 83.8231 37.3927 83.8733 36.7387H83.8336L80.1862 42.1902H79.3598L79.359 35.6947ZM82.0517 35.1743C81.504 35.1743 81.1042 35.0693 80.8522 34.8592C80.6001 34.6457 80.4595 34.2961 80.4303 33.8102H81.1227C81.1503 34.1185 81.2302 34.3333 81.3626 34.4546C81.4994 34.576 81.7348 34.6366 82.0691 34.6366C82.3746 34.6366 82.5999 34.5715 82.7449 34.4414C82.8933 34.3107 82.9834 34.1003 83.0154 33.8102H83.7136C83.6778 34.2784 83.5281 34.6237 83.2644 34.8459C83.0014 35.0649 82.5971 35.1743 82.0517 35.1743ZM92.9979 42.1902H92.2426V39.1336H88.8211V42.1902H88.0658V35.6947H88.8211V38.4577H92.2426V35.6947H92.9979V42.1902ZM100.179 42.1902H96.5583V35.6947H100.179V36.3648H97.3136V38.4577H100.006V39.1245H97.3136V41.5152H100.179V42.1902ZM107.517 37.5866C107.517 38.2445 107.292 38.7511 106.842 39.1063C106.395 39.4592 105.753 39.6357 104.918 39.6357H104.153V42.1902H103.398V35.6947H105.082C106.705 35.6947 107.517 36.3253 107.517 37.5866ZM104.153 38.9863H104.833C105.503 38.9863 105.987 38.8782 106.286 38.662C106.585 38.4458 106.735 38.0992 106.735 37.6222C106.735 37.1931 106.595 36.8732 106.313 36.6626C106.031 36.4524 105.592 36.3474 104.998 36.3474H104.153V38.9863ZM113.437 36.2762C112.723 36.2762 112.159 36.5148 111.744 36.9918C111.332 37.4661 111.126 38.1163 111.126 38.9425C111.126 39.7918 111.325 40.4494 111.722 40.9155C112.122 41.3771 112.691 41.6079 113.428 41.6079C113.881 41.6079 114.397 41.5265 114.979 41.3638V42.0256C114.528 42.1944 113.973 42.2788 113.313 42.2788C112.356 42.2788 111.617 41.9887 111.096 41.4085C110.577 40.8278 110.318 40.0027 110.318 38.9334C110.318 38.2638 110.442 37.6773 110.691 37.1738C110.928 36.6859 111.306 36.2804 111.776 36.0099C112.249 35.7374 112.806 35.6012 113.446 35.6012C114.128 35.6012 114.723 35.7253 115.232 35.9735L114.913 36.6229C114.452 36.4001 113.948 36.2817 113.437 36.2762ZM122.845 42.1902H121.929L118.926 38.8978V42.1902H118.17V35.6947H118.926V38.8399L121.854 35.6938H122.72L119.845 38.849L122.845 42.1902ZM131.156 38.9334C131.156 39.9729 130.892 40.7905 130.365 41.3862C129.84 41.9818 129.11 42.2796 128.174 42.2796C127.217 42.2796 126.478 41.9876 125.957 41.4035C125.439 40.8167 125.18 39.9903 125.18 38.9243C125.18 37.867 125.44 37.0481 125.961 36.4673C126.482 35.8838 127.223 35.5921 128.182 35.5921C129.116 35.5921 129.844 35.8883 130.369 36.4806C130.893 37.0729 131.156 37.8905 131.156 38.9334ZM125.979 38.9334C125.979 39.8125 126.165 40.4803 126.539 40.937C126.915 41.3903 127.461 41.617 128.174 41.617C128.894 41.617 129.437 41.3903 129.805 40.937C130.172 40.4842 130.356 39.8163 130.356 38.9334C130.356 38.0592 130.172 37.3974 129.805 36.948C129.441 36.4941 128.9 36.2671 128.182 36.2671C127.463 36.2671 126.915 36.4952 126.539 36.9513C126.165 37.4046 125.979 38.0653 125.979 38.9334ZM138.004 42.1902H134.383V35.6947H138.004V36.3648H135.138V38.4577H137.831V39.1245H135.138V41.5152H138.004V42.1902ZM150.999 38.9334C150.999 39.9729 150.735 40.7905 150.208 41.3862C149.684 41.9818 148.954 42.2796 148.017 42.2796C147.061 42.2796 146.322 41.9876 145.8 41.4035C145.282 40.8167 145.023 39.9903 145.023 38.9243C145.023 37.867 145.284 37.0481 145.805 36.4673C146.327 35.8838 147.067 35.5921 148.027 35.5921C148.96 35.5921 149.689 35.8883 150.213 36.4806C150.737 37.0729 150.999 37.8905 150.999 38.9334ZM145.823 38.9334C145.823 39.8125 146.009 40.4803 146.383 40.937C146.76 41.3903 147.304 41.617 148.017 41.617C148.738 41.617 149.282 41.3903 149.649 40.937C150.016 40.4842 150.2 39.8163 150.2 38.9334C150.2 38.0592 150.016 37.3974 149.649 36.948C149.284 36.4941 148.744 36.2671 148.027 36.2671C147.307 36.2671 146.759 36.4952 146.383 36.9513C146.009 37.4046 145.823 38.0653 145.823 38.9334ZM157.008 36.2762C156.294 36.2762 155.73 36.5148 155.315 36.9918C154.904 37.4661 154.698 38.1163 154.698 38.9425C154.698 39.7918 154.896 40.4494 155.293 40.9155C155.693 41.3771 156.262 41.6079 156.999 41.6079C157.452 41.6079 157.969 41.5265 158.55 41.3638V42.0256C158.099 42.1944 157.544 42.2788 156.884 42.2788C155.927 42.2788 155.188 41.9887 154.667 41.4085C154.149 40.8278 153.889 40.0027 153.889 38.9334C153.889 38.2638 154.014 37.6773 154.262 37.1738C154.499 36.6863 154.877 36.2809 155.346 36.0099C155.82 35.7374 156.377 35.6012 157.017 35.6012C157.698 35.6012 158.294 35.7253 158.803 35.9735L158.483 36.6229C158.023 36.3992 157.519 36.2808 157.008 36.2762ZM161.742 35.6947H163.577C164.439 35.6947 165.063 35.8235 165.448 36.081C165.833 36.3386 166.025 36.7458 166.025 37.3029C166.025 37.6872 165.917 38.0057 165.701 38.2583C165.487 38.5065 165.175 38.6678 164.764 38.7423V38.7869C165.75 38.9552 166.243 39.4736 166.243 40.3422C166.243 40.9223 166.046 41.3754 165.652 41.7013C165.26 42.0273 164.712 42.1902 164.008 42.1902H161.742V35.6947ZM162.497 38.4759H163.741C164.275 38.4759 164.658 38.3929 164.892 38.2269C165.126 38.0581 165.243 37.7752 165.243 37.3781C165.243 37.0141 165.113 36.7522 164.852 36.5922C164.592 36.429 164.177 36.3474 163.608 36.3474H162.497V38.4759ZM162.497 39.1154V41.5458H163.853C164.377 41.5458 164.77 41.4452 165.034 41.2439C165.301 41.0398 165.434 40.7213 165.434 40.2884C165.434 39.8858 165.298 39.5897 165.026 39.3999C164.756 39.2097 164.344 39.1148 163.79 39.1154H162.497ZM173.039 42.1902H169.417V35.6947H173.039V36.3648H170.172V38.4577H172.865V39.1245H170.172V41.5152H173.039V42.1902ZM176.257 42.1902V35.6947H177.012V41.5061H179.603V35.6938H180.366V41.5061H182.961V35.6938H183.717V41.5061H184.481V43.8828H183.761V42.1902H176.257ZM191.054 42.1902H187.433V35.6947H191.054V36.3648H188.188V38.4577H190.881V39.1245H188.188V41.5152H191.054V42.1902ZM199.204 42.1902H198.449V39.1336H195.028V42.1902H194.272V35.6947H195.028V38.4577H198.449V35.6947H199.204V42.1902ZM202.774 35.6947H203.481V39.3065C203.481 39.9732 203.46 40.576 203.418 41.1148H203.454L207.097 35.6938H207.924V42.1902H207.213V38.6132C207.213 38.0176 207.238 37.3927 207.288 36.7387H207.249L203.6 42.1902H202.774V35.6947ZM215.102 42.1902H211.48V35.6947H215.102V36.3648H212.235V38.4577H214.928V39.1245H212.235V41.5152H215.102V42.1902Z" fill="white"/>
<mask id="mask0_10_147" style="mask-type:luminance" maskUnits="userSpaceOnUse" x="0" y="0" width="40" height="43">
<path d="M0 0.827637H39.708V42.1902H0V0.827637Z" fill="white"/>
</mask>
<g mask="url(#mask0_10_147)">
<path d="M17.6411 2.13557L18.293 2.46978L16.7816 5.92107L16.1297 5.58769C15.635 5.33703 15.4001 4.69674 15.635 4.14L16.2861 2.63689C16.3389 2.51234 16.4167 2.39991 16.5146 2.30652C16.6125 2.21312 16.7285 2.14073 16.8554 2.09378C16.9823 2.04683 17.1175 2.02632 17.2526 2.03351C17.3877 2.04069 17.5199 2.07543 17.6411 2.13557ZM15.6888 32.0597H13.6819V36.2621H15.6888V32.0597Z" fill="white"/>
<path d="M10.8684 26.1014H9.09644L14.5952 33.3672H16.3407L10.8684 26.1014Z" fill="white"/>
<path d="M10.4772 26.0996H8.73169L14.204 33.3653H15.9495L10.4772 26.0996ZM20.822 30.8893L14.3065 23.4292L14.2023 24.153L19.8574 31.14L20.822 30.8893Z" fill="white"/>
<path d="M14.204 24.1519H13.2137L18.7117 31.4449L19.8582 31.1388L14.204 24.1519Z" fill="white"/>
<path d="M14.0723 24.8222L9.56377 27.912C9.09472 28.2454 8.46931 28.1064 8.13097 27.6332C7.89603 27.2717 7.84391 26.8258 8.02674 26.4362L11.1802 19.8678L11.9611 19.7561L13.2384 20.2012L11.962 21.6207V23.3191L14.0723 23.3745V24.8222Z" fill="white"/>
<path d="M21.3182 16.9999H19.8333L13.0838 24.154H14.5695L21.3182 16.9999ZM19.9375 11.7667L20.4587 9.37268L11.4425 18.9481L12.1986 19.978L19.9375 11.7667Z" fill="white"/>
<path d="M11.6841 19.1223L11.4326 20.1746L16.6592 21.5991L16.9107 20.5477L11.6841 19.1223ZM20.9799 32.3376V29.8038H17.254L15.0907 32.4204V34.7309L20.9799 32.3376ZM8.99222 27.6339C9.36613 27.6339 9.66973 27.3096 9.66973 26.9101C9.66973 26.5105 9.36613 26.1862 8.99139 26.1862C8.6183 26.1862 8.3147 26.5105 8.3147 26.9101C8.3147 27.3096 8.6183 27.6339 8.99222 27.6339Z" fill="white"/>
<path d="M11.752 20.1714C12.1259 20.1714 12.4295 19.8471 12.4295 19.4476C12.4295 19.048 12.1259 18.7237 11.7512 18.7237C11.3764 18.7237 11.0745 19.048 11.0745 19.4476C11.0745 19.8471 11.3772 20.1714 11.752 20.1714ZM14.8269 34.286C15.0999 34.286 15.3216 34.0486 15.3216 33.7565C15.3216 33.4645 15.0999 33.2279 14.8269 33.2279C14.5539 33.2279 14.3313 33.4645 14.3313 33.7574C14.3313 34.0486 14.5531 34.286 14.8269 34.286ZM19.5174 31.8084C19.7043 31.8084 19.8566 31.6454 19.8566 31.446C19.8566 31.2458 19.7043 31.0837 19.5174 31.0837C19.3304 31.0837 19.1782 31.2458 19.1782 31.446C19.1782 31.6454 19.3304 31.8084 19.5174 31.8084ZM21.1851 10.5977H20.0113V16.7218H21.1843L21.1851 10.5977Z" fill="white"/>
<path d="M20.5382 17.7216C20.9121 17.7216 21.2157 17.3973 21.2157 16.9978C21.2157 16.5982 20.9121 16.2739 20.5373 16.2739C20.1642 16.2739 19.8606 16.5982 19.8606 16.9978C19.8606 17.3973 20.1642 17.7216 20.5382 17.7216ZM17.5377 42.19C27.2232 42.19 35.0754 42.0279 35.0754 41.8277C35.0754 41.6283 27.2232 41.4662 17.5377 41.4662C7.85226 41.4662 0 41.6283 0 41.8277C0 42.0279 7.85226 42.19 17.5377 42.19Z" fill="white"/>
<path d="M24.2351 41.2149C24.4957 40.9924 22.9322 40.7699 21.1859 40.6028H3.20557V41.5492C6.46328 41.6046 23.6362 41.7725 24.2351 41.2149Z" fill="white"/>
<path d="M21.1859 40.6042C22.9322 40.7713 24.47 40.9665 24.2351 41.2163C23.6362 41.7731 6.46328 41.5787 3.20557 41.5505V41.8293H26.2677V40.6042H21.1859ZM21.5515 40.131C21.5515 39.1854 18.6065 38.5724 15.2454 38.1828V37.9048L14.7242 37.8767L5.81141 38.4616C5.02965 38.517 4.40508 39.2127 4.40508 40.0482V40.605H16.6773C18.997 40.4652 21.5498 40.2708 21.5498 40.1318" fill="white"/>
<path d="M25.0442 40.0742C25.0442 39.2396 24.4188 38.5438 23.6371 38.4884L15.2463 37.9317V38.2096C18.6339 38.5993 21.5524 39.1841 21.5524 40.1578C21.5524 40.2976 18.9722 40.492 16.6534 40.6591H25.0186L25.0442 40.0742ZM15.4283 35.9827H13.7862C13.5 35.9827 13.265 36.2333 13.265 36.5394V38.0698H15.1156C15.4796 37.3187 15.6367 36.5394 15.4283 35.9827Z" fill="white"/>
<path d="M16.4954 36.5113H16.2348C16.2348 36.2052 15.9999 35.9827 15.7136 35.9827H15.4266C15.4787 36.1498 15.5308 36.345 15.5308 36.5121H13.0044V37.0126H15.4795C15.4018 37.3749 15.2975 37.7364 15.1404 38.0425H16.2613V37.0126H16.5219L16.4954 36.5113Z" fill="white"/>
<path d="M33.6692 2.88718C33.6427 2.85906 33.5906 2.83093 33.5649 2.80363C32.7046 2.414 30.6985 5.42023 29.1085 9.51181C27.5972 13.3527 26.9717 16.7767 27.6236 17.5006C27.6637 17.5521 27.7181 17.5907 27.78 17.6114C28.6403 18.0011 30.6464 14.9948 32.2355 10.9032C33.7469 7.00689 34.3723 3.52748 33.6692 2.88718Z" stroke="white" stroke-width="0.744526" stroke-miterlimit="10"/>
<path d="M21.861 9.65097C21.861 5.03078 25.3528 1.3007 29.6785 1.3007C29.9391 1.3007 30.1997 1.32883 30.4346 1.32883C28.5798 0.853765 26.6285 0.911686 24.8052 1.49593C23.9775 1.74098 23.1125 1.83513 22.2514 1.77389C21.861 1.74576 21.444 1.74576 21.0527 1.69116C20.4195 1.63466 19.8016 1.46457 19.2287 1.18902C18.9669 1.05262 18.6973 0.931908 18.4213 0.827515L18.2393 0.91024C18.1086 1.18902 17.6652 2.07997 17.3003 2.83194C16.9383 3.60946 16.625 4.40875 16.3622 5.22518C16.1281 6.03258 15.8411 6.95082 15.7633 7.25773L15.8675 7.45214C16.1281 7.56382 16.3887 7.70279 16.6749 7.81365C17.2716 8.05584 17.8191 8.40486 18.2906 8.84357C18.6033 9.12236 18.8903 9.40031 19.203 9.6791C19.8541 10.2913 20.3752 11.0151 20.8186 11.8217C21.8089 13.7988 23.3202 15.4128 25.17 16.4708C23.0853 14.8842 21.861 12.3511 21.861 9.65097Z" fill="white"/>
<path d="M27.6228 17.5006C26.9974 16.7768 27.6228 13.3528 29.1085 9.51187C30.6976 5.42029 32.7046 2.41406 33.5641 2.80287C33.6162 2.831 33.6427 2.85912 33.6683 2.88725V2.85912C32.8866 2.1634 31.9749 1.82919 31.0625 1.55124C30.9582 1.52311 30.7498 1.43956 30.4371 1.35601C30.1765 1.32788 29.9424 1.32788 29.6818 1.32788C25.3553 1.32788 21.8643 5.08608 21.8899 9.70627C21.8899 12.3783 23.1142 14.884 25.1476 16.4426L25.2519 16.498C25.9763 16.9704 26.7792 17.3099 27.6228 17.5006Z" fill="white"/>
<path d="M32.5464 10.9888C33.5367 8.20509 31.5074 6.48772 30.9606 6.23706C30.2599 7.60037 30.231 7.66572 29.4426 9.55103C28.6609 11.4711 28.5202 12.1445 28.2075 13.2861C28.7543 13.5367 31.5041 13.8833 32.5464 10.9888Z" fill="white"/>
</g>
<g filter="url(#filter0_f_10_147)">
<path d="M68.979 6.27942L29.014 6.09717C27.0349 6.97249 26.4133 10.776 26.3499 12.4773L59.6538 29.2477L68.979 6.27942Z" fill="url(#paint0_linear_10_147)"/>
</g>
<g opacity="0.48" filter="url(#filter1_f_10_147)">
<path d="M121.336 4.38447L33.5699 4.00073C29.2234 5.84335 28.1395 11.7653 28 15.3482L80.57 40.5056L121.336 4.38447Z" fill="url(#paint1_linear_10_147)"/>
</g>
</g>
<line x1="227.453" y1="44.6722" x2="227.453" y2="0.000709534" stroke="white" stroke-width="0.744526"/>
<path d="M245.691 44.2961H244.971V42.4827H240.457V44.2961H239.737V41.7496H240.239C240.695 40.9271 241.085 39.9273 241.408 38.7503C241.734 37.5732 241.914 36.4972 241.95 35.5222H244.87V41.7496H245.691V44.2961ZM244.114 41.7496V36.2508H242.634C242.581 37.019 242.402 37.9425 242.097 39.0215C241.792 40.0975 241.436 41.0069 241.03 41.7496H244.114ZM248.572 35.5222H249.279V39.3929C249.279 40.1073 249.258 40.7531 249.217 41.3304H249.252L252.895 35.5222H253.722V42.4827H253.01V38.6501C253.01 38.012 253.036 37.3425 253.087 36.6417H253.047L249.399 42.4827H248.571L248.572 35.5222ZM261.046 37.1504C261.046 37.6078 260.91 37.9792 260.637 38.2646C260.367 38.5506 259.994 38.7314 259.518 38.807V38.846C260.06 38.9252 260.47 39.1075 260.749 39.3929C261.03 39.6783 261.17 40.0511 261.17 40.5114C261.17 41.1614 260.944 41.6696 260.49 42.0359C260.037 42.3964 259.397 42.5769 258.571 42.5775C257.816 42.5775 257.197 42.4522 256.714 42.2017V41.4492C256.998 41.5951 257.305 41.708 257.634 41.7878C257.947 41.8647 258.267 41.9045 258.589 41.9065C259.176 41.9065 259.619 41.7875 259.917 41.5493C260.219 41.3118 260.371 40.9691 260.371 40.5212C260.371 40.0957 260.203 39.7737 259.868 39.5551C259.537 39.3364 259.041 39.2271 258.379 39.2271H257.411V38.5455H258.34C258.947 38.5455 259.416 38.4297 259.748 38.1981C260.083 37.9629 260.251 37.6361 260.251 37.2178C260.251 36.8774 260.131 36.6059 259.891 36.4032C259.651 36.2006 259.328 36.0989 258.923 36.0983C258.596 36.0983 258.301 36.1382 258.038 36.218C257.774 36.2972 257.469 36.4541 257.123 36.6887L256.75 36.1462C257.049 35.9087 257.383 35.7293 257.753 35.6082C258.127 35.4841 258.514 35.4221 258.913 35.4221C259.58 35.4221 260.101 35.5792 260.477 35.8936C260.857 36.205 261.046 36.6239 261.046 37.1504ZM268.422 42.4827L267.614 40.2686H265.01L264.211 42.4827H263.447L266.015 35.4939H266.65L269.206 42.4827H268.422ZM267.378 39.54L266.623 37.3844C266.525 37.1114 266.425 36.7764 266.321 36.3793C266.255 36.6842 266.162 37.0193 266.041 37.3844L265.277 39.5409L267.378 39.54ZM271.881 35.5231H272.587V39.3929C272.587 40.1073 272.567 40.7531 272.525 41.3304H272.561L276.204 35.5222H277.031V42.4827H276.32V38.6501C276.32 38.012 276.345 37.3425 276.395 36.6417H276.355L272.708 42.4827H271.882L271.881 35.5231ZM274.574 34.9656C274.026 34.9656 273.626 34.853 273.374 34.6279C273.122 34.3992 272.981 34.0246 272.952 33.504H273.645C273.672 33.8343 273.752 34.0645 273.884 34.1945C274.021 34.3245 274.257 34.3895 274.591 34.3895C274.896 34.3895 275.122 34.3198 275.267 34.1803C275.415 34.0403 275.505 33.8148 275.537 33.504H276.236C276.2 34.0057 276.05 34.3756 275.786 34.6137C275.523 34.8483 275.119 34.9656 274.574 34.9656ZM285.52 42.4827H284.764V39.2076H281.343V42.4827H280.588V35.5231H281.343V38.4835H284.764V35.5231H285.52V42.4827ZM292.701 42.4827H289.08V35.5231H292.701V36.241H289.836V38.4835H292.528V39.1979H289.836V41.7594H292.701V42.4827ZM300.039 37.5502C300.039 38.2551 299.814 38.7978 299.364 39.1784C298.917 39.5566 298.275 39.7456 297.44 39.7456H296.675V42.4827H295.92V35.5231H297.604C299.227 35.5231 300.039 36.1988 300.039 37.5502ZM296.675 39.0499H297.355C298.025 39.0499 298.509 38.934 298.808 38.7024C299.107 38.4708 299.257 38.0994 299.257 37.5883C299.257 37.1286 299.116 36.7859 298.835 36.5601C298.553 36.335 298.114 36.2224 297.52 36.2224H296.675V39.0499ZM305.959 36.1462C305.245 36.1462 304.681 36.4018 304.266 36.9129C303.854 37.4211 303.648 38.1177 303.648 39.0029C303.648 39.9129 303.847 40.6175 304.244 41.1168C304.644 41.6114 305.212 41.8587 305.95 41.8587C306.403 41.8587 306.919 41.7715 307.501 41.5972V42.3063C307.05 42.4871 306.495 42.5775 305.835 42.5775C304.878 42.5775 304.139 42.2667 303.618 41.6451C303.099 41.0229 302.84 40.1389 302.84 38.9931C302.84 38.2758 302.964 37.6474 303.213 37.1079C303.45 36.5851 303.828 36.1506 304.298 35.8608C304.771 35.5689 305.328 35.423 305.968 35.423C306.649 35.423 307.245 35.5559 307.754 35.8218L307.434 36.5176C306.974 36.2789 306.47 36.1521 305.959 36.1462ZM315.367 42.4827H314.451L311.448 38.955V42.4827H310.692V35.5231H311.448V38.893L314.376 35.5222H315.242L312.367 38.9027L315.367 42.4827ZM323.678 38.9931C323.678 40.107 323.414 40.983 322.887 41.6211C322.362 42.2593 321.632 42.5784 320.696 42.5784C319.739 42.5784 319 42.2655 318.479 41.6397C317.961 41.011 317.701 40.1256 317.701 38.9834C317.701 37.8506 317.962 36.9732 318.483 36.351C319.004 35.7258 319.745 35.4132 320.704 35.4132C321.638 35.4132 322.366 35.7305 322.891 36.3651C323.415 36.9998 323.678 37.8758 323.678 38.9931ZM318.501 38.9931C318.501 39.935 318.687 40.6506 319.061 41.1398C319.437 41.6256 319.982 41.8684 320.696 41.8684C321.416 41.8684 321.959 41.6256 322.327 41.1398C322.694 40.6547 322.878 39.9392 322.878 38.9931C322.878 38.0566 322.694 37.3475 322.327 36.8659C321.963 36.3796 321.422 36.1365 320.704 36.1365C319.985 36.1365 319.437 36.3808 319.061 36.8695C318.687 37.3552 318.501 38.0631 318.501 38.9931ZM330.526 42.4827H326.905V35.5231H330.526V36.241H327.66V38.4835H330.353V39.1979H327.66V41.7594H330.526V42.4827ZM343.521 38.9931C343.521 40.107 343.257 40.983 342.73 41.6211C342.206 42.2593 341.476 42.5784 340.539 42.5784C339.583 42.5784 338.844 42.2655 338.322 41.6397C337.804 41.011 337.545 40.1256 337.545 38.9834C337.545 37.8506 337.806 36.9732 338.327 36.351C338.848 35.7258 339.589 35.4132 340.548 35.4132C341.482 35.4132 342.21 35.7305 342.735 36.3651C343.259 36.9998 343.521 37.8758 343.521 38.9931ZM338.345 38.9931C338.345 39.935 338.531 40.6506 338.905 41.1398C339.281 41.6256 339.826 41.8684 340.539 41.8684C341.26 41.8684 341.803 41.6256 342.171 41.1398C342.538 40.6547 342.722 39.9392 342.722 38.9931C342.722 38.0566 342.538 37.3475 342.171 36.8659C341.806 36.3796 341.265 36.1365 340.548 36.1365C339.829 36.1365 339.281 36.3808 338.905 36.8695C338.531 37.3552 338.345 38.0631 338.345 38.9931ZM349.53 36.1462C348.816 36.1462 348.252 36.4018 347.837 36.9129C347.425 37.4211 347.219 38.1177 347.219 39.0029C347.219 39.9129 347.418 40.6175 347.815 41.1168C348.215 41.6114 348.783 41.8587 349.521 41.8587C349.974 41.8587 350.491 41.7715 351.072 41.5972V42.3063C350.621 42.4871 350.066 42.5775 349.406 42.5775C348.449 42.5775 347.71 42.2667 347.189 41.6451C346.67 41.0229 346.411 40.1389 346.411 38.9931C346.411 38.2758 346.536 37.6474 346.784 37.1079C347.021 36.5856 347.399 36.1512 347.868 35.8608C348.342 35.5689 348.899 35.423 349.539 35.423C350.22 35.423 350.815 35.5559 351.325 35.8218L351.005 36.5176C350.545 36.2779 350.041 36.1511 349.53 36.1462ZM354.263 35.5231H356.099C356.961 35.5231 357.585 35.6611 357.97 35.937C358.355 36.213 358.547 36.6494 358.547 37.2462C358.547 37.658 358.439 37.9993 358.223 38.2699C358.009 38.5358 357.697 38.7086 357.285 38.7884V38.8363C358.272 39.0165 358.765 39.5719 358.765 40.5026C358.765 41.1242 358.568 41.6096 358.174 41.9588C357.782 42.308 357.234 42.4827 356.53 42.4827H354.263V35.5231ZM355.019 38.503H356.263C356.797 38.503 357.18 38.4141 357.414 38.2362C357.648 38.0554 357.765 37.7523 357.765 37.3268C357.765 36.9368 357.635 36.6561 357.374 36.4848C357.114 36.3099 356.699 36.2224 356.13 36.2224H355.019V38.503ZM355.019 39.1881V41.7922H356.375C356.899 41.7922 357.292 41.6844 357.556 41.4687C357.823 41.25 357.956 40.9088 357.956 40.445C357.956 40.0136 357.82 39.6963 357.548 39.493C357.278 39.2892 356.866 39.1875 356.312 39.1881H355.019ZM365.56 42.4827H361.939V35.5231H365.56V36.241H362.694V38.4835H365.387V39.1979H362.694V41.7594H365.56V42.4827ZM368.778 42.4827V35.5231H369.534V41.7496H372.125V35.5222H372.888V41.7496H375.483V35.5222H376.239V41.7496H377.003V44.2961H376.283V42.4827H368.778ZM383.576 42.4827H379.955V35.5231H383.576V36.241H380.71V38.4835H383.403V39.1979H380.71V41.7594H383.576V42.4827ZM391.726 42.4827H390.971V39.2076H387.55V42.4827H386.794V35.5231H387.55V38.4835H390.971V35.5231H391.726V42.4827ZM395.296 35.5231H396.002V39.3929C396.002 40.1073 395.982 40.7531 395.94 41.3304H395.976L399.619 35.5222H400.446V42.4827H399.735V38.6501C399.735 38.012 399.76 37.3425 399.81 36.6417H399.771L396.122 42.4827H395.296V35.5231ZM407.624 42.4827H404.002V35.5231H407.624V36.241H404.757V38.4835H407.45V39.1979H404.757V41.7594H407.624V42.4827Z" fill="white"/>
<path d="M240.72 20.1469V19.6309L242.98 19.2624V1.37588L240.72 1.03191V0.491388H259.761V1.03191L257.476 1.37588V19.2624L259.761 19.6309V20.1469H252.489V19.6309L254.774 19.2624V1.10562H245.683V19.2624L247.943 19.6309V20.1469H240.72Z" fill="white"/>
<path d="M269.232 20.3926C268.446 20.3926 267.832 20.1878 267.389 19.7783C266.963 19.3525 266.75 18.8037 266.75 18.1322C266.75 17.5753 266.922 17.1248 267.266 16.7809C267.61 16.4205 268.028 16.2403 268.519 16.2403C268.88 16.2403 269.199 16.3222 269.478 16.486C269.756 16.6334 269.969 16.8464 270.116 17.1248C270.1 17.1412 270.051 17.1985 269.969 17.2968C269.887 17.3951 269.813 17.5261 269.748 17.6899C269.682 17.8537 269.65 18.0421 269.65 18.255C269.65 18.5662 269.732 18.8201 269.895 19.0167C270.059 19.1968 270.288 19.2869 270.583 19.2869C271.009 19.2869 271.402 19.0904 271.763 18.6973C272.123 18.3042 272.549 17.5589 273.04 16.4615L273.36 15.7244L265.375 1.37588L263.434 1.03191V0.491388H270.829V1.03191L268.544 1.37588L274.785 12.5795L279.428 2.21124L276.48 1.03191V0.491388H281.983V1.03191L280.092 2.23581L273.605 16.6826C273.163 17.6654 272.737 18.4188 272.328 18.943C271.935 19.4671 271.492 19.8438 271.001 20.0732C270.526 20.2861 269.936 20.3926 269.232 20.3926Z" fill="white"/>
<path d="M285.62 20.3926C284.834 20.3926 284.252 20.2124 283.876 19.852C283.515 19.4753 283.335 19.0167 283.335 18.4761C283.335 18.0503 283.474 17.6817 283.753 17.3705C284.048 17.0429 284.449 16.8791 284.957 16.8791C285.252 16.8791 285.497 16.9447 285.694 17.0757C285.907 17.1904 286.054 17.3132 286.136 17.4442C286.234 17.5589 286.292 17.6408 286.308 17.6899C286.013 17.8865 285.866 18.1404 285.866 18.4516C285.866 18.6481 285.923 18.8119 286.038 18.943C286.169 19.074 286.341 19.1395 286.554 19.1395C287.094 19.1395 287.553 18.7382 287.93 17.9356C288.323 17.1166 288.642 15.7571 288.888 13.8571C289.15 11.9571 289.346 9.3773 289.478 6.11777L289.649 2.13753L287.045 1.05648V0.491388H301.345V1.03191L299.06 1.37588V19.2624L301.345 19.6309V20.1469H294.072V19.6309L296.357 19.2624V1.10562H290.362L290.141 6.14234C289.977 9.81136 289.764 12.6286 289.502 14.5942C289.24 16.5434 288.806 18.0011 288.2 18.9675C287.61 19.9176 286.75 20.3926 285.62 20.3926Z" fill="white"/>
<path d="M306.495 19.6063L308.755 19.2624V1.37588L306.495 1.00734V0.491388H313.718V1.00734L311.458 1.37588V9.09066H314.947C317.355 9.09066 319.148 9.54929 320.327 10.4665C321.523 11.3674 322.121 12.7515 322.121 14.6188C322.121 16.486 321.523 17.8783 320.327 18.7955C319.148 19.6964 317.355 20.1469 314.947 20.1469H306.495V19.6063ZM314.603 19.5326C316.126 19.5326 317.264 19.1723 318.018 18.4516C318.771 17.7309 319.148 16.6171 319.148 15.1101V14.1274C319.148 12.6205 318.771 11.5066 318.018 10.7859C317.264 10.0489 316.126 9.68032 314.603 9.68032H311.458V19.5326H314.603Z" fill="white"/>
<path d="M336.37 20.6383C334.585 20.6383 333.021 20.2042 331.677 19.3361C330.334 18.468 329.294 17.2559 328.557 15.6998C327.836 14.1438 327.476 12.3502 327.476 10.3191C327.476 8.28806 327.845 6.4945 328.582 4.93844C329.335 3.366 330.392 2.15391 331.751 1.30218C333.127 0.434059 334.708 0 336.493 0C337.197 0 337.91 0.122847 338.631 0.36854C339.368 0.614234 340.031 0.958205 340.621 1.40045L342.267 0H342.783V6.0932H342.267L340.744 2.28495C340.17 1.7608 339.499 1.34312 338.729 1.03191C337.975 0.720701 337.23 0.565095 336.493 0.565095C335.346 0.565095 334.331 0.859927 333.446 1.44959C332.578 2.03926 331.899 2.89918 331.407 4.02937C330.916 5.15956 330.67 6.50269 330.67 8.05875V12.5549C330.67 14.111 330.908 15.4541 331.383 16.5843C331.858 17.7145 332.521 18.5826 333.373 19.1887C334.224 19.7783 335.224 20.0732 336.37 20.0732C337.206 20.0732 338.041 19.893 338.876 19.5326C339.712 19.1559 340.408 18.6563 340.965 18.0339L342.39 14.0782H342.906V20.3926H342.39L340.621 19.1395C340.031 19.6145 339.359 19.9831 338.606 20.2451C337.853 20.5072 337.107 20.6383 336.37 20.6383Z" fill="white"/>
<path d="M357.871 20.6383C356.086 20.6383 354.522 20.2042 353.179 19.3361C351.835 18.468 350.795 17.2559 350.058 15.6998C349.338 14.1438 348.977 12.3502 348.977 10.3191C348.977 8.28806 349.346 6.4945 350.083 4.93844C350.836 3.366 351.893 2.15391 353.252 1.30218C354.628 0.434059 356.209 0 357.994 0C358.698 0 359.411 0.122847 360.132 0.36854C360.869 0.614234 361.532 0.958205 362.122 1.40045L363.768 0H364.284V6.0932H363.768L362.245 2.28495C361.671 1.7608 361 1.34312 360.23 1.03191C359.476 0.720701 358.731 0.565095 357.994 0.565095C356.848 0.565095 355.832 0.859927 354.948 1.44959C354.079 2.03926 353.4 2.89918 352.908 4.02937C352.417 5.15956 352.171 6.50269 352.171 8.05875V12.5549C352.171 14.111 352.409 15.4541 352.884 16.5843C353.359 17.7145 354.022 18.5826 354.874 19.1887C355.726 19.7783 356.725 20.0732 357.871 20.0732C358.707 20.0732 359.542 19.893 360.377 19.5326C361.213 19.1559 361.909 18.6563 362.466 18.0339L363.891 14.0782H364.407V20.3926H363.891L362.122 19.1395C361.532 19.6145 360.861 19.9831 360.107 20.2451C359.354 20.5072 358.608 20.6383 357.871 20.6383Z" fill="white"/>
<path d="M368.464 20.1469V19.6309L370.871 18.6481L377.972 0H378.365L385.072 19.2624L387.333 19.6309V20.1469H380.109V19.6309L382.124 19.3115L380.036 13.4886H373.5L371.51 18.6481L373.721 19.6309V20.1469H368.464ZM373.697 12.9726H379.864L376.915 4.3242L373.697 12.9726Z" fill="white"/>
<path d="M390.987 19.6309L393.248 19.2624V1.37588L390.987 1.03191V0.491388H398.702C401.126 0.491388 402.928 1.00734 404.108 2.03926C405.287 3.07117 405.877 4.56171 405.877 6.51088C405.877 8.46005 405.287 9.95059 404.108 10.9825C402.928 12.0144 401.126 12.5304 398.702 12.5304H395.95V19.2624L398.211 19.6309V20.1469H390.987V19.6309ZM398.358 11.9407C401.388 11.9407 402.904 10.2946 402.904 7.00226V6.01949C402.904 2.74358 401.388 1.10562 398.358 1.10562H395.95V11.9407H398.358Z" fill="white"/>
<defs>
<filter id="filter0_f_10_147" x="22.291" y="2.03833" width="50.7468" height="31.2682" filterUnits="userSpaceOnUse" color-interpolation-filters="sRGB">
<feFlood flood-opacity="0" result="BackgroundImageFix"/>
<feBlend mode="normal" in="SourceGraphic" in2="BackgroundImageFix" result="shape"/>
<feGaussianBlur stdDeviation="2.02942" result="effect1_foregroundBlur_10_147"/>
</filter>
<filter id="filter1_f_10_147" x="21.9118" y="-2.08751" width="105.513" height="48.6814" filterUnits="userSpaceOnUse" color-interpolation-filters="sRGB">
<feFlood flood-opacity="0" result="BackgroundImageFix"/>
<feBlend mode="normal" in="SourceGraphic" in2="BackgroundImageFix" result="shape"/>
<feGaussianBlur stdDeviation="3.04412" result="effect1_foregroundBlur_10_147"/>
</filter>
<linearGradient id="paint0_linear_10_147" x1="28.443" y1="9.37861" x2="54.2309" y2="14.9214" gradientUnits="userSpaceOnUse">
<stop stop-color="#FDECD3"/>
<stop offset="1" stop-color="white" stop-opacity="0"/>
</linearGradient>
<linearGradient id="paint1_linear_10_147" x1="32.3165" y1="10.9105" x2="88.7307" y2="23.5552" gradientUnits="userSpaceOnUse">
<stop stop-color="#FFF8EE"/>
<stop offset="1" stop-color="white" stop-opacity="0"/>
</linearGradient>
<clipPath id="clip0_10_147">
<rect width="215.912" height="44.6715" fill="white" transform="translate(0 0.000732422)"/>
</clipPath>
</defs>
</svg>
