<svg id="header-user" viewBox="0 0 29 29" fill="none" xmlns="http://www.w3.org/2000/svg">
	<path d="M7.25 25.375V22.9583C7.25 21.6765 7.75922 20.4471 8.66565 19.5407C9.57208 18.6342 10.8015 18.125 12.0833 18.125H16.9167C18.1985 18.125 19.4279 18.6342 20.3343 19.5407C21.2408 20.4471 21.75 21.6765 21.75 22.9583V25.375M9.66667 8.45833C9.66667 9.74021 10.1759 10.9696 11.0823 11.876C11.9887 12.7824 13.2181 13.2917 14.5 13.2917C15.7819 13.2917 17.0113 12.7824 17.9177 11.876C18.8241 10.9696 19.3333 9.74021 19.3333 8.45833C19.3333 7.17645 18.8241 5.94708 17.9177 5.04065C17.0113 4.13422 15.7819 3.625 14.5 3.625C13.2181 3.625 11.9887 4.13422 11.0823 5.04065C10.1759 5.94708 9.66667 7.17645 9.66667 8.45833Z" stroke="#D0A567" stroke-width="2" stroke-linecap="round" stroke-linejoin="round"/>
</svg>