<svg width="408" height="45" viewBox="0 0 408 45" fill="none" xmlns="http://www.w3.org/2000/svg">
<g clip-path="url(#clip0_3195_27164)">
<path d="M48.146 20.5743L50.4292 20.2021V2.1349L48.146 1.78745V1.24147H55.9387C58.3874 1.24147 60.2073 1.76264 61.3985 2.80497C62.5898 3.84731 63.1854 5.3529 63.1854 7.32176C63.1854 9.29062 62.5898 10.7962 61.3985 11.8385C60.2073 12.8809 58.3874 13.4021 55.9387 13.4021H53.1591V20.2021L55.4423 20.5743V21.0955H48.146V20.5743ZM55.5912 12.8064C58.6521 12.8064 60.1825 11.1437 60.1825 7.81811V6.82541C60.1825 3.51641 58.6521 1.86191 55.5912 1.86191H53.1591V12.8064H55.5912ZM81.6645 21.5918C79.2324 21.5918 77.4538 21.0541 76.3288 19.9787C75.2037 18.8867 74.6412 17.4473 74.6412 15.6604V2.1349L72.358 1.78745V1.24147H79.6543V1.78745L77.3711 2.1349V15.6604C77.3711 17.2819 77.8261 18.531 78.7361 19.4079C79.646 20.2682 81.0275 20.6984 82.8806 20.6984C86.3881 20.6984 88.1419 19.0191 88.1419 15.6604V2.75534L85.8339 1.78745V1.24147H91.12V1.78745L88.7375 2.75534V15.6604C88.7375 17.6458 88.1833 19.1349 87.0748 20.1276C85.9662 21.1038 84.1628 21.5918 81.6645 21.5918ZM100.317 21.0955V20.5743L102.601 20.2021V2.1349L100.317 1.78745V1.24147H107.614V1.78745L105.331 2.1349V20.4999H112.751L114.786 15.04H115.456V21.0955H100.317ZM132.501 21.5918C130.962 21.5918 129.448 21.1534 127.959 20.2765L125.85 21.3437H125.304V14.9656H125.85L127.984 19.5816C129.357 20.5578 130.929 21.0458 132.699 21.0458C134.155 21.0458 135.355 20.6653 136.298 19.9042C137.257 19.1266 137.737 18.0429 137.737 16.6531C137.737 15.6439 137.431 14.8497 136.819 14.2707C136.207 13.675 135.214 13.2035 133.841 12.8561L129.721 11.7889C128.282 11.4084 127.198 10.7631 126.47 9.85315C125.742 8.92663 125.378 7.83465 125.378 6.57723C125.378 5.43563 125.601 4.42638 126.048 3.5495C126.493 2.67459 127.195 1.95608 128.058 1.48964C128.935 0.993292 129.978 0.745117 131.185 0.745117C132.691 0.745117 134.039 1.00156 135.231 1.51446L137.042 0.745117H137.588V5.80789H137.042L135.255 2.18453C134.015 1.58891 132.666 1.2911 131.21 1.2911C129.771 1.2911 128.637 1.66337 127.81 2.40789C126.983 3.13587 126.569 4.10375 126.569 5.31154C126.569 6.20497 126.859 6.90813 127.438 7.42103C128.034 7.93393 128.902 8.33928 130.044 8.63709L134.486 9.80351C135.926 10.1675 136.993 10.7962 137.688 11.6896C138.399 12.5665 138.755 13.9067 138.755 15.7101C138.755 17.5466 138.184 18.986 137.042 20.0283C135.917 21.0707 134.403 21.5918 132.501 21.5918ZM156.599 21.5918C155.06 21.5918 153.546 21.1534 152.057 20.2765L149.947 21.3437H149.401V14.9656H149.947L152.082 19.5816C153.455 20.5578 155.027 21.0458 156.797 21.0458C158.253 21.0458 159.453 20.6653 160.396 19.9042C161.355 19.1266 161.835 18.0429 161.835 16.6531C161.835 15.6439 161.529 14.8497 160.917 14.2707C160.305 13.675 159.312 13.2035 157.939 12.8561L153.819 11.7889C152.38 11.4084 151.296 10.7631 150.568 9.85315C149.84 8.92663 149.476 7.83465 149.476 6.57723C149.476 5.43563 149.699 4.42638 150.146 3.5495C150.591 2.67459 151.292 1.95608 152.156 1.48964C153.033 0.993292 154.075 0.745117 155.283 0.745117C156.789 0.745117 158.137 1.00156 159.328 1.51446L161.14 0.745117H161.686V5.80789H161.14L159.353 2.18453C158.112 1.58891 156.764 1.2911 155.308 1.2911C153.869 1.2911 152.735 1.66337 151.908 2.40789C151.081 3.13587 150.667 4.10375 150.667 5.31154C150.667 6.20497 150.957 6.90813 151.536 7.42103C152.131 7.93393 153 8.33928 154.142 8.63709L158.584 9.80351C160.023 10.1675 161.091 10.7962 161.785 11.6896C162.497 12.5665 162.853 13.9067 162.853 15.7101C162.853 17.5466 162.282 18.986 161.14 20.0283C160.015 21.0707 158.501 21.5918 156.599 21.5918ZM171.142 21.0955V20.5743L173.575 19.5816L180.747 0.745117H181.144L187.919 20.2021L190.202 20.5743V21.0955H182.906V20.5743L184.941 20.2517L182.831 14.3699H176.23L174.22 19.5816L176.453 20.5743V21.0955H171.142ZM176.429 13.8488H182.658L179.68 5.113L176.429 13.8488ZM212.656 21.3437C211.729 21.3437 211.034 21.1203 210.571 20.6736C210.108 20.2269 209.793 19.4658 209.628 18.3904L209.156 15.0648C208.991 13.9398 208.602 13.0629 207.99 12.4342C207.394 11.7889 206.459 11.4663 205.185 11.4663H203.25V20.2021L205.533 20.5743V21.0955H198.237V20.5743L200.52 20.2021V2.1349L198.237 1.78745V1.24147H205.185C207.882 1.24147 209.835 1.66337 211.042 2.50716C212.25 3.35096 212.854 4.6332 212.854 6.35388C212.854 9.19962 211.133 10.8458 207.692 11.2926V11.4415C208.966 11.6235 209.984 12.0785 210.745 12.8064C211.522 13.5344 212.01 14.5023 212.209 15.7101L212.531 17.8444C212.664 18.7709 212.813 19.3996 212.978 19.7305C213.16 20.0614 213.433 20.2269 213.797 20.2269C214.045 20.2269 214.31 20.1524 214.591 20.0035C214.873 19.8381 215.137 19.6313 215.385 19.3831L215.807 19.8298C215.328 20.3758 214.831 20.7646 214.318 20.9962C213.805 21.2278 213.251 21.3437 212.656 21.3437ZM206.029 10.8707C207.237 10.8707 208.172 10.5067 208.834 9.77869C209.512 9.03417 209.851 7.9422 209.851 6.50278V5.98161C209.851 3.23514 208.296 1.86191 205.185 1.86191H203.25V10.8707H206.029ZM53.1691 43.8829H52.4493V42.1904H47.935V43.8829H47.2153V41.5062H47.7175C48.1736 40.7385 48.5632 39.8054 48.8864 38.7068C49.2118 37.6082 49.3924 36.6039 49.4282 35.694H52.3476V41.5062H53.1691V43.8829ZM51.5923 41.5062V36.374H50.1124C50.0594 37.0909 49.8802 37.9529 49.5746 38.96C49.2697 39.9642 48.9142 40.813 48.5083 41.5062H51.5923ZM56.0504 35.694H56.7568V39.3066C56.7568 39.9733 56.7362 40.5761 56.6948 41.1149H56.7304L60.3736 35.694H61.2V42.1904H60.4886V38.6133C60.4886 38.0177 60.5139 37.3929 60.5647 36.7388H60.525L56.8768 42.1904H56.0495L56.0504 35.694ZM68.5245 37.2136C68.5245 37.6405 68.388 37.9871 68.115 38.2535C67.8453 38.5204 67.4722 38.6892 66.9957 38.7598V38.7962C67.5378 38.8701 67.9482 39.0402 68.2267 39.3066C68.5079 39.573 68.6486 39.9209 68.6486 40.3506C68.6486 40.9572 68.4219 41.4315 67.9686 41.7734C67.5152 42.1099 66.8755 42.2783 66.0494 42.2789C65.2938 42.2789 64.6747 42.162 64.1922 41.9281V41.2258C64.4762 41.362 64.7828 41.4674 65.1121 41.5418C65.4253 41.6136 65.7454 41.6508 66.0667 41.6527C66.6541 41.6527 67.0969 41.5415 67.3953 41.3193C67.6975 41.0976 67.8486 40.7777 67.8486 40.3597C67.8486 39.9626 67.6812 39.662 67.3465 39.458C67.0156 39.2539 66.5192 39.1519 65.8574 39.1519H64.8895V38.5157H65.8185C66.4252 38.5157 66.8945 38.4076 67.2265 38.1914C67.5613 37.9719 67.7287 37.667 67.7287 37.2765C67.7287 36.9588 67.6087 36.7054 67.3688 36.5163C67.1289 36.3271 66.8063 36.2322 66.4009 36.2317C66.0744 36.2317 65.7794 36.2689 65.5158 36.3434C65.2522 36.4173 64.9472 36.5637 64.6008 36.7826L64.2277 36.2764C64.5267 36.0547 64.8611 35.8873 65.2312 35.7742C65.6051 35.6584 65.9917 35.6005 66.391 35.6005C67.0578 35.6005 67.5792 35.7472 67.9553 36.0406C68.3348 36.3312 68.5245 36.7222 68.5245 37.2136ZM75.9002 42.1904L75.092 40.1239H72.4878L71.6895 42.1904H70.9252L73.4929 35.6675H74.1283L76.6837 42.1904H75.9002ZM74.8563 39.4439L74.101 37.432C74.0034 37.1772 73.9027 36.8645 73.799 36.4939C73.7334 36.7785 73.6402 37.0912 73.5194 37.432L72.755 39.4447L74.8563 39.4439ZM79.359 35.6948H80.0655V39.3066C80.0655 39.9733 80.0448 40.5761 80.0034 41.1149H80.039L83.6822 35.694H84.5086V42.1904H83.798V38.6133C83.798 38.0177 83.8231 37.3929 83.8733 36.7388H83.8336L80.1862 42.1904H79.3598L79.359 35.6948ZM82.0517 35.1745C81.504 35.1745 81.1042 35.0694 80.8522 34.8593C80.6001 34.6458 80.4595 34.2962 80.4303 33.8103H81.1227C81.1503 34.1186 81.2302 34.3334 81.3626 34.4548C81.4994 34.5761 81.7348 34.6367 82.0691 34.6367C82.3746 34.6367 82.5999 34.5717 82.7449 34.4415C82.8933 34.3108 82.9834 34.1004 83.0154 33.8103H83.7136C83.6778 34.2785 83.5281 34.6238 83.2644 34.846C83.0014 35.065 82.5971 35.1745 82.0517 35.1745ZM92.9979 42.1904H92.2426V39.1337H88.8211V42.1904H88.0658V35.6948H88.8211V38.4578H92.2426V35.6948H92.9979V42.1904ZM100.179 42.1904H96.5583V35.6948H100.179V36.3649H97.3136V38.4578H100.006V39.1246H97.3136V41.5153H100.179V42.1904ZM107.517 37.5867C107.517 38.2447 107.292 38.7512 106.842 39.1064C106.395 39.4593 105.753 39.6358 104.918 39.6358H104.153V42.1904H103.398V35.6948H105.082C106.705 35.6948 107.517 36.3254 107.517 37.5867ZM104.153 38.9864H104.833C105.503 38.9864 105.987 38.8783 106.286 38.6621C106.585 38.446 106.735 38.0993 106.735 37.6223C106.735 37.1932 106.595 36.8734 106.313 36.6627C106.031 36.4526 105.592 36.3475 104.998 36.3475H104.153V38.9864ZM113.437 36.2764C112.723 36.2764 112.159 36.5149 111.744 36.9919C111.332 37.4662 111.126 38.1164 111.126 38.9426C111.126 39.7919 111.325 40.4496 111.722 40.9156C112.122 41.3772 112.691 41.608 113.428 41.608C113.881 41.608 114.397 41.5266 114.979 41.3639V42.0257C114.528 42.1945 113.973 42.2789 113.313 42.2789C112.356 42.2789 111.617 41.9888 111.096 41.4086C110.577 40.8279 110.318 40.0028 110.318 38.9335C110.318 38.264 110.442 37.6774 110.691 37.1739C110.928 36.686 111.306 36.2805 111.776 36.01C112.249 35.7375 112.806 35.6013 113.446 35.6013C114.128 35.6013 114.723 35.7254 115.232 35.9736L114.913 36.623C114.452 36.4002 113.948 36.2819 113.437 36.2764ZM122.845 42.1904H121.929L118.926 38.8979V42.1904H118.17V35.6948H118.926V38.84L121.854 35.694H122.72L119.845 38.8491L122.845 42.1904ZM131.156 38.9335C131.156 39.9731 130.892 40.7907 130.365 41.3863C129.84 41.9819 129.11 42.2797 128.174 42.2797C127.217 42.2797 126.478 41.9877 125.957 41.4037C125.439 40.8169 125.18 39.9904 125.18 38.9244C125.18 37.8672 125.44 37.0482 125.961 36.4675C126.482 35.884 127.223 35.5922 128.182 35.5922C129.116 35.5922 129.844 35.8884 130.369 36.4807C130.893 37.073 131.156 37.8906 131.156 38.9335ZM125.979 38.9335C125.979 39.8126 126.165 40.4804 126.539 40.9371C126.915 41.3904 127.461 41.6171 128.174 41.6171C128.894 41.6171 129.437 41.3904 129.805 40.9371C130.172 40.4843 130.356 39.8164 130.356 38.9335C130.356 38.0594 130.172 37.3976 129.805 36.9481C129.441 36.4942 128.9 36.2673 128.182 36.2673C127.463 36.2673 126.915 36.4953 126.539 36.9514C126.165 37.4047 125.979 38.0654 125.979 38.9335ZM138.004 42.1904H134.383V35.6948H138.004V36.3649H135.138V38.4578H137.831V39.1246H135.138V41.5153H138.004V42.1904ZM150.999 38.9335C150.999 39.9731 150.735 40.7907 150.208 41.3863C149.684 41.9819 148.954 42.2797 148.017 42.2797C147.061 42.2797 146.322 41.9877 145.8 41.4037C145.282 40.8169 145.023 39.9904 145.023 38.9244C145.023 37.8672 145.284 37.0482 145.805 36.4675C146.327 35.884 147.067 35.5922 148.027 35.5922C148.96 35.5922 149.689 35.8884 150.213 36.4807C150.737 37.073 150.999 37.8906 150.999 38.9335ZM145.823 38.9335C145.823 39.8126 146.009 40.4804 146.383 40.9371C146.76 41.3904 147.304 41.6171 148.017 41.6171C148.738 41.6171 149.282 41.3904 149.649 40.9371C150.016 40.4843 150.2 39.8164 150.2 38.9335C150.2 38.0594 150.016 37.3976 149.649 36.9481C149.284 36.4942 148.744 36.2673 148.027 36.2673C147.307 36.2673 146.759 36.4953 146.383 36.9514C146.009 37.4047 145.823 38.0654 145.823 38.9335ZM157.008 36.2764C156.294 36.2764 155.73 36.5149 155.315 36.9919C154.904 37.4662 154.698 38.1164 154.698 38.9426C154.698 39.7919 154.896 40.4496 155.293 40.9156C155.693 41.3772 156.262 41.608 156.999 41.608C157.452 41.608 157.969 41.5266 158.55 41.3639V42.0257C158.099 42.1945 157.544 42.2789 156.884 42.2789C155.927 42.2789 155.188 41.9888 154.667 41.4086C154.149 40.8279 153.889 40.0028 153.889 38.9335C153.889 38.264 154.014 37.6774 154.262 37.1739C154.499 36.6864 154.877 36.281 155.346 36.01C155.82 35.7375 156.377 35.6013 157.017 35.6013C157.698 35.6013 158.294 35.7254 158.803 35.9736L158.483 36.623C158.023 36.3993 157.519 36.2809 157.008 36.2764ZM161.742 35.6948H163.577C164.439 35.6948 165.063 35.8236 165.448 36.0811C165.833 36.3387 166.025 36.746 166.025 37.303C166.025 37.6874 165.917 38.0059 165.701 38.2584C165.487 38.5066 165.175 38.6679 164.764 38.7424V38.7871C165.75 38.9553 166.243 39.4737 166.243 40.3423C166.243 40.9225 166.046 41.3755 165.652 41.7015C165.26 42.0274 164.713 42.1904 164.008 42.1904H161.742V35.6948ZM162.497 38.476H163.741C164.275 38.476 164.658 38.393 164.892 38.227C165.126 38.0583 165.243 37.7753 165.243 37.3783C165.243 37.0143 165.113 36.7523 164.852 36.5924C164.592 36.4291 164.177 36.3475 163.608 36.3475H162.497V38.476ZM162.497 39.1155V41.5459H163.853C164.377 41.5459 164.77 41.4453 165.034 41.244C165.301 41.0399 165.434 40.7215 165.434 40.2885C165.434 39.8859 165.298 39.5898 165.026 39.4001C164.756 39.2098 164.344 39.1149 163.79 39.1155H162.497ZM173.039 42.1904H169.417V35.6948H173.039V36.3649H170.172V38.4578H172.865V39.1246H170.172V41.5153H173.039V42.1904ZM176.257 42.1904V35.6948H177.012V41.5062H179.603V35.694H180.366V41.5062H182.961V35.694H183.717V41.5062H184.481V43.8829H183.761V42.1904H176.257ZM191.054 42.1904H187.433V35.6948H191.054V36.3649H188.188V38.4578H190.881V39.1246H188.188V41.5153H191.054V42.1904ZM199.204 42.1904H198.449V39.1337H195.028V42.1904H194.272V35.6948H195.028V38.4578H198.449V35.6948H199.204V42.1904ZM202.774 35.6948H203.48V39.3066C203.48 39.9733 203.46 40.5761 203.418 41.1149H203.454L207.097 35.694H207.924V42.1904H207.213V38.6133C207.213 38.0177 207.238 37.3929 207.288 36.7388H207.249L203.6 42.1904H202.774V35.6948ZM215.102 42.1904H211.48V35.6948H215.102V36.3649H212.235V38.4578H214.928V39.1246H212.235V41.5153H215.102V42.1904Z" fill="white"/>
<mask id="mask0_3195_27164" style="mask-type:luminance" maskUnits="userSpaceOnUse" x="0" y="0" width="40" height="43">
<path d="M0 0.827393H39.708V42.1899H0V0.827393Z" fill="white"/>
</mask>
<g mask="url(#mask0_3195_27164)">
<path d="M17.6409 2.13545L18.2927 2.46966L16.7813 5.92095L16.1295 5.58757C15.6348 5.33691 15.3998 4.69662 15.6348 4.13988L16.2858 2.63676C16.3387 2.51222 16.4165 2.39979 16.5144 2.3064C16.6123 2.213 16.7282 2.1406 16.8551 2.09366C16.982 2.04671 17.1172 2.0262 17.2523 2.03338C17.3874 2.04057 17.5197 2.0753 17.6409 2.13545ZM15.6886 32.0596H13.6816V36.262H15.6886V32.0596Z" fill="white"/>
<path d="M10.8682 26.1013H9.09619L14.5949 33.3671H16.3404L10.8682 26.1013Z" fill="white"/>
<path d="M10.4769 26.0993H8.73145L14.2037 33.3651H15.9492L10.4769 26.0993ZM20.8217 30.8891L14.3063 23.429L14.2021 24.1528L19.8571 31.1398L20.8217 30.8891Z" fill="white"/>
<path d="M14.2041 24.1519H13.2139L18.7118 31.4449L19.8583 31.1388L14.2041 24.1519Z" fill="white"/>
<path d="M14.0725 24.8222L9.56401 27.912C9.09496 28.2454 8.46956 28.1064 8.13121 27.6332C7.89627 27.2717 7.84416 26.8258 8.02698 26.4362L11.1805 19.8678L11.9614 19.7561L13.2387 20.2012L11.9622 21.6207V23.3191L14.0725 23.3745V24.8222Z" fill="white"/>
<path d="M21.3181 16.9998H19.8332L13.0836 24.1539H14.5694L21.3181 16.9998ZM19.9374 11.7666L20.4586 9.37256L11.4424 18.948L12.1985 19.9779L19.9374 11.7666Z" fill="white"/>
<path d="M11.6843 19.1223L11.4328 20.1746L16.6594 21.5991L16.9109 20.5477L11.6843 19.1223ZM20.9801 32.3376V29.8038H17.2542L15.091 32.4204V34.7309L20.9801 32.3376ZM8.99246 27.6339C9.36638 27.6339 9.66998 27.3096 9.66998 26.9101C9.66998 26.5105 9.36638 26.1862 8.99163 26.1862C8.61854 26.1862 8.31494 26.5105 8.31494 26.9101C8.31494 27.3096 8.61854 27.6339 8.99246 27.6339Z" fill="white"/>
<path d="M11.7517 20.1712C12.1257 20.1712 12.4293 19.8469 12.4293 19.4473C12.4293 19.0478 12.1257 18.7235 11.7509 18.7235C11.3762 18.7235 11.0742 19.0478 11.0742 19.4473C11.0742 19.8469 11.377 20.1712 11.7517 20.1712ZM14.8266 34.2857C15.0996 34.2857 15.3213 34.0483 15.3213 33.7563C15.3213 33.4643 15.0996 33.2277 14.8266 33.2277C14.5536 33.2277 14.3311 33.4643 14.3311 33.7571C14.3311 34.0483 14.5528 34.2857 14.8266 34.2857ZM19.5171 31.8081C19.7041 31.8081 19.8563 31.6451 19.8563 31.4458C19.8563 31.2456 19.7041 31.0834 19.5171 31.0834C19.3302 31.0834 19.178 31.2456 19.178 31.4458C19.178 31.6451 19.3302 31.8081 19.5171 31.8081ZM21.1849 10.5974H20.011V16.7215H21.184L21.1849 10.5974Z" fill="white"/>
<path d="M20.5382 17.7216C20.9121 17.7216 21.2157 17.3973 21.2157 16.9978C21.2157 16.5982 20.9121 16.2739 20.5373 16.2739C20.1642 16.2739 19.8606 16.5982 19.8606 16.9978C19.8606 17.3973 20.1642 17.7216 20.5382 17.7216ZM17.5377 42.19C27.2232 42.19 35.0754 42.0279 35.0754 41.8277C35.0754 41.6283 27.2232 41.4662 17.5377 41.4662C7.85226 41.4662 0 41.6283 0 41.8277C0 42.0279 7.85226 42.19 17.5377 42.19Z" fill="white"/>
<path d="M24.2351 41.2147C24.4957 40.9922 22.9322 40.7696 21.1859 40.6025H3.20557V41.5489C6.46328 41.6043 23.6362 41.7723 24.2351 41.2147Z" fill="white"/>
<path d="M21.1859 40.6039C22.9322 40.771 24.47 40.9662 24.2351 41.2161C23.6362 41.7728 6.46328 41.5784 3.20557 41.5503V41.8291H26.2677V40.6039H21.1859ZM21.5515 40.1307C21.5515 39.1852 18.6065 38.5722 15.2454 38.1825V37.9046L14.7242 37.8765L5.81141 38.4613C5.02965 38.5168 4.40508 39.2125 4.40508 40.048V40.6047H16.6773C18.997 40.4649 21.5498 40.2705 21.5498 40.1316" fill="white"/>
<path d="M25.0444 40.0742C25.0444 39.2396 24.419 38.5438 23.6372 38.4884L15.2464 37.9317V38.2096C18.634 38.5993 21.5525 39.1841 21.5525 40.1578C21.5525 40.2976 18.9723 40.492 16.6536 40.6591H25.0187L25.0444 40.0742ZM15.4284 35.9827H13.7863C13.5001 35.9827 13.2651 36.2333 13.2651 36.5394V38.0698H15.1157C15.4797 37.3187 15.6369 36.5394 15.4284 35.9827Z" fill="white"/>
<path d="M16.4954 36.5113H16.2348C16.2348 36.2052 15.9999 35.9827 15.7136 35.9827H15.4266C15.4787 36.1498 15.5308 36.345 15.5308 36.5121H13.0044V37.0126H15.4795C15.4018 37.3749 15.2975 37.7364 15.1404 38.0425H16.2613V37.0126H16.5219L16.4954 36.5113Z" fill="white"/>
<path d="M33.6692 2.88706C33.6427 2.85894 33.5906 2.83081 33.5649 2.80351C32.7046 2.41388 30.6985 5.4201 29.1085 9.51169C27.5972 13.3526 26.9717 16.7766 27.6236 17.5004C27.6637 17.552 27.7181 17.5906 27.78 17.6113C28.6403 18.0009 30.6464 14.9947 32.2355 10.9031C33.7469 7.00677 34.3723 3.52735 33.6692 2.88706Z" stroke="white" stroke-width="0.744526" stroke-miterlimit="10"/>
<path d="M21.8608 9.65085C21.8608 5.03065 25.3527 1.30058 29.6784 1.30058C29.939 1.30058 30.1995 1.32871 30.4345 1.32871C28.5796 0.853643 26.6284 0.911564 24.805 1.49581C23.9773 1.74086 23.1123 1.83501 22.2513 1.77377C21.8608 1.74564 21.4439 1.74564 21.0526 1.69104C20.4194 1.63454 19.8015 1.46444 19.2285 1.1889C18.9668 1.0525 18.6972 0.931786 18.4211 0.827393L18.2391 0.910118C18.1084 1.1889 17.665 2.07985 17.3002 2.83182C16.9382 3.60934 16.6249 4.40863 16.3621 5.22506C16.128 6.03245 15.8409 6.9507 15.7632 7.25761L15.8674 7.45202C16.128 7.56369 16.3886 7.70267 16.6748 7.81352C17.2715 8.05572 17.819 8.40474 18.2904 8.84345C18.6031 9.12223 18.8902 9.40019 19.2029 9.67897C19.8539 10.2911 20.3751 11.015 20.8185 11.8216C21.8087 13.7987 23.3201 15.4126 25.1699 16.4707C23.0852 14.884 21.8608 12.351 21.8608 9.65085Z" fill="white"/>
<path d="M27.6226 17.5006C26.9972 16.7768 27.6226 13.3528 29.1084 9.51187C30.6975 5.42029 32.7044 2.41406 33.564 2.80287C33.6161 2.831 33.6425 2.85912 33.6682 2.88725V2.85912C32.8864 2.1634 31.9748 1.82919 31.0623 1.55124C30.9581 1.52311 30.7496 1.43956 30.4369 1.35601C30.1764 1.32788 29.9422 1.32788 29.6817 1.32788C25.3551 1.32788 21.8641 5.08608 21.8898 9.70627C21.8898 12.3783 23.1141 14.884 25.1475 16.4426L25.2517 16.498C25.9762 16.9704 26.7791 17.3099 27.6226 17.5006Z" fill="white"/>
<path d="M32.5464 10.9885C33.5367 8.20485 31.5074 6.48747 30.9606 6.23682C30.2599 7.60013 30.231 7.66548 29.4426 9.55078C28.6609 11.4708 28.5202 12.1442 28.2075 13.2858C28.7543 13.5365 31.5041 13.8831 32.5464 10.9885Z" fill="white"/>
</g>
</g>
<line x1="227.452" y1="44.6724" x2="227.452" y2="0.000831604" stroke="white" stroke-width="0.744526"/>
<path d="M245.691 44.296H244.971V42.4825H240.457V44.296H239.737V41.7495H240.239C240.696 40.927 241.085 39.9272 241.408 38.7502C241.734 37.5731 241.914 36.4971 241.95 35.5221H244.87V41.7495H245.691V44.296ZM244.114 41.7495V36.2507H242.634C242.581 37.0188 242.402 37.9424 242.097 39.0214C241.792 40.0974 241.436 41.0068 241.03 41.7495H244.114ZM248.572 35.5221H249.279V39.3927C249.279 40.1071 249.258 40.753 249.217 41.3303H249.252L252.896 35.5221H253.722V42.4825H253.011V38.65C253.011 38.0118 253.036 37.3424 253.087 36.6416H253.047L249.399 42.4825H248.572L248.572 35.5221ZM261.046 37.1503C261.046 37.6077 260.91 37.979 260.637 38.2644C260.367 38.5504 259.994 38.7312 259.518 38.8069V38.8459C260.06 38.9251 260.47 39.1073 260.749 39.3927C261.03 39.6782 261.171 40.051 261.171 40.5113C261.171 41.1613 260.944 41.6695 260.491 42.0358C260.037 42.3963 259.397 42.5768 258.571 42.5774C257.816 42.5774 257.197 42.4521 256.714 42.2016V41.4491C256.998 41.595 257.305 41.7079 257.634 41.7876C257.947 41.8646 258.267 41.9044 258.589 41.9064C259.176 41.9064 259.619 41.7873 259.917 41.5492C260.219 41.3117 260.371 40.969 260.371 40.5211C260.371 40.0956 260.203 39.7736 259.868 39.555C259.538 39.3363 259.041 39.227 258.379 39.227H257.412V38.5454H258.341C258.947 38.5454 259.416 38.4296 259.748 38.198C260.083 37.9628 260.251 37.636 260.251 37.2177C260.251 36.8773 260.131 36.6058 259.891 36.4031C259.651 36.2004 259.328 36.0988 258.923 36.0982C258.596 36.0982 258.301 36.1381 258.038 36.2179C257.774 36.2971 257.469 36.4539 257.123 36.6885L256.75 36.1461C257.049 35.9085 257.383 35.7292 257.753 35.6081C258.127 35.484 258.514 35.4219 258.913 35.4219C259.58 35.4219 260.101 35.5791 260.477 35.8935C260.857 36.2049 261.046 36.6238 261.046 37.1503ZM268.422 42.4825L267.614 40.2685H265.01L264.212 42.4825H263.447L266.015 35.4937H266.65L269.206 42.4825H268.422ZM267.378 39.5399L266.623 37.3843C266.525 37.1113 266.425 36.7763 266.321 36.3792C266.255 36.6841 266.162 37.0191 266.041 37.3843L265.277 39.5408L267.378 39.5399ZM271.881 35.523H272.587V39.3927C272.587 40.1071 272.567 40.753 272.525 41.3303H272.561L276.204 35.5221H277.031V42.4825H276.32V38.65C276.32 38.0118 276.345 37.3424 276.395 36.6416H276.356L272.708 42.4825H271.882L271.881 35.523ZM274.574 34.9655C274.026 34.9655 273.626 34.8529 273.374 34.6278C273.122 34.3991 272.981 34.0245 272.952 33.5039H273.645C273.672 33.8342 273.752 34.0644 273.885 34.1944C274.021 34.3244 274.257 34.3894 274.591 34.3894C274.897 34.3894 275.122 34.3196 275.267 34.1802C275.415 34.0401 275.505 33.8147 275.537 33.5039H276.236C276.2 34.0056 276.05 34.3755 275.786 34.6136C275.523 34.8482 275.119 34.9655 274.574 34.9655ZM285.52 42.4825H284.765V39.2075H281.343V42.4825H280.588V35.523H281.343V38.4834H284.765V35.523H285.52V42.4825ZM292.701 42.4825H289.08V35.523H292.701V36.2409H289.836V38.4834H292.528V39.1978H289.836V41.7593H292.701V42.4825ZM300.039 37.55C300.039 38.255 299.814 38.7977 299.364 39.1783C298.917 39.5564 298.275 39.7455 297.44 39.7455H296.675V42.4825H295.92V35.523H297.604C299.227 35.523 300.039 36.1987 300.039 37.55ZM296.675 39.0497H297.355C298.025 39.0497 298.509 38.9339 298.808 38.7023C299.107 38.4707 299.257 38.0993 299.257 37.5882C299.257 37.1284 299.117 36.7857 298.835 36.56C298.553 36.3349 298.114 36.2223 297.52 36.2223H296.675V39.0497ZM305.959 36.1461C305.245 36.1461 304.681 36.4016 304.266 36.9128C303.854 37.4209 303.648 38.1176 303.648 39.0028C303.648 39.9127 303.847 40.6174 304.244 41.1167C304.644 41.6113 305.213 41.8585 305.95 41.8585C306.403 41.8585 306.919 41.7714 307.501 41.5971V42.3061C307.05 42.487 306.495 42.5774 305.835 42.5774C304.878 42.5774 304.139 42.2666 303.618 41.6449C303.099 41.0227 302.84 40.1388 302.84 38.993C302.84 38.2757 302.964 37.6473 303.213 37.1078C303.45 36.585 303.828 36.1505 304.298 35.8607C304.771 35.5688 305.328 35.4228 305.968 35.4228C306.649 35.4228 307.245 35.5558 307.754 35.8217L307.435 36.5175C306.974 36.2788 306.47 36.152 305.959 36.1461ZM315.367 42.4825H314.451L311.448 38.9549V42.4825H310.692V35.523H311.448V38.8929L314.376 35.5221H315.242L312.367 38.9026L315.367 42.4825ZM323.678 38.993C323.678 40.1068 323.414 40.9828 322.887 41.621C322.362 42.2592 321.632 42.5783 320.696 42.5783C319.739 42.5783 319 42.2654 318.479 41.6396C317.961 41.0109 317.702 40.1255 317.702 38.9833C317.702 37.8505 317.962 36.973 318.483 36.3508C319.004 35.7257 319.745 35.4131 320.704 35.4131C321.638 35.4131 322.366 35.7304 322.891 36.365C323.415 36.9996 323.678 37.8756 323.678 38.993ZM318.501 38.993C318.501 39.9349 318.687 40.6505 319.061 41.1397C319.437 41.6254 319.983 41.8683 320.696 41.8683C321.416 41.8683 321.959 41.6254 322.327 41.1397C322.694 40.6546 322.878 39.939 322.878 38.993C322.878 38.0564 322.694 37.3474 322.327 36.8658C321.963 36.3795 321.422 36.1363 320.704 36.1363C319.985 36.1363 319.437 36.3807 319.061 36.8693C318.687 37.3551 318.501 38.0629 318.501 38.993ZM330.526 42.4825H326.905V35.523H330.526V36.2409H327.66V38.4834H330.353V39.1978H327.66V41.7593H330.526V42.4825ZM343.521 38.993C343.521 40.1068 343.257 40.9828 342.73 41.621C342.206 42.2592 341.476 42.5783 340.539 42.5783C339.583 42.5783 338.844 42.2654 338.322 41.6396C337.804 41.0109 337.545 40.1255 337.545 38.9833C337.545 37.8505 337.806 36.973 338.327 36.3508C338.849 35.7257 339.589 35.4131 340.549 35.4131C341.482 35.4131 342.21 35.7304 342.735 36.365C343.259 36.9996 343.521 37.8756 343.521 38.993ZM338.345 38.993C338.345 39.9349 338.531 40.6505 338.905 41.1397C339.281 41.6254 339.826 41.8683 340.539 41.8683C341.26 41.8683 341.803 41.6254 342.171 41.1397C342.538 40.6546 342.722 39.939 342.722 38.993C342.722 38.0564 342.538 37.3474 342.171 36.8658C341.806 36.3795 341.266 36.1363 340.549 36.1363C339.829 36.1363 339.281 36.3807 338.905 36.8693C338.531 37.3551 338.345 38.0629 338.345 38.993ZM349.53 36.1461C348.816 36.1461 348.252 36.4016 347.837 36.9128C347.425 37.4209 347.219 38.1176 347.219 39.0028C347.219 39.9127 347.418 40.6174 347.815 41.1167C348.215 41.6113 348.784 41.8585 349.521 41.8585C349.974 41.8585 350.491 41.7714 351.072 41.5971V42.3061C350.621 42.487 350.066 42.5774 349.406 42.5774C348.449 42.5774 347.71 42.2666 347.189 41.6449C346.67 41.0227 346.411 40.1388 346.411 38.993C346.411 38.2757 346.536 37.6473 346.784 37.1078C347.021 36.5854 347.399 36.1511 347.868 35.8607C348.342 35.5688 348.899 35.4228 349.539 35.4228C350.22 35.4228 350.816 35.5558 351.325 35.8217L351.005 36.5175C350.545 36.2778 350.041 36.1509 349.53 36.1461ZM354.264 35.523H356.099C356.961 35.523 357.585 35.661 357.97 35.9369C358.355 36.2129 358.547 36.6492 358.547 37.246C358.547 37.6579 358.439 37.9991 358.223 38.2698C358.009 38.5357 357.697 38.7085 357.285 38.7883V38.8361C358.272 39.0164 358.765 39.5718 358.765 40.5024C358.765 41.1241 358.568 41.6095 358.174 41.9587C357.782 42.3079 357.234 42.4825 356.53 42.4825H354.264V35.523ZM355.019 38.5029H356.263C356.797 38.5029 357.18 38.4139 357.414 38.2361C357.648 38.0553 357.765 37.7521 357.765 37.3267C357.765 36.9367 357.635 36.656 357.374 36.4847C357.114 36.3098 356.699 36.2223 356.13 36.2223H355.019V38.5029ZM355.019 39.188V41.7921H356.375C356.899 41.7921 357.292 41.6842 357.556 41.4686C357.823 41.2499 357.956 40.9087 357.956 40.4448C357.956 40.0135 357.82 39.6962 357.548 39.4929C357.278 39.289 356.866 39.1874 356.312 39.188H355.019ZM365.56 42.4825H361.939V35.523H365.56V36.2409H362.694V38.4834H365.387V39.1978H362.694V41.7593H365.56V42.4825ZM368.778 42.4825V35.523H369.534V41.7495H372.125V35.5221H372.888V41.7495H375.483V35.5221H376.239V41.7495H377.003V44.296H376.283V42.4825H368.778ZM383.576 42.4825H379.955V35.523H383.576V36.2409H380.71V38.4834H383.403V39.1978H380.71V41.7593H383.576V42.4825ZM391.726 42.4825H390.971V39.2075H387.55V42.4825H386.794V35.523H387.55V38.4834H390.971V35.523H391.726V42.4825ZM395.296 35.523H396.002V39.3927C396.002 40.1071 395.982 40.753 395.94 41.3303H395.976L399.619 35.5221H400.446V42.4825H399.735V38.65C399.735 38.0118 399.76 37.3424 399.81 36.6416H399.771L396.122 42.4825H395.296V35.523ZM407.624 42.4825H404.002V35.523H407.624V36.2409H404.757V38.4834H407.45V39.1978H404.757V41.7593H407.624V42.4825Z" fill="white"/>
<path d="M240.72 20.1469V19.6309L242.981 19.2624V1.37588L240.72 1.03191V0.491388H259.761V1.03191L257.477 1.37588V19.2624L259.761 19.6309V20.1469H252.489V19.6309L254.774 19.2624V1.10562H245.683V19.2624L247.944 19.6309V20.1469H240.72Z" fill="white"/>
<path d="M269.232 20.3926C268.446 20.3926 267.832 20.1878 267.389 19.7783C266.964 19.3525 266.751 18.8037 266.751 18.1322C266.751 17.5753 266.923 17.1248 267.267 16.7809C267.611 16.4205 268.028 16.2403 268.52 16.2403C268.88 16.2403 269.199 16.3222 269.478 16.486C269.756 16.6334 269.969 16.8464 270.117 17.1248C270.1 17.1412 270.051 17.1985 269.969 17.2968C269.887 17.3951 269.814 17.5261 269.748 17.6899C269.683 17.8537 269.65 18.0421 269.65 18.255C269.65 18.5662 269.732 18.8201 269.896 19.0167C270.059 19.1968 270.289 19.2869 270.583 19.2869C271.009 19.2869 271.402 19.0904 271.763 18.6973C272.123 18.3042 272.549 17.5589 273.04 16.4615L273.36 15.7244L265.375 1.37588L263.434 1.03191V0.491388H270.829V1.03191L268.544 1.37588L274.785 12.5795L279.428 2.21124L276.48 1.03191V0.491388H281.984V1.03191L280.092 2.23581L273.606 16.6826C273.163 17.6654 272.737 18.4188 272.328 18.943C271.935 19.4671 271.493 19.8438 271.001 20.0732C270.526 20.2861 269.936 20.3926 269.232 20.3926Z" fill="white"/>
<path d="M285.62 20.3926C284.834 20.3926 284.253 20.2124 283.876 19.852C283.516 19.4753 283.335 19.0167 283.335 18.4761C283.335 18.0503 283.475 17.6817 283.753 17.3705C284.048 17.0429 284.449 16.8791 284.957 16.8791C285.252 16.8791 285.497 16.9447 285.694 17.0757C285.907 17.1904 286.054 17.3132 286.136 17.4442C286.235 17.5589 286.292 17.6408 286.308 17.6899C286.013 17.8865 285.866 18.1404 285.866 18.4516C285.866 18.6481 285.923 18.8119 286.038 18.943C286.169 19.074 286.341 19.1395 286.554 19.1395C287.094 19.1395 287.553 18.7382 287.93 17.9356C288.323 17.1166 288.642 15.7571 288.888 13.8571C289.15 11.9571 289.347 9.3773 289.478 6.11777L289.65 2.13753L287.045 1.05648V0.491388H301.345V1.03191L299.06 1.37588V19.2624L301.345 19.6309V20.1469H294.072V19.6309L296.357 19.2624V1.10562H290.362L290.141 6.14234C289.977 9.81136 289.764 12.6286 289.502 14.5942C289.24 16.5434 288.806 18.0011 288.2 18.9675C287.61 19.9176 286.75 20.3926 285.62 20.3926Z" fill="white"/>
<path d="M306.495 19.6063L308.755 19.2624V1.37588L306.495 1.00734V0.491388H313.718V1.00734L311.458 1.37588V9.09066H314.947C317.355 9.09066 319.148 9.54929 320.328 10.4665C321.523 11.3674 322.121 12.7515 322.121 14.6188C322.121 16.486 321.523 17.8783 320.328 18.7955C319.148 19.6964 317.355 20.1469 314.947 20.1469H306.495V19.6063ZM314.603 19.5326C316.126 19.5326 317.265 19.1723 318.018 18.4516C318.772 17.7309 319.148 16.6171 319.148 15.1101V14.1274C319.148 12.6205 318.772 11.5066 318.018 10.7859C317.265 10.0489 316.126 9.68032 314.603 9.68032H311.458V19.5326H314.603Z" fill="white"/>
<path d="M336.37 20.6383C334.585 20.6383 333.021 20.2042 331.678 19.3361C330.335 18.468 329.294 17.2559 328.557 15.6998C327.837 14.1438 327.476 12.3502 327.476 10.3191C327.476 8.28806 327.845 6.4945 328.582 4.93844C329.335 3.366 330.392 2.15391 331.751 1.30218C333.127 0.434059 334.708 0 336.493 0C337.198 0 337.91 0.122847 338.631 0.36854C339.368 0.614234 340.031 0.958205 340.621 1.40045L342.267 0H342.783V6.0932H342.267L340.744 2.28495C340.17 1.7608 339.499 1.34312 338.729 1.03191C337.976 0.720701 337.23 0.565095 336.493 0.565095C335.347 0.565095 334.331 0.859927 333.447 1.44959C332.579 2.03926 331.899 2.89918 331.407 4.02937C330.916 5.15956 330.67 6.50269 330.67 8.05875V12.5549C330.67 14.111 330.908 15.4541 331.383 16.5843C331.858 17.7145 332.521 18.5826 333.373 19.1887C334.225 19.7783 335.224 20.0732 336.37 20.0732C337.206 20.0732 338.041 19.893 338.876 19.5326C339.712 19.1559 340.408 18.6563 340.965 18.0339L342.39 14.0782H342.906V20.3926H342.39L340.621 19.1395C340.031 19.6145 339.36 19.9831 338.606 20.2451C337.853 20.5072 337.107 20.6383 336.37 20.6383Z" fill="white"/>
<path d="M357.871 20.6383C356.086 20.6383 354.522 20.2042 353.179 19.3361C351.836 18.468 350.795 17.2559 350.058 15.6998C349.338 14.1438 348.977 12.3502 348.977 10.3191C348.977 8.28806 349.346 6.4945 350.083 4.93844C350.836 3.366 351.893 2.15391 353.252 1.30218C354.628 0.434059 356.209 0 357.994 0C358.699 0 359.411 0.122847 360.132 0.36854C360.869 0.614234 361.532 0.958205 362.122 1.40045L363.768 0H364.284V6.0932H363.768L362.245 2.28495C361.672 1.7608 361 1.34312 360.23 1.03191C359.477 0.720701 358.731 0.565095 357.994 0.565095C356.848 0.565095 355.832 0.859927 354.948 1.44959C354.08 2.03926 353.4 2.89918 352.908 4.02937C352.417 5.15956 352.171 6.50269 352.171 8.05875V12.5549C352.171 14.111 352.409 15.4541 352.884 16.5843C353.359 17.7145 354.022 18.5826 354.874 19.1887C355.726 19.7783 356.725 20.0732 357.871 20.0732C358.707 20.0732 359.542 19.893 360.378 19.5326C361.213 19.1559 361.909 18.6563 362.466 18.0339L363.891 14.0782H364.407V20.3926H363.891L362.122 19.1395C361.532 19.6145 360.861 19.9831 360.107 20.2451C359.354 20.5072 358.609 20.6383 357.871 20.6383Z" fill="white"/>
<path d="M368.464 20.1469V19.6309L370.872 18.6481L377.972 0H378.365L385.073 19.2624L387.333 19.6309V20.1469H380.11V19.6309L382.124 19.3115L380.036 13.4886H373.5L371.51 18.6481L373.722 19.6309V20.1469H368.464ZM373.697 12.9726H379.864L376.916 4.3242L373.697 12.9726Z" fill="white"/>
<path d="M390.988 19.6309L393.248 19.2624V1.37588L390.988 1.03191V0.491388H398.702C401.127 0.491388 402.928 1.00734 404.108 2.03926C405.287 3.07117 405.877 4.56171 405.877 6.51088C405.877 8.46005 405.287 9.95059 404.108 10.9825C402.928 12.0144 401.127 12.5304 398.702 12.5304H395.951V19.2624L398.211 19.6309V20.1469H390.988V19.6309ZM398.358 11.9407C401.389 11.9407 402.904 10.2946 402.904 7.00226V6.01949C402.904 2.74358 401.389 1.10562 398.358 1.10562H395.951V11.9407H398.358Z" fill="white"/>
<defs>
<clipPath id="clip0_3195_27164">
<rect width="215.912" height="44.6715" fill="white" transform="translate(0 0.000732422)"/>
</clipPath>
</defs>
</svg>
