<svg class="footer-logo" viewBox="0 0 290 60" fill="none" xmlns="http://www.w3.org/2000/svg">
<path d="M64.6667 27.6333L67.7334 27.1333V2.86667L64.6667 2.4V1.66667H75.1334C78.4222 1.66667 80.8667 2.36667 82.4667 3.76667C84.0667 5.16667 84.8667 7.18889 84.8667 9.83333C84.8667 12.4778 84.0667 14.5 82.4667 15.9C80.8667 17.3 78.4222 18 75.1334 18H71.4V27.1333L74.4667 27.6333V28.3333H64.6667V27.6333ZM74.6667 17.2C78.7778 17.2 80.8334 14.9667 80.8334 10.5V9.16667C80.8334 4.72222 78.7778 2.5 74.6667 2.5H71.4V17.2H74.6667ZM109.687 29C106.42 29 104.031 28.2778 102.52 26.8333C101.009 25.3667 100.253 23.4333 100.253 21.0333V2.86667L97.1867 2.4V1.66667H106.987V2.4L103.92 2.86667V21.0333C103.92 23.2111 104.531 24.8889 105.753 26.0667C106.976 27.2222 108.831 27.8 111.32 27.8C116.031 27.8 118.387 25.5444 118.387 21.0333V3.7L115.287 2.4V1.66667H122.387V2.4L119.187 3.7V21.0333C119.187 23.7 118.442 25.7 116.953 27.0333C115.464 28.3444 113.042 29 109.687 29ZM134.74 28.3333V27.6333L137.807 27.1333V2.86667L134.74 2.4V1.66667H144.54V2.4L141.473 2.86667V27.5333H151.44L154.173 20.2H155.073V28.3333H134.74ZM177.967 29C175.9 29 173.867 28.4111 171.867 27.2333L169.033 28.6667H168.3V20.1H169.033L171.9 26.3C173.744 27.6111 175.856 28.2667 178.233 28.2667C180.189 28.2667 181.8 27.7556 183.067 26.7333C184.356 25.6889 185 24.2333 185 22.3667C185 21.0111 184.589 19.9444 183.767 19.1667C182.944 18.3667 181.611 17.7333 179.767 17.2667L174.233 15.8333C172.3 15.3222 170.844 14.4556 169.867 13.2333C168.889 11.9889 168.4 10.5222 168.4 8.83333C168.4 7.3 168.7 5.94444 169.3 4.76667C169.898 3.59155 170.84 2.62649 172 2C173.178 1.33333 174.578 1 176.2 1C178.222 1 180.033 1.34444 181.633 2.03333L184.067 1H184.8V7.8H184.067L181.667 2.93333C180 2.13333 178.189 1.73333 176.233 1.73333C174.3 1.73333 172.778 2.23333 171.667 3.23333C170.556 4.21111 170 5.51111 170 7.13333C170 8.33333 170.389 9.27778 171.167 9.96667C171.967 10.6556 173.133 11.2 174.667 11.6L180.633 13.1667C182.567 13.6556 184 14.5 184.933 15.7C185.889 16.8778 186.367 18.6778 186.367 21.1C186.367 23.5667 185.6 25.5 184.067 26.9C182.556 28.3 180.522 29 177.967 29ZM210.333 29C208.267 29 206.233 28.4111 204.233 27.2333L201.4 28.6667H200.667V20.1H201.4L204.267 26.3C206.111 27.6111 208.222 28.2667 210.6 28.2667C212.556 28.2667 214.167 27.7556 215.433 26.7333C216.722 25.6889 217.367 24.2333 217.367 22.3667C217.367 21.0111 216.956 19.9444 216.133 19.1667C215.311 18.3667 213.978 17.7333 212.133 17.2667L206.6 15.8333C204.667 15.3222 203.211 14.4556 202.233 13.2333C201.256 11.9889 200.767 10.5222 200.767 8.83333C200.767 7.3 201.067 5.94444 201.667 4.76667C202.265 3.59155 203.206 2.62649 204.367 2C205.544 1.33333 206.944 1 208.567 1C210.589 1 212.4 1.34444 214 2.03333L216.433 1H217.167V7.8H216.433L214.033 2.93333C212.367 2.13333 210.556 1.73333 208.6 1.73333C206.667 1.73333 205.144 2.23333 204.033 3.23333C202.922 4.21111 202.367 5.51111 202.367 7.13333C202.367 8.33333 202.756 9.27778 203.533 9.96667C204.333 10.6556 205.5 11.2 207.033 11.6L213 13.1667C214.933 13.6556 216.367 14.5 217.3 15.7C218.256 16.8778 218.733 18.6778 218.733 21.1C218.733 23.5667 217.967 25.5 216.433 26.9C214.922 28.3 212.889 29 210.333 29ZM229.868 28.3333V27.6333L233.134 26.3L242.768 1H243.301L252.401 27.1333L255.468 27.6333V28.3333H245.668V27.6333L248.401 27.2L245.568 19.3H236.701L234.001 26.3L237.001 27.6333V28.3333H229.868ZM236.968 18.6H245.334L241.334 6.86667L236.968 18.6ZM285.626 28.6667C284.381 28.6667 283.448 28.3667 282.826 27.7667C282.203 27.1667 281.781 26.1444 281.559 24.7L280.926 20.2333C280.703 18.7222 280.181 17.5444 279.359 16.7C278.559 15.8333 277.303 15.4 275.592 15.4H272.992V27.1333L276.059 27.6333V28.3333H266.259V27.6333L269.326 27.1333V2.86667L266.259 2.4V1.66667H275.592C279.214 1.66667 281.837 2.23333 283.459 3.36667C285.081 4.5 285.892 6.22222 285.892 8.53333C285.892 12.3556 283.581 14.5667 278.959 15.1667V15.3667C280.67 15.6111 282.037 16.2222 283.059 17.2C284.103 18.1778 284.759 19.4778 285.026 21.1L285.459 23.9667C285.637 25.2111 285.837 26.0556 286.059 26.5C286.303 26.9444 286.67 27.1667 287.159 27.1667C287.492 27.1667 287.848 27.0667 288.226 26.8667C288.603 26.6444 288.959 26.3667 289.292 26.0333L289.859 26.6333C289.214 27.3667 288.548 27.8889 287.859 28.2C287.17 28.5111 286.426 28.6667 285.626 28.6667ZM276.726 14.6C278.348 14.6 279.603 14.1111 280.492 13.1333C281.403 12.1333 281.859 10.6667 281.859 8.73333V8.03333C281.859 4.34444 279.77 2.5 275.592 2.5H272.992V14.6H276.726ZM71.4134 58.94H70.4467V56.6667H64.3834V58.94H63.4167V55.7478H64.0911C64.7037 54.7167 65.2271 53.4633 65.6611 51.9878C66.0982 50.5122 66.3408 49.1633 66.3889 47.9411H70.31V55.7478H71.4134V58.94ZM69.2956 55.7478V48.8544H67.3078C67.2367 49.8174 66.9959 50.9752 66.5856 52.3278C66.1759 53.6767 65.6985 54.8167 65.1534 55.7478H69.2956ZM75.2833 47.9411H76.2322V52.7933C76.2322 53.6889 76.2045 54.4985 76.1489 55.2222H76.1967L81.09 47.9411H82.2V56.6667H81.2445V51.8622C81.2445 51.0622 81.2785 50.223 81.3467 49.3444H81.2934L76.3934 56.6667H75.2822L75.2833 47.9411ZM92.0378 49.9822C92.0378 50.5556 91.8545 51.0211 91.4878 51.3789C91.1256 51.7374 90.6245 51.9641 89.9845 52.0589V52.1078C90.7126 52.207 91.2637 52.4356 91.6378 52.7933C92.0156 53.1511 92.2045 53.6185 92.2045 54.1956C92.2045 55.0104 91.9 55.6474 91.2911 56.1067C90.6822 56.5585 89.823 56.7848 88.7134 56.7856C87.6985 56.7856 86.8671 56.6285 86.2189 56.3144V55.3711C86.6004 55.5541 87.0122 55.6956 87.4545 55.7956C87.8751 55.892 88.3051 55.942 88.7367 55.9444C89.5256 55.9444 90.1204 55.7952 90.5211 55.4967C90.9271 55.1989 91.13 54.7693 91.13 54.2078C91.13 53.6744 90.9052 53.2707 90.4556 52.9967C90.0111 52.7226 89.3445 52.5856 88.4556 52.5856H87.1556V51.7311H88.4034C89.2182 51.7311 89.8485 51.5859 90.2945 51.2956C90.7441 51.0007 90.9689 50.5911 90.9689 50.0667C90.9689 49.64 90.8078 49.2996 90.4856 49.0456C90.1634 48.7915 89.73 48.6641 89.1856 48.6633C88.7471 48.6633 88.3508 48.7133 87.9967 48.8133C87.6426 48.9126 87.233 49.1093 86.7678 49.4033L86.2667 48.7233C86.6682 48.4256 87.1174 48.2007 87.6145 48.0489C88.1167 47.8933 88.6359 47.8156 89.1722 47.8156C90.0678 47.8156 90.7682 48.0126 91.2734 48.4067C91.783 48.797 92.0378 49.3222 92.0378 49.9822ZM101.944 56.6667L100.859 53.8911H97.3611L96.2889 56.6667H95.2622L98.7111 47.9056H99.5645L102.997 56.6667H101.944ZM100.542 52.9778L99.5278 50.2756C99.3967 49.9333 99.2615 49.5133 99.1222 49.0156C99.0341 49.3978 98.9089 49.8178 98.7467 50.2756L97.72 52.9789L100.542 52.9778ZM106.59 47.9422H107.539V52.7933C107.539 53.6889 107.511 54.4985 107.456 55.2222H107.503L112.397 47.9411H113.507V56.6667H112.552V51.8622C112.552 51.0622 112.586 50.223 112.653 49.3444H112.6L107.701 56.6667H106.591L106.59 47.9422ZM110.207 47.2433C109.471 47.2433 108.934 47.1022 108.596 46.82C108.257 46.5333 108.068 46.0637 108.029 45.4111H108.959C108.996 45.8252 109.103 46.1137 109.281 46.2767C109.465 46.4396 109.781 46.5211 110.23 46.5211C110.64 46.5211 110.943 46.4337 111.138 46.2589C111.337 46.0833 111.458 45.8007 111.501 45.4111H112.439C112.391 46.04 112.19 46.5037 111.836 46.8022C111.482 47.0963 110.939 47.2433 110.207 47.2433ZM124.909 56.6667H123.894V52.5611H119.299V56.6667H118.284V47.9422H119.299V51.6533H123.894V47.9422H124.909V56.6667ZM134.554 56.6667H129.691V47.9422H134.554V48.8422H130.706V51.6533H134.322V52.5489H130.706V55.76H134.554V56.6667ZM144.41 50.4833C144.41 51.367 144.108 52.0474 143.503 52.5244C142.903 52.9985 142.041 53.2356 140.919 53.2356H139.892V56.6667H138.878V47.9422H141.14C143.32 47.9422 144.41 48.7893 144.41 50.4833ZM139.892 52.3633H140.806C141.705 52.3633 142.355 52.2181 142.757 51.9278C143.159 51.6374 143.36 51.1719 143.36 50.5311C143.36 49.9548 143.171 49.5252 142.793 49.2422C142.414 48.96 141.825 48.8189 141.027 48.8189H139.892V52.3633ZM152.361 48.7233C151.403 48.7233 150.645 49.0437 150.088 49.6844C149.534 50.3215 149.258 51.1948 149.258 52.3044C149.258 53.4452 149.524 54.3285 150.058 54.9544C150.595 55.5744 151.359 55.8844 152.35 55.8844C152.957 55.8844 153.652 55.7752 154.432 55.5567V56.4456C153.827 56.6722 153.081 56.7856 152.194 56.7856C150.909 56.7856 149.917 56.3959 149.217 55.6167C148.52 54.8367 148.172 53.7285 148.172 52.2922C148.172 51.393 148.339 50.6052 148.673 49.9289C148.991 49.2736 149.499 48.7289 150.13 48.3656C150.766 47.9996 151.514 47.8167 152.373 47.8167C153.289 47.8167 154.089 47.9833 154.772 48.3167L154.343 49.1889C153.725 48.8897 153.048 48.7307 152.361 48.7233ZM164.998 56.6667H163.768L159.734 52.2444V56.6667H158.719V47.9422H159.734V52.1667L163.667 47.9411H164.83L160.969 52.1789L164.998 56.6667ZM176.16 52.2922C176.16 53.6885 175.806 54.7867 175.098 55.5867C174.393 56.3867 173.413 56.7867 172.156 56.7867C170.87 56.7867 169.878 56.3944 169.178 55.61C168.482 54.8219 168.133 53.7119 168.133 52.28C168.133 50.86 168.483 49.76 169.183 48.98C169.883 48.1963 170.878 47.8044 172.167 47.8044C173.42 47.8044 174.399 48.2022 175.103 48.9978C175.808 49.7933 176.16 50.8915 176.16 52.2922ZM169.207 52.2922C169.207 53.473 169.457 54.37 169.959 54.9833C170.465 55.5922 171.197 55.8967 172.156 55.8967C173.122 55.8967 173.852 55.5922 174.346 54.9833C174.839 54.3752 175.086 53.4781 175.086 52.2922C175.086 51.1181 174.839 50.2293 174.346 49.6256C173.857 49.0159 173.13 48.7111 172.167 48.7111C171.2 48.7111 170.464 49.0174 169.959 49.63C169.457 50.2389 169.207 51.1263 169.207 52.2922ZM185.359 56.6667H180.494V47.9422H185.359V48.8422H181.509V51.6533H185.126V52.5489H181.509V55.76H185.359V56.6667ZM202.812 52.2922C202.812 53.6885 202.458 54.7867 201.75 55.5867C201.046 56.3867 200.066 56.7867 198.808 56.7867C197.523 56.7867 196.531 56.3944 195.83 55.61C195.134 54.8219 194.786 53.7119 194.786 52.28C194.786 50.86 195.136 49.76 195.837 48.98C196.537 48.1963 197.531 47.8044 198.82 47.8044C200.073 47.8044 201.052 48.2022 201.757 48.9978C202.461 49.7933 202.813 50.8915 202.812 52.2922ZM195.86 52.2922C195.86 53.473 196.111 54.37 196.612 54.9833C197.118 55.5922 197.85 55.8967 198.808 55.8967C199.775 55.8967 200.506 55.5922 200.999 54.9833C201.492 54.3752 201.739 53.4781 201.739 52.2922C201.739 51.1181 201.492 50.2293 200.999 49.6256C200.509 49.0159 199.783 48.7111 198.82 48.7111C197.853 48.7111 197.117 49.0174 196.612 49.63C196.111 50.2389 195.86 51.1263 195.86 52.2922ZM210.883 48.7233C209.925 48.7233 209.167 49.0437 208.61 49.6844C208.057 50.3215 207.78 51.1948 207.78 52.3044C207.78 53.4452 208.047 54.3285 208.58 54.9544C209.117 55.5744 209.881 55.8844 210.871 55.8844C211.48 55.8844 212.174 55.7752 212.954 55.5567V56.4456C212.349 56.6722 211.603 56.7856 210.717 56.7856C209.432 56.7856 208.439 56.3959 207.739 55.6167C207.043 54.8367 206.694 53.7285 206.694 52.2922C206.694 51.393 206.862 50.6052 207.196 49.9289C207.514 49.2741 208.021 48.7296 208.651 48.3656C209.288 47.9996 210.036 47.8167 210.896 47.8167C211.81 47.8167 212.61 47.9833 213.294 48.3167L212.864 49.1889C212.247 48.8885 211.57 48.7294 210.883 48.7233ZM217.241 47.9422H219.707C220.864 47.9422 221.702 48.1152 222.219 48.4611C222.736 48.807 222.994 49.3541 222.994 50.1022C222.994 50.6185 222.849 51.0463 222.559 51.3856C222.272 51.7189 221.853 51.9356 221.3 52.0356V52.0956C222.624 52.3215 223.287 53.0178 223.287 54.1844C223.287 54.9637 223.022 55.5722 222.493 56.01C221.967 56.4478 221.232 56.6667 220.286 56.6667H217.241V47.9422ZM218.256 51.6778H219.927C220.644 51.6778 221.159 51.5663 221.472 51.3433C221.787 51.1167 221.944 50.7367 221.944 50.2033C221.944 49.7144 221.769 49.3626 221.419 49.1478C221.069 48.9285 220.512 48.8189 219.748 48.8189H218.256V51.6778ZM218.256 52.5367V55.8011H220.077C220.78 55.8011 221.309 55.6659 221.663 55.3956C222.022 55.1215 222.201 54.6937 222.201 54.1122C222.201 53.5715 222.018 53.1737 221.652 52.9189C221.29 52.6633 220.737 52.5359 219.992 52.5367H218.256ZM232.414 56.6667H227.55V47.9422H232.414V48.8422H228.564V51.6533H232.181V52.5489H228.564V55.76H232.414V56.6667ZM236.737 56.6667V47.9422H237.751V55.7478H241.231V47.9411H242.257V55.7478H245.742V47.9411H246.757V55.7478H247.783V58.94H246.817V56.6667H236.737ZM256.612 56.6667H251.748V47.9422H256.612V48.8422H252.762V51.6533H256.379V52.5489H252.762V55.76H256.612V56.6667ZM267.559 56.6667H266.544V52.5611H261.95V56.6667H260.934V47.9422H261.95V51.6533H266.544V47.9422H267.559V56.6667ZM272.353 47.9422H273.302V52.7933C273.302 53.6889 273.274 54.4985 273.219 55.2222H273.267L278.16 47.9411H279.27V56.6667H278.316V51.8622C278.316 51.0622 278.349 50.223 278.417 49.3444H278.363L273.463 56.6667H272.353V47.9422ZM288.911 56.6667H284.047V47.9422H288.911V48.8422H285.061V51.6533H288.678V52.5489H285.061V55.76H288.911V56.6667Z" fill="white"/>
<mask id="mask0_295_2648" style="mask-type:luminance" maskUnits="userSpaceOnUse" x="0" y="1" width="54" height="56">
<path d="M0 1.11108H53.3333V56.6666H0V1.11108Z" fill="white"/>
</mask>
<g mask="url(#mask0_295_2648)">
<path d="M23.6944 2.86773L24.57 3.31662L22.54 7.95217L21.6644 7.5044C21 7.16773 20.6844 6.30773 21 5.55995L21.8744 3.54106C21.9454 3.37378 22.0499 3.22278 22.1814 3.09733C22.3129 2.97189 22.4687 2.87465 22.6391 2.8116C22.8095 2.74854 22.9911 2.72099 23.1726 2.73064C23.354 2.7403 23.5316 2.78695 23.6944 2.86773ZM21.0722 43.06H18.3766V48.7044H21.0722V43.06Z" fill="white"/>
<path d="M14.5978 35.0555H12.2178L19.6033 44.8144H21.9478L14.5978 35.0555Z" fill="white"/>
<path d="M14.0722 35.0555H11.7278L19.0778 44.8144H21.4222L14.0722 35.0555ZM27.9667 41.4889L19.2156 31.4689L19.0756 32.4411L26.6711 41.8255L27.9667 41.4889Z" fill="white"/>
<path d="M19.0778 32.4388H17.7478L25.1322 42.2344L26.6722 41.8233L19.0778 32.4388Z" fill="white"/>
<path d="M18.9011 33.3389L12.8455 37.4889C12.2155 37.9366 11.3755 37.75 10.9211 37.1144C10.6055 36.6289 10.5355 36.03 10.7811 35.5066L15.0166 26.6844L16.0655 26.5344L17.7811 27.1322L16.0666 29.0389V31.32L18.9011 31.3944V33.3389Z" fill="white"/>
<path d="M28.6333 22.8333H26.6389L17.5733 32.4422H19.5689L28.6333 22.8333ZM26.7789 15.8044L27.4789 12.5889L15.3689 25.45L16.3845 26.8333L26.7789 15.8044Z" fill="white"/>
<path d="M15.6933 25.6833L15.3556 27.0967L22.3756 29.01L22.7133 27.5978L15.6933 25.6833ZM28.1789 43.4334V40.03H23.1745L20.2689 43.5445V46.6478L28.1789 43.4334ZM12.0778 37.1156C12.58 37.1156 12.9878 36.68 12.9878 36.1433C12.9878 35.6067 12.58 35.1711 12.0767 35.1711C11.5756 35.1711 11.1678 35.6067 11.1678 36.1433C11.1678 36.68 11.5756 37.1156 12.0778 37.1156Z" fill="white"/>
<path d="M15.7845 27.0922C16.2867 27.0922 16.6945 26.6566 16.6945 26.1199C16.6945 25.5833 16.2867 25.1477 15.7833 25.1477C15.28 25.1477 14.8745 25.5833 14.8745 26.1199C14.8745 26.6566 15.2811 27.0922 15.7845 27.0922ZM19.9145 46.0499C20.2811 46.0499 20.5789 45.7311 20.5789 45.3388C20.5789 44.9466 20.2811 44.6288 19.9145 44.6288C19.5478 44.6288 19.2489 44.9466 19.2489 45.3399C19.2489 45.7311 19.5467 46.0499 19.9145 46.0499ZM26.2145 42.7222C26.4656 42.7222 26.67 42.5033 26.67 42.2355C26.67 41.9666 26.4656 41.7488 26.2145 41.7488C25.9633 41.7488 25.7589 41.9666 25.7589 42.2355C25.7589 42.5033 25.9633 42.7222 26.2145 42.7222ZM28.4544 14.2333H26.8778V22.4588H28.4533L28.4544 14.2333Z" fill="white"/>
<path d="M27.5856 23.8044C28.0878 23.8044 28.4956 23.3689 28.4956 22.8322C28.4956 22.2955 28.0878 21.86 27.5844 21.86C27.0833 21.86 26.6756 22.2955 26.6756 22.8322C26.6756 23.3689 27.0833 23.8044 27.5856 23.8044ZM23.5556 56.6689C36.5644 56.6689 47.1111 56.4511 47.1111 56.1822C47.1111 55.9144 36.5644 55.6966 23.5556 55.6966C10.5467 55.6966 0 55.9144 0 56.1822C0 56.4511 10.5467 56.6689 23.5556 56.6689Z" fill="white"/>
<path d="M32.5511 55.3577C32.9011 55.0589 30.8011 54.76 28.4555 54.5355H4.30554V55.8066C8.6811 55.8811 31.7467 56.1066 32.5511 55.3577Z" fill="white"/>
<path d="M28.4555 54.5355C30.8011 54.76 32.8667 55.0222 32.5511 55.3577C31.7467 56.1055 8.6811 55.8444 4.30554 55.8066V56.1811H35.2811V54.5355H28.4555ZM28.9467 53.9C28.9467 52.63 24.9911 51.8066 20.4767 51.2833V50.91L19.7767 50.8722L7.80554 51.6577C6.75554 51.7322 5.91665 52.6666 5.91665 53.7889V54.5366H22.4C25.5155 54.3489 28.9444 54.0877 28.9444 53.9011" fill="white"/>
<path d="M33.6378 53.8244C33.6378 52.7033 32.7978 51.7689 31.7478 51.6944L20.4778 50.9466V51.32C25.0278 51.8433 28.9478 52.6289 28.9478 53.9366C28.9478 54.1244 25.4822 54.3855 22.3678 54.61H33.6033L33.6378 53.8244ZM20.7222 48.3289H18.5167C18.1322 48.3289 17.8167 48.6655 17.8167 49.0766V51.1322H20.3022C20.7911 50.1233 21.0022 49.0766 20.7222 48.3289Z" fill="white"/>
<path d="M22.1556 49.0389H21.8056C21.8056 48.6277 21.49 48.3289 21.1056 48.3289H20.72C20.79 48.5533 20.86 48.8155 20.86 49.04H17.4667V49.7122H20.7911C20.6867 50.1989 20.5467 50.6844 20.3356 51.0955H21.8411V49.7122H22.1911L22.1556 49.0389Z" fill="white"/>
<path d="M45.2222 3.87771C45.1867 3.83993 45.1167 3.80215 45.0822 3.76549C43.9267 3.24215 41.2322 7.27993 39.0967 12.7755C37.0667 17.9344 36.2267 22.5333 37.1022 23.5055C37.156 23.5747 37.2291 23.6265 37.3122 23.6544C38.4678 24.1777 41.1622 20.1399 43.2967 14.6444C45.3267 9.41104 46.1667 4.73771 45.2222 3.87771Z" stroke="white" stroke-miterlimit="10"/>
<path d="M29.3622 12.9622C29.3622 6.75664 34.0522 1.74664 39.8622 1.74664C40.2122 1.74664 40.5622 1.78442 40.8778 1.78442C38.3865 1.14634 35.7657 1.22414 33.3167 2.00886C32.205 2.33799 31.0432 2.46445 29.8867 2.3822C29.3622 2.34442 28.8022 2.34442 28.2767 2.27108C27.4261 2.19519 26.5962 1.96673 25.8267 1.59664C25.4751 1.41344 25.113 1.2513 24.7422 1.11108L24.4978 1.2222C24.3222 1.59664 23.7267 2.79331 23.2367 3.80331C22.7504 4.84762 22.3296 5.92118 21.9767 7.01775C21.6622 8.10219 21.2767 9.33553 21.1722 9.74775L21.3122 10.0089C21.6622 10.1589 22.0122 10.3455 22.3967 10.4944C23.1981 10.8197 23.9335 11.2885 24.5667 11.8777C24.9867 12.2522 25.3722 12.6255 25.7922 13C26.6667 13.8222 27.3667 14.7944 27.9622 15.8777C29.2922 18.5333 31.3222 20.7011 33.8067 22.1222C31.0067 19.9911 29.3622 16.5889 29.3622 12.9622Z" fill="white"/>
<path d="M37.1011 23.5055C36.2611 22.5333 37.1011 17.9344 39.0967 12.7755C41.2311 7.27999 43.9267 3.24221 45.0811 3.76444C45.1511 3.80221 45.1867 3.83999 45.2211 3.87777V3.83999C44.1711 2.90555 42.9467 2.45666 41.7211 2.08333C41.5811 2.04555 41.3011 1.93333 40.8811 1.8211C40.5311 1.78333 40.2167 1.78333 39.8667 1.78333C34.0556 1.78333 29.3667 6.8311 29.4011 13.0367C29.4011 16.6255 31.0456 19.9911 33.7767 22.0844L33.9167 22.1589C34.8897 22.7934 35.9681 23.2494 37.1011 23.5055Z" fill="white"/>
<path d="M43.7144 14.7588C45.0444 11.0199 42.3189 8.71325 41.5844 8.37659C40.6433 10.2077 40.6044 10.2955 39.5455 12.8277C38.4955 15.4066 38.3067 16.311 37.8867 17.8444C38.6211 18.181 42.3144 18.6466 43.7144 14.7588Z" fill="white"/>
</g>
</svg>
