<svg width="115" height="115" viewBox="0 0 115 115" fill="none" xmlns="http://www.w3.org/2000/svg">
<g clip-path="url(#clip0_241_2914)">
<circle cx="57.0049" cy="57.1445" r="56.5" stroke="#CFA567"/>
<path d="M43.2848 34.965C43.2365 35.7033 43.2834 36.478 43.2841 37.2197L43.2851 66.6049C43.2818 67.1608 43.1259 68.2085 43.6671 68.5552C44.6512 69.1853 48.2798 68.1057 48.3974 69.2716C48.444 69.7335 48.189 70.0348 47.7566 70.0465C46.8593 70.0706 44.2587 70.1615 43.511 69.9669C42.0224 69.5793 42.0236 68.1747 42.0224 66.9283L42.005 35.1844C41.9905 33.016 44.1609 33.2209 45.6038 33.2261C46.2378 33.2471 46.8051 33.2778 47.4094 33.5097C48.9733 34.11 49.5691 34.853 51.3292 33.7867C52.3387 33.1752 53.9151 33.0031 55.0236 33.3795C55.8155 33.6485 56.3982 34.2341 57.2622 34.2839C59.0411 34.3865 60.2968 32.5155 62.8816 33.3677C63.9494 33.7198 64.2439 34.3542 65.5283 34.2799C66.633 34.2159 67.1489 33.4331 68.2105 33.2661C68.7569 33.1802 70.9506 33.1698 71.4644 33.2783C73.1281 33.6299 72.9869 35.2049 72.9856 36.5777L72.9855 66.016C72.9855 67.3845 73.3007 69.9045 71.389 70.0679C70.1901 70.1703 68.7631 70.0083 67.4792 70.0855C66.4481 70.1476 66.3474 69.0203 66.9911 68.7907C67.3326 68.6689 69.807 68.7447 70.3381 68.7447C71.1014 68.7447 71.7114 68.7533 71.7261 67.7648C71.7574 65.6592 71.7253 63.5471 71.7255 61.4408L71.7257 40.1452C71.7256 39.4435 71.9021 35.1702 71.5388 34.8028C71.1941 34.4541 69.9786 34.5853 69.4783 34.5892C68.5608 34.5616 68.2073 34.558 67.4002 35.0507C66.1759 35.7983 64.5733 35.8579 63.3366 35.1003C61.6895 34.0913 60.8019 34.478 59.2794 35.2441C56.7138 36.5352 55.8119 34.7386 54.2304 34.5969C51.5987 34.3609 50.5786 36.6816 47.6641 35.1263C46.4199 34.4624 45.1881 34.4319 43.7901 34.6235C43.522 34.6603 43.4479 34.74 43.2848 34.965Z" fill="#CFA567"/>
<path d="M67.2447 42.7117L50.0596 42.7129C49.3226 42.713 48.5671 42.7481 47.8323 42.7047C46.9165 42.6507 46.9857 41.468 47.8386 41.3924C49.1231 41.3733 50.4102 41.392 51.6949 41.392L64.3108 41.3919C64.8356 41.3918 67.1998 41.2689 67.5426 41.489C68.0828 41.8359 67.824 42.6263 67.2447 42.7117Z" fill="#CFA567"/>
<path d="M66.8005 46.7913L49.9223 46.7928C49.4372 46.7932 47.7505 46.9593 47.4135 46.6126C46.7529 45.9331 47.5784 45.502 48.3126 45.5057L65.0417 45.5054C65.5387 45.5051 67.2161 45.3401 67.5752 45.6716C68.2047 46.2526 67.6094 46.7936 66.8005 46.7913Z" fill="#CFA567"/>
<path d="M55.1004 51.9218C55.6079 51.261 56.683 49.6781 57.5053 49.5706C58.2047 49.5596 59.5904 51.3032 60.0642 51.9218C60.6878 51.6951 62.3976 51.1003 63.0335 51.4364C63.7754 51.8284 63.575 53.9913 63.8729 54.8792C64.5392 55.292 66.4726 55.857 66.7126 56.6448C66.9853 57.5399 65.673 58.8421 65.3154 59.631L65.2944 59.6783C65.6462 60.5619 66.9494 62.1586 66.585 63.0304C66.2817 63.7559 64.4167 64.2762 63.7378 64.5545C63.7201 65.8046 63.8032 65.9882 64.2073 67.1692L67.0712 75.7001C67.3721 76.5973 68.5139 78.5772 67.2711 78.9151C66.0146 78.5204 64.6818 77.5014 63.476 77.2424C63.0738 77.8437 61.6544 80.7777 61.291 80.9487C60.353 81.3902 59.9882 79.3409 59.7559 78.6834C59.0146 76.5847 58.3964 74.4313 57.6069 72.3524L57.5053 72.0859C56.9966 73.7712 56.3709 75.4329 55.8074 77.0993L55.059 79.3346C54.8837 79.8583 54.6311 81.269 53.8601 81.0257C53.4145 80.8852 51.8445 77.9159 51.4908 77.2424C50.8046 77.5428 48.1018 78.896 47.6685 78.9145C46.8426 78.9498 47.2676 77.7474 47.3928 77.3744L50.3337 68.8118C50.9994 66.8622 51.2908 66.5942 51.3357 64.5545C50.8372 64.3735 49.3248 63.7225 48.9255 63.4391C47.7417 62.5993 49.2324 60.6602 49.7846 59.7628C49.3728 58.8816 48.0126 56.9853 48.8837 56.211C49.3794 55.7704 50.5928 55.2111 51.2278 54.8792C51.3271 53.8967 51.2641 51.4716 52.4816 51.4285C53.0597 51.408 54.4512 51.793 55.1004 51.9218ZM57.5053 51.0406C55.1099 54.082 56.0312 53.3929 52.6928 52.8055C52.7189 56.1047 52.4728 55.8414 49.8675 57.0941C50.1884 57.7655 50.9408 58.9376 51.1469 59.56C51.3378 60.1366 50.0764 61.692 49.7846 62.4029C50.407 62.7402 52.3715 63.3897 52.5338 63.9674C52.6376 64.3373 52.6765 66.1709 52.6928 66.7348C53.3349 66.6098 55.2439 65.8903 55.6893 66.2097C56.0717 66.4841 56.8637 67.6714 57.2096 68.1162C57.267 68.19 57.5147 68.6157 57.6069 68.4648C59.286 65.9068 59.4486 65.6467 62.3998 66.7348L62.453 64.9738C62.5105 62.6996 63.3298 63.4991 65.2944 62.5055C64.931 61.6814 64.1018 60.4238 63.8729 59.6783C64.0411 58.9003 64.9481 57.7842 65.3953 57.0941C64.7874 56.772 62.7567 56.0928 62.6042 55.5833C62.5159 55.2876 62.3285 53.1777 62.3335 52.8055C61.7996 52.8541 60.0593 53.327 59.7757 53.2995C59.1684 53.2406 58.0384 51.5163 57.5053 51.0406ZM59.9382 67.5663C59.3137 68.2674 58.8349 69.2057 58.114 69.7935L60.0288 75.3962C60.4007 76.4999 60.7373 77.6146 61.1564 78.7005C61.5197 78.1016 62.3989 76.1784 62.7652 75.7971C63.31 75.4596 63.9864 75.9149 64.4907 76.1525L66.0724 76.9079C65.703 75.5507 65.189 74.2282 64.7477 72.8943L63.6921 69.769C63.4857 69.1746 63.2933 68.5648 63.0383 67.9913C61.9308 68.0994 61.0103 67.661 59.9382 67.5663ZM55.1004 67.5663C54.0991 67.7457 52.9769 68.3664 51.9787 67.9913C51.6744 69.0061 51.3152 70.0027 50.9677 71.0015L49.8802 74.1413C49.5589 75.0522 49.1879 75.9735 48.9362 76.9079C49.7507 76.6566 51.6297 75.3444 52.2138 75.9296C52.7555 76.7637 53.412 77.9298 53.8902 78.8063C54.1015 78.0895 54.3571 77.3939 54.5918 76.6859L56.4731 71.0191C56.6084 70.6121 56.7308 70.1891 56.8926 69.7935C56.712 69.575 55.1373 67.5751 55.1004 67.5663Z" fill="#CFA567"/>
<path d="M57.6511 62.9487C55.5924 63.0643 53.8314 61.4863 53.7212 59.4275C53.6111 57.3686 55.1938 55.6117 57.253 55.5071C59.3044 55.4028 61.0533 56.9784 61.1629 59.0294C61.2727 61.0805 59.7018 62.8336 57.6511 62.9487ZM57.2094 56.534C55.7182 56.6582 54.6115 57.9701 54.7404 59.461C54.8693 60.9518 56.1847 62.0544 57.6751 61.9209C59.159 61.788 60.2557 60.4797 60.1274 58.9953C59.9991 57.511 58.6942 56.4102 57.2094 56.534Z" fill="#CFA567"/>
<path d="M14.9957 44.8479C15.8661 44.9694 16.6274 45.1906 17.2793 45.5117C17.9313 45.8328 18.463 46.2389 18.8743 46.7302C19.2856 47.2215 19.5747 47.7877 19.7415 48.4289C19.9029 49.0628 19.9304 49.7601 19.8242 50.521C19.7252 51.2302 19.5118 51.8644 19.184 52.4234C18.8506 52.975 18.4185 53.434 17.8875 53.8003C17.3574 54.1602 16.7339 54.4117 16.0172 54.5549C15.3013 54.6916 14.5081 54.6993 13.6376 54.5778C12.477 54.4158 11.5179 54.0814 10.7604 53.5747C9.99641 53.0671 9.45248 52.4193 9.12861 51.6313C8.79919 50.8359 8.70513 49.9321 8.84643 48.9197C8.98142 47.9525 9.31532 47.138 9.84812 46.4762C10.3818 45.8078 11.086 45.3309 11.9607 45.0455C12.8298 44.7526 13.8415 44.6868 14.9957 44.8479ZM13.8698 52.9142C14.721 53.033 15.475 53.0232 16.1319 52.8848C16.7889 52.7464 17.3211 52.4658 17.7285 52.0428C18.1359 51.6198 18.3914 51.0375 18.4949 50.296C18.5975 49.5609 18.5108 48.9342 18.2347 48.4158C17.9596 47.891 17.525 47.472 16.9311 47.1591C16.3371 46.8461 15.6146 46.6302 14.7635 46.5114C13.9188 46.3935 13.1744 46.4047 12.5304 46.5449C11.8799 46.6841 11.3542 46.9657 10.9532 47.3896C10.5522 47.8135 10.2995 48.3995 10.1951 49.1474C10.0412 50.25 10.2926 51.1101 10.9492 51.7276C11.6067 52.3387 12.5802 52.7342 13.8698 52.9142Z" fill="#CFA567"/>
<path d="M9.58433 31.8355L13.4913 33.7158C14.0337 32.7991 14.6839 32.0861 15.442 31.5767C16.1943 31.0645 17.0199 30.7827 17.9189 30.7313C18.8179 30.6799 19.7573 30.8899 20.7369 31.3614C21.699 31.8245 22.4462 32.4189 22.9783 33.1446C23.5133 33.8645 23.8183 34.6796 23.8932 35.5899C23.9709 36.4943 23.8122 37.462 23.4172 38.4929L27.6058 40.5088L26.9197 41.9343L22.7311 39.9185C22.2005 40.8408 21.5591 41.5581 20.8068 42.0703C20.0515 42.5738 19.2214 42.8498 18.3166 42.8984C17.4117 42.947 16.4694 42.7356 15.4898 42.2641C14.5101 41.7926 13.7557 41.1983 13.2265 40.4812C12.6943 39.7554 12.3937 38.9388 12.3247 38.0314C12.2498 37.1211 12.4171 36.1431 12.8264 35.0974L8.91943 33.217L9.58433 31.8355ZM14.0408 35.6818C13.7467 36.4579 13.6394 37.1613 13.7188 37.7919C13.7982 38.4226 14.0484 38.9837 14.4693 39.4753C14.893 39.961 15.4774 40.3832 16.2224 40.7417C16.9674 41.1003 17.6663 41.2921 18.3189 41.3172C18.9657 41.3395 19.5603 41.1849 20.1027 40.8535C20.6452 40.5221 21.1294 40.0038 21.5556 39.2985L14.0408 35.6818ZM14.7233 34.3087L22.2205 37.917C22.5 37.1411 22.5956 36.4394 22.5076 35.8117C22.4223 35.1782 22.1678 34.6186 21.7441 34.1329C21.3232 33.6413 20.7461 33.2191 20.0128 32.8661C18.8982 32.3297 17.8985 32.1774 17.0139 32.4091C16.1234 32.638 15.3599 33.2712 14.7233 34.3087Z" fill="#CFA567"/>
<path d="M19.7153 24.2142L24.6094 28.8317C24.7041 28.9211 24.825 29.0396 24.972 29.1873C25.1144 29.3306 25.2663 29.4873 25.4279 29.6577C25.5847 29.8235 25.7367 29.9849 25.8841 30.1418C26.0311 30.2895 26.1499 30.415 26.2404 30.5183L23.6493 20.0447L25.0164 18.5957L32.8014 25.9408L31.7627 27.0418L26.9894 22.5382C26.8378 22.3952 26.6459 22.2097 26.4136 21.9816C26.1813 21.7534 25.956 21.5274 25.7376 21.3035C25.5145 21.0751 25.3413 20.8982 25.2179 20.7728L27.8153 31.2255L26.4415 32.6816L18.6565 25.3365L19.7153 24.2142Z" fill="#CFA567"/>
<path d="M44.9536 22.8061L43.5886 23.6058L41.7178 20.4122L34.092 24.8793L28.6821 15.644L30.0893 14.8197L34.8032 22.8669L39.6989 19.999L34.985 11.9519L36.3838 11.1325L41.1075 19.1965L42.3968 18.4413L44.9536 22.8061Z" fill="#CFA567"/>
<path d="M42.5336 8.79026L44.145 15.323C44.1762 15.4494 44.2136 15.6145 44.2572 15.8183C44.2992 16.0158 44.3419 16.2299 44.3854 16.4606C44.4274 16.6849 44.4677 16.903 44.5066 17.1147C44.5501 17.3185 44.582 17.4884 44.6021 17.6242L48.0991 7.41735L50.0334 6.94022L52.5967 17.3318L51.1271 17.6944L49.5554 11.3229C49.5055 11.1206 49.4448 10.8607 49.3731 10.543C49.3015 10.2254 49.2345 9.91338 49.1723 9.60685C49.1086 9.29401 49.0588 9.05147 49.023 8.87925L45.5426 19.072L43.5989 19.5514L41.0355 9.1598L42.5336 8.79026Z" fill="#CFA567"/>
<path d="M58.8609 6.45801C60.1362 6.50233 61.0729 6.82151 61.6711 7.41556C62.2693 8.00961 62.5466 8.93451 62.503 10.1903L62.2503 17.4613L61.0694 17.4202L60.812 15.8283L60.734 15.8256C60.4211 16.2056 60.0974 16.5233 59.7628 16.7788C59.4284 17.0277 59.0441 17.213 58.61 17.3348C58.1825 17.4502 57.6597 17.4972 57.0416 17.4757C56.391 17.4531 55.8158 17.3191 55.3163 17.0737C54.8232 16.8286 54.4383 16.47 54.1615 15.9978C53.8913 15.5259 53.7685 14.9354 53.7931 14.2262C53.8302 13.1591 54.2816 12.354 55.1474 11.8108C56.0131 11.2676 57.3122 11.0001 59.0448 11.0082L60.8921 10.9942L60.9148 10.3403C60.9469 9.41635 60.771 8.76206 60.3869 8.3774C60.0029 7.99274 59.4498 7.78786 58.7276 7.76276C58.168 7.74332 57.6317 7.80611 57.1185 7.95114C56.6054 8.09616 56.1172 8.27137 55.6541 8.47677L55.1991 7.22974C55.6891 6.99923 56.2495 6.80699 56.8803 6.65302C57.511 6.49905 58.1712 6.43404 58.8609 6.45801ZM60.8329 12.1354L59.2006 12.1471C57.865 12.1528 56.9172 12.3381 56.3573 12.703C55.7975 13.0678 55.5053 13.6016 55.4809 14.3043C55.4596 14.916 55.6294 15.3746 55.9901 15.6803C56.3507 15.986 56.8369 16.1494 57.4485 16.1707C58.3985 16.2037 59.1851 15.9672 59.8086 15.4612C60.432 14.9552 60.762 14.1752 60.7986 13.1211L60.8329 12.1354Z" fill="#CFA567"/>
<path d="M72.1866 20.1143L70.6093 19.6286L73.3596 10.6968L70.2517 9.73978C69.631 11.313 69.047 12.6454 68.4997 13.7371C67.9605 14.8245 67.4357 15.6881 66.9253 16.328C66.423 16.9635 65.917 17.3902 65.4072 17.6078C64.9055 17.8212 64.3778 17.8426 63.824 17.6721C63.656 17.6204 63.5002 17.5622 63.3567 17.4975C63.2131 17.4329 63.0951 17.3625 63.0027 17.2864L63.3649 16.1104C63.4381 16.1602 63.5163 16.2047 63.5996 16.244C63.6891 16.2852 63.7836 16.3211 63.8832 16.3518C64.1632 16.438 64.4537 16.4014 64.7548 16.2421C65.0641 16.0785 65.3849 15.7889 65.7171 15.3735C66.0556 14.9601 66.4107 14.4154 66.7823 13.7396C67.1557 13.0576 67.5499 12.2423 67.9646 11.2937C68.3874 10.3408 68.835 9.25245 69.3072 8.02862L75.3364 9.88519L72.1866 20.1143Z" fill="#CFA567"/>
<path d="M78.7737 16.4669L81.5485 18.2182C82.3193 18.7046 82.8999 19.2058 83.2903 19.7216C83.6807 20.2375 83.8827 20.7653 83.8962 21.305C83.9152 21.8482 83.7475 22.4006 83.393 22.9622C83.0386 23.5237 82.6045 23.9311 82.0906 24.1841C81.5823 24.4407 80.9953 24.5168 80.3298 24.4124C79.6698 24.3115 78.9297 24.0022 78.1093 23.4845L74.0379 20.9149L79.7504 11.8637L81.1295 12.7341L78.7737 16.4669ZM81.9722 22.1578C82.3231 21.6017 82.3682 21.0913 82.1073 20.6264C81.8554 20.1594 81.377 19.7036 80.6723 19.2588L78.0544 17.6066L76.1207 20.6705L78.7469 22.3279C79.4076 22.7449 80.0208 22.9625 80.5866 22.9809C81.1559 22.9937 81.6178 22.7194 81.9722 22.1578Z" fill="#CFA567"/>
<path d="M91.4267 20.4002L88.0928 23.4111L92.092 27.8393L95.4259 24.8285L96.5124 26.0316L88.5691 33.2052L87.4825 32.0021L91.0701 28.7622L87.0709 24.3339L83.4834 27.5738L82.3903 26.3635L90.3337 19.1899L91.4267 20.4002Z" fill="#CFA567"/>
<path d="M101.054 33.4373C101.62 34.5808 101.784 35.5569 101.545 36.3653C101.306 37.1738 100.623 37.8568 99.4971 38.4143L92.977 41.6422L92.4527 40.5832L93.7318 39.6012L93.6972 39.5312C93.2142 39.4361 92.7809 39.3019 92.3973 39.1286C92.0195 38.9524 91.674 38.7021 91.3608 38.3777C91.0564 38.0562 90.767 37.6184 90.4926 37.0641C90.2037 36.4806 90.0488 35.9108 90.0277 35.3546C90.0095 34.8042 90.1425 34.2952 90.4268 33.8276C90.7139 33.3658 91.1755 32.9775 91.8115 32.6626C92.7683 32.1889 93.6912 32.2042 94.5802 32.7085C95.4691 33.2128 96.3211 34.2294 97.1361 35.7583L98.025 37.3777L98.6114 37.0875C99.4399 36.6773 99.9323 36.2119 100.089 35.6914C100.245 35.1708 100.163 34.5867 99.8423 33.9391C99.5939 33.4373 99.2841 32.995 98.913 32.6121C98.5418 32.2292 98.1559 31.8827 97.7554 31.5725L98.6371 30.5802C99.0726 30.9022 99.5077 31.3043 99.9426 31.7864C100.377 32.2685 100.748 32.8188 101.054 33.4373ZM96.9924 37.8672L96.2076 36.4359C95.5687 35.263 94.9559 34.5166 94.369 34.197C93.7821 33.8773 93.1736 33.8734 92.5435 34.1854C91.9951 34.4569 91.6719 34.8239 91.574 35.2865C91.4761 35.749 91.5629 36.2545 91.8344 36.803C92.2561 37.6548 92.8376 38.2351 93.5788 38.5437C94.32 38.8524 95.1632 38.7727 96.1084 38.3048L96.9924 37.8672Z" fill="#CFA567"/>
<path d="M93.9102 44.3002L93.5482 42.4406L98.5665 44.6075C98.5765 44.1479 98.6598 43.7071 98.8165 43.2853C98.9795 42.8622 99.2425 42.4927 99.6055 42.1766C99.9696 41.8669 100.455 41.653 101.062 41.5348C102.072 41.3382 102.904 41.5244 103.559 42.0933C104.221 42.6674 104.66 43.5073 104.875 44.6128L105.78 49.2618L95.2745 51.3073L94.9647 49.7161L99.1824 48.8949L98.6636 46.2301L93.9102 44.3002ZM101.353 43.0799C100.727 43.2018 100.304 43.5163 100.084 44.0234C99.8712 44.5292 99.8454 45.1975 100.007 46.0282L100.515 48.6355L104.138 47.9301L103.576 45.0448C103.417 44.2268 103.136 43.668 102.733 43.3685C102.337 43.0741 101.877 42.9779 101.353 43.0799Z" fill="#CFA567"/>
<path d="M27.3165 82.2192L26.2586 83.1006L23.1456 79.3642L15.9804 85.3339L14.9365 84.081L23.1596 77.2298L27.3165 82.2192Z" fill="#CFA567"/>
<path d="M31.902 85.7896C32.9227 86.5554 33.5086 87.353 33.6595 88.1825C33.8104 89.0119 33.5088 89.9292 32.7547 90.9343L28.3885 96.7539L27.4433 96.0448L28.1428 94.5917L28.0803 94.5449C27.6063 94.6776 27.159 94.753 26.7385 94.7712C26.3218 94.7842 25.9006 94.7164 25.4748 94.5679C25.0582 94.4181 24.6025 94.1576 24.1078 93.7864C23.587 93.3957 23.1919 92.9568 22.9224 92.4698C22.6582 91.9867 22.5476 91.4724 22.5907 90.9268C22.6389 90.3851 22.876 89.8305 23.3019 89.2628C23.9426 88.4088 24.7734 88.0066 25.7942 88.0562C26.8151 88.1059 28.0337 88.6295 29.4502 89.6271L30.9735 90.6723L31.3662 90.1489C31.921 89.4094 32.1509 88.7721 32.0559 88.2369C31.961 87.7017 31.6245 87.2173 31.0464 86.7836C30.5985 86.4476 30.1227 86.1923 29.6188 86.0178C29.1149 85.8432 28.6143 85.7077 28.1169 85.6113L28.457 84.3281C28.9908 84.4194 29.5604 84.5822 30.1659 84.8167C30.7713 85.0512 31.35 85.3755 31.902 85.7896ZM30.2722 91.5745L28.9266 90.6505C27.8278 89.8912 26.9444 89.5011 26.2764 89.4801C25.6085 89.4592 25.0635 89.7299 24.6415 90.2924C24.2743 90.7819 24.1512 91.2552 24.2722 91.7122C24.3932 92.1693 24.6985 92.5814 25.188 92.9487C25.9483 93.5191 26.7289 93.7751 27.5297 93.7167C28.3305 93.6582 29.0473 93.2071 29.6803 92.3635L30.2722 91.5745Z" fill="#CFA567"/>
<path d="M42.44 91.6079C43.6847 92.0896 44.5117 92.9018 44.9212 94.0446C45.3306 95.1874 45.2028 96.6179 44.5378 98.3361C44.0984 99.4715 43.5595 100.359 42.9211 100.998C42.2827 101.638 41.5774 102.035 40.8054 102.19C40.0394 102.348 39.2375 102.264 38.3996 101.94C37.8714 101.735 37.434 101.486 37.0873 101.191C36.7406 100.896 36.4704 100.575 36.2767 100.228C36.0829 99.8809 35.946 99.5312 35.8659 99.1791L35.7566 99.1368C35.6832 99.3806 35.594 99.6742 35.489 100.018C35.3902 100.363 35.2926 100.661 35.1962 100.91L33.6101 105.008L32.0892 104.419L37.6792 89.9749L38.9269 90.4578L38.5563 92.0107L38.6292 92.0389C38.9409 91.8105 39.2847 91.6259 39.6603 91.485C40.0383 91.3381 40.4558 91.2693 40.9129 91.2787C41.3785 91.2844 41.8875 91.3941 42.44 91.6079ZM41.6825 92.7807C40.9903 92.5129 40.38 92.4303 39.8516 92.5329C39.3293 92.638 38.8676 92.92 38.4665 93.3791C38.0678 93.8322 37.7073 94.4571 37.385 95.2538L37.2722 95.5452C36.9456 96.3892 36.7606 97.1379 36.7171 97.7912C36.6798 98.4469 36.8149 99.0088 37.1224 99.4769C37.436 99.9473 37.9541 100.322 38.6766 100.602C39.2959 100.842 39.8766 100.874 40.4187 100.7C40.9608 100.526 41.4472 100.18 41.8778 99.6628C42.3168 99.1416 42.6868 98.4924 42.9875 97.7152C43.4434 96.5373 43.5745 95.513 43.3809 94.6423C43.1958 93.7678 42.6296 93.1473 41.6825 92.7807Z" fill="#CFA567"/>
<path d="M53.1725 94.1606C54.4427 94.2833 55.358 94.6594 55.9186 95.2892C56.4791 95.9189 56.699 96.8591 56.5782 98.1098L55.8789 105.351L54.7027 105.238L54.5437 103.633L54.466 103.626C54.1303 103.986 53.7877 104.283 53.438 104.517C53.089 104.745 52.694 104.907 52.2532 105.001C51.8195 105.09 51.2948 105.105 50.6791 105.046C50.0311 104.983 49.4653 104.814 48.9818 104.538C48.5047 104.263 48.1426 103.882 47.8954 103.393C47.6547 102.906 47.5684 102.309 47.6367 101.602C47.7393 100.54 48.2394 99.7638 49.1369 99.2749C50.0344 98.786 51.3475 98.5988 53.0763 98.7134L54.9209 98.8131L54.9838 98.1618C55.0727 97.2416 54.9373 96.5778 54.5777 96.1702C54.2181 95.7627 53.6786 95.5242 52.9593 95.4547C52.402 95.4009 51.8628 95.4306 51.3417 95.5438C50.8206 95.6569 50.3226 95.8018 49.8477 95.9783L49.4702 94.7057C49.9735 94.5057 50.5447 94.3483 51.1837 94.2334C51.8227 94.1185 52.4856 94.0943 53.1725 94.1606ZM54.7917 99.9485L53.1618 99.8598C51.8283 99.7833 50.871 99.91 50.2897 100.24C49.7084 100.57 49.384 101.084 49.3164 101.784C49.2576 102.393 49.3988 102.862 49.74 103.189C50.0812 103.516 50.5564 103.709 51.1655 103.768C52.1116 103.859 52.9114 103.672 53.5647 103.205C54.2181 102.738 54.5955 101.98 54.6968 100.93L54.7917 99.9485Z" fill="#CFA567"/>
<path d="M61.9199 94.4313L62.7217 98.8514L68.5927 97.7864L67.7909 93.3663L69.386 93.077L71.2963 103.608L69.7012 103.898L68.8384 99.1413L62.9675 100.206L63.8302 104.963L62.2256 105.254L60.3152 94.7224L61.9199 94.4313Z" fill="#CFA567"/>
<path d="M79.4033 90.2065L76.2029 91.6849L80.1138 100.151L78.6599 100.823L74.749 92.3565L71.5928 93.8144L71.0154 92.5643L78.8259 88.9565L79.4033 90.2065Z" fill="#CFA567"/>
<path d="M81.8462 86.9142L86.1132 92.1166C86.1958 92.2173 86.3006 92.3502 86.4277 92.5154C86.5507 92.6756 86.6814 92.8504 86.82 93.0399C86.9544 93.2243 87.0847 93.4038 87.2109 93.5781C87.338 93.7433 87.4399 93.8829 87.5165 93.9969L86.2784 83.2788L87.8187 82.0154L94.6064 90.291L93.436 91.2509L89.2743 86.1769C89.1421 86.0158 88.9754 85.8073 88.774 85.5515C88.5726 85.2957 88.3778 85.0428 88.1897 84.793C87.9975 84.538 87.8481 84.3406 87.7417 84.2005L88.9887 94.8987L87.4408 96.1682L80.6531 87.8927L81.8462 86.9142Z" fill="#CFA567"/>
<path d="M98.8385 85.5355L97.7592 87.0926L95.8091 81.9862C95.4729 82.2998 95.0991 82.5476 94.6876 82.7298C94.2709 82.9083 93.8226 82.9779 93.3429 82.9385C92.867 82.8937 92.3748 82.6952 91.8665 82.3429C91.0211 81.7569 90.5737 81.031 90.5243 80.165C90.4733 79.29 90.7687 78.3897 91.4103 77.464L94.1083 73.5713L102.905 79.6684L101.982 81.0007L98.4501 78.553L96.9035 80.7843L98.8385 85.5355ZM92.7702 81.0562C93.2946 81.4197 93.815 81.5032 94.3314 81.3066C94.8425 81.1064 95.3391 80.6584 95.8213 79.9628L97.3344 77.7797L94.3005 75.6769L92.626 78.0928C92.1513 78.7777 91.9474 79.369 92.0142 79.8669C92.0794 80.3557 92.3314 80.7521 92.7702 81.0562Z" fill="#CFA567"/>
</g>
<defs>
<clipPath id="clip0_241_2914">
<rect width="115" height="115" fill="white"/>
</clipPath>
</defs>
</svg>
