<svg width="115" height="115" viewBox="0 0 115 115" fill="none" xmlns="http://www.w3.org/2000/svg">
<g clip-path="url(#clip0_241_2913)">
<circle cx="57.1982" cy="57.1444" r="56.5" stroke="#CFA567"/>
<path d="M46.5011 64.3402C45.6771 64.2305 44.3529 64.1602 43.7042 63.6038C42.439 62.5188 43.5607 60.4503 42.9981 59.4761C42.6817 58.9282 41.6339 58.2832 41.1228 57.8679C39.0209 56.16 41.4847 54.3236 41.3526 52.9072C41.2625 51.942 40.31 50.7174 40.2086 49.6754C40.0159 47.6979 42.5773 47.5081 43.0363 46.1838C43.4274 45.0553 42.6757 43.4742 43.6266 42.3306C44.5134 41.2641 46.3964 41.7895 47.3091 40.9397C48.0563 40.2439 48.1535 38.9624 48.8103 38.17C50.1768 36.5212 52.13 38.6437 53.491 38.1137C54.6141 37.6763 55.1661 36.2823 56.5812 36.1476C58.0211 36.0573 58.907 37.903 60.0327 38.1647C61.1772 38.4309 62.7736 36.9852 64.1161 37.7487C65.3705 38.4622 65.3253 40.551 66.2951 41.1767C67.0148 41.6411 68.4347 41.6028 69.2907 42.0251C71.2876 43.0101 69.7985 45.3951 70.4931 46.3879C71.2009 47.3995 72.9293 47.8792 73.1707 49.2725C73.4176 50.6978 71.9208 51.9249 72.091 53.1664C72.1781 53.8015 72.819 54.908 73.0504 55.6034C73.8577 58.0297 70.9048 58.2789 70.3989 59.5638C70.0219 60.5212 70.5344 61.9795 70.0198 63.0031C69.4256 64.1846 68.032 63.9923 66.9601 64.3402L70.2865 73.386C70.487 73.9295 71.3343 75.488 70.6219 75.8814C70.2338 76.0954 65.9847 74.624 65.2734 74.3937C64.9431 74.9708 62.5628 78.751 62.1565 78.9157C61.4392 79.2067 61.1428 77.8091 60.9886 77.3721L58.0118 69.0042C57.7412 69.1731 57.4765 69.3076 57.1747 69.4121C56.4486 69.5076 55.9846 69.3071 55.3387 69.0042C54.9777 69.7885 54.7548 70.673 54.4744 71.4908L52.7277 76.5266C52.5229 77.1127 52.1546 79.0802 51.348 78.915C50.8992 78.8232 50.2968 77.5737 50.0621 77.2094L48.2783 74.4878C46.8057 74.9269 44.9141 75.5039 43.4184 75.8216C42.0262 76.1173 42.6432 74.746 42.9032 74.0336L43.5231 72.3489C44.4774 69.7435 45.6798 66.9526 46.5011 64.3402ZM56.5812 37.387C55.5974 37.8803 54.986 38.924 53.914 39.3235C52.5659 39.8258 50.5915 38.5876 49.9766 38.8288C49.5726 38.9872 49.0819 40.4492 48.8623 40.8773C47.6533 43.2332 45.895 42.3141 44.5969 43.1153C44.0116 44.1045 44.7575 45.9508 43.9482 47.1561C43.3549 48.0398 41.809 48.7271 41.5004 49.2559C41.1817 49.802 42.498 51.7442 42.5869 52.7762C42.6918 53.9934 41.4041 55.8713 41.5121 56.41C41.6188 56.9419 43.766 57.9737 44.2245 59.1731C44.4661 59.8052 44.363 60.9788 44.3523 61.6813C44.3375 62.6583 44.3827 62.7438 45.4027 62.9061C46.2667 63.0435 47.3688 63.1099 48.0827 63.6736C48.9131 64.3291 49.5349 66.5421 50.0294 66.7935C50.7154 67.1425 52.7238 65.7476 54.1192 66.3533C55.0178 66.7435 55.9986 68.2078 56.9044 68.1545C57.8497 67.6842 58.4598 66.6449 59.4797 66.2869C60.8114 65.8194 62.7028 67.0572 63.3681 66.7669C64.0934 66.4503 64.4742 64.2319 65.5535 63.5075C67.2627 62.3603 69.0432 63.7908 69.0335 61.4475C69.0233 58.9974 69.0898 58.6842 71.1022 57.26C73.1552 55.807 70.696 55.1937 70.8435 52.8417C70.9154 51.6947 71.8339 50.7811 71.9686 49.6748C72.0588 48.9325 69.663 47.9177 69.1968 46.5422C68.898 45.66 69.2911 43.8824 68.9883 43.3908C68.4285 42.4812 65.8586 43.2888 64.694 41.1488C64.4004 40.6091 64.0065 38.9516 63.3697 38.7842C62.6706 38.6003 61.0319 39.7141 59.7442 39.4133C58.6092 39.1482 57.2504 37.3841 56.5812 37.387ZM47.5941 65.0385C46.379 68.0974 45.2429 71.2103 44.1453 74.3139C44.839 74.1411 48.2836 73.027 48.7374 73.2983C49.2449 73.6019 50.6623 75.9248 51.0141 76.5113L51.3002 76.9738C52.2978 74.2211 53.6276 70.8839 54.3276 68.0606C52.6172 66.3031 50.7838 69.3051 49.0177 67.5901C48.2695 66.8634 48.1678 65.8181 47.5941 65.0385ZM65.841 65.0385C65.431 65.9171 64.816 67.5854 63.8603 67.9537C61.973 68.6808 60.9137 66.2411 59.0117 68.1545C59.3062 69.137 59.6671 70.0963 60.0164 71.06L61.6191 75.5149C61.7909 76.0019 61.9811 76.4836 62.1433 76.9738C62.2755 76.7565 62.4041 76.5359 62.5448 76.3241L63.8312 74.3716C64.223 73.7813 64.4945 72.9646 65.3298 73.1426C66.6265 73.4191 67.9485 74.0115 69.2945 74.3139C69.0043 73.4282 65.9658 65.1675 65.841 65.0385Z" fill="#CFA567"/>
<path d="M52.3159 45.202C52.7974 44.9368 54.4658 44.062 54.9002 44.763C55.4298 45.6176 54.1048 45.8264 53.6051 46.0125C49.0627 47.703 47.2859 53.0347 49.7436 56.9832C52.021 60.6422 57.0948 61.8669 60.9136 59.6602C66.5798 56.3862 65.856 48.4332 59.6785 45.9848C58.7272 45.6078 58.2513 45.6475 57.3166 45.4204C56.5765 45.2406 56.4893 44.5152 57.1433 44.194L57.1814 44.1755C57.9487 44.1349 58.8855 44.4066 59.6161 44.6366C67.6059 47.1512 68.3583 57.588 60.8104 61.1248C56.1894 63.2902 50.4753 61.3214 48.2341 56.943C46.0988 52.7716 47.877 47.2617 52.3159 45.202Z" fill="#CFA567"/>
<path d="M55.3341 55.099C55.8542 54.6796 56.3134 54.1235 56.7799 53.6386L59.4911 50.8221C59.838 50.4619 60.4247 49.7406 60.8538 49.5285C61.0477 49.5139 61.21 49.5195 61.3732 49.6416C62.1366 50.2133 60.7912 51.2596 60.4178 51.648L56.6264 55.6199C55.4208 56.8716 55.5457 57.0863 54.2215 55.738L52.4519 53.9168C51.0815 52.555 52.2024 52.0464 52.6549 52.3705C53.3474 52.8667 54.7067 54.4411 55.3341 55.099Z" fill="#CFA567"/>
<path d="M21.6371 43.8254C21.3225 44.7361 20.8575 45.4744 20.2419 46.0401C19.6264 46.6058 18.8671 46.9497 17.964 47.0717C17.0609 47.1938 16.0247 47.0529 14.8555 46.6491C13.6309 46.2261 12.701 45.6777 12.0659 45.0038C11.4268 44.3216 11.0439 43.5557 10.9171 42.706C10.7904 41.8564 10.8854 40.9731 11.2021 40.0562C11.3763 39.5516 11.5965 39.0835 11.8627 38.652C12.1248 38.2121 12.3848 37.868 12.6428 37.6196L13.7665 38.5243C13.5371 38.7894 13.3031 39.1081 13.0644 39.4802C12.8278 39.8462 12.6489 40.2046 12.5278 40.5554C12.2855 41.2569 12.2343 41.8936 12.3744 42.4654C12.5165 43.0311 12.8395 43.5318 13.3433 43.9675C13.8493 44.3971 14.53 44.7596 15.3853 45.055C16.2038 45.3377 16.9405 45.4681 17.5955 45.4464C18.2526 45.4185 18.8115 45.2361 19.2722 44.8993C19.7288 44.5542 20.073 44.0463 20.3047 43.3755C20.4896 42.8401 20.601 42.338 20.639 41.8689C20.6709 41.3978 20.6704 40.9603 20.6377 40.5564L22.0039 41.0282C22.0593 41.4261 22.0609 41.8503 22.0087 42.3006C21.9586 42.7448 21.8347 43.2531 21.6371 43.8254Z" fill="#CFA567"/>
<path d="M15.9196 30.6658C16.4161 29.9015 17.0109 29.3562 17.704 29.0301C18.3972 28.704 19.1435 28.5949 19.9429 28.7027C20.7369 28.807 21.5406 29.1233 22.3541 29.6518L23.1977 30.1997L19.1708 36.3992C20.2352 37.0673 21.208 37.3265 22.0892 37.177C22.9705 37.0274 23.7108 36.4912 24.3101 35.5685C24.6789 35.0007 24.9533 34.4647 25.1333 33.9606C25.3133 33.4564 25.4547 32.904 25.5577 32.3032L26.7534 33.0799C26.6611 33.6642 26.5159 34.2104 26.3179 34.7184C26.1235 35.2209 25.8294 35.7752 25.4358 36.3812C24.8755 37.2439 24.2114 37.8838 23.4435 38.3011C22.6737 38.7094 21.8323 38.8693 20.9193 38.7809C20.0063 38.6925 19.0557 38.3274 18.0675 37.6855C17.1011 37.0578 16.3704 36.3541 15.8753 35.5745C15.3783 34.7859 15.1302 33.9727 15.1311 33.1348C15.1354 32.2914 15.3983 31.4684 15.9196 30.6658ZM17.0227 31.4057C16.5511 32.1318 16.4126 32.8648 16.6075 33.6047C16.8023 34.3445 17.299 35.032 18.0975 35.6672L21.1829 30.9172C20.6443 30.5751 20.1197 30.3547 19.6093 30.2561C19.097 30.1484 18.6225 30.1857 18.1859 30.3679C17.7438 30.5465 17.3561 30.8925 17.0227 31.4057Z" fill="#CFA567"/>
<path d="M24.9367 20.2668C25.9393 19.3858 27.0419 19.0279 28.2444 19.1932C29.447 19.3584 30.6564 20.133 31.8727 21.517C32.6763 22.4315 33.2141 23.3197 33.486 24.1814C33.7579 25.0432 33.7842 25.8522 33.5647 26.6084C33.3501 27.3603 32.9053 28.0328 32.2305 28.6259C31.805 28.9998 31.3815 29.2723 30.9598 29.4435C30.5382 29.6146 30.1287 29.7058 29.7312 29.7171C29.3338 29.7283 28.9604 29.6881 28.6111 29.5964L28.5231 29.6737C28.7054 29.8516 28.9245 30.0664 29.1804 30.3182C29.4412 30.5656 29.6597 30.7896 29.8359 30.9901L32.7368 34.2912L31.5117 35.3677L21.2878 23.7334L22.2928 22.8502L23.4985 23.8968L23.5572 23.8452C23.4988 23.4632 23.494 23.073 23.5427 22.6749C23.5872 22.2718 23.7192 21.8697 23.9389 21.4687C24.1591 21.0585 24.4917 20.6579 24.9367 20.2668ZM25.6265 21.4807C25.069 21.9707 24.7136 22.4736 24.5604 22.9896C24.412 23.5013 24.4487 24.0411 24.6704 24.609C24.8878 25.172 25.2752 25.7806 25.8327 26.4347L26.039 26.6694C26.6364 27.3492 27.2147 27.8594 27.774 28.1999C28.3382 28.5362 28.8988 28.6762 29.4561 28.6199C30.0182 28.5593 30.5902 28.2732 31.1721 27.7618C31.671 27.3235 31.9685 26.8237 32.0647 26.2625C32.1608 25.7013 32.079 25.1101 31.8193 24.4891C31.5601 23.8588 31.1555 23.2307 30.6054 22.6047C29.7716 21.6559 28.924 21.0661 28.0624 20.8352C27.2014 20.5951 26.3894 20.8103 25.6265 21.4807Z" fill="#CFA567"/>
<path d="M39.2593 13.1094L36.116 14.7058L40.339 23.0211L38.9111 23.7463L34.6881 15.431L31.5884 17.0052L30.9649 15.7775L38.6358 11.8818L39.2593 13.1094Z" fill="#CFA567"/>
<path d="M43.4771 10.2682L44.9227 16.8396C44.9506 16.9667 44.9838 17.1327 45.0222 17.3376C45.0592 17.5361 45.0966 17.7512 45.1342 17.9829C45.1704 18.2083 45.2053 18.4273 45.2387 18.6399C45.2771 18.8447 45.3046 19.0153 45.3213 19.1517L49.0757 9.0366L51.0213 8.60859L53.3208 19.0618L51.8425 19.387L50.4326 12.9777C50.3878 12.7743 50.3337 12.5129 50.2701 12.1935C50.2065 11.8742 50.1475 11.5606 50.0931 11.2526C50.0373 10.9382 49.9936 10.6945 49.9622 10.5214L46.2249 20.6228L44.2697 21.0529L41.9702 10.5997L43.4771 10.2682Z" fill="#CFA567"/>
<path d="M62.4091 4.23597L62.0039 8.55293C63.0519 8.74285 63.9465 9.10474 64.6876 9.63858C65.4293 10.1659 65.9805 10.8422 66.3412 11.6672C66.7018 12.4923 66.8314 13.4461 66.7297 14.5286C66.63 15.5916 66.3323 16.4987 65.8367 17.25C65.3477 18.0018 64.6894 18.5711 63.8618 18.9577C63.0408 19.3449 62.0783 19.5324 60.9744 19.5203L60.5399 24.1484L58.9648 24.0006L59.3992 19.3725C58.35 19.1955 57.4545 18.8434 56.7128 18.316C55.9782 17.7828 55.4308 17.1004 55.0708 16.2688C54.7107 15.4372 54.5815 14.4802 54.6831 13.3977C54.7847 12.3153 55.0798 11.4013 55.5682 10.656C56.0638 9.90472 56.725 9.33904 57.5519 8.95893C58.3794 8.57234 59.3546 8.38924 60.4774 8.40963L60.8826 4.09267L62.4091 4.23597ZM60.3514 9.75139C59.5215 9.74542 58.8247 9.88925 58.2609 10.1829C57.6972 10.4765 57.258 10.9061 56.9433 11.4716C56.6352 12.0378 56.4424 12.7324 56.3652 13.5556C56.2879 14.3788 56.3509 15.1008 56.5542 15.7215C56.7581 16.3357 57.1097 16.8395 57.609 17.2329C58.1082 17.6263 58.7626 17.9003 59.572 18.0547L60.3514 9.75139ZM61.8761 9.91413L61.0985 18.198C61.9231 18.1904 62.6144 18.0363 63.1723 17.7355C63.7366 17.4354 64.1729 17.0023 64.4811 16.4361C64.7957 15.8706 64.9911 15.1827 65.0671 14.3725C65.1827 13.1409 64.9782 12.1507 64.4534 11.4018C63.9293 10.6463 63.0702 10.1505 61.8761 9.91413Z" fill="#CFA567"/>
<path d="M73.2115 11.1163L70.5814 17.3095C70.5305 17.4293 70.4613 17.5839 70.3739 17.7731C70.289 17.9563 70.1948 18.1532 70.0912 18.3639C69.9901 18.5685 69.8916 18.7672 69.7956 18.9598C69.7082 19.149 69.6318 19.304 69.5664 19.4248L78.4878 13.357L80.3215 14.1358L76.1378 23.9873L74.7445 23.3957L77.3097 17.3553C77.3912 17.1635 77.4985 16.9191 77.6317 16.622C77.765 16.325 77.8987 16.0351 78.0328 15.7526C78.1695 15.4641 78.2752 15.2402 78.3499 15.0809L69.4502 21.1473L67.6075 20.3648L71.7913 10.5132L73.2115 11.1163Z" fill="#CFA567"/>
<path d="M89.1285 20.4334L90.534 21.5372L83.7105 22.7472L84.2153 30.184L82.7177 29.0079L82.2464 21.7339L78.8928 26.0042L77.6102 24.9969L84.2208 16.5792L85.5034 17.5865L82.2946 21.6725L89.1285 20.4334Z" fill="#CFA567"/>
<path d="M95.758 27.3423C96.5319 28.3568 96.8787 29.2837 96.7984 30.1229C96.718 30.9621 96.1783 31.7628 95.1793 32.5249L89.3949 36.9377L88.6782 35.9982L89.7465 34.7902L89.6991 34.7281C89.2069 34.7269 88.756 34.6778 88.3463 34.5809C87.9418 34.4801 87.5549 34.3003 87.1856 34.0416C86.8254 33.7841 86.4577 33.4095 86.0826 32.9178C85.6877 32.4001 85.4269 31.8704 85.3 31.3284C85.1771 30.7916 85.2106 30.2666 85.4004 29.7533C85.5942 29.2452 85.9732 28.7759 86.5374 28.3455C87.3863 27.6979 88.2951 27.5368 89.264 27.8623C90.2328 28.1877 91.2631 29.023 92.3549 30.3683L93.5365 31.7883L94.0567 31.3915C94.7917 30.8308 95.1863 30.28 95.2405 29.7392C95.2947 29.1983 95.1026 28.6407 94.6643 28.0661C94.3247 27.6209 93.9362 27.2459 93.4988 26.9408C93.0614 26.6358 92.6165 26.3693 92.1641 26.1412L92.8403 24.9989C93.3292 25.2319 93.833 25.5435 94.3519 25.9338C94.8707 26.3241 95.3394 26.7936 95.758 27.3423ZM92.6162 32.4658L91.5727 31.2107C90.7218 30.1811 89.9778 29.5655 89.3407 29.3636C88.7036 29.1618 88.1056 29.2741 87.5466 29.7006C87.06 30.0718 86.8128 30.4937 86.8049 30.9665C86.7971 31.4392 86.9788 31.9189 87.3499 32.4054C87.9265 33.1611 88.608 33.6198 89.3945 33.7813C90.181 33.9428 90.9935 33.7038 91.832 33.0641L92.6162 32.4658Z" fill="#CFA567"/>
<path d="M102.054 42.005L100.643 38.774L92.0961 42.5052L91.4553 41.0374L100.003 37.3062L98.6117 34.12L99.8737 33.5691L103.316 41.4541L102.054 42.005Z" fill="#CFA567"/>
<path d="M27.3551 84.2307L28.5957 85.517L21.6707 85.7786L21.1496 93.2143L19.8276 91.8437L20.3596 84.5739L16.4514 88.3432L15.3193 87.1694L23.0231 79.7392L24.1552 80.913L20.4158 84.5197L27.3551 84.2307Z" fill="#CFA567"/>
<path d="M33.7389 88.7942C34.825 89.4641 35.4808 90.2052 35.7064 91.0176C35.932 91.8299 35.715 92.7707 35.0553 93.8401L31.2356 100.032L30.2299 99.4118L30.7946 97.9013L30.7281 97.8603C30.2681 98.0355 29.8295 98.1513 29.4123 98.2075C28.9986 98.2583 28.5729 98.229 28.1354 98.1198C27.7069 98.0084 27.2295 97.7904 26.7031 97.4657C26.149 97.1239 25.7156 96.7227 25.4031 96.2622C25.096 95.8051 24.9392 95.3029 24.9325 94.7557C24.9314 94.2119 25.1171 93.638 25.4897 93.034C26.0503 92.1253 26.8411 91.6493 27.8622 91.606C28.8833 91.5628 30.1445 91.9736 31.6458 92.8384L33.2576 93.741L33.6012 93.1841C34.0865 92.3973 34.2576 91.7417 34.1144 91.2174C33.9713 90.693 33.5922 90.2412 32.9771 89.8618C32.5006 89.5678 32.0035 89.3568 31.4859 89.2287C30.9682 89.1006 30.4573 89.0111 29.9533 88.9603L30.1754 87.6516C30.7153 87.6939 31.2974 87.8044 31.9216 87.9829C32.5458 88.1614 33.1516 88.4319 33.7389 88.7942ZM32.6412 94.7032L31.2173 93.9051C30.054 93.2487 29.1388 92.9405 28.4717 92.9803C27.8046 93.0201 27.2865 93.3392 26.9173 93.9376C26.596 94.4585 26.5164 94.941 26.6784 95.3851C26.8405 95.8293 27.1819 96.2121 27.7027 96.5333C28.5117 97.0324 29.3123 97.2164 30.1045 97.0855C30.8967 96.9545 31.5696 96.4403 32.1233 95.5426L32.6412 94.7032Z" fill="#CFA567"/>
<path d="M41.3113 92.8465L40.2635 96.5487C40.0809 97.1939 40.1215 97.7197 40.3855 98.1259C40.6557 98.5339 41.129 98.8337 41.8056 99.0251C42.4571 99.2095 43.0774 99.2768 43.6666 99.2271C44.2558 99.1773 44.8717 99.0573 45.5142 98.867L46.7801 94.3942L48.3399 94.8357L45.4252 105.134L43.8654 104.693L45.1711 100.079C44.4902 100.286 43.8409 100.416 43.2231 100.472C42.6052 100.527 41.9079 100.445 41.1312 100.225C40.0725 99.9251 39.3299 99.4172 38.9033 98.701C38.483 97.9867 38.4058 97.1597 38.6717 96.22L39.7514 92.405L41.3113 92.8465Z" fill="#CFA567"/>
<path d="M55.8824 95.1637C56.7938 95.1664 57.5745 95.3705 58.2243 95.776C58.8742 96.1816 59.3706 96.7495 59.7135 97.4796C60.0564 98.2033 60.2264 99.0502 60.2236 100.02L60.2206 101.026L52.8281 101.004C52.8439 102.261 53.1536 103.219 53.7571 103.878C54.3607 104.537 55.2125 104.869 56.3128 104.872C56.9899 104.874 57.589 104.814 58.1102 104.692C58.6314 104.57 59.1723 104.389 59.7329 104.15L59.7287 105.575C59.1876 105.815 58.65 105.989 58.1158 106.098C57.5882 106.207 56.963 106.261 56.2404 106.259C55.2117 106.256 54.3139 106.045 53.5469 105.626C52.7864 105.2 52.1958 104.58 51.775 103.765C51.3542 102.95 51.1456 101.953 51.1491 100.775C51.1524 99.6224 51.3474 98.6269 51.734 97.7882C52.1271 96.943 52.6759 96.2936 53.3804 95.8399C54.0913 95.3863 54.9253 95.1609 55.8824 95.1637ZM55.8589 96.4917C54.9931 96.4892 54.3021 96.7704 53.7861 97.3353C53.2701 97.9001 52.9618 98.6903 52.8612 99.7056L58.5252 99.7223C58.5206 99.0842 58.4213 98.524 58.2274 98.0417C58.0401 97.5528 57.7515 97.1744 57.3616 96.9063C56.9718 96.6317 56.4709 96.4935 55.8589 96.4917Z" fill="#CFA567"/>
<path d="M69.7518 104.487C68.8159 104.716 67.9434 104.725 67.1344 104.515C66.3254 104.304 65.6248 103.852 65.0328 103.159C64.4408 102.466 63.9977 101.519 63.7033 100.318C63.3951 99.0595 63.352 97.9808 63.5742 97.0818C63.8011 96.175 64.2373 95.438 64.8826 94.8711C65.528 94.3041 66.3217 93.9052 67.2639 93.6744C67.7825 93.5474 68.2952 93.4788 68.8021 93.4685C69.3138 93.4504 69.7439 93.4825 70.0925 93.5646L69.9412 94.9993C69.5941 94.9502 69.1994 94.9263 68.7573 94.9273C68.3215 94.9268 67.9234 94.9708 67.5629 95.0591C66.842 95.2356 66.2793 95.5377 65.8746 95.9653C65.4762 96.3913 65.2305 96.9341 65.1374 97.5937C65.0506 98.2518 65.1148 99.0203 65.3301 99.8992C65.5362 100.74 65.8258 101.43 66.1991 101.969C66.5786 102.506 67.0348 102.877 67.5675 103.081C68.1051 103.278 68.7184 103.292 69.4077 103.123C69.9578 102.988 70.4403 102.81 70.855 102.588C71.2682 102.359 71.6357 102.122 71.9574 101.875L72.3013 103.279C71.9969 103.541 71.6413 103.772 71.2345 103.973C70.8341 104.171 70.3399 104.343 69.7518 104.487Z" fill="#CFA567"/>
<path d="M79.102 90.3974L75.9421 91.9605L80.0772 100.32L78.6417 101.03L74.5066 92.6706L71.3904 94.2121L70.7799 92.9779L78.4915 89.1632L79.102 90.3974Z" fill="#CFA567"/>
<path d="M88.4959 84.5235C88.9309 85.0339 89.1221 85.5594 89.0697 86.1002C89.0131 86.636 88.7916 87.154 88.4053 87.6543L88.456 87.7138C89.0255 87.3482 89.6203 87.1579 90.2403 87.1427C90.8611 87.1184 91.4291 87.4085 91.9442 88.013C92.3412 88.4789 92.5801 88.9852 92.6612 89.532C92.7422 90.0788 92.6314 90.6564 92.3288 91.265C92.0263 91.8735 91.4934 92.5029 90.7303 93.1532L87.2219 96.1428L80.28 87.9962L83.7586 85.0319C84.3434 84.5337 84.9157 84.1614 85.4757 83.9152C86.0364 83.6598 86.5723 83.5709 87.0833 83.6487C87.5944 83.7264 88.0652 84.018 88.4959 84.5235ZM90.6583 89.1088C90.2487 88.6281 89.7698 88.4375 89.2215 88.5369C88.6782 88.6321 88.0597 88.9752 87.366 89.5664L85.2773 91.3462L87.6081 94.0815L89.7265 92.2764C90.4104 91.6937 90.842 91.1462 91.0215 90.6341C91.2016 90.1128 91.0806 89.6043 90.6583 89.1088ZM87.3601 85.7351C87.0307 85.3486 86.6446 85.1815 86.2017 85.2339C85.7546 85.2813 85.2089 85.5795 84.5647 86.1285L82.4017 87.9716L84.3969 90.313L86.3443 88.6535C87.0133 88.0835 87.4364 87.5562 87.6136 87.0715C87.7909 86.5869 87.7064 86.1415 87.3601 85.7351Z" fill="#CFA567"/>
<path d="M90.6761 77.0838C91.3982 76.0318 92.1705 75.413 92.9929 75.2273C93.8153 75.0417 94.7444 75.3044 95.7803 76.0155L101.778 80.133L101.11 81.1072L99.6285 80.4695L99.5843 80.5339C99.7369 81.0019 99.8311 81.4456 99.8669 81.865C99.8974 82.2808 99.8474 82.7045 99.7169 83.1361C99.5848 83.5587 99.3437 84.0249 98.9936 84.5348C98.6252 85.0716 98.2033 85.4848 97.7281 85.7745C97.2565 86.0588 96.7472 86.191 96.2003 86.1709C95.6571 86.1455 95.093 85.9319 94.508 85.5303C93.6277 84.926 93.1909 84.1129 93.1976 83.0909C93.2042 82.0689 93.6761 80.8293 94.6133 79.372L95.5935 77.8062L95.054 77.4359C94.2919 76.9127 93.6454 76.7097 93.1147 76.8271C92.584 76.9445 92.1142 77.3011 91.7052 77.8969C91.3883 78.3585 91.1533 78.8447 91.0001 79.3555C90.8468 79.8662 90.7325 80.3721 90.6571 80.8731L89.3608 80.5873C89.4295 80.0501 89.5682 79.4742 89.777 78.8594C89.9858 78.2446 90.2855 77.6528 90.6761 77.0838ZM96.5244 78.4689L95.6578 79.8521C94.9454 80.9819 94.5928 81.881 94.5999 82.5492C94.6071 83.2175 94.9005 83.7506 95.4802 84.1485C95.9848 84.4949 96.4628 84.598 96.9144 84.4578C97.3659 84.3177 97.7649 83.9954 98.1112 83.4908C98.6492 82.7072 98.8721 81.9165 98.78 81.1189C98.6879 80.3213 98.2071 79.624 97.3376 79.0271L96.5244 78.4689Z" fill="#CFA567"/>
</g>
<defs>
<clipPath id="clip0_241_2913">
<rect width="115" height="115" fill="white"/>
</clipPath>
</defs>
</svg>
