<svg xmlns="http://www.w3.org/2000/svg" width="587" height="236" viewBox="0 0 587 236" fill="none">
    <g clip-path="url(#clip0_474_4184)">
        <rect width="587" height="236" fill="white" />
        <path d="M1.152 7.128C1.152 6.52 1.25867 5.992 1.472 5.544C1.68533 5.08533 1.984 4.712 2.368 4.424C2.752 4.12533 3.21067 3.90133 3.744 3.752C4.288 3.60267 4.89067 3.528 5.552 3.528H9.28V15H7.328V10.584H5.552L2.624 15H0.368L3.6 10.296C2.768 10.0933 2.14933 9.72533 1.744 9.192C1.34933 8.648 1.152 7.96 1.152 7.128ZM7.328 8.968V5.208H5.536C4.81067 5.208 4.22933 5.352 3.792 5.64C3.36533 5.91733 3.152 6.39733 3.152 7.08C3.152 7.752 3.344 8.23733 3.728 8.536C4.112 8.824 4.656 8.968 5.36 8.968H7.328ZM16.9 11.496H13.396V15H11.54V6.696H13.396V9.992H16.9V6.696H18.756V15H16.9V11.496ZM20.6129 13.496C20.8582 13.2827 21.0502 12.9893 21.1889 12.616C21.3382 12.2427 21.4555 11.7787 21.5409 11.224C21.6262 10.6587 21.6902 10.0027 21.7329 9.256C21.7755 8.50933 21.8129 7.656 21.8449 6.696H27.9249V13.496H29.1729V17.368H27.5569L27.4129 15H21.6849L21.5409 17.368H19.9089V13.496H20.6129ZM26.0689 13.496V8.2H23.4449C23.3915 9.512 23.3009 10.6 23.1729 11.464C23.0555 12.3173 22.8582 12.9947 22.5809 13.496H26.0689ZM37.3278 14.392C37.2104 14.4667 37.0664 14.552 36.8958 14.648C36.7251 14.7333 36.5224 14.8133 36.2878 14.888C36.0531 14.9627 35.7811 15.0267 35.4718 15.08C35.1624 15.1333 34.8104 15.16 34.4158 15.16C32.8904 15.16 31.7491 14.7813 30.9918 14.024C30.2451 13.2667 29.8717 12.2053 29.8717 10.84C29.8717 10.168 29.9731 9.56533 30.1758 9.032C30.3784 8.49867 30.6611 8.05067 31.0238 7.688C31.3864 7.31467 31.8184 7.032 32.3198 6.84C32.8211 6.63733 33.3704 6.536 33.9678 6.536C34.5864 6.536 35.1411 6.63733 35.6318 6.84C36.1331 7.04267 36.5438 7.34667 36.8638 7.752C37.1838 8.15733 37.4024 8.65867 37.5198 9.256C37.6478 9.85333 37.6531 10.552 37.5358 11.352H31.7918C31.8664 12.1093 32.1171 12.68 32.5438 13.064C32.9704 13.4373 33.6371 13.624 34.5438 13.624C35.2051 13.624 35.7544 13.544 36.1918 13.384C36.6398 13.2133 37.0184 13.0373 37.3278 12.856V14.392ZM33.9678 8.008C33.4238 8.008 32.9651 8.17333 32.5918 8.504C32.2184 8.83467 31.9731 9.32533 31.8558 9.976H35.7598C35.7811 9.304 35.6318 8.808 35.3118 8.488C34.9918 8.168 34.5438 8.008 33.9678 8.008ZM41.8348 11.624H41.1148V15H39.2588V6.696H41.1148V10.12H41.8988L44.5388 6.696H46.4908L43.3548 10.696L46.6188 15H44.4268L41.8348 11.624ZM51.2859 15.16C50.6139 15.16 50.0112 15.064 49.4779 14.872C48.9445 14.6693 48.4912 14.3867 48.1179 14.024C47.7445 13.6507 47.4565 13.1973 47.2539 12.664C47.0512 12.1307 46.9499 11.5227 46.9499 10.84C46.9499 10.168 47.0512 9.56533 47.2539 9.032C47.4565 8.49867 47.7445 8.05067 48.1179 7.688C48.4912 7.31467 48.9499 7.032 49.4939 6.84C50.0379 6.63733 50.6459 6.536 51.3179 6.536C51.8939 6.536 52.3952 6.6 52.8219 6.728C53.2592 6.856 53.6059 7.016 53.8619 7.208V8.744C53.5312 8.53067 53.1685 8.36533 52.7739 8.248C52.3899 8.13067 51.9419 8.072 51.4299 8.072C49.7125 8.072 48.8539 8.99467 48.8539 10.84C48.8539 12.6853 49.6965 13.608 51.3819 13.608C51.9259 13.608 52.3899 13.5493 52.7739 13.432C53.1685 13.304 53.5312 13.144 53.8619 12.952V14.488C53.5845 14.6693 53.2379 14.8293 52.8219 14.968C52.4059 15.096 51.8939 15.16 51.2859 15.16ZM64.4789 15.16C63.5935 15.16 62.7935 15.0267 62.0789 14.76C61.3642 14.4933 60.7509 14.1093 60.2389 13.608C59.7375 13.096 59.3482 12.4773 59.0709 11.752C58.8042 11.016 58.6709 10.1893 58.6709 9.272C58.6709 8.344 58.7989 7.51733 59.0549 6.792C59.3215 6.06667 59.7002 5.45333 60.1909 4.952C60.6922 4.44 61.3002 4.05067 62.0149 3.784C62.7295 3.51733 63.5455 3.384 64.4629 3.384C65.2522 3.384 65.9242 3.464 66.4789 3.624C67.0442 3.77333 67.4922 3.94933 67.8229 4.152V5.88C67.4069 5.61333 66.9055 5.41067 66.3189 5.272C65.7429 5.12267 65.1455 5.048 64.5269 5.048C63.2362 5.048 62.2762 5.4 61.6469 6.104C61.0282 6.79733 60.7189 7.85333 60.7189 9.272C60.7189 12.088 62.0202 13.496 64.6229 13.496C65.2309 13.496 65.8015 13.4213 66.3349 13.272C66.8789 13.1227 67.3749 12.888 67.8229 12.568V14.28C67.5242 14.504 67.0922 14.7067 66.5269 14.888C65.9615 15.0693 65.2789 15.16 64.4789 15.16ZM69.7588 6.696H76.8148V15H74.9588V8.2H71.6148V15H69.7588V6.696ZM79.6194 12.056C79.7367 11.512 79.8114 10.808 79.8434 9.944C79.886 9.06933 79.9074 7.98667 79.9074 6.696H85.8754V15H84.0194V8.2H81.6034C81.582 9.29867 81.5394 10.2693 81.4754 11.112C81.4114 11.9547 81.278 12.6693 81.0754 13.256C80.8834 13.832 80.6007 14.2747 80.2274 14.584C79.8647 14.8933 79.374 15.048 78.7554 15.048C78.67 15.048 78.5847 15.0427 78.4994 15.032C78.4247 15.032 78.3447 15.0267 78.2594 15.016V13.288C78.366 13.3093 78.446 13.32 78.4994 13.32C78.7874 13.32 79.0167 13.2187 79.1874 13.016C79.3687 12.8027 79.5127 12.4827 79.6194 12.056ZM89.8175 12.488L93.6575 6.696H95.4815V15H93.6415V9.24L89.8335 15H87.9775V6.696H89.8175V12.488ZM101.283 8.2V15H99.4273V8.2H96.9153V6.696H103.843V8.2H101.283Z" fill="black" fill-opacity="0.86" />
        <path d="M5.005 36.13C4.381 36.13 3.796 36.026 3.25 35.818C2.704 35.6013 2.23167 35.2893 1.833 34.882C1.43433 34.4747 1.118 33.972 0.884 33.374C0.658667 32.776 0.546 32.087 0.546 31.307C0.546 30.527 0.658667 29.8423 0.884 29.253C1.118 28.655 1.43433 28.161 1.833 27.771C2.23167 27.3723 2.704 27.0733 3.25 26.874C3.796 26.666 4.381 26.562 5.005 26.562C5.63767 26.562 6.227 26.666 6.773 26.874C7.319 27.0733 7.79133 27.3723 8.19 27.771C8.58867 28.1697 8.90067 28.668 9.126 29.266C9.35133 29.8553 9.464 30.54 9.464 31.32C9.464 32.0913 9.35133 32.776 9.126 33.374C8.90067 33.972 8.58867 34.4747 8.19 34.882C7.79133 35.2893 7.319 35.6013 6.773 35.818C6.227 36.026 5.63767 36.13 5.005 36.13ZM5.005 35.025C5.45567 35.025 5.87167 34.96 6.253 34.83C6.63433 34.6913 6.96367 34.479 7.241 34.193C7.527 33.8983 7.748 33.517 7.904 33.049C8.06867 32.581 8.151 32.0133 8.151 31.346C8.151 30.6787 8.06867 30.111 7.904 29.643C7.748 29.175 7.527 28.798 7.241 28.512C6.96367 28.2173 6.63433 28.005 6.253 27.875C5.87167 27.7363 5.45567 27.667 5.005 27.667C4.55433 27.667 4.13833 27.7363 3.757 27.875C3.37567 28.005 3.042 28.2173 2.756 28.512C2.47867 28.798 2.25767 29.175 2.093 29.643C1.937 30.111 1.859 30.6787 1.859 31.346C1.859 32.0133 1.937 32.581 2.093 33.049C2.25767 33.517 2.47867 33.8983 2.756 34.193C3.042 34.479 3.37567 34.6913 3.757 34.83C4.13833 34.96 4.55433 35.025 5.005 35.025ZM10.9399 29.253H16.3479V36H15.2039V30.228H12.0839V36H10.9399V29.253ZM18.7343 33.907C18.8557 33.465 18.9337 32.867 18.9683 32.113C19.003 31.359 19.0203 30.4057 19.0203 29.253H23.5573V36H22.4003V30.228H20.0993C20.0907 31.1553 20.0603 31.9787 20.0083 32.698C19.965 33.4173 19.8653 34.024 19.7093 34.518C19.562 35.012 19.341 35.389 19.0463 35.649C18.7603 35.9003 18.3747 36.026 17.8893 36.026C17.8547 36.026 17.82 36.026 17.7853 36.026C17.7507 36.026 17.7117 36.0217 17.6683 36.013V34.882C17.7117 34.8907 17.768 34.895 17.8373 34.895C18.2793 34.895 18.5783 34.5657 18.7343 33.907ZM29.3646 34.713C29.2866 34.869 29.1869 35.0337 29.0656 35.207C28.9442 35.3717 28.7926 35.5233 28.6106 35.662C28.4286 35.8007 28.2119 35.9133 27.9606 36C27.7179 36.0867 27.4319 36.13 27.1026 36.13C26.4959 36.13 26.0062 35.961 25.6336 35.623C25.2609 35.2763 25.0746 34.7823 25.0746 34.141C25.0746 33.4043 25.3302 32.8627 25.8416 32.516C26.3616 32.1693 27.0982 31.996 28.0516 31.996H29.3126V31.437C29.3126 30.969 29.1912 30.6353 28.9486 30.436C28.7059 30.2367 28.2899 30.137 27.7006 30.137C27.2846 30.137 26.8902 30.2063 26.5176 30.345C26.1449 30.475 25.8112 30.6267 25.5166 30.8V29.773C25.7592 29.6257 26.0842 29.4827 26.4916 29.344C26.9076 29.1967 27.3626 29.123 27.8566 29.123C28.7059 29.123 29.3516 29.3007 29.7936 29.656C30.2356 30.0027 30.4566 30.5443 30.4566 31.281V34.908C30.4566 34.986 30.4566 35.077 30.4566 35.181C30.4652 35.2763 30.4696 35.376 30.4696 35.48C30.4782 35.584 30.4869 35.6837 30.4956 35.779C30.5042 35.8657 30.5129 35.9393 30.5216 36H29.4816C29.4556 35.8787 29.4296 35.7097 29.4036 35.493C29.3862 35.2677 29.3776 35.0727 29.3776 34.908L29.3646 34.713ZM27.3496 35.103C27.7049 35.103 28.0082 35.0293 28.2596 34.882C28.5109 34.7347 28.7146 34.5657 28.8706 34.375C29.0266 34.1757 29.1392 33.985 29.2086 33.803C29.2779 33.6123 29.3126 33.478 29.3126 33.4V32.906H28.1686C27.4839 32.906 26.9856 33.0057 26.6736 33.205C26.3702 33.3957 26.2186 33.686 26.2186 34.076C26.2186 34.3793 26.3096 34.6263 26.4916 34.817C26.6736 35.0077 26.9596 35.103 27.3496 35.103ZM34.9089 30.228V36H33.7649V30.228H31.6459V29.253H37.0669V30.228H34.9089ZM42.1487 34.713C42.0707 34.869 41.9711 35.0337 41.8497 35.207C41.7284 35.3717 41.5767 35.5233 41.3947 35.662C41.2127 35.8007 40.9961 35.9133 40.7447 36C40.5021 36.0867 40.2161 36.13 39.8867 36.13C39.2801 36.13 38.7904 35.961 38.4177 35.623C38.0451 35.2763 37.8587 34.7823 37.8587 34.141C37.8587 33.4043 38.1144 32.8627 38.6257 32.516C39.1457 32.1693 39.8824 31.996 40.8357 31.996H42.0967V31.437C42.0967 30.969 41.9754 30.6353 41.7327 30.436C41.4901 30.2367 41.0741 30.137 40.4847 30.137C40.0687 30.137 39.6744 30.2063 39.3017 30.345C38.9291 30.475 38.5954 30.6267 38.3007 30.8V29.773C38.5434 29.6257 38.8684 29.4827 39.2757 29.344C39.6917 29.1967 40.1467 29.123 40.6407 29.123C41.4901 29.123 42.1357 29.3007 42.5777 29.656C43.0197 30.0027 43.2407 30.5443 43.2407 31.281V34.908C43.2407 34.986 43.2407 35.077 43.2407 35.181C43.2494 35.2763 43.2537 35.376 43.2537 35.48C43.2624 35.584 43.2711 35.6837 43.2797 35.779C43.2884 35.8657 43.2971 35.9393 43.3057 36H42.2657C42.2397 35.8787 42.2137 35.7097 42.1877 35.493C42.1704 35.2677 42.1617 35.0727 42.1617 34.908L42.1487 34.713ZM40.1337 35.103C40.4891 35.103 40.7924 35.0293 41.0437 34.882C41.2951 34.7347 41.4987 34.5657 41.6547 34.375C41.8107 34.1757 41.9234 33.985 41.9927 33.803C42.0621 33.6123 42.0967 33.478 42.0967 33.4V32.906H40.9527C40.2681 32.906 39.7697 33.0057 39.4577 33.205C39.1544 33.3957 39.0027 33.686 39.0027 34.076C39.0027 34.3793 39.0937 34.6263 39.2757 34.817C39.4577 35.0077 39.7437 35.103 40.1337 35.103ZM53.122 36H51.978V33.036C51.744 33.218 51.471 33.361 51.159 33.465C50.8556 33.5603 50.509 33.608 50.119 33.608C49.3563 33.608 48.7713 33.4217 48.364 33.049C47.9653 32.6677 47.766 32.061 47.766 31.229V29.253H48.923V31.242C48.923 31.7707 49.0443 32.139 49.287 32.347C49.5296 32.555 49.872 32.659 50.314 32.659C50.6173 32.659 50.912 32.6157 51.198 32.529C51.484 32.4423 51.744 32.308 51.978 32.126V29.253H53.122V36ZM58.9446 34.713C58.8666 34.869 58.767 35.0337 58.6456 35.207C58.5243 35.3717 58.3726 35.5233 58.1906 35.662C58.0086 35.8007 57.792 35.9133 57.5406 36C57.298 36.0867 57.012 36.13 56.6826 36.13C56.076 36.13 55.5863 35.961 55.2136 35.623C54.841 35.2763 54.6546 34.7823 54.6546 34.141C54.6546 33.4043 54.9103 32.8627 55.4216 32.516C55.9416 32.1693 56.6783 31.996 57.6316 31.996H58.8926V31.437C58.8926 30.969 58.7713 30.6353 58.5286 30.436C58.286 30.2367 57.87 30.137 57.2806 30.137C56.8646 30.137 56.4703 30.2063 56.0976 30.345C55.725 30.475 55.3913 30.6267 55.0966 30.8V29.773C55.3393 29.6257 55.6643 29.4827 56.0716 29.344C56.4876 29.1967 56.9426 29.123 57.4366 29.123C58.286 29.123 58.9316 29.3007 59.3736 29.656C59.8156 30.0027 60.0366 30.5443 60.0366 31.281V34.908C60.0366 34.986 60.0366 35.077 60.0366 35.181C60.0453 35.2763 60.0496 35.376 60.0496 35.48C60.0583 35.584 60.067 35.6837 60.0756 35.779C60.0843 35.8657 60.093 35.9393 60.1016 36H59.0616C59.0356 35.8787 59.0096 35.7097 58.9836 35.493C58.9663 35.2677 58.9576 35.0727 58.9576 34.908L58.9446 34.713ZM56.9296 35.103C57.285 35.103 57.5883 35.0293 57.8396 34.882C58.091 34.7347 58.2946 34.5657 58.4506 34.375C58.6066 34.1757 58.7193 33.985 58.7886 33.803C58.858 33.6123 58.8926 33.478 58.8926 33.4V32.906H57.7486C57.064 32.906 56.5656 33.0057 56.2536 33.205C55.9503 33.3957 55.7986 33.686 55.7986 34.076C55.7986 34.3793 55.8896 34.6263 56.0716 34.817C56.2536 35.0077 56.5396 35.103 56.9296 35.103ZM64.7474 36.13C64.2274 36.13 63.7551 36.052 63.3304 35.896C62.9144 35.7313 62.5591 35.5017 62.2644 35.207C61.9697 34.9037 61.7444 34.5353 61.5884 34.102C61.4324 33.6687 61.3544 33.1747 61.3544 32.62C61.3544 32.074 61.4324 31.5843 61.5884 31.151C61.7531 30.7177 61.9827 30.3537 62.2774 30.059C62.5721 29.7557 62.9317 29.526 63.3564 29.37C63.7811 29.2053 64.2621 29.123 64.7994 29.123C65.2154 29.123 65.5967 29.1707 65.9434 29.266C66.2901 29.3527 66.5761 29.4827 66.8014 29.656V30.683C66.5241 30.501 66.2121 30.3667 65.8654 30.28C65.5274 30.1847 65.1764 30.137 64.8124 30.137C64.0237 30.137 63.4431 30.3407 63.0704 30.748C62.7064 31.1553 62.5244 31.7793 62.5244 32.62C62.5244 33.4607 62.7021 34.0847 63.0574 34.492C63.4127 34.8993 63.9761 35.103 64.7474 35.103C65.1547 35.103 65.5274 35.0553 65.8654 34.96C66.2121 34.856 66.5241 34.726 66.8014 34.57V35.597C66.5587 35.7443 66.2641 35.87 65.9174 35.974C65.5794 36.078 65.1894 36.13 64.7474 36.13ZM71.0524 30.228V36H69.9084V30.228H67.7894V29.253H73.2104V30.228H71.0524ZM74.1372 31.437C74.1372 31.0557 74.2065 30.7307 74.3452 30.462C74.4838 30.1847 74.6788 29.9593 74.9302 29.786C75.1815 29.604 75.4805 29.4697 75.8272 29.383C76.1738 29.2963 76.5508 29.253 76.9582 29.253H79.1292V36H77.9852V33.556H76.7502L75.0212 36H73.6562L75.6062 33.27C75.1382 33.1313 74.7742 32.919 74.5142 32.633C74.2628 32.347 74.1372 31.9483 74.1372 31.437ZM77.9852 32.581V30.228H76.9582C76.4728 30.228 76.0742 30.319 75.7622 30.501C75.4502 30.683 75.2942 30.9777 75.2942 31.385C75.2942 31.8097 75.4328 32.1173 75.7102 32.308C75.9875 32.49 76.3818 32.581 76.8932 32.581H77.9852ZM87.4403 30.579L85.1523 35.246H84.2423L82.0843 30.553V36H81.0053V29.253H82.7083L84.7753 33.777L86.9853 29.253H88.5713V36H87.4403V30.579ZM91.582 34.44L95.183 29.253H96.34V36H95.196V30.826L91.608 36H90.438V29.253H91.582V34.44Z" fill="black" fill-opacity="0.86" />
        <rect y="50" width="587" height="154" rx="24" fill="white" />
        <rect y="50" width="587" height="40" rx="14" fill="#B4B8CC" fill-opacity="0.12" />
        <g filter="url(#filter0_d_474_4184)">
            <rect x="2" y="52" width="193" height="36" rx="12" fill="white" shape-rendering="crispEdges" />
            <path d="M76.266 75H69.728V73.67C70.5867 72.9793 71.3287 72.368 71.954 71.836C72.5887 71.304 73.1113 70.814 73.522 70.366C73.942 69.918 74.25 69.4933 74.446 69.092C74.6513 68.6907 74.754 68.2707 74.754 67.832C74.754 67.2813 74.586 66.838 74.25 66.502C73.914 66.1567 73.424 65.984 72.78 65.984C72.2293 65.984 71.7207 66.1147 71.254 66.376C70.7873 66.628 70.3673 66.9593 69.994 67.37V65.956C70.3487 65.6013 70.7547 65.326 71.212 65.13C71.6693 64.9247 72.206 64.822 72.822 64.822C73.3447 64.822 73.8113 64.892 74.222 65.032C74.6327 65.172 74.978 65.368 75.258 65.62C75.538 65.872 75.748 66.1753 75.888 66.53C76.0373 66.8847 76.112 67.2767 76.112 67.706C76.112 68.2473 76 68.756 75.776 69.232C75.5613 69.708 75.244 70.184 74.824 70.66C74.404 71.1267 73.886 71.6167 73.27 72.13C72.6633 72.634 71.968 73.1893 71.184 73.796H76.266V75ZM87.8618 69.162L85.3978 74.188H84.4178L82.0938 69.134V75H80.9318V67.734H82.7658L84.9918 72.606L87.3718 67.734H89.0798V75H87.8618V69.162ZM96.872 74.384C96.7694 74.4587 96.6434 74.538 96.494 74.622C96.3447 74.706 96.1627 74.79 95.948 74.874C95.7334 74.9487 95.4907 75.0093 95.22 75.056C94.9494 75.112 94.646 75.14 94.31 75.14C93.0874 75.14 92.1587 74.8087 91.524 74.146C90.8894 73.4833 90.572 72.5547 90.572 71.36C90.572 70.772 90.656 70.2447 90.824 69.778C91.0014 69.3113 91.244 68.9193 91.552 68.602C91.86 68.2753 92.224 68.028 92.644 67.86C93.064 67.6827 93.5214 67.594 94.016 67.594C94.5387 67.594 95.0054 67.6827 95.416 67.86C95.8267 68.0373 96.1627 68.2987 96.424 68.644C96.6947 68.9893 96.8767 69.4187 96.97 69.932C97.0727 70.436 97.0727 71.024 96.97 71.696H91.846C91.8927 72.48 92.126 73.068 92.546 73.46C92.966 73.8427 93.5914 74.034 94.422 74.034C94.982 74.034 95.4627 73.9547 95.864 73.796C96.2654 73.6373 96.6014 73.4647 96.872 73.278V74.384ZM93.988 68.686C93.456 68.686 92.9987 68.8493 92.616 69.176C92.2334 69.5027 91.9907 69.9973 91.888 70.66H95.794C95.8314 69.988 95.6774 69.4933 95.332 69.176C94.9867 68.8493 94.5387 68.686 93.988 68.686ZM101.759 75.14C101.199 75.14 100.691 75.056 100.233 74.888C99.7852 74.7107 99.4026 74.4633 99.0852 74.146C98.7679 73.8193 98.5252 73.4227 98.3572 72.956C98.1892 72.4893 98.1052 71.9573 98.1052 71.36C98.1052 70.772 98.1892 70.2447 98.3572 69.778C98.5346 69.3113 98.7819 68.9193 99.0992 68.602C99.4166 68.2753 99.8039 68.028 100.261 67.86C100.719 67.6827 101.237 67.594 101.815 67.594C102.263 67.594 102.674 67.6453 103.047 67.748C103.421 67.8413 103.729 67.9813 103.971 68.168V69.274C103.673 69.078 103.337 68.9333 102.963 68.84C102.599 68.7373 102.221 68.686 101.829 68.686C100.98 68.686 100.355 68.9053 99.9532 69.344C99.5612 69.7827 99.3652 70.4547 99.3652 71.36C99.3652 72.2653 99.5566 72.9373 99.9392 73.376C100.322 73.8147 100.929 74.034 101.759 74.034C102.198 74.034 102.599 73.9827 102.963 73.88C103.337 73.768 103.673 73.628 103.971 73.46V74.566C103.71 74.7247 103.393 74.86 103.019 74.972C102.655 75.084 102.235 75.14 101.759 75.14ZM105.623 70.086C105.623 69.6753 105.698 69.3253 105.847 69.036C105.997 68.7373 106.207 68.4947 106.477 68.308C106.748 68.112 107.07 67.9673 107.443 67.874C107.817 67.7807 108.223 67.734 108.661 67.734H110.999V75H109.767V72.368H108.437L106.575 75H105.105L107.205 72.06C106.701 71.9107 106.309 71.682 106.029 71.374C105.759 71.066 105.623 70.6367 105.623 70.086ZM109.767 71.318V68.784H108.661C108.139 68.784 107.709 68.882 107.373 69.078C107.037 69.274 106.869 69.5913 106.869 70.03C106.869 70.4873 107.019 70.8187 107.317 71.024C107.616 71.22 108.041 71.318 108.591 71.318H109.767ZM118.942 75H113.02V67.734H114.252V73.95H117.822V67.734H119.054V73.95H120.146V77.072H119.096L118.942 75ZM125.616 73.614C125.532 73.782 125.424 73.9593 125.294 74.146C125.163 74.3233 125 74.4867 124.804 74.636C124.608 74.7853 124.374 74.9067 124.104 75C123.842 75.0933 123.534 75.14 123.18 75.14C122.526 75.14 121.999 74.958 121.598 74.594C121.196 74.2207 120.996 73.6887 120.996 72.998C120.996 72.2047 121.271 71.6213 121.822 71.248C122.382 70.8747 123.175 70.688 124.202 70.688H125.56V70.086C125.56 69.582 125.429 69.2227 125.168 69.008C124.906 68.7933 124.458 68.686 123.824 68.686C123.376 68.686 122.951 68.7607 122.55 68.91C122.148 69.05 121.789 69.2133 121.472 69.4V68.294C121.733 68.1353 122.083 67.9813 122.522 67.832C122.97 67.6733 123.46 67.594 123.992 67.594C124.906 67.594 125.602 67.7853 126.078 68.168C126.554 68.5413 126.792 69.1247 126.792 69.918V73.824C126.792 73.908 126.792 74.006 126.792 74.118C126.801 74.2207 126.806 74.328 126.806 74.44C126.815 74.552 126.824 74.6593 126.834 74.762C126.843 74.8553 126.852 74.9347 126.862 75H125.742C125.714 74.8693 125.686 74.6873 125.658 74.454C125.639 74.2113 125.63 74.0013 125.63 73.824L125.616 73.614ZM123.446 74.034C123.828 74.034 124.155 73.9547 124.426 73.796C124.696 73.6373 124.916 73.4553 125.084 73.25C125.252 73.0353 125.373 72.83 125.448 72.634C125.522 72.4287 125.56 72.284 125.56 72.2V71.668H124.328C123.59 71.668 123.054 71.7753 122.718 71.99C122.391 72.1953 122.228 72.508 122.228 72.928C122.228 73.2547 122.326 73.5207 122.522 73.726C122.718 73.9313 123.026 74.034 123.446 74.034Z" fill="#262633" />
        </g>
        <path d="M270.094 72.62V75H268.876V72.62H264.032V71.696L268.442 64.962H270.094V71.486H271.452V72.62H270.094ZM268.876 71.486V66.208L265.418 71.486H268.876ZM283.004 69.162L280.54 74.188H279.56L277.236 69.134V75H276.074V67.734H277.908L280.134 72.606L282.514 67.734H284.222V75H283.004V69.162ZM292.015 74.384C291.912 74.4587 291.786 74.538 291.637 74.622C291.487 74.706 291.305 74.79 291.091 74.874C290.876 74.9487 290.633 75.0093 290.363 75.056C290.092 75.112 289.789 75.14 289.453 75.14C288.23 75.14 287.301 74.8087 286.667 74.146C286.032 73.4833 285.715 72.5547 285.715 71.36C285.715 70.772 285.799 70.2447 285.967 69.778C286.144 69.3113 286.387 68.9193 286.695 68.602C287.003 68.2753 287.367 68.028 287.787 67.86C288.207 67.6827 288.664 67.594 289.159 67.594C289.681 67.594 290.148 67.6827 290.559 67.86C290.969 68.0373 291.305 68.2987 291.567 68.644C291.837 68.9893 292.019 69.4187 292.113 69.932C292.215 70.436 292.215 71.024 292.113 71.696H286.989C287.035 72.48 287.269 73.068 287.689 73.46C288.109 73.8427 288.734 74.034 289.565 74.034C290.125 74.034 290.605 73.9547 291.007 73.796C291.408 73.6373 291.744 73.4647 292.015 73.278V74.384ZM289.131 68.686C288.599 68.686 288.141 68.8493 287.759 69.176C287.376 69.5027 287.133 69.9973 287.031 70.66H290.937C290.974 69.988 290.82 69.4933 290.475 69.176C290.129 68.8493 289.681 68.686 289.131 68.686ZM296.902 75.14C296.342 75.14 295.833 75.056 295.376 74.888C294.928 74.7107 294.545 74.4633 294.228 74.146C293.91 73.8193 293.668 73.4227 293.5 72.956C293.332 72.4893 293.248 71.9573 293.248 71.36C293.248 70.772 293.332 70.2447 293.5 69.778C293.677 69.3113 293.924 68.9193 294.242 68.602C294.559 68.2753 294.946 68.028 295.404 67.86C295.861 67.6827 296.379 67.594 296.958 67.594C297.406 67.594 297.816 67.6453 298.19 67.748C298.563 67.8413 298.871 67.9813 299.114 68.168V69.274C298.815 69.078 298.479 68.9333 298.106 68.84C297.742 68.7373 297.364 68.686 296.972 68.686C296.122 68.686 295.497 68.9053 295.096 69.344C294.704 69.7827 294.508 70.4547 294.508 71.36C294.508 72.2653 294.699 72.9373 295.082 73.376C295.464 73.8147 296.071 74.034 296.902 74.034C297.34 74.034 297.742 73.9827 298.106 73.88C298.479 73.768 298.815 73.628 299.114 73.46V74.566C298.852 74.7247 298.535 74.86 298.162 74.972C297.798 75.084 297.378 75.14 296.902 75.14ZM300.766 70.086C300.766 69.6753 300.84 69.3253 300.99 69.036C301.139 68.7373 301.349 68.4947 301.62 68.308C301.89 68.112 302.212 67.9673 302.586 67.874C302.959 67.7807 303.365 67.734 303.804 67.734H306.142V75H304.91V72.368H303.58L301.718 75H300.248L302.348 72.06C301.844 71.9107 301.452 71.682 301.172 71.374C300.901 71.066 300.766 70.6367 300.766 70.086ZM304.91 71.318V68.784H303.804C303.281 68.784 302.852 68.882 302.516 69.078C302.18 69.274 302.012 69.5913 302.012 70.03C302.012 70.4873 302.161 70.8187 302.46 71.024C302.758 71.22 303.183 71.318 303.734 71.318H304.91ZM314.084 75H308.162V67.734H309.394V73.95H312.964V67.734H314.196V73.95H315.288V77.072H314.238L314.084 75ZM320.758 73.614C320.674 73.782 320.567 73.9593 320.436 74.146C320.305 74.3233 320.142 74.4867 319.946 74.636C319.75 74.7853 319.517 74.9067 319.246 75C318.985 75.0933 318.677 75.14 318.322 75.14C317.669 75.14 317.141 74.958 316.74 74.594C316.339 74.2207 316.138 73.6887 316.138 72.998C316.138 72.2047 316.413 71.6213 316.964 71.248C317.524 70.8747 318.317 70.688 319.344 70.688H320.702V70.086C320.702 69.582 320.571 69.2227 320.31 69.008C320.049 68.7933 319.601 68.686 318.966 68.686C318.518 68.686 318.093 68.7607 317.692 68.91C317.291 69.05 316.931 69.2133 316.614 69.4V68.294C316.875 68.1353 317.225 67.9813 317.664 67.832C318.112 67.6733 318.602 67.594 319.134 67.594C320.049 67.594 320.744 67.7853 321.22 68.168C321.696 68.5413 321.934 69.1247 321.934 69.918V73.824C321.934 73.908 321.934 74.006 321.934 74.118C321.943 74.2207 321.948 74.328 321.948 74.44C321.957 74.552 321.967 74.6593 321.976 74.762C321.985 74.8553 321.995 74.9347 322.004 75H320.884C320.856 74.8693 320.828 74.6873 320.8 74.454C320.781 74.2113 320.772 74.0013 320.772 73.824L320.758 73.614ZM318.588 74.034C318.971 74.034 319.297 73.9547 319.568 73.796C319.839 73.6373 320.058 73.4553 320.226 73.25C320.394 73.0353 320.515 72.83 320.59 72.634C320.665 72.4287 320.702 72.284 320.702 72.2V71.668H319.47C318.733 71.668 318.196 71.7753 317.86 71.99C317.533 72.1953 317.37 72.508 317.37 72.928C317.37 73.2547 317.468 73.5207 317.664 73.726C317.86 73.9313 318.168 74.034 318.588 74.034Z" fill="#262633" />
        <path d="M462.564 71.71C462.564 72.2233 462.471 72.69 462.284 73.11C462.107 73.53 461.859 73.894 461.542 74.202C461.225 74.5007 460.847 74.734 460.408 74.902C459.979 75.0607 459.517 75.14 459.022 75.14C458.35 75.14 457.776 75.0327 457.3 74.818C456.833 74.6033 456.451 74.3047 456.152 73.922C455.853 73.53 455.634 73.0633 455.494 72.522C455.363 71.9807 455.298 71.388 455.298 70.744C455.298 69.8667 455.377 69.064 455.536 68.336C455.704 67.608 455.961 66.9873 456.306 66.474C456.651 65.9513 457.09 65.5453 457.622 65.256C458.163 64.9667 458.803 64.822 459.54 64.822C460.1 64.822 460.562 64.8733 460.926 64.976C461.29 65.0693 461.607 65.1907 461.878 65.34V66.586C461.542 66.362 461.178 66.2033 460.786 66.11C460.394 66.0167 459.979 65.97 459.54 65.97C459.073 65.97 458.658 66.0633 458.294 66.25C457.939 66.4367 457.636 66.6933 457.384 67.02C457.141 67.3467 456.95 67.734 456.81 68.182C456.67 68.6207 456.581 69.0967 456.544 69.61C456.871 69.1713 457.253 68.8493 457.692 68.644C458.14 68.4387 458.625 68.336 459.148 68.336C459.624 68.336 460.067 68.4107 460.478 68.56C460.898 68.7 461.262 68.9147 461.57 69.204C461.878 69.4933 462.121 69.848 462.298 70.268C462.475 70.688 462.564 71.1687 462.564 71.71ZM458.98 74.02C459.279 74.02 459.563 73.9733 459.834 73.88C460.114 73.7773 460.357 73.6327 460.562 73.446C460.767 73.2593 460.931 73.026 461.052 72.746C461.173 72.4567 461.234 72.1207 461.234 71.738C461.234 71.3647 461.173 71.0333 461.052 70.744C460.931 70.4547 460.772 70.212 460.576 70.016C460.38 69.82 460.151 69.6753 459.89 69.582C459.638 69.4793 459.381 69.428 459.12 69.428C458.784 69.428 458.471 69.4793 458.182 69.582C457.893 69.6847 457.641 69.834 457.426 70.03C457.211 70.226 457.043 70.4687 456.922 70.758C456.801 71.0473 456.74 71.3833 456.74 71.766C456.74 72.102 456.791 72.41 456.894 72.69C456.997 72.9607 457.146 73.1987 457.342 73.404C457.538 73.6 457.771 73.754 458.042 73.866C458.322 73.9687 458.635 74.02 458.98 74.02ZM474.305 69.162L471.841 74.188H470.861L468.537 69.134V75H467.375V67.734H469.209L471.435 72.606L473.815 67.734H475.523V75H474.305V69.162ZM483.315 74.384C483.213 74.4587 483.087 74.538 482.937 74.622C482.788 74.706 482.606 74.79 482.391 74.874C482.177 74.9487 481.934 75.0093 481.663 75.056C481.393 75.112 481.089 75.14 480.753 75.14C479.531 75.14 478.602 74.8087 477.967 74.146C477.333 73.4833 477.015 72.5547 477.015 71.36C477.015 70.772 477.099 70.2447 477.267 69.778C477.445 69.3113 477.687 68.9193 477.995 68.602C478.303 68.2753 478.667 68.028 479.087 67.86C479.507 67.6827 479.965 67.594 480.459 67.594C480.982 67.594 481.449 67.6827 481.859 67.86C482.27 68.0373 482.606 68.2987 482.867 68.644C483.138 68.9893 483.32 69.4187 483.413 69.932C483.516 70.436 483.516 71.024 483.413 71.696H478.289C478.336 72.48 478.569 73.068 478.989 73.46C479.409 73.8427 480.035 74.034 480.865 74.034C481.425 74.034 481.906 73.9547 482.307 73.796C482.709 73.6373 483.045 73.4647 483.315 73.278V74.384ZM480.431 68.686C479.899 68.686 479.442 68.8493 479.059 69.176C478.677 69.5027 478.434 69.9973 478.331 70.66H482.237C482.275 69.988 482.121 69.4933 481.775 69.176C481.43 68.8493 480.982 68.686 480.431 68.686ZM488.203 75.14C487.643 75.14 487.134 75.056 486.677 74.888C486.229 74.7107 485.846 74.4633 485.529 74.146C485.211 73.8193 484.969 73.4227 484.801 72.956C484.633 72.4893 484.549 71.9573 484.549 71.36C484.549 70.772 484.633 70.2447 484.801 69.778C484.978 69.3113 485.225 68.9193 485.543 68.602C485.86 68.2753 486.247 68.028 486.705 67.86C487.162 67.6827 487.68 67.594 488.259 67.594C488.707 67.594 489.117 67.6453 489.491 67.748C489.864 67.8413 490.172 67.9813 490.415 68.168V69.274C490.116 69.078 489.78 68.9333 489.407 68.84C489.043 68.7373 488.665 68.686 488.273 68.686C487.423 68.686 486.798 68.9053 486.397 69.344C486.005 69.7827 485.809 70.4547 485.809 71.36C485.809 72.2653 486 72.9373 486.383 73.376C486.765 73.8147 487.372 74.034 488.203 74.034C488.641 74.034 489.043 73.9827 489.407 73.88C489.78 73.768 490.116 73.628 490.415 73.46V74.566C490.153 74.7247 489.836 74.86 489.463 74.972C489.099 75.084 488.679 75.14 488.203 75.14ZM492.067 70.086C492.067 69.6753 492.141 69.3253 492.291 69.036C492.44 68.7373 492.65 68.4947 492.921 68.308C493.191 68.112 493.513 67.9673 493.887 67.874C494.26 67.7807 494.666 67.734 495.105 67.734H497.443V75H496.211V72.368H494.881L493.019 75H491.549L493.649 72.06C493.145 71.9107 492.753 71.682 492.473 71.374C492.202 71.066 492.067 70.6367 492.067 70.086ZM496.211 71.318V68.784H495.105C494.582 68.784 494.153 68.882 493.817 69.078C493.481 69.274 493.313 69.5913 493.313 70.03C493.313 70.4873 493.462 70.8187 493.761 71.024C494.059 71.22 494.484 71.318 495.035 71.318H496.211ZM505.385 75H499.463V67.734H500.695V73.95H504.265V67.734H505.497V73.95H506.589V77.072H505.539L505.385 75ZM513.517 74.384C513.414 74.4587 513.288 74.538 513.139 74.622C512.989 74.706 512.807 74.79 512.593 74.874C512.378 74.9487 512.135 75.0093 511.865 75.056C511.594 75.112 511.291 75.14 510.955 75.14C509.732 75.14 508.803 74.8087 508.169 74.146C507.534 73.4833 507.217 72.5547 507.217 71.36C507.217 70.772 507.301 70.2447 507.469 69.778C507.646 69.3113 507.889 68.9193 508.197 68.602C508.505 68.2753 508.869 68.028 509.289 67.86C509.709 67.6827 510.166 67.594 510.661 67.594C511.183 67.594 511.65 67.6827 512.061 67.86C512.471 68.0373 512.807 68.2987 513.069 68.644C513.339 68.9893 513.521 69.4187 513.615 69.932C513.717 70.436 513.717 71.024 513.615 71.696H508.491C508.537 72.48 508.771 73.068 509.191 73.46C509.611 73.8427 510.236 74.034 511.067 74.034C511.627 74.034 512.107 73.9547 512.509 73.796C512.91 73.6373 513.246 73.4647 513.517 73.278V74.384ZM510.633 68.686C510.101 68.686 509.643 68.8493 509.261 69.176C508.878 69.5027 508.635 69.9973 508.533 70.66H512.439C512.476 69.988 512.322 69.4933 511.977 69.176C511.631 68.8493 511.183 68.686 510.633 68.686ZM515.268 67.734H517.984C518.861 67.734 519.524 67.888 519.972 68.196C520.42 68.4947 520.644 68.966 520.644 69.61C520.644 70.0393 520.532 70.3847 520.308 70.646C520.093 70.898 519.785 71.08 519.384 71.192C520.42 71.36 520.938 71.934 520.938 72.914C520.938 73.2873 520.863 73.6093 520.714 73.88C520.564 74.1413 520.359 74.356 520.098 74.524C519.836 74.692 519.519 74.8133 519.146 74.888C518.782 74.9627 518.385 75 517.956 75H515.268V67.734ZM516.5 68.784V70.758H517.872C518.338 70.758 518.712 70.674 518.992 70.506C519.281 70.338 519.426 70.0953 519.426 69.778C519.426 69.3953 519.3 69.134 519.048 68.994C518.796 68.854 518.436 68.784 517.97 68.784H516.5ZM516.5 71.738V73.95H517.942C518.203 73.95 518.436 73.936 518.642 73.908C518.856 73.8707 519.038 73.81 519.188 73.726C519.346 73.642 519.468 73.53 519.552 73.39C519.636 73.25 519.678 73.0773 519.678 72.872C519.678 72.452 519.533 72.158 519.244 71.99C518.954 71.822 518.52 71.738 517.942 71.738H516.5Z" fill="#262633" />
        <path d="M12.648 125.032C12.648 125.832 12.488 126.552 12.168 127.192C11.864 127.832 11.432 128.384 10.872 128.848C10.328 129.296 9.664 129.64 8.88 129.88C8.096 130.12 7.24 130.24 6.312 130.24C5.128 130.24 4.104 130.112 3.24 129.856C2.376 129.584 1.68 129.224 1.152 128.776V126.376C1.696 126.888 2.408 127.336 3.288 127.72C4.168 128.088 5.184 128.272 6.336 128.272C7.568 128.272 8.536 127.992 9.24 127.432C9.96 126.872 10.32 126.088 10.32 125.08C10.32 124.12 10 123.376 9.36 122.848C8.736 122.304 7.744 122.032 6.384 122.032H4.176V119.992H6.48C7.44 119.992 8.216 119.752 8.808 119.272C9.4 118.792 9.696 118.096 9.696 117.184C9.696 116.368 9.408 115.728 8.832 115.264C8.272 114.784 7.448 114.544 6.36 114.544C5.256 114.544 4.304 114.728 3.504 115.096C2.704 115.464 2 115.92 1.392 116.464V114.112C1.968 113.632 2.672 113.256 3.504 112.984C4.352 112.696 5.312 112.552 6.384 112.552C7.248 112.552 8.024 112.664 8.712 112.888C9.4 113.096 9.976 113.4 10.44 113.8C10.92 114.2 11.288 114.68 11.544 115.24C11.8 115.784 11.928 116.392 11.928 117.064C11.928 117.608 11.848 118.096 11.688 118.528C11.528 118.96 11.304 119.336 11.016 119.656C10.744 119.976 10.424 120.248 10.056 120.472C9.688 120.68 9.296 120.832 8.88 120.928C9.392 121.008 9.872 121.16 10.32 121.384C10.784 121.608 11.184 121.896 11.52 122.248C11.872 122.584 12.144 122.992 12.336 123.472C12.544 123.936 12.648 124.456 12.648 125.032ZM24.6279 130H13.4199V127.72C14.8919 126.536 16.1639 125.488 17.2359 124.576C18.3239 123.664 19.2199 122.824 19.9239 122.056C20.6439 121.288 21.1719 120.56 21.5079 119.872C21.8599 119.184 22.0359 118.464 22.0359 117.712C22.0359 116.768 21.7479 116.008 21.1719 115.432C20.5959 114.84 19.7559 114.544 18.6519 114.544C17.7079 114.544 16.8359 114.768 16.0359 115.216C15.2359 115.648 14.5159 116.216 13.8759 116.92V114.496C14.4839 113.888 15.1799 113.416 15.9639 113.08C16.7479 112.728 17.6679 112.552 18.7239 112.552C19.6199 112.552 20.4199 112.672 21.1239 112.912C21.8279 113.152 22.4199 113.488 22.8999 113.92C23.3799 114.352 23.7399 114.872 23.9799 115.48C24.2359 116.088 24.3639 116.76 24.3639 117.496C24.3639 118.424 24.1719 119.296 23.7879 120.112C23.4199 120.928 22.8759 121.744 22.1559 122.56C21.4359 123.36 20.5479 124.2 19.4919 125.08C18.4519 125.944 17.2599 126.896 15.9159 127.936H24.6279V130ZM32.5986 130.24C31.6386 130.24 30.7346 130.056 29.8866 129.688C29.0386 129.32 28.2946 128.768 27.6546 128.032C27.0306 127.296 26.5346 126.376 26.1666 125.272C25.7986 124.152 25.6146 122.856 25.6146 121.384C25.6146 119.912 25.7986 118.624 26.1666 117.52C26.5346 116.416 27.0306 115.504 27.6546 114.784C28.2946 114.048 29.0386 113.496 29.8866 113.128C30.7346 112.76 31.6386 112.576 32.5986 112.576C33.5586 112.576 34.4626 112.76 35.3106 113.128C36.1586 113.48 36.8946 114.024 37.5186 114.76C38.1586 115.48 38.6546 116.392 39.0066 117.496C39.3746 118.584 39.5586 119.864 39.5586 121.336C39.5586 122.808 39.3746 124.096 39.0066 125.2C38.6546 126.304 38.1586 127.232 37.5186 127.984C36.8946 128.736 36.1586 129.304 35.3106 129.688C34.4626 130.056 33.5586 130.24 32.5986 130.24ZM32.5746 128.344C33.2306 128.344 33.8466 128.224 34.4226 127.984C34.9986 127.744 35.4946 127.352 35.9106 126.808C36.3426 126.248 36.6786 125.528 36.9186 124.648C37.1746 123.768 37.3026 122.688 37.3026 121.408C37.3026 120.128 37.1746 119.048 36.9186 118.168C36.6786 117.288 36.3426 116.576 35.9106 116.032C35.4946 115.472 34.9986 115.072 34.4226 114.832C33.8626 114.592 33.2546 114.472 32.5986 114.472C31.9426 114.472 31.3266 114.592 30.7506 114.832C30.1746 115.072 29.6706 115.472 29.2386 116.032C28.8066 116.576 28.4626 117.288 28.2066 118.168C27.9666 119.048 27.8466 120.128 27.8466 121.408C27.8466 122.688 27.9666 123.768 28.2066 124.648C28.4626 125.528 28.7986 126.248 29.2146 126.808C29.6466 127.352 30.1506 127.744 30.7266 127.984C31.3026 128.224 31.9186 128.344 32.5746 128.344ZM46.7814 130H44.5734V115.6L40.9254 119.152V116.728L44.9814 112.792H46.7814V130ZM55.7556 120.52V112.792H60.6756C62.4676 112.792 63.8596 113.184 64.8516 113.968C65.8596 114.752 66.3636 115.936 66.3636 117.52C66.3636 118.336 66.2196 119.04 65.9316 119.632C65.6596 120.224 65.2596 120.712 64.7316 121.096C64.2196 121.464 63.6036 121.744 62.8836 121.936C62.1636 122.112 61.3636 122.2 60.4836 122.2H58.0356V124.24H63.6516V125.92H58.0356V130H55.7556V125.92H53.4756V124.24H55.7556V122.2H53.4756V120.52H55.7556ZM58.0356 114.736V120.52H60.4836C61.6516 120.52 62.5476 120.28 63.1716 119.8C63.7956 119.304 64.1076 118.544 64.1076 117.52C64.1076 116.576 63.8356 115.88 63.2916 115.432C62.7476 114.968 61.8756 114.736 60.6756 114.736H58.0356ZM77.7993 130.24C76.8393 130.24 75.9673 130.096 75.1833 129.808C74.4153 129.504 73.7593 129.08 73.2153 128.536C72.6713 127.976 72.2553 127.296 71.9673 126.496C71.6793 125.696 71.5353 124.784 71.5353 123.76C71.5353 122.752 71.6793 121.848 71.9673 121.048C72.2713 120.248 72.6953 119.576 73.2393 119.032C73.7833 118.472 74.4473 118.048 75.2313 117.76C76.0153 117.456 76.9033 117.304 77.8953 117.304C78.6633 117.304 79.3673 117.392 80.0073 117.568C80.6473 117.728 81.1753 117.968 81.5913 118.288V120.184C81.0793 119.848 80.5033 119.6 79.8633 119.44C79.2393 119.264 78.5913 119.176 77.9193 119.176C76.4633 119.176 75.3913 119.552 74.7033 120.304C74.0313 121.056 73.6953 122.208 73.6953 123.76C73.6953 125.312 74.0233 126.464 74.6793 127.216C75.3353 127.968 76.3753 128.344 77.7993 128.344C78.5513 128.344 79.2393 128.256 79.8633 128.08C80.5033 127.888 81.0793 127.648 81.5913 127.36V129.256C81.1433 129.528 80.5993 129.76 79.9593 129.952C79.3353 130.144 78.6153 130.24 77.7993 130.24ZM93.3353 128.944C93.1593 129.072 92.9433 129.208 92.6873 129.352C92.4313 129.496 92.1193 129.64 91.7513 129.784C91.3833 129.912 90.9673 130.016 90.5033 130.096C90.0393 130.192 89.5193 130.24 88.9433 130.24C86.8473 130.24 85.2553 129.672 84.1673 128.536C83.0793 127.4 82.5353 125.808 82.5353 123.76C82.5353 122.752 82.6793 121.848 82.9673 121.048C83.2713 120.248 83.6873 119.576 84.2153 119.032C84.7433 118.472 85.3673 118.048 86.0873 117.76C86.8073 117.456 87.5913 117.304 88.4393 117.304C89.3353 117.304 90.1353 117.456 90.8393 117.76C91.5433 118.064 92.1193 118.512 92.5673 119.104C93.0313 119.696 93.3433 120.432 93.5033 121.312C93.6793 122.176 93.6793 123.184 93.5033 124.336H84.7193C84.7993 125.68 85.1993 126.688 85.9193 127.36C86.6393 128.016 87.7113 128.344 89.1353 128.344C90.0953 128.344 90.9193 128.208 91.6073 127.936C92.2953 127.664 92.8713 127.368 93.3353 127.048V128.944ZM88.3913 119.176C87.4793 119.176 86.6953 119.456 86.0393 120.016C85.3833 120.576 84.9673 121.424 84.7913 122.56H91.4873C91.5513 121.408 91.2873 120.56 90.6953 120.016C90.1033 119.456 89.3353 119.176 88.3913 119.176ZM100.833 115.888C100.193 115.888 99.6334 115.808 99.1534 115.648C98.6894 115.472 98.2974 115.24 97.9774 114.952C97.6734 114.648 97.4414 114.304 97.2814 113.92C97.1374 113.52 97.0654 113.088 97.0654 112.624H99.1774C99.1774 113.232 99.3214 113.672 99.6094 113.944C99.9134 114.216 100.321 114.352 100.833 114.352C101.345 114.352 101.745 114.216 102.033 113.944C102.321 113.672 102.465 113.232 102.465 112.624H104.577C104.577 113.536 104.265 114.312 103.641 114.952C103.033 115.576 102.097 115.888 100.833 115.888ZM97.4494 127.12L104.097 117.544H106.233V130H104.121V120.448L97.4974 130H95.3374V117.544H97.4494V127.12ZM118.329 130H116.217V124.528C115.785 124.864 115.281 125.128 114.705 125.32C114.145 125.496 113.505 125.584 112.785 125.584C111.377 125.584 110.297 125.24 109.545 124.552C108.809 123.848 108.441 122.728 108.441 121.192V117.544H110.577V121.216C110.577 122.192 110.801 122.872 111.249 123.256C111.697 123.64 112.329 123.832 113.145 123.832C113.705 123.832 114.249 123.752 114.777 123.592C115.305 123.432 115.785 123.184 116.217 122.848V117.544H118.329V130ZM128.079 127.624C127.935 127.912 127.751 128.216 127.527 128.536C127.303 128.84 127.023 129.12 126.687 129.376C126.351 129.632 125.951 129.84 125.487 130C125.039 130.16 124.511 130.24 123.903 130.24C122.783 130.24 121.879 129.928 121.191 129.304C120.503 128.664 120.159 127.752 120.159 126.568C120.159 125.208 120.631 124.208 121.575 123.568C122.535 122.928 123.895 122.608 125.655 122.608H127.983V121.576C127.983 120.712 127.759 120.096 127.311 119.728C126.863 119.36 126.095 119.176 125.007 119.176C124.239 119.176 123.511 119.304 122.823 119.56C122.135 119.8 121.519 120.08 120.975 120.4V118.504C121.423 118.232 122.023 117.968 122.775 117.712C123.543 117.44 124.383 117.304 125.295 117.304C126.863 117.304 128.055 117.632 128.871 118.288C129.687 118.928 130.095 119.928 130.095 121.288V127.984C130.095 128.128 130.095 128.296 130.095 128.488C130.111 128.664 130.119 128.848 130.119 129.04C130.135 129.232 130.151 129.416 130.167 129.592C130.183 129.752 130.199 129.888 130.215 130H128.295C128.247 129.776 128.199 129.464 128.151 129.064C128.119 128.648 128.103 128.288 128.103 127.984L128.079 127.624ZM124.359 128.344C125.015 128.344 125.575 128.208 126.039 127.936C126.503 127.664 126.879 127.352 127.167 127C127.455 126.632 127.663 126.28 127.791 125.944C127.919 125.592 127.983 125.344 127.983 125.2V124.288H125.871C124.607 124.288 123.687 124.472 123.111 124.84C122.551 125.192 122.271 125.728 122.271 126.448C122.271 127.008 122.439 127.464 122.775 127.816C123.111 128.168 123.639 128.344 124.359 128.344ZM137.792 130.24C136.832 130.24 135.96 130.096 135.176 129.808C134.408 129.504 133.752 129.08 133.208 128.536C132.664 127.976 132.248 127.296 131.96 126.496C131.672 125.696 131.528 124.784 131.528 123.76C131.528 122.752 131.672 121.848 131.96 121.048C132.264 120.248 132.688 119.576 133.232 119.032C133.776 118.472 134.44 118.048 135.224 117.76C136.008 117.456 136.896 117.304 137.888 117.304C138.656 117.304 139.36 117.392 140 117.568C140.64 117.728 141.168 117.968 141.584 118.288V120.184C141.072 119.848 140.496 119.6 139.856 119.44C139.232 119.264 138.584 119.176 137.912 119.176C136.456 119.176 135.384 119.552 134.696 120.304C134.024 121.056 133.688 122.208 133.688 123.76C133.688 125.312 134.016 126.464 134.672 127.216C135.328 127.968 136.368 128.344 137.792 128.344C138.544 128.344 139.232 128.256 139.856 128.08C140.496 127.888 141.072 127.648 141.584 127.36V129.256C141.136 129.528 140.592 129.76 139.952 129.952C139.328 130.144 138.608 130.24 137.792 130.24Z" fill="#262633" />
        <rect y="154" width="143.75" height="6" rx="3" fill="url(#paint0_linear_474_4184)" />
        <rect x="147.75" y="154" width="143.75" height="6" rx="3" fill="#E1E3E8" />
        <rect x="295.5" y="154" width="143.75" height="6" rx="3" fill="#E1E3E8" />
        <rect x="443.25" y="154" width="143.75" height="6" rx="3" fill="#E1E3E8" />
        <path d="M7.742 179.256C7.742 179.704 7.64867 180.11 7.462 180.474C7.28467 180.829 7.03733 181.132 6.72 181.384C6.412 181.627 6.03867 181.813 5.6 181.944C5.17067 182.075 4.704 182.14 4.2 182.14C3.67733 182.14 3.19667 182.079 2.758 181.958C2.32867 181.827 1.95533 181.641 1.638 181.398C1.32067 181.146 1.07333 180.847 0.896 180.502C0.718667 180.147 0.63 179.746 0.63 179.298C0.63 178.654 0.807333 178.108 1.162 177.66C1.526 177.212 2.01133 176.881 2.618 176.666C2.114 176.479 1.71733 176.199 1.428 175.826C1.13867 175.443 0.994 174.967 0.994 174.398C0.994 173.987 1.07333 173.623 1.232 173.306C1.39067 172.989 1.61467 172.723 1.904 172.508C2.19333 172.284 2.52933 172.116 2.912 172.004C3.304 171.892 3.73333 171.836 4.2 171.836C4.648 171.836 5.068 171.892 5.46 172.004C5.852 172.107 6.19267 172.265 6.482 172.48C6.77133 172.695 6.99533 172.961 7.154 173.278C7.322 173.586 7.406 173.95 7.406 174.37C7.406 174.939 7.25667 175.42 6.958 175.812C6.65933 176.195 6.26267 176.479 5.768 176.666C6.36533 176.871 6.84133 177.193 7.196 177.632C7.56 178.061 7.742 178.603 7.742 179.256ZM4.2 176.162C4.76 176.162 5.222 176.022 5.586 175.742C5.95933 175.453 6.146 175.056 6.146 174.552C6.146 174.048 5.95933 173.656 5.586 173.376C5.222 173.087 4.76 172.942 4.2 172.942C3.92 172.942 3.66333 172.979 3.43 173.054C3.19667 173.129 2.99133 173.236 2.814 173.376C2.63667 173.507 2.49667 173.675 2.394 173.88C2.30067 174.076 2.254 174.3 2.254 174.552C2.254 174.804 2.30067 175.033 2.394 175.238C2.49667 175.434 2.63667 175.602 2.814 175.742C2.99133 175.873 3.19667 175.975 3.43 176.05C3.66333 176.125 3.92 176.162 4.2 176.162ZM4.2 181.034C4.51733 181.034 4.81133 180.992 5.082 180.908C5.362 180.815 5.60467 180.689 5.81 180.53C6.01533 180.362 6.174 180.157 6.286 179.914C6.398 179.671 6.454 179.396 6.454 179.088C6.454 178.78 6.398 178.505 6.286 178.262C6.174 178.019 6.01533 177.819 5.81 177.66C5.60467 177.492 5.362 177.366 5.082 177.282C4.81133 177.189 4.51733 177.142 4.2 177.142C3.864 177.142 3.556 177.189 3.276 177.282C3.00533 177.366 2.76733 177.492 2.562 177.66C2.35667 177.819 2.198 178.019 2.086 178.262C1.974 178.505 1.918 178.78 1.918 179.088C1.918 179.396 1.974 179.671 2.086 179.914C2.198 180.157 2.35667 180.362 2.562 180.53C2.76733 180.689 3.00533 180.815 3.276 180.908C3.556 180.992 3.864 181.034 4.2 181.034ZM20.9634 178.36C20.9634 178.967 20.8607 179.499 20.6554 179.956C20.45 180.413 20.17 180.801 19.8154 181.118C19.47 181.435 19.0594 181.678 18.5834 181.846C18.1074 182.005 17.6034 182.093 17.0714 182.112V184.478H15.8394V182.112C15.2887 182.093 14.7754 182 14.2994 181.832C13.8327 181.664 13.422 181.426 13.0674 181.118C12.7127 180.801 12.4327 180.413 12.2274 179.956C12.0314 179.499 11.9334 178.967 11.9334 178.36C11.9334 177.763 12.036 177.235 12.2414 176.778C12.4467 176.311 12.7267 175.924 13.0814 175.616C13.436 175.299 13.8467 175.061 14.3134 174.902C14.7894 174.734 15.298 174.641 15.8394 174.622V171.822H17.0714V174.622C17.6127 174.641 18.1167 174.734 18.5834 174.902C19.0594 175.07 19.47 175.313 19.8154 175.63C20.17 175.938 20.45 176.321 20.6554 176.778C20.8607 177.235 20.9634 177.763 20.9634 178.36ZM19.7034 178.36C19.7034 177.912 19.6334 177.525 19.4934 177.198C19.3627 176.871 19.176 176.601 18.9334 176.386C18.7 176.171 18.4247 176.008 18.1074 175.896C17.79 175.775 17.4447 175.705 17.0714 175.686V181.034C17.4447 181.015 17.79 180.95 18.1074 180.838C18.434 180.717 18.714 180.549 18.9474 180.334C19.1807 180.119 19.3627 179.849 19.4934 179.522C19.6334 179.195 19.7034 178.808 19.7034 178.36ZM13.1934 178.36C13.1934 178.808 13.2587 179.195 13.3894 179.522C13.5294 179.849 13.716 180.124 13.9494 180.348C14.192 180.563 14.472 180.726 14.7894 180.838C15.116 180.95 15.466 181.015 15.8394 181.034V175.686C15.4567 175.705 15.102 175.775 14.7754 175.896C14.458 176.008 14.1827 176.176 13.9494 176.4C13.716 176.615 13.5294 176.885 13.3894 177.212C13.2587 177.539 13.1934 177.921 13.1934 178.36ZM28.2548 181.384C28.1522 181.459 28.0262 181.538 27.8768 181.622C27.7275 181.706 27.5455 181.79 27.3308 181.874C27.1162 181.949 26.8735 182.009 26.6028 182.056C26.3322 182.112 26.0288 182.14 25.6928 182.14C24.4702 182.14 23.5415 181.809 22.9068 181.146C22.2722 180.483 21.9548 179.555 21.9548 178.36C21.9548 177.772 22.0388 177.245 22.2068 176.778C22.3842 176.311 22.6268 175.919 22.9348 175.602C23.2428 175.275 23.6068 175.028 24.0268 174.86C24.4468 174.683 24.9042 174.594 25.3988 174.594C25.9215 174.594 26.3882 174.683 26.7988 174.86C27.2095 175.037 27.5455 175.299 27.8068 175.644C28.0775 175.989 28.2595 176.419 28.3528 176.932C28.4555 177.436 28.4555 178.024 28.3528 178.696H23.2288C23.2755 179.48 23.5088 180.068 23.9288 180.46C24.3488 180.843 24.9742 181.034 25.8048 181.034C26.3648 181.034 26.8455 180.955 27.2468 180.796C27.6482 180.637 27.9842 180.465 28.2548 180.278V181.384ZM25.3708 175.686C24.8388 175.686 24.3815 175.849 23.9988 176.176C23.6162 176.503 23.3735 176.997 23.2708 177.66H27.1768C27.2142 176.988 27.0602 176.493 26.7148 176.176C26.3695 175.849 25.9215 175.686 25.3708 175.686ZM30.006 174.734H32.722C33.5994 174.734 34.262 174.888 34.71 175.196C35.158 175.495 35.382 175.966 35.382 176.61C35.382 177.039 35.27 177.385 35.046 177.646C34.8314 177.898 34.5234 178.08 34.122 178.192C35.158 178.36 35.676 178.934 35.676 179.914C35.676 180.287 35.6014 180.609 35.452 180.88C35.3027 181.141 35.0974 181.356 34.836 181.524C34.5747 181.692 34.2574 181.813 33.884 181.888C33.52 181.963 33.1234 182 32.694 182H30.006V174.734ZM31.238 175.784V177.758H32.61C33.0767 177.758 33.45 177.674 33.73 177.506C34.0194 177.338 34.164 177.095 34.164 176.778C34.164 176.395 34.038 176.134 33.786 175.994C33.534 175.854 33.1747 175.784 32.708 175.784H31.238ZM31.238 178.738V180.95H32.68C32.9414 180.95 33.1747 180.936 33.38 180.908C33.5947 180.871 33.7767 180.81 33.926 180.726C34.0847 180.642 34.206 180.53 34.29 180.39C34.374 180.25 34.416 180.077 34.416 179.872C34.416 179.452 34.2714 179.158 33.982 178.99C33.6927 178.822 33.2587 178.738 32.68 178.738H31.238Z" fill="#262633" />
        <path d="M7.28 197.116C7.28 197.583 7.19133 198.003 7.014 198.376C6.83667 198.74 6.58467 199.057 6.258 199.328C5.93133 199.589 5.53933 199.79 5.082 199.93C4.62467 200.07 4.116 200.14 3.556 200.14C2.856 200.14 2.25867 200.061 1.764 199.902C1.27867 199.743 0.882 199.547 0.574 199.314V197.746C0.891333 198.007 1.28333 198.245 1.75 198.46C2.21667 198.665 2.786 198.768 3.458 198.768C4.13 198.768 4.648 198.619 5.012 198.32C5.376 198.021 5.558 197.611 5.558 197.088C5.558 196.024 4.86733 195.492 3.486 195.492H2.226V194.078H3.542C4.05533 194.078 4.47067 193.952 4.788 193.7C5.10533 193.439 5.264 193.07 5.264 192.594C5.264 192.165 5.11 191.829 4.802 191.586C4.494 191.334 4.046 191.208 3.458 191.208C2.85133 191.208 2.33333 191.311 1.904 191.516C1.47467 191.712 1.08733 191.955 0.742 192.244V190.69C1.06867 190.429 1.46533 190.219 1.932 190.06C2.39867 189.901 2.968 189.822 3.64 189.822C4.144 189.822 4.59667 189.887 4.998 190.018C5.40867 190.149 5.754 190.331 6.034 190.564C6.32333 190.797 6.54267 191.077 6.692 191.404C6.85067 191.731 6.93 192.09 6.93 192.482C6.93 192.809 6.874 193.098 6.762 193.35C6.65933 193.602 6.51933 193.826 6.342 194.022C6.16467 194.209 5.95933 194.363 5.726 194.484C5.49267 194.596 5.25 194.675 4.998 194.722C5.29667 194.759 5.58133 194.843 5.852 194.974C6.132 195.095 6.37467 195.259 6.58 195.464C6.79467 195.66 6.96267 195.898 7.084 196.178C7.21467 196.458 7.28 196.771 7.28 197.116ZM14.8259 200H8.23189V198.39C9.09056 197.727 9.82322 197.144 10.4299 196.64C11.0366 196.136 11.5312 195.674 11.9139 195.254C12.3059 194.825 12.5906 194.423 12.7679 194.05C12.9452 193.677 13.0339 193.285 13.0339 192.874C13.0339 192.37 12.8799 191.969 12.5719 191.67C12.2732 191.371 11.8439 191.222 11.2839 191.222C10.7519 191.222 10.2526 191.339 9.78589 191.572C9.32856 191.805 8.90389 192.113 8.51189 192.496V190.886C8.88522 190.559 9.30522 190.303 9.77189 190.116C10.2386 189.92 10.7986 189.822 11.4519 189.822C11.9652 189.822 12.4226 189.892 12.8239 190.032C13.2346 190.172 13.5846 190.373 13.8739 190.634C14.1632 190.886 14.3826 191.199 14.5319 191.572C14.6906 191.936 14.7699 192.347 14.7699 192.804C14.7699 193.317 14.6672 193.798 14.4619 194.246C14.2566 194.694 13.9532 195.142 13.5519 195.59C13.1599 196.038 12.6652 196.505 12.0679 196.99C11.4799 197.466 10.7986 197.993 10.0239 198.572H14.8259V200ZM20.0868 200.14C19.5082 200.14 18.9668 200.033 18.4628 199.818C17.9588 199.594 17.5202 199.267 17.1468 198.838C16.7735 198.409 16.4795 197.872 16.2648 197.228C16.0502 196.584 15.9428 195.833 15.9428 194.974C15.9428 194.125 16.0502 193.378 16.2648 192.734C16.4795 192.09 16.7735 191.553 17.1468 191.124C17.5202 190.695 17.9588 190.373 18.4628 190.158C18.9668 189.943 19.5082 189.836 20.0868 189.836C20.6655 189.836 21.2022 189.943 21.6968 190.158C22.2008 190.373 22.6395 190.695 23.0128 191.124C23.3862 191.544 23.6755 192.076 23.8808 192.72C24.0955 193.355 24.2028 194.097 24.2028 194.946C24.2028 195.795 24.0955 196.542 23.8808 197.186C23.6755 197.83 23.3862 198.371 23.0128 198.81C22.6395 199.249 22.2008 199.58 21.6968 199.804C21.2022 200.028 20.6655 200.14 20.0868 200.14ZM20.0728 198.782C20.4182 198.782 20.7402 198.717 21.0388 198.586C21.3375 198.446 21.5942 198.227 21.8088 197.928C22.0328 197.629 22.2055 197.242 22.3268 196.766C22.4575 196.281 22.5228 195.688 22.5228 194.988C22.5228 194.288 22.4575 193.7 22.3268 193.224C22.2055 192.739 22.0328 192.347 21.8088 192.048C21.5942 191.74 21.3375 191.521 21.0388 191.39C20.7402 191.25 20.4228 191.18 20.0868 191.18C19.7415 191.18 19.4195 191.25 19.1208 191.39C18.8222 191.521 18.5608 191.74 18.3368 192.048C18.1222 192.347 17.9495 192.739 17.8188 193.224C17.6975 193.7 17.6368 194.288 17.6368 194.988C17.6368 195.688 17.6975 196.281 17.8188 196.766C17.9495 197.242 18.1222 197.629 18.3368 197.928C18.5608 198.227 18.8222 198.446 19.1208 198.586C19.4195 198.717 19.7368 198.782 20.0728 198.782ZM29.2098 200H27.5578V191.88L25.4578 193.938V192.258L27.7818 189.962H29.2098V200ZM35.3685 194.498V189.962H38.1685C38.6818 189.962 39.1485 190.023 39.5685 190.144C39.9885 190.256 40.3478 190.433 40.6465 190.676C40.9452 190.909 41.1738 191.208 41.3325 191.572C41.5005 191.927 41.5845 192.347 41.5845 192.832C41.5845 193.336 41.4958 193.765 41.3185 194.12C41.1505 194.475 40.9125 194.764 40.6045 194.988C40.2965 195.212 39.9278 195.38 39.4985 195.492C39.0692 195.595 38.5978 195.646 38.0845 195.646H37.0345V196.64H40.0305V197.788H37.0345V200H35.3685V197.788H34.1365V196.64H35.3685V195.646H34.1365V194.498H35.3685ZM37.0345 191.334V194.498H38.0985C38.6772 194.498 39.1252 194.363 39.4425 194.092C39.7598 193.821 39.9185 193.406 39.9185 192.846C39.9185 192.314 39.7738 191.931 39.4845 191.698C39.1952 191.455 38.7565 191.334 38.1685 191.334H37.0345Z" fill="#262633" />
        <path d="M149.588 182H148.3V173.6L146.172 175.672V174.258L148.538 171.962H149.588V182ZM158.765 179.256C158.765 179.704 158.672 180.11 158.485 180.474C158.308 180.829 158.061 181.132 157.743 181.384C157.435 181.627 157.062 181.813 156.623 181.944C156.194 182.075 155.727 182.14 155.223 182.14C154.701 182.14 154.22 182.079 153.781 181.958C153.352 181.827 152.979 181.641 152.661 181.398C152.344 181.146 152.097 180.847 151.919 180.502C151.742 180.147 151.653 179.746 151.653 179.298C151.653 178.654 151.831 178.108 152.185 177.66C152.549 177.212 153.035 176.881 153.641 176.666C153.137 176.479 152.741 176.199 152.451 175.826C152.162 175.443 152.017 174.967 152.017 174.398C152.017 173.987 152.097 173.623 152.255 173.306C152.414 172.989 152.638 172.723 152.927 172.508C153.217 172.284 153.553 172.116 153.935 172.004C154.327 171.892 154.757 171.836 155.223 171.836C155.671 171.836 156.091 171.892 156.483 172.004C156.875 172.107 157.216 172.265 157.505 172.48C157.795 172.695 158.019 172.961 158.177 173.278C158.345 173.586 158.429 173.95 158.429 174.37C158.429 174.939 158.28 175.42 157.981 175.812C157.683 176.195 157.286 176.479 156.791 176.666C157.389 176.871 157.865 177.193 158.219 177.632C158.583 178.061 158.765 178.603 158.765 179.256ZM155.223 176.162C155.783 176.162 156.245 176.022 156.609 175.742C156.983 175.453 157.169 175.056 157.169 174.552C157.169 174.048 156.983 173.656 156.609 173.376C156.245 173.087 155.783 172.942 155.223 172.942C154.943 172.942 154.687 172.979 154.453 173.054C154.22 173.129 154.015 173.236 153.837 173.376C153.66 173.507 153.52 173.675 153.417 173.88C153.324 174.076 153.277 174.3 153.277 174.552C153.277 174.804 153.324 175.033 153.417 175.238C153.52 175.434 153.66 175.602 153.837 175.742C154.015 175.873 154.22 175.975 154.453 176.05C154.687 176.125 154.943 176.162 155.223 176.162ZM155.223 181.034C155.541 181.034 155.835 180.992 156.105 180.908C156.385 180.815 156.628 180.689 156.833 180.53C157.039 180.362 157.197 180.157 157.309 179.914C157.421 179.671 157.477 179.396 157.477 179.088C157.477 178.78 157.421 178.505 157.309 178.262C157.197 178.019 157.039 177.819 156.833 177.66C156.628 177.492 156.385 177.366 156.105 177.282C155.835 177.189 155.541 177.142 155.223 177.142C154.887 177.142 154.579 177.189 154.299 177.282C154.029 177.366 153.791 177.492 153.585 177.66C153.38 177.819 153.221 178.019 153.109 178.262C152.997 178.505 152.941 178.78 152.941 179.088C152.941 179.396 152.997 179.671 153.109 179.914C153.221 180.157 153.38 180.362 153.585 180.53C153.791 180.689 154.029 180.815 154.299 180.908C154.579 180.992 154.887 181.034 155.223 181.034ZM171.987 178.36C171.987 178.967 171.884 179.499 171.679 179.956C171.473 180.413 171.193 180.801 170.839 181.118C170.493 181.435 170.083 181.678 169.607 181.846C169.131 182.005 168.627 182.093 168.095 182.112V184.478H166.863V182.112C166.312 182.093 165.799 182 165.323 181.832C164.856 181.664 164.445 181.426 164.091 181.118C163.736 180.801 163.456 180.413 163.251 179.956C163.055 179.499 162.957 178.967 162.957 178.36C162.957 177.763 163.059 177.235 163.265 176.778C163.47 176.311 163.75 175.924 164.105 175.616C164.459 175.299 164.87 175.061 165.337 174.902C165.813 174.734 166.321 174.641 166.863 174.622V171.822H168.095V174.622C168.636 174.641 169.14 174.734 169.607 174.902C170.083 175.07 170.493 175.313 170.839 175.63C171.193 175.938 171.473 176.321 171.679 176.778C171.884 177.235 171.987 177.763 171.987 178.36ZM170.727 178.36C170.727 177.912 170.657 177.525 170.517 177.198C170.386 176.871 170.199 176.601 169.957 176.386C169.723 176.171 169.448 176.008 169.131 175.896C168.813 175.775 168.468 175.705 168.095 175.686V181.034C168.468 181.015 168.813 180.95 169.131 180.838C169.457 180.717 169.737 180.549 169.971 180.334C170.204 180.119 170.386 179.849 170.517 179.522C170.657 179.195 170.727 178.808 170.727 178.36ZM164.217 178.36C164.217 178.808 164.282 179.195 164.413 179.522C164.553 179.849 164.739 180.124 164.973 180.348C165.215 180.563 165.495 180.726 165.813 180.838C166.139 180.95 166.489 181.015 166.863 181.034V175.686C166.48 175.705 166.125 175.775 165.799 175.896C165.481 176.008 165.206 176.176 164.973 176.4C164.739 176.615 164.553 176.885 164.413 177.212C164.282 177.539 164.217 177.921 164.217 178.36ZM179.278 181.384C179.176 181.459 179.05 181.538 178.9 181.622C178.751 181.706 178.569 181.79 178.354 181.874C178.14 181.949 177.897 182.009 177.626 182.056C177.356 182.112 177.052 182.14 176.716 182.14C175.494 182.14 174.565 181.809 173.93 181.146C173.296 180.483 172.978 179.555 172.978 178.36C172.978 177.772 173.062 177.245 173.23 176.778C173.408 176.311 173.65 175.919 173.958 175.602C174.266 175.275 174.63 175.028 175.05 174.86C175.47 174.683 175.928 174.594 176.422 174.594C176.945 174.594 177.412 174.683 177.822 174.86C178.233 175.037 178.569 175.299 178.83 175.644C179.101 175.989 179.283 176.419 179.376 176.932C179.479 177.436 179.479 178.024 179.376 178.696H174.252C174.299 179.48 174.532 180.068 174.952 180.46C175.372 180.843 175.998 181.034 176.828 181.034C177.388 181.034 177.869 180.955 178.27 180.796C178.672 180.637 179.008 180.465 179.278 180.278V181.384ZM176.394 175.686C175.862 175.686 175.405 175.849 175.022 176.176C174.64 176.503 174.397 176.997 174.294 177.66H178.2C178.238 176.988 178.084 176.493 177.738 176.176C177.393 175.849 176.945 175.686 176.394 175.686ZM181.029 174.734H183.745C184.623 174.734 185.285 174.888 185.733 175.196C186.181 175.495 186.405 175.966 186.405 176.61C186.405 177.039 186.293 177.385 186.069 177.646C185.855 177.898 185.547 178.08 185.145 178.192C186.181 178.36 186.699 178.934 186.699 179.914C186.699 180.287 186.625 180.609 186.475 180.88C186.326 181.141 186.121 181.356 185.859 181.524C185.598 181.692 185.281 181.813 184.907 181.888C184.543 181.963 184.147 182 183.717 182H181.029V174.734ZM182.261 175.784V177.758H183.633C184.1 177.758 184.473 177.674 184.753 177.506C185.043 177.338 185.187 177.095 185.187 176.778C185.187 176.395 185.061 176.134 184.809 175.994C184.557 175.854 184.198 175.784 183.731 175.784H182.261ZM182.261 178.738V180.95H183.703C183.965 180.95 184.198 180.936 184.403 180.908C184.618 180.871 184.8 180.81 184.949 180.726C185.108 180.642 185.229 180.53 185.313 180.39C185.397 180.25 185.439 180.077 185.439 179.872C185.439 179.452 185.295 179.158 185.005 178.99C184.716 178.822 184.282 178.738 183.703 178.738H182.261Z" fill="#262633" />
        <path d="M152.78 197.116C152.78 197.583 152.691 198.003 152.514 198.376C152.337 198.74 152.085 199.057 151.758 199.328C151.431 199.589 151.039 199.79 150.582 199.93C150.125 200.07 149.616 200.14 149.056 200.14C148.356 200.14 147.759 200.061 147.264 199.902C146.779 199.743 146.382 199.547 146.074 199.314V197.746C146.391 198.007 146.783 198.245 147.25 198.46C147.717 198.665 148.286 198.768 148.958 198.768C149.63 198.768 150.148 198.619 150.512 198.32C150.876 198.021 151.058 197.611 151.058 197.088C151.058 196.024 150.367 195.492 148.986 195.492H147.726V194.078H149.042C149.555 194.078 149.971 193.952 150.288 193.7C150.605 193.439 150.764 193.07 150.764 192.594C150.764 192.165 150.61 191.829 150.302 191.586C149.994 191.334 149.546 191.208 148.958 191.208C148.351 191.208 147.833 191.311 147.404 191.516C146.975 191.712 146.587 191.955 146.242 192.244V190.69C146.569 190.429 146.965 190.219 147.432 190.06C147.899 189.901 148.468 189.822 149.14 189.822C149.644 189.822 150.097 189.887 150.498 190.018C150.909 190.149 151.254 190.331 151.534 190.564C151.823 190.797 152.043 191.077 152.192 191.404C152.351 191.731 152.43 192.09 152.43 192.482C152.43 192.809 152.374 193.098 152.262 193.35C152.159 193.602 152.019 193.826 151.842 194.022C151.665 194.209 151.459 194.363 151.226 194.484C150.993 194.596 150.75 194.675 150.498 194.722C150.797 194.759 151.081 194.843 151.352 194.974C151.632 195.095 151.875 195.259 152.08 195.464C152.295 195.66 152.463 195.898 152.584 196.178C152.715 196.458 152.78 196.771 152.78 197.116ZM160.326 200H153.732V198.39C154.591 197.727 155.323 197.144 155.93 196.64C156.537 196.136 157.031 195.674 157.414 195.254C157.806 194.825 158.091 194.423 158.268 194.05C158.445 193.677 158.534 193.285 158.534 192.874C158.534 192.37 158.38 191.969 158.072 191.67C157.773 191.371 157.344 191.222 156.784 191.222C156.252 191.222 155.753 191.339 155.286 191.572C154.829 191.805 154.404 192.113 154.012 192.496V190.886C154.385 190.559 154.805 190.303 155.272 190.116C155.739 189.92 156.299 189.822 156.952 189.822C157.465 189.822 157.923 189.892 158.324 190.032C158.735 190.172 159.085 190.373 159.374 190.634C159.663 190.886 159.883 191.199 160.032 191.572C160.191 191.936 160.27 192.347 160.27 192.804C160.27 193.317 160.167 193.798 159.962 194.246C159.757 194.694 159.453 195.142 159.052 195.59C158.66 196.038 158.165 196.505 157.568 196.99C156.98 197.466 156.299 197.993 155.524 198.572H160.326V200ZM165.587 200.14C165.008 200.14 164.467 200.033 163.963 199.818C163.459 199.594 163.02 199.267 162.647 198.838C162.273 198.409 161.979 197.872 161.765 197.228C161.55 196.584 161.443 195.833 161.443 194.974C161.443 194.125 161.55 193.378 161.765 192.734C161.979 192.09 162.273 191.553 162.647 191.124C163.02 190.695 163.459 190.373 163.963 190.158C164.467 189.943 165.008 189.836 165.587 189.836C166.165 189.836 166.702 189.943 167.197 190.158C167.701 190.373 168.139 190.695 168.513 191.124C168.886 191.544 169.175 192.076 169.381 192.72C169.595 193.355 169.703 194.097 169.703 194.946C169.703 195.795 169.595 196.542 169.381 197.186C169.175 197.83 168.886 198.371 168.513 198.81C168.139 199.249 167.701 199.58 167.197 199.804C166.702 200.028 166.165 200.14 165.587 200.14ZM165.573 198.782C165.918 198.782 166.24 198.717 166.539 198.586C166.837 198.446 167.094 198.227 167.309 197.928C167.533 197.629 167.705 197.242 167.827 196.766C167.957 196.281 168.023 195.688 168.023 194.988C168.023 194.288 167.957 193.7 167.827 193.224C167.705 192.739 167.533 192.347 167.309 192.048C167.094 191.74 166.837 191.521 166.539 191.39C166.24 191.25 165.923 191.18 165.587 191.18C165.241 191.18 164.919 191.25 164.621 191.39C164.322 191.521 164.061 191.74 163.837 192.048C163.622 192.347 163.449 192.739 163.319 193.224C163.197 193.7 163.137 194.288 163.137 194.988C163.137 195.688 163.197 196.281 163.319 196.766C163.449 197.242 163.622 197.629 163.837 197.928C164.061 198.227 164.322 198.446 164.621 198.586C164.919 198.717 165.237 198.782 165.573 198.782ZM174.71 200H173.058V191.88L170.958 193.938V192.258L173.282 189.962H174.71V200ZM180.868 194.498V189.962H183.668C184.182 189.962 184.648 190.023 185.068 190.144C185.488 190.256 185.848 190.433 186.146 190.676C186.445 190.909 186.674 191.208 186.832 191.572C187 191.927 187.084 192.347 187.084 192.832C187.084 193.336 186.996 193.765 186.818 194.12C186.65 194.475 186.412 194.764 186.104 194.988C185.796 195.212 185.428 195.38 184.998 195.492C184.569 195.595 184.098 195.646 183.584 195.646H182.534V196.64H185.53V197.788H182.534V200H180.868V197.788H179.636V196.64H180.868V195.646H179.636V194.498H180.868ZM182.534 191.334V194.498H183.598C184.177 194.498 184.625 194.363 184.942 194.092C185.26 193.821 185.418 193.406 185.418 192.846C185.418 192.314 185.274 191.931 184.984 191.698C184.695 191.455 184.256 191.334 183.668 191.334H182.534Z" fill="#262633" />
        <path d="M305.266 182H298.728V180.67C299.587 179.979 300.329 179.368 300.954 178.836C301.589 178.304 302.111 177.814 302.522 177.366C302.942 176.918 303.25 176.493 303.446 176.092C303.651 175.691 303.754 175.271 303.754 174.832C303.754 174.281 303.586 173.838 303.25 173.502C302.914 173.157 302.424 172.984 301.78 172.984C301.229 172.984 300.721 173.115 300.254 173.376C299.787 173.628 299.367 173.959 298.994 174.37V172.956C299.349 172.601 299.755 172.326 300.212 172.13C300.669 171.925 301.206 171.822 301.822 171.822C302.345 171.822 302.811 171.892 303.222 172.032C303.633 172.172 303.978 172.368 304.258 172.62C304.538 172.872 304.748 173.175 304.888 173.53C305.037 173.885 305.112 174.277 305.112 174.706C305.112 175.247 305 175.756 304.776 176.232C304.561 176.708 304.244 177.184 303.824 177.66C303.404 178.127 302.886 178.617 302.27 179.13C301.663 179.634 300.968 180.189 300.184 180.796H305.266V182ZM313.453 179.256C313.453 179.704 313.36 180.11 313.173 180.474C312.996 180.829 312.748 181.132 312.431 181.384C312.123 181.627 311.75 181.813 311.311 181.944C310.882 182.075 310.415 182.14 309.911 182.14C309.388 182.14 308.908 182.079 308.469 181.958C308.04 181.827 307.666 181.641 307.349 181.398C307.032 181.146 306.784 180.847 306.607 180.502C306.43 180.147 306.341 179.746 306.341 179.298C306.341 178.654 306.518 178.108 306.873 177.66C307.237 177.212 307.722 176.881 308.329 176.666C307.825 176.479 307.428 176.199 307.139 175.826C306.85 175.443 306.705 174.967 306.705 174.398C306.705 173.987 306.784 173.623 306.943 173.306C307.102 172.989 307.326 172.723 307.615 172.508C307.904 172.284 308.24 172.116 308.623 172.004C309.015 171.892 309.444 171.836 309.911 171.836C310.359 171.836 310.779 171.892 311.171 172.004C311.563 172.107 311.904 172.265 312.193 172.48C312.482 172.695 312.706 172.961 312.865 173.278C313.033 173.586 313.117 173.95 313.117 174.37C313.117 174.939 312.968 175.42 312.669 175.812C312.37 176.195 311.974 176.479 311.479 176.666C312.076 176.871 312.552 177.193 312.907 177.632C313.271 178.061 313.453 178.603 313.453 179.256ZM309.911 176.162C310.471 176.162 310.933 176.022 311.297 175.742C311.67 175.453 311.857 175.056 311.857 174.552C311.857 174.048 311.67 173.656 311.297 173.376C310.933 173.087 310.471 172.942 309.911 172.942C309.631 172.942 309.374 172.979 309.141 173.054C308.908 173.129 308.702 173.236 308.525 173.376C308.348 173.507 308.208 173.675 308.105 173.88C308.012 174.076 307.965 174.3 307.965 174.552C307.965 174.804 308.012 175.033 308.105 175.238C308.208 175.434 308.348 175.602 308.525 175.742C308.702 175.873 308.908 175.975 309.141 176.05C309.374 176.125 309.631 176.162 309.911 176.162ZM309.911 181.034C310.228 181.034 310.522 180.992 310.793 180.908C311.073 180.815 311.316 180.689 311.521 180.53C311.726 180.362 311.885 180.157 311.997 179.914C312.109 179.671 312.165 179.396 312.165 179.088C312.165 178.78 312.109 178.505 311.997 178.262C311.885 178.019 311.726 177.819 311.521 177.66C311.316 177.492 311.073 177.366 310.793 177.282C310.522 177.189 310.228 177.142 309.911 177.142C309.575 177.142 309.267 177.189 308.987 177.282C308.716 177.366 308.478 177.492 308.273 177.66C308.068 177.819 307.909 178.019 307.797 178.262C307.685 178.505 307.629 178.78 307.629 179.088C307.629 179.396 307.685 179.671 307.797 179.914C307.909 180.157 308.068 180.362 308.273 180.53C308.478 180.689 308.716 180.815 308.987 180.908C309.267 180.992 309.575 181.034 309.911 181.034ZM326.674 178.36C326.674 178.967 326.572 179.499 326.366 179.956C326.161 180.413 325.881 180.801 325.526 181.118C325.181 181.435 324.77 181.678 324.294 181.846C323.818 182.005 323.314 182.093 322.782 182.112V184.478H321.55V182.112C321 182.093 320.486 182 320.01 181.832C319.544 181.664 319.133 181.426 318.778 181.118C318.424 180.801 318.144 180.413 317.938 179.956C317.742 179.499 317.644 178.967 317.644 178.36C317.644 177.763 317.747 177.235 317.952 176.778C318.158 176.311 318.438 175.924 318.792 175.616C319.147 175.299 319.558 175.061 320.024 174.902C320.5 174.734 321.009 174.641 321.55 174.622V171.822H322.782V174.622C323.324 174.641 323.828 174.734 324.294 174.902C324.77 175.07 325.181 175.313 325.526 175.63C325.881 175.938 326.161 176.321 326.366 176.778C326.572 177.235 326.674 177.763 326.674 178.36ZM325.414 178.36C325.414 177.912 325.344 177.525 325.204 177.198C325.074 176.871 324.887 176.601 324.644 176.386C324.411 176.171 324.136 176.008 323.818 175.896C323.501 175.775 323.156 175.705 322.782 175.686V181.034C323.156 181.015 323.501 180.95 323.818 180.838C324.145 180.717 324.425 180.549 324.658 180.334C324.892 180.119 325.074 179.849 325.204 179.522C325.344 179.195 325.414 178.808 325.414 178.36ZM318.904 178.36C318.904 178.808 318.97 179.195 319.1 179.522C319.24 179.849 319.427 180.124 319.66 180.348C319.903 180.563 320.183 180.726 320.5 180.838C320.827 180.95 321.177 181.015 321.55 181.034V175.686C321.168 175.705 320.813 175.775 320.486 175.896C320.169 176.008 319.894 176.176 319.66 176.4C319.427 176.615 319.24 176.885 319.1 177.212C318.97 177.539 318.904 177.921 318.904 178.36ZM333.966 181.384C333.863 181.459 333.737 181.538 333.588 181.622C333.438 181.706 333.256 181.79 333.042 181.874C332.827 181.949 332.584 182.009 332.314 182.056C332.043 182.112 331.74 182.14 331.404 182.14C330.181 182.14 329.252 181.809 328.618 181.146C327.983 180.483 327.666 179.555 327.666 178.36C327.666 177.772 327.75 177.245 327.918 176.778C328.095 176.311 328.338 175.919 328.646 175.602C328.954 175.275 329.318 175.028 329.738 174.86C330.158 174.683 330.615 174.594 331.11 174.594C331.632 174.594 332.099 174.683 332.51 174.86C332.92 175.037 333.256 175.299 333.518 175.644C333.788 175.989 333.97 176.419 334.064 176.932C334.166 177.436 334.166 178.024 334.064 178.696H328.94C328.986 179.48 329.22 180.068 329.64 180.46C330.06 180.843 330.685 181.034 331.516 181.034C332.076 181.034 332.556 180.955 332.958 180.796C333.359 180.637 333.695 180.465 333.966 180.278V181.384ZM331.082 175.686C330.55 175.686 330.092 175.849 329.71 176.176C329.327 176.503 329.084 176.997 328.982 177.66H332.888C332.925 176.988 332.771 176.493 332.426 176.176C332.08 175.849 331.632 175.686 331.082 175.686ZM335.717 174.734H338.433C339.31 174.734 339.973 174.888 340.421 175.196C340.869 175.495 341.093 175.966 341.093 176.61C341.093 177.039 340.981 177.385 340.757 177.646C340.542 177.898 340.234 178.08 339.833 178.192C340.869 178.36 341.387 178.934 341.387 179.914C341.387 180.287 341.312 180.609 341.163 180.88C341.014 181.141 340.808 181.356 340.547 181.524C340.286 181.692 339.968 181.813 339.595 181.888C339.231 181.963 338.834 182 338.405 182H335.717V174.734ZM336.949 175.784V177.758H338.321C338.788 177.758 339.161 177.674 339.441 177.506C339.73 177.338 339.875 177.095 339.875 176.778C339.875 176.395 339.749 176.134 339.497 175.994C339.245 175.854 338.886 175.784 338.419 175.784H336.949ZM336.949 178.738V180.95H338.391C338.652 180.95 338.886 180.936 339.091 180.908C339.306 180.871 339.488 180.81 339.637 180.726C339.796 180.642 339.917 180.53 340.001 180.39C340.085 180.25 340.127 180.077 340.127 179.872C340.127 179.452 339.982 179.158 339.693 178.99C339.404 178.822 338.97 178.738 338.391 178.738H336.949Z" fill="#262633" />
        <path d="M305.28 197.116C305.28 197.583 305.191 198.003 305.014 198.376C304.837 198.74 304.585 199.057 304.258 199.328C303.931 199.589 303.539 199.79 303.082 199.93C302.625 200.07 302.116 200.14 301.556 200.14C300.856 200.14 300.259 200.061 299.764 199.902C299.279 199.743 298.882 199.547 298.574 199.314V197.746C298.891 198.007 299.283 198.245 299.75 198.46C300.217 198.665 300.786 198.768 301.458 198.768C302.13 198.768 302.648 198.619 303.012 198.32C303.376 198.021 303.558 197.611 303.558 197.088C303.558 196.024 302.867 195.492 301.486 195.492H300.226V194.078H301.542C302.055 194.078 302.471 193.952 302.788 193.7C303.105 193.439 303.264 193.07 303.264 192.594C303.264 192.165 303.11 191.829 302.802 191.586C302.494 191.334 302.046 191.208 301.458 191.208C300.851 191.208 300.333 191.311 299.904 191.516C299.475 191.712 299.087 191.955 298.742 192.244V190.69C299.069 190.429 299.465 190.219 299.932 190.06C300.399 189.901 300.968 189.822 301.64 189.822C302.144 189.822 302.597 189.887 302.998 190.018C303.409 190.149 303.754 190.331 304.034 190.564C304.323 190.797 304.543 191.077 304.692 191.404C304.851 191.731 304.93 192.09 304.93 192.482C304.93 192.809 304.874 193.098 304.762 193.35C304.659 193.602 304.519 193.826 304.342 194.022C304.165 194.209 303.959 194.363 303.726 194.484C303.493 194.596 303.25 194.675 302.998 194.722C303.297 194.759 303.581 194.843 303.852 194.974C304.132 195.095 304.375 195.259 304.58 195.464C304.795 195.66 304.963 195.898 305.084 196.178C305.215 196.458 305.28 196.771 305.28 197.116ZM312.826 200H306.232V198.39C307.091 197.727 307.823 197.144 308.43 196.64C309.037 196.136 309.531 195.674 309.914 195.254C310.306 194.825 310.591 194.423 310.768 194.05C310.945 193.677 311.034 193.285 311.034 192.874C311.034 192.37 310.88 191.969 310.572 191.67C310.273 191.371 309.844 191.222 309.284 191.222C308.752 191.222 308.253 191.339 307.786 191.572C307.329 191.805 306.904 192.113 306.512 192.496V190.886C306.885 190.559 307.305 190.303 307.772 190.116C308.239 189.92 308.799 189.822 309.452 189.822C309.965 189.822 310.423 189.892 310.824 190.032C311.235 190.172 311.585 190.373 311.874 190.634C312.163 190.886 312.383 191.199 312.532 191.572C312.691 191.936 312.77 192.347 312.77 192.804C312.77 193.317 312.667 193.798 312.462 194.246C312.257 194.694 311.953 195.142 311.552 195.59C311.16 196.038 310.665 196.505 310.068 196.99C309.48 197.466 308.799 197.993 308.024 198.572H312.826V200ZM318.087 200.14C317.508 200.14 316.967 200.033 316.463 199.818C315.959 199.594 315.52 199.267 315.147 198.838C314.773 198.409 314.479 197.872 314.265 197.228C314.05 196.584 313.943 195.833 313.943 194.974C313.943 194.125 314.05 193.378 314.265 192.734C314.479 192.09 314.773 191.553 315.147 191.124C315.52 190.695 315.959 190.373 316.463 190.158C316.967 189.943 317.508 189.836 318.087 189.836C318.665 189.836 319.202 189.943 319.697 190.158C320.201 190.373 320.639 190.695 321.013 191.124C321.386 191.544 321.675 192.076 321.881 192.72C322.095 193.355 322.203 194.097 322.203 194.946C322.203 195.795 322.095 196.542 321.881 197.186C321.675 197.83 321.386 198.371 321.013 198.81C320.639 199.249 320.201 199.58 319.697 199.804C319.202 200.028 318.665 200.14 318.087 200.14ZM318.073 198.782C318.418 198.782 318.74 198.717 319.039 198.586C319.337 198.446 319.594 198.227 319.809 197.928C320.033 197.629 320.205 197.242 320.327 196.766C320.457 196.281 320.523 195.688 320.523 194.988C320.523 194.288 320.457 193.7 320.327 193.224C320.205 192.739 320.033 192.347 319.809 192.048C319.594 191.74 319.337 191.521 319.039 191.39C318.74 191.25 318.423 191.18 318.087 191.18C317.741 191.18 317.419 191.25 317.121 191.39C316.822 191.521 316.561 191.74 316.337 192.048C316.122 192.347 315.949 192.739 315.819 193.224C315.697 193.7 315.637 194.288 315.637 194.988C315.637 195.688 315.697 196.281 315.819 196.766C315.949 197.242 316.122 197.629 316.337 197.928C316.561 198.227 316.822 198.446 317.121 198.586C317.419 198.717 317.737 198.782 318.073 198.782ZM327.21 200H325.558V191.88L323.458 193.938V192.258L325.782 189.962H327.21V200ZM333.368 194.498V189.962H336.168C336.682 189.962 337.148 190.023 337.568 190.144C337.988 190.256 338.348 190.433 338.646 190.676C338.945 190.909 339.174 191.208 339.332 191.572C339.5 191.927 339.584 192.347 339.584 192.832C339.584 193.336 339.496 193.765 339.318 194.12C339.15 194.475 338.912 194.764 338.604 194.988C338.296 195.212 337.928 195.38 337.498 195.492C337.069 195.595 336.598 195.646 336.084 195.646H335.034V196.64H338.03V197.788H335.034V200H333.368V197.788H332.136V196.64H333.368V195.646H332.136V194.498H333.368ZM335.034 191.334V194.498H336.098C336.677 194.498 337.125 194.363 337.442 194.092C337.76 193.821 337.918 193.406 337.918 192.846C337.918 192.314 337.774 191.931 337.484 191.698C337.195 191.455 336.756 191.334 336.168 191.334H335.034Z" fill="#262633" />
        <path d="M447.588 182H446.3V173.6L444.172 175.672V174.258L446.538 171.962H447.588V182ZM453.811 182.14C453.251 182.14 452.724 182.033 452.229 181.818C451.735 181.603 451.301 181.281 450.927 180.852C450.563 180.423 450.274 179.886 450.059 179.242C449.845 178.589 449.737 177.833 449.737 176.974C449.737 176.115 449.845 175.364 450.059 174.72C450.274 174.076 450.563 173.544 450.927 173.124C451.301 172.695 451.735 172.373 452.229 172.158C452.724 171.943 453.251 171.836 453.811 171.836C454.371 171.836 454.899 171.943 455.393 172.158C455.888 172.363 456.317 172.681 456.681 173.11C457.055 173.53 457.344 174.062 457.549 174.706C457.764 175.341 457.871 176.087 457.871 176.946C457.871 177.805 457.764 178.556 457.549 179.2C457.344 179.844 457.055 180.385 456.681 180.824C456.317 181.263 455.888 181.594 455.393 181.818C454.899 182.033 454.371 182.14 453.811 182.14ZM453.797 181.034C454.18 181.034 454.539 180.964 454.875 180.824C455.211 180.684 455.501 180.455 455.743 180.138C455.995 179.811 456.191 179.391 456.331 178.878C456.481 178.365 456.555 177.735 456.555 176.988C456.555 176.241 456.481 175.611 456.331 175.098C456.191 174.585 455.995 174.169 455.743 173.852C455.501 173.525 455.211 173.292 454.875 173.152C454.549 173.012 454.194 172.942 453.811 172.942C453.429 172.942 453.069 173.012 452.733 173.152C452.397 173.292 452.103 173.525 451.851 173.852C451.599 174.169 451.399 174.585 451.249 175.098C451.109 175.611 451.039 176.241 451.039 176.988C451.039 177.735 451.109 178.365 451.249 178.878C451.399 179.391 451.595 179.811 451.837 180.138C452.089 180.455 452.383 180.684 452.719 180.824C453.055 180.964 453.415 181.034 453.797 181.034ZM469.594 176.162L467.13 181.188H466.15L463.826 176.134V182H462.664V174.734H464.498L466.724 179.606L469.104 174.734H470.812V182H469.594V176.162ZM477.078 180.614C476.994 180.782 476.887 180.959 476.756 181.146C476.626 181.323 476.462 181.487 476.266 181.636C476.07 181.785 475.837 181.907 475.566 182C475.305 182.093 474.997 182.14 474.642 182.14C473.989 182.14 473.462 181.958 473.06 181.594C472.659 181.221 472.458 180.689 472.458 179.998C472.458 179.205 472.734 178.621 473.284 178.248C473.844 177.875 474.638 177.688 475.664 177.688H477.022V177.086C477.022 176.582 476.892 176.223 476.63 176.008C476.369 175.793 475.921 175.686 475.286 175.686C474.838 175.686 474.414 175.761 474.012 175.91C473.611 176.05 473.252 176.213 472.934 176.4V175.294C473.196 175.135 473.546 174.981 473.984 174.832C474.432 174.673 474.922 174.594 475.454 174.594C476.369 174.594 477.064 174.785 477.54 175.168C478.016 175.541 478.254 176.125 478.254 176.918V180.824C478.254 180.908 478.254 181.006 478.254 181.118C478.264 181.221 478.268 181.328 478.268 181.44C478.278 181.552 478.287 181.659 478.296 181.762C478.306 181.855 478.315 181.935 478.324 182H477.204C477.176 181.869 477.148 181.687 477.12 181.454C477.102 181.211 477.092 181.001 477.092 180.824L477.078 180.614ZM474.908 181.034C475.291 181.034 475.618 180.955 475.888 180.796C476.159 180.637 476.378 180.455 476.546 180.25C476.714 180.035 476.836 179.83 476.91 179.634C476.985 179.429 477.022 179.284 477.022 179.2V178.668H475.79C475.053 178.668 474.516 178.775 474.18 178.99C473.854 179.195 473.69 179.508 473.69 179.928C473.69 180.255 473.788 180.521 473.984 180.726C474.18 180.931 474.488 181.034 474.908 181.034ZM483.846 182.14C483.286 182.14 482.8 182.009 482.39 181.748C481.988 181.487 481.666 181.127 481.424 180.67V184.478H480.192V174.734H481.27L481.396 176.148C481.638 175.672 481.965 175.294 482.376 175.014C482.786 174.734 483.295 174.594 483.902 174.594C484.322 174.594 484.723 174.673 485.106 174.832C485.498 174.981 485.838 175.215 486.128 175.532C486.426 175.84 486.66 176.232 486.828 176.708C487.005 177.175 487.094 177.725 487.094 178.36C487.094 179.004 487.005 179.564 486.828 180.04C486.65 180.507 486.412 180.899 486.114 181.216C485.815 181.524 485.47 181.757 485.078 181.916C484.686 182.065 484.275 182.14 483.846 182.14ZM483.664 181.034C484.308 181.034 484.826 180.815 485.218 180.376C485.619 179.928 485.82 179.256 485.82 178.36C485.82 177.483 485.619 176.82 485.218 176.372C484.826 175.915 484.308 175.686 483.664 175.686C483.346 175.686 483.048 175.742 482.768 175.854C482.497 175.966 482.259 176.134 482.054 176.358C481.858 176.573 481.699 176.848 481.578 177.184C481.466 177.52 481.41 177.912 481.41 178.36C481.41 178.808 481.466 179.2 481.578 179.536C481.699 179.872 481.858 180.152 482.054 180.376C482.259 180.6 482.497 180.768 482.768 180.88C483.048 180.983 483.346 181.034 483.664 181.034ZM491.375 175.784V182H490.143V175.784H487.861V174.734H493.699V175.784H491.375Z" fill="#262633" />
        <path d="M450.78 197.116C450.78 197.583 450.691 198.003 450.514 198.376C450.337 198.74 450.085 199.057 449.758 199.328C449.431 199.589 449.039 199.79 448.582 199.93C448.125 200.07 447.616 200.14 447.056 200.14C446.356 200.14 445.759 200.061 445.264 199.902C444.779 199.743 444.382 199.547 444.074 199.314V197.746C444.391 198.007 444.783 198.245 445.25 198.46C445.717 198.665 446.286 198.768 446.958 198.768C447.63 198.768 448.148 198.619 448.512 198.32C448.876 198.021 449.058 197.611 449.058 197.088C449.058 196.024 448.367 195.492 446.986 195.492H445.726V194.078H447.042C447.555 194.078 447.971 193.952 448.288 193.7C448.605 193.439 448.764 193.07 448.764 192.594C448.764 192.165 448.61 191.829 448.302 191.586C447.994 191.334 447.546 191.208 446.958 191.208C446.351 191.208 445.833 191.311 445.404 191.516C444.975 191.712 444.587 191.955 444.242 192.244V190.69C444.569 190.429 444.965 190.219 445.432 190.06C445.899 189.901 446.468 189.822 447.14 189.822C447.644 189.822 448.097 189.887 448.498 190.018C448.909 190.149 449.254 190.331 449.534 190.564C449.823 190.797 450.043 191.077 450.192 191.404C450.351 191.731 450.43 192.09 450.43 192.482C450.43 192.809 450.374 193.098 450.262 193.35C450.159 193.602 450.019 193.826 449.842 194.022C449.665 194.209 449.459 194.363 449.226 194.484C448.993 194.596 448.75 194.675 448.498 194.722C448.797 194.759 449.081 194.843 449.352 194.974C449.632 195.095 449.875 195.259 450.08 195.464C450.295 195.66 450.463 195.898 450.584 196.178C450.715 196.458 450.78 196.771 450.78 197.116ZM458.326 200H451.732V198.39C452.591 197.727 453.323 197.144 453.93 196.64C454.537 196.136 455.031 195.674 455.414 195.254C455.806 194.825 456.091 194.423 456.268 194.05C456.445 193.677 456.534 193.285 456.534 192.874C456.534 192.37 456.38 191.969 456.072 191.67C455.773 191.371 455.344 191.222 454.784 191.222C454.252 191.222 453.753 191.339 453.286 191.572C452.829 191.805 452.404 192.113 452.012 192.496V190.886C452.385 190.559 452.805 190.303 453.272 190.116C453.739 189.92 454.299 189.822 454.952 189.822C455.465 189.822 455.923 189.892 456.324 190.032C456.735 190.172 457.085 190.373 457.374 190.634C457.663 190.886 457.883 191.199 458.032 191.572C458.191 191.936 458.27 192.347 458.27 192.804C458.27 193.317 458.167 193.798 457.962 194.246C457.757 194.694 457.453 195.142 457.052 195.59C456.66 196.038 456.165 196.505 455.568 196.99C454.98 197.466 454.299 197.993 453.524 198.572H458.326V200ZM463.587 200.14C463.008 200.14 462.467 200.033 461.963 199.818C461.459 199.594 461.02 199.267 460.647 198.838C460.273 198.409 459.979 197.872 459.765 197.228C459.55 196.584 459.443 195.833 459.443 194.974C459.443 194.125 459.55 193.378 459.765 192.734C459.979 192.09 460.273 191.553 460.647 191.124C461.02 190.695 461.459 190.373 461.963 190.158C462.467 189.943 463.008 189.836 463.587 189.836C464.165 189.836 464.702 189.943 465.197 190.158C465.701 190.373 466.139 190.695 466.513 191.124C466.886 191.544 467.175 192.076 467.381 192.72C467.595 193.355 467.703 194.097 467.703 194.946C467.703 195.795 467.595 196.542 467.381 197.186C467.175 197.83 466.886 198.371 466.513 198.81C466.139 199.249 465.701 199.58 465.197 199.804C464.702 200.028 464.165 200.14 463.587 200.14ZM463.573 198.782C463.918 198.782 464.24 198.717 464.539 198.586C464.837 198.446 465.094 198.227 465.309 197.928C465.533 197.629 465.705 197.242 465.827 196.766C465.957 196.281 466.023 195.688 466.023 194.988C466.023 194.288 465.957 193.7 465.827 193.224C465.705 192.739 465.533 192.347 465.309 192.048C465.094 191.74 464.837 191.521 464.539 191.39C464.24 191.25 463.923 191.18 463.587 191.18C463.241 191.18 462.919 191.25 462.621 191.39C462.322 191.521 462.061 191.74 461.837 192.048C461.622 192.347 461.449 192.739 461.319 193.224C461.197 193.7 461.137 194.288 461.137 194.988C461.137 195.688 461.197 196.281 461.319 196.766C461.449 197.242 461.622 197.629 461.837 197.928C462.061 198.227 462.322 198.446 462.621 198.586C462.919 198.717 463.237 198.782 463.573 198.782ZM472.71 200H471.058V191.88L468.958 193.938V192.258L471.282 189.962H472.71V200ZM478.868 194.498V189.962H481.668C482.182 189.962 482.648 190.023 483.068 190.144C483.488 190.256 483.848 190.433 484.146 190.676C484.445 190.909 484.674 191.208 484.832 191.572C485 191.927 485.084 192.347 485.084 192.832C485.084 193.336 484.996 193.765 484.818 194.12C484.65 194.475 484.412 194.764 484.104 194.988C483.796 195.212 483.428 195.38 482.998 195.492C482.569 195.595 482.098 195.646 481.584 195.646H480.534V196.64H483.53V197.788H480.534V200H478.868V197.788H477.636V196.64H478.868V195.646H477.636V194.498H478.868ZM480.534 191.334V194.498H481.598C482.177 194.498 482.625 194.363 482.942 194.092C483.26 193.821 483.418 193.406 483.418 192.846C483.418 192.314 483.274 191.931 482.984 191.698C482.695 191.455 482.256 191.334 481.668 191.334H480.534Z" fill="#262633" />
    </g>
    <defs>
        <filter id="filter0_d_474_4184" x="-18" y="40" width="233" height="76" filterUnits="userSpaceOnUse" color-interpolation-filters="sRGB">
            <feFlood flood-opacity="0" result="BackgroundImageFix" />
            <feColorMatrix in="SourceAlpha" type="matrix" values="0 0 0 0 0 0 0 0 0 0 0 0 0 0 0 0 0 0 127 0" result="hardAlpha" />
            <feOffset dy="8" />
            <feGaussianBlur stdDeviation="10" />
            <feComposite in2="hardAlpha" operator="out" />
            <feColorMatrix type="matrix" values="0 0 0 0 0.458824 0 0 0 0 0.45098 0 0 0 0 0.435294 0 0 0 0.2 0" />
            <feBlend mode="normal" in2="BackgroundImageFix" result="effect1_dropShadow_474_4184" />
            <feBlend mode="normal" in="SourceGraphic" in2="effect1_dropShadow_474_4184" result="shape" />
        </filter>
        <linearGradient id="paint0_linear_474_4184" x1="143.75" y1="157" x2="6.2915e-07" y2="157" gradientUnits="userSpaceOnUse">
            <stop stop-color="#55D48E" />
            <stop offset="1" stop-color="#ADEBC9" />
        </linearGradient>
        <clipPath id="clip0_474_4184">
            <rect width="587" height="236" fill="white" />
        </clipPath>
    </defs>
</svg>